<svg xmlns="http://www.w3.org/2000/svg" width="72.193" height="44.717" viewBox="0 0 72.193 44.717">
  <g id="Component_16_1" data-name="Component 16 – 1" transform="translate(1.001 1)">
    <path id="Path_47" data-name="Path 47" d="M242.268,1103.779a14.519,14.519,0,0,0-4.472-.919c-8.47-.363-15.176,6.894-14.8,16.207a18.418,18.418,0,0,0,.591,3.939,6.705,6.705,0,0,0-2.33-.457,6.8,6.8,0,0,0-6.724,7.371,7.717,7.717,0,0,0,6.046,7.324l53.843-.052c.3,0,.6-.019.889-.046,5.53-.54,9.635-5.857,9.4-12.328-.251-6.812-5.233-12.488-11.223-12.678a9.4,9.4,0,0,0-4.187.83,17.011,17.011,0,0,0,.072-2.359c-.318-8.447-6.646-15.64-14.279-16.065q-.357-.02-.708-.02c-5.611,0-10.277,3.746-12.11,9.252" transform="translate(-214.523 -1094.527)" fill="none" stroke="#d1d4e2" stroke-width="2"/>
    <path id="Icon_awesome-key" data-name="Icon awesome-key" d="M22.188,7.627a7.631,7.631,0,0,1-9.05,7.494L12.1,16.292a1.04,1.04,0,0,1-.777.349H9.707v1.733a1.04,1.04,0,0,1-1.04,1.04H6.934v1.733a1.04,1.04,0,0,1-1.04,1.04H1.04A1.04,1.04,0,0,1,0,21.147V17.765a1.04,1.04,0,0,1,.3-.735l7.012-7.012A7.628,7.628,0,1,1,22.188,7.627Zm-7.627-2.08a2.08,2.08,0,1,0,2.08-2.08A2.08,2.08,0,0,0,14.561,5.547Z" transform="translate(24 11.621)" fill="#ff9800"/>
  </g>
</svg>
