<svg xmlns="http://www.w3.org/2000/svg" width="113.322" height="60.944" viewBox="0 0 113.322 60.944">
  <g id="Group_472" data-name="Group 472" transform="translate(-238.178 -3801.245)">
    <path id="Amazon-CloudFront_Icon_64_Squid" d="M58.119,54.912a3.209,3.209,0,1,0-3.209,3.209,3.212,3.212,0,0,0,3.209-3.209Zm2.139,0a5.348,5.348,0,1,1-5.348-5.348,5.354,5.354,0,0,1,5.348,5.348ZM31.67,39.478a3.209,3.209,0,1,0-3.209,3.209,3.212,3.212,0,0,0,3.209-3.209Zm2.139,0a5.348,5.348,0,1,1-5.348-5.348,5.354,5.354,0,0,1,5.348,5.348ZM41.658,22.7a3.209,3.209,0,1,0,3.209-3.209A3.212,3.212,0,0,0,41.658,22.7Zm-2.139,0a5.348,5.348,0,1,1,5.348,5.348A5.354,5.354,0,0,1,39.519,22.7ZM69.754,41.946A27.828,27.828,0,0,0,55.863,17.892,33.173,33.173,0,0,0,50.985,19.3l-.727-2.012c.968-.349,1.834-.631,2.668-.873a27.49,27.49,0,0,0-16.3-1.748,34.218,34.218,0,0,1,3.457,2.291l-1.293,1.7A35.618,35.618,0,0,0,33.6,15.433,27.836,27.836,0,0,0,14.335,38.875,37.356,37.356,0,0,1,21,38.128l.052,2.138a34.783,34.783,0,0,0-6.883.83c-.01.283-.029.57-.029.85A27.742,27.742,0,0,0,26.253,64.884a35.719,35.719,0,0,1-2.007-11.445,26.189,26.189,0,0,1,.743-5.651c.089-.422.179-.852.266-1.3l2.1.414c-.09.453-.182.893-.272,1.324a24.13,24.13,0,0,0-.7,5.212A35.459,35.459,0,0,0,29.17,66.634a27.586,27.586,0,0,0,21.345,1.744,35.832,35.832,0,0,0,2.543-6.433l2.055.6A38.161,38.161,0,0,1,53.4,67.269a27.16,27.16,0,0,0,4.892-2.858c-.369-.9-.765-1.8-1.2-2.68L59,60.774c.372.744.713,1.506,1.04,2.272a27.607,27.607,0,0,0,9.711-21.1Zm2.139,0A29.759,29.759,0,0,1,60.257,65.635a30.035,30.035,0,0,1-18.311,6.258A29.949,29.949,0,0,1,12,41.946c0-.734.019-1.292.063-1.809A29.98,29.98,0,0,1,33.391,13.247a29.919,29.919,0,0,1,23.19,2.581A29.974,29.974,0,0,1,71.893,41.946ZM39.074,26.4l-1.405-1.612a34.159,34.159,0,0,0-6.442,7.668l1.795,1.165A32.169,32.169,0,0,1,39.074,26.4Zm-3.25,13.865-.7,2.022a36.091,36.091,0,0,1,13.485,8.468l1.477-1.548a38.165,38.165,0,0,0-14.267-8.943Zm14.3-12.576a40.612,40.612,0,0,1,6.715,19.968l-2.135.133a38.512,38.512,0,0,0-6.368-18.927Z" transform="translate(226.178 3790.006)" fill="#d1d4e2" fill-rule="evenodd"/>
    <line id="Line_55" data-name="Line 55" x2="23" transform="translate(328.5 3809.411)" fill="none" stroke="#d1d4e2" stroke-width="2"/>
    <line id="Line_91" data-name="Line 91" x2="23" transform="translate(328.5 3831.411)" fill="none" stroke="#d1d4e2" stroke-width="2"/>
    <line id="Line_92" data-name="Line 92" x2="23" transform="translate(328.5 3853.411)" fill="none" stroke="#d1d4e2" stroke-width="2"/>
    <path id="Path_416" data-name="Path 416" d="M21.266,9.677V4.77a.529.529,0,0,0-.318-.486L14.595,1.543a.529.529,0,0,0-.424,0L7.818,4.284A.529.529,0,0,0,7.5,4.77V9.677a6.788,6.788,0,0,0,2.45,5.231l4.094,3.412a.529.529,0,0,0,.678,0l4.094-3.412a6.788,6.788,0,0,0,2.45-5.231Z" transform="translate(301.816 3799.746)" fill="#ff9800"/>
    <path id="Path_983" data-name="Path 983" d="M21.266,9.677V4.77a.529.529,0,0,0-.318-.486L14.595,1.543a.529.529,0,0,0-.424,0L7.818,4.284A.529.529,0,0,0,7.5,4.77V9.677a6.788,6.788,0,0,0,2.45,5.231l4.094,3.412a.529.529,0,0,0,.678,0l4.094-3.412a6.788,6.788,0,0,0,2.45-5.231Z" transform="translate(301.816 3821.746)" fill="#1f2649"/>
    <path id="Path_985" data-name="Path 985" d="M21.266,9.677V4.77a.529.529,0,0,0-.318-.486L14.595,1.543a.529.529,0,0,0-.424,0L7.818,4.284A.529.529,0,0,0,7.5,4.77V9.677a6.788,6.788,0,0,0,2.45,5.231l4.094,3.412a.529.529,0,0,0,.678,0l4.094-3.412a6.788,6.788,0,0,0,2.45-5.231Z" transform="translate(301.816 3843.746)" fill="#d1d4e2"/>
    <path id="Path_982" data-name="Path 982" d="M10490.166,4964.388l2.357,2.357,5.082-5.082" transform="translate(-10177.438 -1154.793)" fill="none" stroke="#fff" stroke-width="2"/>
    <path id="Path_984" data-name="Path 984" d="M10490.166,4964.388l2.357,2.357,5.082-5.082" transform="translate(-10177.438 -1132.793)" fill="none" stroke="#fff" stroke-width="2"/>
    <path id="Path_986" data-name="Path 986" d="M10490.166,4964.388l2.357,2.357,5.082-5.082" transform="translate(-10177.438 -1110.793)" fill="none" stroke="#fff" stroke-width="2"/>
  </g>
</svg>
