<svg xmlns="http://www.w3.org/2000/svg" width="56.514" height="69.217" viewBox="0 0 56.514 69.217">
  <g id="Component_17_1" data-name="Component 17 – 1" transform="translate(1 1.012)">
    <g id="Group_394" data-name="Group 394" transform="translate(-264.744 -3421.705)">
      <g id="Layer_2" data-name="Layer 2" transform="translate(262.684 3432.87)">
        <path id="Path_416" data-name="Path 416" d="M62.014,33.884V14.452a2.1,2.1,0,0,0-1.258-1.925L35.6,1.674a2.1,2.1,0,0,0-1.677,0L8.758,12.527A2.1,2.1,0,0,0,7.5,14.452V33.884A26.88,26.88,0,0,0,17.2,54.6L33.415,68.11a2.1,2.1,0,0,0,2.684,0L52.311,54.6a26.88,26.88,0,0,0,9.7-20.715Z" transform="translate(-5.44 -12.664)" fill="none" stroke="#d1d4e2" stroke-width="2"/>
      </g>
    </g>
    <g id="Group_396" data-name="Group 396" transform="translate(-883.5 -4406.451)">
      <line id="Line_73" data-name="Line 73" x2="5" transform="translate(911 4430.5) rotate(-90)" fill="none" stroke="#ff9800" stroke-linecap="round" stroke-width="2"/>
      <g id="Group_395" data-name="Group 395">
        <g id="Ellipse_174" data-name="Ellipse 174" transform="translate(902 4428)" fill="none" stroke="#ff9800" stroke-width="2">
          <circle cx="9" cy="9" r="9" stroke="none"/>
          <circle cx="9" cy="9" r="8" fill="none"/>
        </g>
        <line id="Line_71" data-name="Line 71" x2="5" transform="translate(917.5 4437)" fill="none" stroke="#ff9800" stroke-linecap="round" stroke-width="2"/>
        <line id="Line_72" data-name="Line 72" x2="5" transform="translate(899.5 4437)" fill="none" stroke="#ff9800" stroke-linecap="round" stroke-width="2"/>
        <line id="Line_74" data-name="Line 74" x2="5" transform="translate(911 4448.5) rotate(-90)" fill="none" stroke="#ff9800" stroke-linecap="round" stroke-width="2"/>
      </g>
    </g>
  </g>
</svg>
