<svg xmlns="http://www.w3.org/2000/svg" width="53" height="53" viewBox="0 0 53 53">
  <g id="Icon-Architecture_64_Arch_Amazon-CloudFront_64" data-name="Icon-Architecture/64/Arch_Amazon-CloudFront_64" transform="translate(-0.183)">
    <g id="Icon-Architecture-BG_64_Networking-Content-Delivery" data-name="Icon-Architecture-BG/64/Networking-Content-Delivery">
      <rect id="Rectangle" width="53" height="53" rx="26.5" transform="translate(0.183)" fill="#ff9800"/>
    </g>
    <path id="Amazon-CloudFront_Icon_64_Squid" d="M40.7,38.708a2,2,0,1,0-2,2,2,2,0,0,0,2-2Zm1.331,0a3.328,3.328,0,1,1-3.328-3.328,3.332,3.332,0,0,1,3.328,3.328ZM24.243,29.1a2,2,0,1,0-2,2,2,2,0,0,0,2-2Zm1.331,0a3.328,3.328,0,1,1-3.328-3.328A3.332,3.332,0,0,1,25.574,29.1Zm4.885-10.441a2,2,0,1,0,2-2,2,2,0,0,0-2,2Zm-1.331,0a3.328,3.328,0,1,1,3.328,3.328,3.332,3.332,0,0,1-3.328-3.328ZM47.945,30.638A17.32,17.32,0,0,0,39.3,15.667a20.646,20.646,0,0,0-3.036.875l-.453-1.252c.6-.217,1.142-.393,1.661-.543a17.11,17.11,0,0,0-10.145-1.088,21.3,21.3,0,0,1,2.151,1.426l-.8,1.06a22.168,22.168,0,0,0-3.229-2.008,17.325,17.325,0,0,0-11.991,14.59,23.25,23.25,0,0,1,4.148-.465l.033,1.331a21.648,21.648,0,0,0-4.284.517c-.006.176-.018.355-.018.529a17.266,17.266,0,0,0,7.54,14.276,22.231,22.231,0,0,1-1.249-7.123,16.3,16.3,0,0,1,.463-3.517c.055-.263.111-.531.166-.808l1.307.258c-.056.282-.113.556-.169.824a15.018,15.018,0,0,0-.435,3.244A22.069,22.069,0,0,0,22.686,46a17.169,17.169,0,0,0,13.285,1.086,22.3,22.3,0,0,0,1.583-4l1.279.371A23.752,23.752,0,0,1,37.767,46.4a16.9,16.9,0,0,0,3.045-1.779c-.23-.563-.476-1.123-.748-1.668l1.191-.6c.232.463.444.937.647,1.414a17.182,17.182,0,0,0,6.044-13.132Zm1.331,0a18.522,18.522,0,0,1-7.242,14.743,18.694,18.694,0,0,1-11.4,3.895A18.64,18.64,0,0,1,12,30.638c0-.457.012-.8.039-1.126A18.659,18.659,0,0,1,25.314,12.776a18.621,18.621,0,0,1,14.433,1.606,18.655,18.655,0,0,1,9.529,16.256ZM28.85,20.962l-.875-1a21.26,21.26,0,0,0-4.009,4.773l1.117.725a20.022,20.022,0,0,1,3.767-4.494Zm-2.023,8.629-.433,1.259a22.463,22.463,0,0,1,8.393,5.271l.919-.963a23.753,23.753,0,0,0-8.88-5.566Zm8.9-7.827a25.276,25.276,0,0,1,4.18,12.428l-1.329.083a23.97,23.97,0,0,0-3.963-11.78Z" transform="translate(-4.012 -4.012)" fill="#fff" fill-rule="evenodd"/>
  </g>
</svg>
