<svg xmlns="http://www.w3.org/2000/svg" width="125.892" height="125.892" viewBox="0 0 125.892 125.892">
  <path id="Amazon-CloudFront_Icon_64_Squid" d="M108.942,102.2a6.744,6.744,0,1,0-6.744,6.744,6.752,6.752,0,0,0,6.744-6.744Zm4.5,0a11.24,11.24,0,1,1-11.24-11.24,11.253,11.253,0,0,1,11.24,11.24ZM53.347,69.758A6.744,6.744,0,1,0,46.6,76.5a6.752,6.752,0,0,0,6.744-6.744Zm4.5,0A11.24,11.24,0,1,1,46.6,58.517a11.255,11.255,0,0,1,11.24,11.24ZM74.339,34.5a6.744,6.744,0,1,0,6.744-6.744A6.752,6.752,0,0,0,74.339,34.5Zm-4.5,0a11.24,11.24,0,1,1,11.24,11.24A11.255,11.255,0,0,1,69.843,34.5ZM133.4,74.946a58.5,58.5,0,0,0-29.2-50.562,69.728,69.728,0,0,0-10.253,2.954L92.416,23.11c2.035-.733,3.855-1.326,5.609-1.834A57.784,57.784,0,0,0,63.762,17.6a71.925,71.925,0,0,1,7.266,4.815L68.31,26A74.867,74.867,0,0,0,57.4,19.216a58.51,58.51,0,0,0-40.5,49.273,78.521,78.521,0,0,1,14.008-1.569l.11,4.494a73.113,73.113,0,0,0-14.469,1.745c-.02.6-.061,1.2-.061,1.787A58.312,58.312,0,0,0,41.96,123.161,75.08,75.08,0,0,1,37.741,99.1,55.049,55.049,0,0,1,39.3,87.225c.187-.888.375-1.792.56-2.729l4.413.87c-.189.953-.382,1.877-.571,2.783A50.72,50.72,0,0,0,42.237,99.1c0,8.785,1.929,17.87,5.854,27.735a57.985,57.985,0,0,0,44.867,3.667A75.318,75.318,0,0,0,98.3,116.983l4.319,1.252a80.213,80.213,0,0,1-3.6,9.939,57.088,57.088,0,0,0,10.283-6.007c-.776-1.9-1.607-3.793-2.527-5.634l4.022-2.012c.782,1.565,1.5,3.165,2.185,4.775A58.028,58.028,0,0,0,133.4,74.946Zm4.5,0a62.552,62.552,0,0,1-24.457,49.793,63.133,63.133,0,0,1-38.489,13.153A62.951,62.951,0,0,1,12,74.946c0-1.542.04-2.716.133-3.8A63.016,63.016,0,0,1,56.964,14.621a62.889,62.889,0,0,1,48.745,5.425,63,63,0,0,1,32.183,54.9ZM68.908,42.266l-2.954-3.388A71.8,71.8,0,0,0,52.414,55l3.772,2.448A67.619,67.619,0,0,1,68.908,42.266ZM62.076,71.41l-1.461,4.251c10.325,3.545,19.333,9.2,28.346,17.8l3.1-3.253c-9.5-9.062-19.03-15.035-29.989-18.8ZM92.135,44.975a85.364,85.364,0,0,1,14.116,41.972l-4.487.279A80.951,80.951,0,0,0,88.379,47.441Z" transform="translate(-12 -12)" fill="#ff9800" fill-rule="evenodd"/>
</svg>
