<svg xmlns="http://www.w3.org/2000/svg" width="53" height="53" viewBox="0 0 53 53">
  <g id="Icon-Architecture_64_Arch_Amazon-Route-53_64" data-name="Icon-Architecture/64/Arch_Amazon-Route-53_64" transform="translate(-0.274)">
    <g id="Icon-Architecture-BG_64_Networking-Content-Delivery" data-name="Icon-Architecture-BG/64/Networking-Content-Delivery">
      <rect id="Rectangle" width="53" height="53" rx="26.5" transform="translate(0.274)" fill="#ff9800"/>
    </g>
    <path id="Amazon-Route-53-Icon_64_Squid" d="M36.424,31.091a2.37,2.37,0,0,1,.738,1.829,2.459,2.459,0,0,1-.9,1.994,3.66,3.66,0,0,1-2.414.746,5.9,5.9,0,0,1-2.37-.51V34.13a7.765,7.765,0,0,0,2.37.459,2.278,2.278,0,0,0,1.49-.433,1.516,1.516,0,0,0,.522-1.236q0-1.542-1.949-1.542a11.581,11.581,0,0,0-1.21.063V30.6l2.676-2.919H31.609V26.637h5.185v1.007l-2.625,2.778a.64.64,0,0,1,.128-.013h.127a2.835,2.835,0,0,1,2,.681m-7.4-.222a2.606,2.606,0,0,1,.776,2,2.525,2.525,0,0,1-.9,2.02,3.544,3.544,0,0,1-2.382.771,5.873,5.873,0,0,1-2.433-.51V34.13a8.05,8.05,0,0,0,2.42.459,2.221,2.221,0,0,0,1.484-.439,1.573,1.573,0,0,0,.517-1.268,1.624,1.624,0,0,0-.485-1.312,2.448,2.448,0,0,0-1.58-.408,19.193,19.193,0,0,0-1.974.128v-.841l.242-3.81h4.65v1.045h-3.58l-.166,2.587a7.153,7.153,0,0,1,1.261-.127,3.031,3.031,0,0,1,2.154.726M38.6,40.209a25.913,25.913,0,0,0-7.959,2.969,25.927,25.927,0,0,0-7.959-2.969c-.909-.163-5.441-1.109-5.441-3.729a6.468,6.468,0,0,1,1.269-3.457,13.1,13.1,0,0,0,2.238-6.941A12.407,12.407,0,0,0,19.029,19.8l.407-.5a11.617,11.617,0,0,0,5.232,1.271,10.946,10.946,0,0,0,5.97-1.7,10.942,10.942,0,0,0,5.97,1.7A11.62,11.62,0,0,0,41.84,19.3l.407.5a12.407,12.407,0,0,0-1.717,6.284,13.1,13.1,0,0,0,2.24,6.943,6.465,6.465,0,0,1,1.267,3.454c0,2.62-4.532,3.566-5.44,3.729m3.264-14.127a11.176,11.176,0,0,1,1.761-5.989.663.663,0,0,0-.049-.774c-.338-.414-.693-.85-1.043-1.284a.666.666,0,0,0-.839-.164,10.43,10.43,0,0,1-5.084,1.366,9.5,9.5,0,0,1-5.591-1.719.666.666,0,0,0-.758,0,9.5,9.5,0,0,1-5.591,1.719,10.43,10.43,0,0,1-5.084-1.366.666.666,0,0,0-.839.164c-.35.433-.7.87-1.043,1.284a.665.665,0,0,0-.049.774,11.17,11.17,0,0,1,1.761,5.989,11.984,11.984,0,0,1-2.059,6.274,7.638,7.638,0,0,0-1.448,4.123c0,3.587,5,4.765,6.537,5.04a24.817,24.817,0,0,1,7.86,3,.664.664,0,0,0,.67,0,24.812,24.812,0,0,1,7.859-3c1.534-.275,6.537-1.453,6.537-5.04a7.65,7.65,0,0,0-1.448-4.125,11.971,11.971,0,0,1-2.059-6.272M39.288,44.056a23.279,23.279,0,0,0-8.649,3.732,23.289,23.289,0,0,0-8.65-3.732c-8.033-1.443-8.657-6.164-8.657-7.576a10.125,10.125,0,0,1,1.8-5.417,9.559,9.559,0,0,0,1.711-4.98,9.3,9.3,0,0,0-2.766-6.4c.961-1.169,3.389-4.13,4.587-5.673a8.867,8.867,0,0,0,6.009,2.647,7.564,7.564,0,0,0,5.97-2.953,7.562,7.562,0,0,0,5.97,2.953,8.87,8.87,0,0,0,6.01-2.647c1.2,1.543,3.625,4.5,4.586,5.673a9.3,9.3,0,0,0-2.766,6.4,9.565,9.565,0,0,0,1.711,4.98,10.12,10.12,0,0,1,1.8,5.417c0,1.412-.624,6.133-8.657,7.576M47.3,30.395a8.278,8.278,0,0,1-1.532-4.312,8.217,8.217,0,0,1,2.766-5.818.666.666,0,0,0,.1-.942c-.045-.053-4.408-5.343-5.408-6.714a.665.665,0,0,0-.5-.272.655.655,0,0,0-.527.21,7.856,7.856,0,0,1-5.591,2.782c-2.133,0-3.81-.95-5.441-3.081a.69.69,0,0,0-1.057,0c-1.632,2.131-3.309,3.081-5.442,3.081a7.856,7.856,0,0,1-5.591-2.782.646.646,0,0,0-.527-.21.666.666,0,0,0-.5.272c-1,1.37-5.363,6.66-5.408,6.714a.669.669,0,0,0,.094.941,8.219,8.219,0,0,1,2.768,5.819,8.278,8.278,0,0,1-1.532,4.312A11.365,11.365,0,0,0,12,36.48c0,4.468,3.646,7.79,9.753,8.887a22.424,22.424,0,0,1,8.48,3.772.666.666,0,0,0,.811,0,22.363,22.363,0,0,1,8.479-3.772c6.107-1.1,9.754-4.42,9.754-8.887A11.365,11.365,0,0,0,47.3,30.395" transform="translate(-4.012 -4.012)" fill="#fff" fill-rule="evenodd"/>
  </g>
</svg>
