<svg xmlns="http://www.w3.org/2000/svg" width="95.58" height="75.52" viewBox="0 0 95.58 75.52">
  <path id="Path_187" data-name="Path 187" d="M25.665,47.2l-8.26-10.03A70.949,70.949,0,0,0,31.565,23.9q5.6-7.08,5.6-12.095a10.892,10.892,0,0,0-1.623-6.048A28.651,28.651,0,0,0,29.5-.3a33.413,33.413,0,0,1-6.49-7.67,14.546,14.546,0,0,1-1.77-7.08,12.252,12.252,0,0,1,4.13-9.588Q29.5-28.32,36.285-28.32A18.986,18.986,0,0,1,47.5-24.78,23.264,23.264,0,0,1,55.313-14.9,36.611,36.611,0,0,1,58.115,0,46.343,46.343,0,0,1,55.9,14.455a47.794,47.794,0,0,1-6.49,12.832A57.527,57.527,0,0,1,39.088,38.35,75.522,75.522,0,0,1,25.665,47.2Zm54.87,0-8.26-10.03A70.949,70.949,0,0,0,86.435,23.9q5.6-7.08,5.6-12.095a10.892,10.892,0,0,0-1.622-6.048A28.651,28.651,0,0,0,84.37-.3a33.413,33.413,0,0,1-6.49-7.67,14.546,14.546,0,0,1-1.77-7.08,12.252,12.252,0,0,1,4.13-9.588q4.13-3.687,10.915-3.687a18.986,18.986,0,0,1,11.21,3.54,23.263,23.263,0,0,1,7.818,9.883,36.611,36.611,0,0,1,2.8,14.9,46.343,46.343,0,0,1-2.213,14.455,47.793,47.793,0,0,1-6.49,12.832A57.528,57.528,0,0,1,93.958,38.35,75.521,75.521,0,0,1,80.535,47.2Z" transform="translate(-17.405 28.32)" fill="#ff9800"/>
</svg>
