<svg id="Component_30_1" data-name="Component 30 – 1" xmlns="http://www.w3.org/2000/svg" width="307.629" height="443.509" viewBox="0 0 307.629 443.509">
  <path id="Path_3236" data-name="Path 3236" d="M41.52,194.847a1.207,1.207,0,0,1-.605-2.251L86,166.567a12.336,12.336,0,0,0,6.152-10.652v-68a3.7,3.7,0,0,1,5.558-3.2l72.861,42.234V70.189a1.206,1.206,0,1,1,2.412,0v58.85a1.208,1.208,0,0,1-1.812,1.044L96.5,86.8a1.287,1.287,0,0,0-1.933,1.116v68a14.755,14.755,0,0,1-7.356,12.741L42.121,194.686a1.2,1.2,0,0,1-.6.162" transform="translate(1.094 59.116)" fill="#bfc2d5"/>
  <path id="Path_3237" data-name="Path 3237" d="M90.085,239.553a1.207,1.207,0,0,1-.605-2.251l56.074-32.375a12.336,12.336,0,0,0,6.152-10.652V77.161a1.205,1.205,0,0,1,2.41,0V194.276a14.754,14.754,0,0,1-7.354,12.741L90.686,239.392a1.2,1.2,0,0,1-.6.162" transform="translate(42.713 65.093)" fill="#bfc2d5"/>
  <path id="Path_3238" data-name="Path 3238" d="M151.175,289.921a1.3,1.3,0,0,1-.65-2.42l50.845-29.355a12.236,12.236,0,0,0,6.1-10.611l-.167-54.67a12.249,12.249,0,0,0-6.117-10.548l-65.624-37.792a1.3,1.3,0,0,1-.65-1.123V84.177a1.3,1.3,0,0,1,2.594,0v58.475l64.974,37.418a14.858,14.858,0,0,1,7.417,12.787l.167,54.67a14.836,14.836,0,0,1-7.4,12.863l-50.843,29.355a1.281,1.281,0,0,1-.646.175" transform="translate(82.168 71.028)" fill="#bfc2d5"/>
  <rect id="Rectangle_651" data-name="Rectangle 651" width="9.955" height="21.485" transform="translate(213.401 151.601)" fill="#bfc2d5"/>
  <path id="Path_3239" data-name="Path 3239" d="M141.43,96.566a7.785,7.785,0,0,1-7.04,0c-1.944-1.122-1.944-2.941,0-4.065a7.785,7.785,0,0,1,7.04,0c1.944,1.123,1.944,2.943,0,4.065" transform="translate(80.469 78.551)" fill="#bfc2d5"/>
  <rect id="Rectangle_652" data-name="Rectangle 652" width="16.134" height="33.697" transform="translate(210.313 121.657)" fill="#bfc2d5"/>
  <path id="Path_3240" data-name="Path 3240" d="M145.039,89.1a12.612,12.612,0,0,1-11.408,0c-3.151-1.818-3.151-4.767,0-6.587a12.612,12.612,0,0,1,11.408,0c3.149,1.82,3.149,4.769,0,6.587" transform="translate(79.043 69.546)" fill="#bfc2d5"/>
  <rect id="Rectangle_653" data-name="Rectangle 653" width="9.955" height="21.485" transform="translate(190.648 138.65)" fill="#bfc2d5"/>
  <path id="Path_3241" data-name="Path 3241" d="M129.177,89.593a7.785,7.785,0,0,1-7.04,0c-1.946-1.123-1.946-2.943,0-4.065a7.785,7.785,0,0,1,7.04,0c1.942,1.123,1.942,2.943,0,4.065" transform="translate(69.967 72.576)" fill="#bfc2d5"/>
  <rect id="Rectangle_654" data-name="Rectangle 654" width="16.134" height="33.697" transform="translate(187.557 108.708)" fill="#bfc2d5"/>
  <path id="Path_3242" data-name="Path 3242" d="M132.786,82.128a12.612,12.612,0,0,1-11.408,0c-3.151-1.82-3.151-4.769,0-6.587a12.612,12.612,0,0,1,11.408,0c3.149,1.82,3.149,4.767,0,6.587" transform="translate(68.542 63.569)" fill="#bfc2d5"/>
  <rect id="Rectangle_655" data-name="Rectangle 655" width="9.957" height="21.485" transform="translate(167.89 125.699)" fill="#bfc2d5"/>
  <path id="Path_3243" data-name="Path 3243" d="M116.923,82.619a7.785,7.785,0,0,1-7.04,0c-1.944-1.123-1.944-2.943,0-4.065a7.785,7.785,0,0,1,7.04,0c1.944,1.123,1.944,2.941,0,4.065" transform="translate(59.466 66.599)" fill="#bfc2d5"/>
  <rect id="Rectangle_656" data-name="Rectangle 656" width="16.134" height="33.697" transform="translate(164.802 95.757)" fill="#bfc2d5"/>
  <path id="Path_3244" data-name="Path 3244" d="M120.532,75.154a12.606,12.606,0,0,1-11.408,0c-3.151-1.818-3.151-4.767,0-6.587a12.612,12.612,0,0,1,11.408,0c3.149,1.82,3.149,4.769,0,6.587" transform="translate(58.041 57.592)" fill="#bfc2d5"/>
  <path id="Path_3245" data-name="Path 3245" d="M170.689,115.435l21.632-12.741-20.6-25.712L166.3,85.831Z" transform="translate(109.068 65.973)" fill="#a82021"/>
  <path id="Path_3246" data-name="Path 3246" d="M84.082,30.863,118.605,11s-1.3,19.822-1.3,19.862-19.833,6.143-19.833,6.143Z" transform="translate(38.605 9.427)" fill="#a82021"/>
  <path id="Path_3247" data-name="Path 3247" d="M235.326,116.752a21.746,21.746,0,0,0-7.469-2.769C224.375,95.69,211.645,76.262,196.468,67.5a30.7,30.7,0,0,0-12.845-4.347c-2.072-22.174-17.489-47.374-36.211-58.181-9.779-5.647-18.652-6.314-25.2-2.858V2.1l-.318.184c-.167.093-.332.188-.5.286L101.041,14.59l6.763,5.344C101.732,22.588,97.9,29.4,97.9,39.464c0,18.564,13.032,41.14,29.11,50.421l108.32,77.349c12.072,6.969,21.861,1.32,21.861-12.62s-9.788-30.891-21.861-37.862" transform="translate(50.443 0)" fill="#a82021"/>
  <path id="Path_3248" data-name="Path 3248" d="M98.436,31.29l46.726-27.3C136.09-.741,127.9-1.131,121.749,2.115l0-.017-.319.182c-.167.093-.332.188-.5.286L100.577,14.59l6.765,5.343c-4.245,1.855-7.393,5.747-8.906,11.357" transform="translate(50.906 0)" fill="#a82021"/>
  <path id="Path_3249" data-name="Path 3249" d="M161.32,81.281l34.093-20.007c-5.848-10.113-13.9-18.949-22.813-24.095-1.179-.682-2.344-1.278-3.491-1.8L125.746,60.741Z" transform="translate(74.311 30.321)" fill="#a82021"/>
  <path id="Path_3250" data-name="Path 3250" d="M229.864,123.536a21.741,21.741,0,0,0-7.471-2.769c-3.48-18.293-16.21-37.721-31.387-46.482a30.7,30.7,0,0,0-12.845-4.347c-2.072-22.174-17.489-47.374-36.211-58.181C121.817.131,105.494,9.554,105.494,32.8c0,.787.022,1.582.059,2.383-14.722-6.828-26.226.865-26.226,18.306,0,18.564,13.034,41.138,29.11,50.421l121.427,70.105c12.072,6.969,21.861,1.32,21.861-12.62s-9.788-30.893-21.861-37.862" transform="translate(34.529 5.807)" fill="#ff9800"/>
  <g id="Group_1643" data-name="Group 1643" transform="translate(-618.196 -556.761)">
    <path id="Path_3299" data-name="Path 3299" d="M172.942,293.285,218.472,267c2.793-1.614,2.444-4.433-.784-6.3l-43.962-25.381c-3.226-1.863-8.108-2.065-10.9-.451L117.3,261.158c-2.795,1.614-2.444,4.431.784,6.3l43.961,25.381c3.227,1.863,8.108,2.065,10.9.451" transform="translate(516.021 609.194)" fill="#bfc2d5"/>
    <path id="Path_3300" data-name="Path 3300" d="M108.3,251.524h0V231.852l44.111-.026,15.246-8.8c3.5-2.02,9.61-1.766,13.651.566l14.225,8.212,44.15-.024V252.01c.1,1.367-.663,2.687-2.344,3.658l-57.013,32.915c-3.5,2.02-9.61,1.768-13.651-.566l-55.051-31.782c-2.331-1.346-3.454-3.088-3.324-4.711" transform="translate(509.916 598.806)" fill="#1f2649"/>
    <path id="Path_3301" data-name="Path 3301" d="M143.667,221.666a15.735,15.735,0,0,1,7.318,1.92L165.21,231.8l44.15-.024v20.232c.1,1.367-.663,2.685-2.345,3.656L150,288.579a12.377,12.377,0,0,1-6.336,1.354Z" transform="translate(540.237 598.81)" fill="#1f2649"/>
    <path id="Path_3302" data-name="Path 3302" d="M180.327,281.231l57.013-32.917c3.5-2.02,3.058-5.549-.98-7.881L181.309,208.65c-4.041-2.334-10.152-2.587-13.653-.566L110.645,241c-3.5,2.02-3.06,5.551.98,7.883l55.051,31.782c4.039,2.332,10.152,2.587,13.651.566" transform="translate(509.913 586.001)" fill="#fff"/>
    <path id="Path_3303" data-name="Path 3303" d="M174.388,272.469l47.777-27.584c2.932-1.694,2.565-4.65-.821-6.605l-46.133-26.635c-3.385-1.955-8.507-2.167-11.439-.474l-47.777,27.584c-2.934,1.694-2.565,4.65.821,6.605L162.949,272c3.385,1.954,8.507,2.167,11.439.474" transform="translate(514.825 588.837)" fill="#bfc2d5"/>
    <path id="Path_3304" data-name="Path 3304" d="M119.585,241.3a5.091,5.091,0,0,0,2.3,3.989c1.272.734,2.3.139,2.3-1.33a5.091,5.091,0,0,0-2.3-3.989c-1.272-.734-2.3-.139-2.3,1.33" transform="translate(519.599 614.225)" fill="#fff"/>
    <path id="Path_3305" data-name="Path 3305" d="M115.6,238.993a5.091,5.091,0,0,0,2.3,3.989c1.272.733,2.3.139,2.3-1.33a5.091,5.091,0,0,0-2.3-3.989c-1.272-.734-2.3-.139-2.3,1.33" transform="translate(516.18 612.25)" fill="#bfc2d5"/>
    <path id="Path_3306" data-name="Path 3306" d="M111.605,236.69a5.091,5.091,0,0,0,2.3,3.989c1.272.734,2.3.139,2.3-1.33a5.091,5.091,0,0,0-2.3-3.989c-1.272-.733-2.3-.139-2.3,1.33" transform="translate(512.76 610.277)" fill="#fff"/>
    <path id="Path_3307" data-name="Path 3307" d="M108.3,234.595h0V214.923l44.111-.026,15.246-8.8c3.5-2.02,9.61-1.766,13.651.566l14.225,8.212,44.15-.024v20.232c.1,1.367-.663,2.687-2.344,3.656l-57.013,32.917c-3.5,2.02-9.61,1.766-13.651-.566l-55.051-31.782c-2.331-1.346-3.454-3.088-3.324-4.711" transform="translate(509.916 584.298)" fill="#1f2649"/>
    <path id="Path_3308" data-name="Path 3308" d="M143.667,204.738a15.735,15.735,0,0,1,7.318,1.92l14.225,8.212,44.15-.024v20.232c.1,1.367-.663,2.687-2.345,3.656L150,271.651A12.377,12.377,0,0,1,143.667,273Z" transform="translate(540.237 584.303)" fill="#1f2649"/>
    <path id="Path_3309" data-name="Path 3309" d="M180.327,264.3l57.013-32.917c3.5-2.019,3.058-5.549-.98-7.881l-55.051-31.782c-4.041-2.334-10.152-2.587-13.653-.566L110.645,224.07c-3.5,2.02-3.06,5.551.98,7.883l55.051,31.782c4.039,2.332,10.152,2.587,13.651.566" transform="translate(509.913 571.493)" fill="#fff"/>
    <path id="Path_3310" data-name="Path 3310" d="M174.388,255.541l47.777-27.584c2.932-1.694,2.565-4.65-.821-6.605l-46.133-26.635c-3.385-1.955-8.507-2.167-11.439-.474l-47.777,27.584c-2.934,1.694-2.565,4.65.821,6.605l46.133,26.635c3.385,1.954,8.507,2.167,11.439.474" transform="translate(514.825 574.329)" fill="#bfc2d5"/>
    <path id="Path_3311" data-name="Path 3311" d="M119.585,224.368a5.091,5.091,0,0,0,2.3,3.989c1.272.733,2.3.139,2.3-1.33a5.091,5.091,0,0,0-2.3-3.989c-1.272-.734-2.3-.139-2.3,1.33" transform="translate(519.599 599.717)" fill="#bfc2d5"/>
    <path id="Path_3312" data-name="Path 3312" d="M115.6,222.064a5.091,5.091,0,0,0,2.3,3.989c1.272.734,2.3.139,2.3-1.33a5.091,5.091,0,0,0-2.3-3.989c-1.272-.734-2.3-.139-2.3,1.33" transform="translate(516.18 597.742)" fill="#bfc2d5"/>
    <path id="Path_3313" data-name="Path 3313" d="M111.605,219.761a5.091,5.091,0,0,0,2.3,3.989c1.272.734,2.3.139,2.3-1.33a5.091,5.091,0,0,0-2.3-3.989c-1.272-.733-2.3-.139-2.3,1.33" transform="translate(512.76 595.769)" fill="#fff"/>
    <path id="Path_3314" data-name="Path 3314" d="M108.3,217.667h0V198l44.111-.026,15.246-8.8c3.5-2.02,9.61-1.766,13.651.566l14.225,8.214,44.15-.026v20.232c.1,1.367-.663,2.687-2.344,3.658l-57.013,32.915c-3.5,2.02-9.61,1.768-13.651-.566l-55.051-31.782c-2.331-1.346-3.454-3.088-3.324-4.711" transform="translate(509.916 569.79)" fill="#1f2649"/>
    <path id="Path_3315" data-name="Path 3315" d="M143.667,187.809a15.734,15.734,0,0,1,7.318,1.92l14.225,8.212,44.15-.024v20.232c.1,1.367-.663,2.687-2.345,3.656L150,254.722a12.358,12.358,0,0,1-6.336,1.354Z" transform="translate(540.237 569.795)" fill="#1f2649"/>
    <path id="Path_3316" data-name="Path 3316" d="M180.327,247.372l57.013-32.915c3.5-2.02,3.058-5.551-.98-7.883l-55.051-31.782c-4.041-2.332-10.152-2.587-13.653-.566l-57.012,32.917c-3.5,2.019-3.06,5.549.98,7.881l55.051,31.782c4.039,2.334,10.152,2.587,13.651.566" transform="translate(509.913 556.985)" fill="#fff"/>
    <path id="Path_3317" data-name="Path 3317" d="M119.585,207.439a5.091,5.091,0,0,0,2.3,3.989c1.272.734,2.3.139,2.3-1.33a5.091,5.091,0,0,0-2.3-3.989c-1.272-.734-2.3-.139-2.3,1.33" transform="translate(519.599 585.209)" fill="#fff"/>
    <path id="Path_3318" data-name="Path 3318" d="M115.6,205.136a5.091,5.091,0,0,0,2.3,3.989c1.272.734,2.3.139,2.3-1.33a5.091,5.091,0,0,0-2.3-3.989c-1.272-.733-2.3-.139-2.3,1.33" transform="translate(516.18 583.235)" fill="#fff"/>
    <path id="Path_3319" data-name="Path 3319" d="M111.605,202.832a5.091,5.091,0,0,0,2.3,3.989c1.272.734,2.3.139,2.3-1.33a5.091,5.091,0,0,0-2.3-3.989c-1.272-.734-2.3-.139-2.3,1.33" transform="translate(512.76 581.26)" fill="#bfc2d5"/>
    <path id="Path_3320" data-name="Path 3320" d="M160.821,218.088l26.679-15.4c1.638-.945,1.432-2.6-.459-3.688L161.28,184.124a7.1,7.1,0,0,0-6.388-.266l-26.678,15.4c-1.638.945-1.434,2.6.459,3.688l25.76,14.873a7.1,7.1,0,0,0,6.388.266" transform="translate(526.047 565.863)" fill="#bfc2d5"/>
    <path id="Path_3321" data-name="Path 3321" d="M187.5,202.685l-.076.043a3.832,3.832,0,0,0-.383-.262l-25.76-14.875a7.1,7.1,0,0,0-6.388-.264l-26.605,15.359c-1.508-1.081-1.588-2.552-.074-3.424l26.679-15.4a7.1,7.1,0,0,1,6.388.266L187.038,199c1.89,1.092,2.1,2.743.459,3.688" transform="translate(526.051 565.863)" fill="#1f2649"/>
  </g>
  <g id="Group_1642" data-name="Group 1642" transform="translate(-536.176 -507.938)">
    <path id="Path_3299-2" data-name="Path 3299" d="M172.942,293.285,218.472,267c2.793-1.614,2.444-4.433-.784-6.3l-43.962-25.381c-3.226-1.863-8.108-2.065-10.9-.451L117.3,261.158c-2.795,1.614-2.444,4.431.784,6.3l43.961,25.381c3.227,1.863,8.108,2.065,10.9.451" transform="translate(516.021 609.194)" fill="#bfc2d5"/>
    <path id="Path_3300-2" data-name="Path 3300" d="M108.3,251.524h0V231.852l44.111-.026,15.246-8.8c3.5-2.02,9.61-1.766,13.651.566l14.225,8.212,44.15-.024V252.01c.1,1.367-.663,2.687-2.344,3.658l-57.013,32.915c-3.5,2.02-9.61,1.768-13.651-.566l-55.051-31.782c-2.331-1.346-3.454-3.088-3.324-4.711" transform="translate(509.916 598.806)" fill="#1f2649"/>
    <path id="Path_3301-2" data-name="Path 3301" d="M143.667,221.666a15.735,15.735,0,0,1,7.318,1.92L165.21,231.8l44.15-.024v20.232c.1,1.367-.663,2.685-2.345,3.656L150,288.579a12.377,12.377,0,0,1-6.336,1.354Z" transform="translate(540.237 598.81)" fill="#1f2649"/>
    <path id="Path_3302-2" data-name="Path 3302" d="M180.327,281.231l57.013-32.917c3.5-2.02,3.058-5.549-.98-7.881L181.309,208.65c-4.041-2.334-10.152-2.587-13.653-.566L110.645,241c-3.5,2.02-3.06,5.551.98,7.883l55.051,31.782c4.039,2.332,10.152,2.587,13.651.566" transform="translate(509.913 586.001)" fill="#fff"/>
    <path id="Path_3303-2" data-name="Path 3303" d="M174.388,272.469l47.777-27.584c2.932-1.694,2.565-4.65-.821-6.605l-46.133-26.635c-3.385-1.955-8.507-2.167-11.439-.474l-47.777,27.584c-2.934,1.694-2.565,4.65.821,6.605L162.949,272c3.385,1.954,8.507,2.167,11.439.474" transform="translate(514.825 588.837)" fill="#bfc2d5"/>
    <path id="Path_3304-2" data-name="Path 3304" d="M119.585,241.3a5.091,5.091,0,0,0,2.3,3.989c1.272.734,2.3.139,2.3-1.33a5.091,5.091,0,0,0-2.3-3.989c-1.272-.734-2.3-.139-2.3,1.33" transform="translate(519.599 614.225)" fill="#fff"/>
    <path id="Path_3305-2" data-name="Path 3305" d="M115.6,238.993a5.091,5.091,0,0,0,2.3,3.989c1.272.733,2.3.139,2.3-1.33a5.091,5.091,0,0,0-2.3-3.989c-1.272-.734-2.3-.139-2.3,1.33" transform="translate(516.18 612.25)" fill="#bfc2d5"/>
    <path id="Path_3306-2" data-name="Path 3306" d="M111.605,236.69a5.091,5.091,0,0,0,2.3,3.989c1.272.734,2.3.139,2.3-1.33a5.091,5.091,0,0,0-2.3-3.989c-1.272-.733-2.3-.139-2.3,1.33" transform="translate(512.76 610.277)" fill="#fff"/>
    <path id="Path_3307-2" data-name="Path 3307" d="M108.3,234.595h0V214.923l44.111-.026,15.246-8.8c3.5-2.02,9.61-1.766,13.651.566l14.225,8.212,44.15-.024v20.232c.1,1.367-.663,2.687-2.344,3.656l-57.013,32.917c-3.5,2.02-9.61,1.766-13.651-.566l-55.051-31.782c-2.331-1.346-3.454-3.088-3.324-4.711" transform="translate(509.916 584.298)" fill="#1f2649"/>
    <path id="Path_3308-2" data-name="Path 3308" d="M143.667,204.738a15.735,15.735,0,0,1,7.318,1.92l14.225,8.212,44.15-.024v20.232c.1,1.367-.663,2.687-2.345,3.656L150,271.651A12.377,12.377,0,0,1,143.667,273Z" transform="translate(540.237 584.303)" fill="#1f2649"/>
    <path id="Path_3309-2" data-name="Path 3309" d="M180.327,264.3l57.013-32.917c3.5-2.019,3.058-5.549-.98-7.881l-55.051-31.782c-4.041-2.334-10.152-2.587-13.653-.566L110.645,224.07c-3.5,2.02-3.06,5.551.98,7.883l55.051,31.782c4.039,2.332,10.152,2.587,13.651.566" transform="translate(509.913 571.493)" fill="#fff"/>
    <path id="Path_3310-2" data-name="Path 3310" d="M174.388,255.541l47.777-27.584c2.932-1.694,2.565-4.65-.821-6.605l-46.133-26.635c-3.385-1.955-8.507-2.167-11.439-.474l-47.777,27.584c-2.934,1.694-2.565,4.65.821,6.605l46.133,26.635c3.385,1.954,8.507,2.167,11.439.474" transform="translate(514.825 574.329)" fill="#bfc2d5"/>
    <path id="Path_3311-2" data-name="Path 3311" d="M119.585,224.368a5.091,5.091,0,0,0,2.3,3.989c1.272.733,2.3.139,2.3-1.33a5.091,5.091,0,0,0-2.3-3.989c-1.272-.734-2.3-.139-2.3,1.33" transform="translate(519.599 599.717)" fill="#bfc2d5"/>
    <path id="Path_3312-2" data-name="Path 3312" d="M115.6,222.064a5.091,5.091,0,0,0,2.3,3.989c1.272.734,2.3.139,2.3-1.33a5.091,5.091,0,0,0-2.3-3.989c-1.272-.734-2.3-.139-2.3,1.33" transform="translate(516.18 597.742)" fill="#bfc2d5"/>
    <path id="Path_3313-2" data-name="Path 3313" d="M111.605,219.761a5.091,5.091,0,0,0,2.3,3.989c1.272.734,2.3.139,2.3-1.33a5.091,5.091,0,0,0-2.3-3.989c-1.272-.733-2.3-.139-2.3,1.33" transform="translate(512.76 595.769)" fill="#fff"/>
    <path id="Path_3314-2" data-name="Path 3314" d="M108.3,217.667h0V198l44.111-.026,15.246-8.8c3.5-2.02,9.61-1.766,13.651.566l14.225,8.214,44.15-.026v20.232c.1,1.367-.663,2.687-2.344,3.658l-57.013,32.915c-3.5,2.02-9.61,1.768-13.651-.566l-55.051-31.782c-2.331-1.346-3.454-3.088-3.324-4.711" transform="translate(509.916 569.79)" fill="#1f2649"/>
    <path id="Path_3315-2" data-name="Path 3315" d="M143.667,187.809a15.734,15.734,0,0,1,7.318,1.92l14.225,8.212,44.15-.024v20.232c.1,1.367-.663,2.687-2.345,3.656L150,254.722a12.358,12.358,0,0,1-6.336,1.354Z" transform="translate(540.237 569.795)" fill="#1f2649"/>
    <path id="Path_3316-2" data-name="Path 3316" d="M180.327,247.372l57.013-32.915c3.5-2.02,3.058-5.551-.98-7.883l-55.051-31.782c-4.041-2.332-10.152-2.587-13.653-.566l-57.012,32.917c-3.5,2.019-3.06,5.549.98,7.881l55.051,31.782c4.039,2.334,10.152,2.587,13.651.566" transform="translate(509.913 556.985)" fill="#fff"/>
    <path id="Path_3317-2" data-name="Path 3317" d="M119.585,207.439a5.091,5.091,0,0,0,2.3,3.989c1.272.734,2.3.139,2.3-1.33a5.091,5.091,0,0,0-2.3-3.989c-1.272-.734-2.3-.139-2.3,1.33" transform="translate(519.599 585.209)" fill="#fff"/>
    <path id="Path_3318-2" data-name="Path 3318" d="M115.6,205.136a5.091,5.091,0,0,0,2.3,3.989c1.272.734,2.3.139,2.3-1.33a5.091,5.091,0,0,0-2.3-3.989c-1.272-.733-2.3-.139-2.3,1.33" transform="translate(516.18 583.235)" fill="#fff"/>
    <path id="Path_3319-2" data-name="Path 3319" d="M111.605,202.832a5.091,5.091,0,0,0,2.3,3.989c1.272.734,2.3.139,2.3-1.33a5.091,5.091,0,0,0-2.3-3.989c-1.272-.734-2.3-.139-2.3,1.33" transform="translate(512.76 581.26)" fill="#bfc2d5"/>
    <path id="Path_3320-2" data-name="Path 3320" d="M160.821,218.088l26.679-15.4c1.638-.945,1.432-2.6-.459-3.688L161.28,184.124a7.1,7.1,0,0,0-6.388-.266l-26.678,15.4c-1.638.945-1.434,2.6.459,3.688l25.76,14.873a7.1,7.1,0,0,0,6.388.266" transform="translate(526.047 565.863)" fill="#bfc2d5"/>
    <path id="Path_3321-2" data-name="Path 3321" d="M187.5,202.685l-.076.043a3.832,3.832,0,0,0-.383-.262l-25.76-14.875a7.1,7.1,0,0,0-6.388-.264l-26.605,15.359c-1.508-1.081-1.588-2.552-.074-3.424l26.679-15.4a7.1,7.1,0,0,1,6.388.266L187.038,199c1.89,1.092,2.1,2.743.459,3.688" transform="translate(526.051 565.863)" fill="#1f2649"/>
  </g>
  <g id="Group_1644" data-name="Group 1644" transform="translate(-450.931 -460.059)">
    <path id="Path_3299-3" data-name="Path 3299" d="M172.942,293.285,218.472,267c2.793-1.614,2.444-4.433-.784-6.3l-43.962-25.381c-3.226-1.863-8.108-2.065-10.9-.451L117.3,261.158c-2.795,1.614-2.444,4.431.784,6.3l43.961,25.381c3.227,1.863,8.108,2.065,10.9.451" transform="translate(516.021 609.194)" fill="#bfc2d5"/>
    <path id="Path_3300-3" data-name="Path 3300" d="M108.3,251.524h0V231.852l44.111-.026,15.246-8.8c3.5-2.02,9.61-1.766,13.651.566l14.225,8.212,44.15-.024V252.01c.1,1.367-.663,2.687-2.344,3.658l-57.013,32.915c-3.5,2.02-9.61,1.768-13.651-.566l-55.051-31.782c-2.331-1.346-3.454-3.088-3.324-4.711" transform="translate(509.916 598.806)" fill="#1f2649"/>
    <path id="Path_3301-3" data-name="Path 3301" d="M143.667,221.666a15.735,15.735,0,0,1,7.318,1.92L165.21,231.8l44.15-.024v20.232c.1,1.367-.663,2.685-2.345,3.656L150,288.579a12.377,12.377,0,0,1-6.336,1.354Z" transform="translate(540.237 598.81)" fill="#1f2649"/>
    <path id="Path_3302-3" data-name="Path 3302" d="M180.327,281.231l57.013-32.917c3.5-2.02,3.058-5.549-.98-7.881L181.309,208.65c-4.041-2.334-10.152-2.587-13.653-.566L110.645,241c-3.5,2.02-3.06,5.551.98,7.883l55.051,31.782c4.039,2.332,10.152,2.587,13.651.566" transform="translate(509.913 586.001)" fill="#fff"/>
    <path id="Path_3303-3" data-name="Path 3303" d="M174.388,272.469l47.777-27.584c2.932-1.694,2.565-4.65-.821-6.605l-46.133-26.635c-3.385-1.955-8.507-2.167-11.439-.474l-47.777,27.584c-2.934,1.694-2.565,4.65.821,6.605L162.949,272c3.385,1.954,8.507,2.167,11.439.474" transform="translate(514.825 588.837)" fill="#bfc2d5"/>
    <path id="Path_3304-3" data-name="Path 3304" d="M119.585,241.3a5.091,5.091,0,0,0,2.3,3.989c1.272.734,2.3.139,2.3-1.33a5.091,5.091,0,0,0-2.3-3.989c-1.272-.734-2.3-.139-2.3,1.33" transform="translate(519.599 614.225)" fill="#fff"/>
    <path id="Path_3305-3" data-name="Path 3305" d="M115.6,238.993a5.091,5.091,0,0,0,2.3,3.989c1.272.733,2.3.139,2.3-1.33a5.091,5.091,0,0,0-2.3-3.989c-1.272-.734-2.3-.139-2.3,1.33" transform="translate(516.18 612.25)" fill="#bfc2d5"/>
    <path id="Path_3306-3" data-name="Path 3306" d="M111.605,236.69a5.091,5.091,0,0,0,2.3,3.989c1.272.734,2.3.139,2.3-1.33a5.091,5.091,0,0,0-2.3-3.989c-1.272-.733-2.3-.139-2.3,1.33" transform="translate(512.76 610.277)" fill="#fff"/>
    <path id="Path_3307-3" data-name="Path 3307" d="M108.3,234.595h0V214.923l44.111-.026,15.246-8.8c3.5-2.02,9.61-1.766,13.651.566l14.225,8.212,44.15-.024v20.232c.1,1.367-.663,2.687-2.344,3.656l-57.013,32.917c-3.5,2.02-9.61,1.766-13.651-.566l-55.051-31.782c-2.331-1.346-3.454-3.088-3.324-4.711" transform="translate(509.916 584.298)" fill="#1f2649"/>
    <path id="Path_3308-3" data-name="Path 3308" d="M143.667,204.738a15.735,15.735,0,0,1,7.318,1.92l14.225,8.212,44.15-.024v20.232c.1,1.367-.663,2.687-2.345,3.656L150,271.651A12.377,12.377,0,0,1,143.667,273Z" transform="translate(540.237 584.303)" fill="#1f2649"/>
    <path id="Path_3309-3" data-name="Path 3309" d="M180.327,264.3l57.013-32.917c3.5-2.019,3.058-5.549-.98-7.881l-55.051-31.782c-4.041-2.334-10.152-2.587-13.653-.566L110.645,224.07c-3.5,2.02-3.06,5.551.98,7.883l55.051,31.782c4.039,2.332,10.152,2.587,13.651.566" transform="translate(509.913 571.493)" fill="#fff"/>
    <path id="Path_3310-3" data-name="Path 3310" d="M174.388,255.541l47.777-27.584c2.932-1.694,2.565-4.65-.821-6.605l-46.133-26.635c-3.385-1.955-8.507-2.167-11.439-.474l-47.777,27.584c-2.934,1.694-2.565,4.65.821,6.605l46.133,26.635c3.385,1.954,8.507,2.167,11.439.474" transform="translate(514.825 574.329)" fill="#bfc2d5"/>
    <path id="Path_3311-3" data-name="Path 3311" d="M119.585,224.368a5.091,5.091,0,0,0,2.3,3.989c1.272.733,2.3.139,2.3-1.33a5.091,5.091,0,0,0-2.3-3.989c-1.272-.734-2.3-.139-2.3,1.33" transform="translate(519.599 599.717)" fill="#bfc2d5"/>
    <path id="Path_3312-3" data-name="Path 3312" d="M115.6,222.064a5.091,5.091,0,0,0,2.3,3.989c1.272.734,2.3.139,2.3-1.33a5.091,5.091,0,0,0-2.3-3.989c-1.272-.734-2.3-.139-2.3,1.33" transform="translate(516.18 597.742)" fill="#bfc2d5"/>
    <path id="Path_3313-3" data-name="Path 3313" d="M111.605,219.761a5.091,5.091,0,0,0,2.3,3.989c1.272.734,2.3.139,2.3-1.33a5.091,5.091,0,0,0-2.3-3.989c-1.272-.733-2.3-.139-2.3,1.33" transform="translate(512.76 595.769)" fill="#fff"/>
    <path id="Path_3314-3" data-name="Path 3314" d="M108.3,217.667h0V198l44.111-.026,15.246-8.8c3.5-2.02,9.61-1.766,13.651.566l14.225,8.214,44.15-.026v20.232c.1,1.367-.663,2.687-2.344,3.658l-57.013,32.915c-3.5,2.02-9.61,1.768-13.651-.566l-55.051-31.782c-2.331-1.346-3.454-3.088-3.324-4.711" transform="translate(509.916 569.79)" fill="#1f2649"/>
    <path id="Path_3315-3" data-name="Path 3315" d="M143.667,187.809a15.734,15.734,0,0,1,7.318,1.92l14.225,8.212,44.15-.024v20.232c.1,1.367-.663,2.687-2.345,3.656L150,254.722a12.358,12.358,0,0,1-6.336,1.354Z" transform="translate(540.237 569.795)" fill="#1f2649"/>
    <path id="Path_3316-3" data-name="Path 3316" d="M180.327,247.372l57.013-32.915c3.5-2.02,3.058-5.551-.98-7.883l-55.051-31.782c-4.041-2.332-10.152-2.587-13.653-.566l-57.012,32.917c-3.5,2.019-3.06,5.549.98,7.881l55.051,31.782c4.039,2.334,10.152,2.587,13.651.566" transform="translate(509.913 556.985)" fill="#fff"/>
    <path id="Path_3317-3" data-name="Path 3317" d="M119.585,207.439a5.091,5.091,0,0,0,2.3,3.989c1.272.734,2.3.139,2.3-1.33a5.091,5.091,0,0,0-2.3-3.989c-1.272-.734-2.3-.139-2.3,1.33" transform="translate(519.599 585.209)" fill="#fff"/>
    <path id="Path_3318-3" data-name="Path 3318" d="M115.6,205.136a5.091,5.091,0,0,0,2.3,3.989c1.272.734,2.3.139,2.3-1.33a5.091,5.091,0,0,0-2.3-3.989c-1.272-.733-2.3-.139-2.3,1.33" transform="translate(516.18 583.235)" fill="#fff"/>
    <path id="Path_3319-3" data-name="Path 3319" d="M111.605,202.832a5.091,5.091,0,0,0,2.3,3.989c1.272.734,2.3.139,2.3-1.33a5.091,5.091,0,0,0-2.3-3.989c-1.272-.734-2.3-.139-2.3,1.33" transform="translate(512.76 581.26)" fill="#bfc2d5"/>
    <path id="Path_3320-3" data-name="Path 3320" d="M160.821,218.088l26.679-15.4c1.638-.945,1.432-2.6-.459-3.688L161.28,184.124a7.1,7.1,0,0,0-6.388-.266l-26.678,15.4c-1.638.945-1.434,2.6.459,3.688l25.76,14.873a7.1,7.1,0,0,0,6.388.266" transform="translate(526.047 565.863)" fill="#bfc2d5"/>
    <path id="Path_3321-3" data-name="Path 3321" d="M187.5,202.685l-.076.043a3.832,3.832,0,0,0-.383-.262l-25.76-14.875a7.1,7.1,0,0,0-6.388-.264l-26.605,15.359c-1.508-1.081-1.588-2.552-.074-3.424l26.679-15.4a7.1,7.1,0,0,1,6.388.266L187.038,199c1.89,1.092,2.1,2.743.459,3.688" transform="translate(526.051 565.863)" fill="#1f2649"/>
  </g>
</svg>
