<svg xmlns="http://www.w3.org/2000/svg" width="56.514" height="69.217" viewBox="0 0 56.514 69.217">
  <g id="Component_16_1" data-name="Component 16 – 1" transform="translate(1 1.012)">
    <g id="Group_389" data-name="Group 389" transform="translate(-264.744 -3421.705)">
      <g id="Layer_2" data-name="Layer 2" transform="translate(262.684 3432.87)">
        <path id="Path_416" data-name="Path 416" d="M62.014,33.884V14.452a2.1,2.1,0,0,0-1.258-1.925L35.6,1.674a2.1,2.1,0,0,0-1.677,0L8.758,12.527A2.1,2.1,0,0,0,7.5,14.452V33.884A26.88,26.88,0,0,0,17.2,54.6L33.415,68.11a2.1,2.1,0,0,0,2.684,0L52.311,54.6a26.88,26.88,0,0,0,9.7-20.715Z" transform="translate(-5.44 -12.664)" fill="none" stroke="#d1d4e2" stroke-width="2"/>
      </g>
    </g>
    <g id="cpu" transform="translate(15.068 17.921)">
      <g id="Group_391" data-name="Group 391" transform="translate(6.818 6.818)">
        <g id="Group_390" data-name="Group 390" transform="translate(0 0)">
          <rect id="Rectangle_207" data-name="Rectangle 207" width="10" height="10" transform="translate(0.114 0.113)" fill="#ff9800"/>
        </g>
      </g>
      <g id="Group_393" data-name="Group 393">
        <g id="Group_392" data-name="Group 392">
          <path id="Path_611" data-name="Path 611" d="M22.67,13.125a1.127,1.127,0,0,0,1.193-1.193,1.2,1.2,0,0,0-1.193-1.193H21.477V8.352H22.67a1.127,1.127,0,0,0,1.193-1.193A1.2,1.2,0,0,0,22.67,5.966H21.477V4.773a2.393,2.393,0,0,0-2.386-2.386H17.9V1.193a1.193,1.193,0,1,0-2.386,0V2.386H13.125V1.193A1.2,1.2,0,0,0,11.932,0a1.127,1.127,0,0,0-1.193,1.193V2.386H8.352V1.193A1.2,1.2,0,0,0,7.159,0,1.127,1.127,0,0,0,5.966,1.193V2.386H4.773A2.393,2.393,0,0,0,2.386,4.773V5.966H1.193A1.127,1.127,0,0,0,0,7.159,1.2,1.2,0,0,0,1.193,8.352H2.386v2.386H1.193A1.127,1.127,0,0,0,0,11.932a1.2,1.2,0,0,0,1.193,1.193H2.386v2.386H1.193A1.127,1.127,0,0,0,0,16.7,1.2,1.2,0,0,0,1.193,17.9H2.386v1.193a2.393,2.393,0,0,0,2.386,2.386H5.966V22.67a1.2,1.2,0,0,0,1.193,1.193A1.127,1.127,0,0,0,8.352,22.67V21.477h2.386V22.67a1.2,1.2,0,0,0,1.193,1.193,1.127,1.127,0,0,0,1.193-1.193V21.477h2.386V22.67a1.193,1.193,0,0,0,2.386,0V21.477h1.193a2.393,2.393,0,0,0,2.386-2.386V17.9H22.67A1.127,1.127,0,0,0,23.863,16.7a1.2,1.2,0,0,0-1.193-1.193H21.477V13.125H22.67Zm-3.579,5.966H4.773V4.773H19.091Z" fill="#ff9800"/>
        </g>
      </g>
    </g>
  </g>
</svg>
