<svg xmlns="http://www.w3.org/2000/svg" width="123.824" height="123.827" viewBox="0 0 123.824 123.827">
  <g id="Icon-Resource_IoT_Res_IoT_Lambda_Function_48" data-name="Icon-Resource/IoT/Res_IoT_Lambda_Function_48" transform="translate(-2 -2)">
    <path id="Amazon-IOT-RESOURCES-Lambda-function_Resource-Icon_light-bg" d="M7.634,63.915a56.279,56.279,0,1,1,56.279,56.279A56.341,56.341,0,0,1,7.634,63.915ZM2,63.915A61.912,61.912,0,1,0,63.912,2,61.982,61.982,0,0,0,2,63.915ZM44.865,95.57H29.8l17.85-37.4,7.543,15.568Zm5.3-45.122a2.815,2.815,0,0,0-2.532-1.586h-.008a2.813,2.813,0,0,0-2.535,1.6L22.793,97.172a2.819,2.819,0,0,0,2.544,4.031H46.648a2.819,2.819,0,0,0,2.546-1.611l11.67-24.658A2.82,2.82,0,0,0,60.85,72.5ZM98.031,95.57H82.694L54.8,35.638a2.82,2.82,0,0,0-2.555-1.628H42.111l.011-11.6H62.433L90.192,82.334a2.821,2.821,0,0,0,2.555,1.634h5.284ZM94.547,78.334,66.788,18.408a2.825,2.825,0,0,0-2.558-1.634H39.308a2.817,2.817,0,0,0-2.817,2.814l-.017,17.236a2.818,2.818,0,0,0,2.817,2.82H50.454L78.345,99.575A2.819,2.819,0,0,0,80.9,101.2h19.951a2.814,2.814,0,0,0,2.817-2.817V81.151a2.814,2.814,0,0,0-2.817-2.817Z" fill="#ff9800" fill-rule="evenodd"/>
  </g>
</svg>
