<svg id="Icon-Architecture_64_Arch_AWS-Shield_64" data-name="Icon-Architecture/64/Arch_AWS-Shield_64" xmlns="http://www.w3.org/2000/svg" width="53" height="53" viewBox="0 0 53 53">
  <g id="Icon-Architecture-BG_64_Security-Identity-Compliance" data-name="Icon-Architecture-BG/64/Security-Identity-Compliance">
    <rect id="Rectangle" width="53" height="53" rx="26.5" fill="#ff9800"/>
  </g>
  <path id="AWS-Shield_Icon_64_Squid" d="M41.3,37.629H39.971v2.663H37.308v1.331h2.663v2.663H41.3V41.623h2.663V40.291H41.3Zm4.66,3.328a5.325,5.325,0,1,0-5.325,5.325,5.331,5.331,0,0,0,5.325-5.325Zm1.331,0A6.657,6.657,0,1,1,40.636,34.3a6.664,6.664,0,0,1,6.657,6.657ZM29.32,42.935V19.294L22,22.11V35.632c.008.276.264,6.909,7.322,7.3Zm8.653-9.5V22.11l-7.322-2.816V42.929a9.085,9.085,0,0,0,2.154-.4,7.938,7.938,0,0,0,.383,1.29,10.668,10.668,0,0,1-3.2.465c-9.026,0-9.317-8.552-9.319-8.639V21.653a.667.667,0,0,1,.427-.622L29.747,17.7a.672.672,0,0,1,.478,0l8.653,3.328a.667.667,0,0,1,.427.622V33.09a7.945,7.945,0,0,0-1.331.345ZM35.141,46.74a8.054,8.054,0,0,0,1.209.946,15.32,15.32,0,0,1-6.365,1.251c-4.212,0-7.569-1.281-9.979-3.808-4.281-4.488-4.013-11.24-4-11.525V18.991a.667.667,0,0,1,.419-.618l13.313-5.325a.673.673,0,0,1,.494,0l13.313,5.325a.667.667,0,0,1,.419.618V33.635s0,.029,0,.071a7.946,7.946,0,0,0-1.333-.474V19.441L29.986,14.382,17.338,19.441V33.635c0,.1-.25,6.513,3.638,10.582,2.148,2.249,5.179,3.389,9.009,3.389a14.518,14.518,0,0,0,5.155-.865Z" transform="translate(-5.35 -4.347)" fill="#fff" fill-rule="evenodd"/>
</svg>
