<svg id="Icon-Service_64_AWS-WAF_64" data-name="Icon-Service/64/AWS-WAF_64" xmlns="http://www.w3.org/2000/svg" width="126.154" height="126.154" viewBox="0 0 126.154 126.154">
  <path id="AWS-WAF_Icon_64_Squid" d="M9.4,69.33H4V64.824H9.4A57.229,57.229,0,0,1,20.237,33.342l3.652,2.642a52.75,52.75,0,0,0-9.98,28.84h5.859V69.33H13.9a52.743,52.743,0,0,0,9.986,29.006l-3.652,2.642A57.237,57.237,0,0,1,9.4,69.33ZM100.89,114a57.213,57.213,0,0,1-31.561,10.838v5.319H64.824v-5.319A57.228,57.228,0,0,1,33.258,114l2.64-3.649a52.74,52.74,0,0,0,28.925,9.982v-5.945h4.506v5.945a52.755,52.755,0,0,0,28.921-9.982ZM33.258,20.323A57.208,57.208,0,0,1,64.824,9.488V4h4.506V9.488A57.211,57.211,0,0,1,100.89,20.323l-2.64,3.649a52.735,52.735,0,0,0-28.921-9.98v5.776H64.824V13.993A52.738,52.738,0,0,0,35.9,23.973Zm96.9,44.5V69.33h-5.4a57.234,57.234,0,0,1-10.838,31.649l-3.654-2.642a52.725,52.725,0,0,0,9.986-29.006h-5.862V64.824h5.855a52.75,52.75,0,0,0-9.98-28.84l3.654-2.642a57.244,57.244,0,0,1,10.831,31.482ZM100.8,30.245l17.662-17.662,3.185,3.185L103.99,33.43ZM33.344,104.076,15.682,121.738,12.5,118.552l17.662-17.662Zm5.015-62.53L4.928,8.116,8.113,4.93,41.546,38.361ZM95.7,92.517l33.519,33.521-3.185,3.185L92.515,95.705ZM48.3,68.733c.169-.3.351-.6.543-.9,3.787-5.95,2.7-14.068,1.5-18.973,3.246,2.133,6.173,6.542,7.171,8.394a2.224,2.224,0,0,0,2.16,1.178,2.255,2.255,0,0,0,1.951-1.5C64.975,47.4,63.269,40.24,60.9,35.6a16.254,16.254,0,0,1,6.56,7.132c3.19,6.628,2.48,15.7-1.856,23.672C59.685,77.3,60.873,88.717,62.22,94.863a51.02,51.02,0,0,1-8.988-4.915A16.29,16.29,0,0,1,48.3,68.733Zm30.254-.759a2.253,2.253,0,0,0,3.638,2.113c.182-.146,3.877-3.2,5.666-10.574,2.156,3.136,4.411,9.464,1.41,21.088C86.3,92.1,72.213,95.336,67.187,96.131c-1.214-4.355-3.676-16.441,2.381-27.578,4.3-7.907,5.438-16.848,3.285-24.226,4.077,4.789,7.517,12.327,5.7,23.647Zm-34.179-1.46a20.832,20.832,0,0,0,6.281,27.13,60.4,60.4,0,0,0,14.192,7.092,2.228,2.228,0,0,0,.759.133c.047,0,.088-.025.133-.027l0,.02c.957-.074,23.471-2.03,27.887-19.135,5.681-22-5.7-28.527-6.184-28.795a2.251,2.251,0,0,0-3.323,1.744,29.044,29.044,0,0,1-.712,4.071c-1.559-17.274-15.253-24.3-18.022-25.553A23.44,23.44,0,0,0,55.1,28.816a2.254,2.254,0,0,0-1.836,3.947c.338.286,7.357,6.373,5.355,17.957C56,47.289,51.837,43.153,46.939,43.153a2.256,2.256,0,0,0-2.1,3.066c.05.122,4.641,12.221.2,19.193-.234.369-.457.739-.665,1.1Z" transform="translate(-4 -4)" fill="#ff9800" fill-rule="evenodd"/>
</svg>
