<svg id="Component_16_1" data-name="Component 16 – 1" xmlns="http://www.w3.org/2000/svg" width="73" height="73" viewBox="0 0 73 73">
  <g id="Icon-Architecture-BG_64_Security-Identity-Compliance" data-name="Icon-Architecture-BG/64/Security-Identity-Compliance" transform="translate(-0.053 -0.016)">
    <rect id="Rectangle" width="73" height="73" rx="36.5" transform="translate(0.053 0.016)" fill="#ff9800"/>
  </g>
  <path id="AWS-Shield_Icon_64_Squid" d="M51.085,47.151H49.239v3.692H45.547v1.846h3.692v3.692h1.846V52.689h3.692V50.843H51.085Zm6.461,4.615a7.384,7.384,0,1,0-7.384,7.384,7.393,7.393,0,0,0,7.384-7.384Zm1.846,0a9.23,9.23,0,1,1-9.23-9.23,9.241,9.241,0,0,1,9.23,9.23ZM34.47,54.509V21.728L24.317,25.633V44.382c.011.382.366,9.581,10.153,10.126Zm12-13.172v-15.7L36.316,21.728V54.5a12.6,12.6,0,0,0,2.987-.553,11.007,11.007,0,0,0,.531,1.789,14.793,14.793,0,0,1-4.441.644c-12.515,0-12.92-11.859-12.922-11.979V25a.924.924,0,0,1,.592-.862l12-4.615a.932.932,0,0,1,.663,0l12,4.615a.924.924,0,0,1,.592.862V40.857a11.016,11.016,0,0,0-1.846.479ZM42.542,59.786A11.169,11.169,0,0,0,44.219,61.1a21.243,21.243,0,0,1-8.826,1.734c-5.84,0-10.5-1.777-13.837-5.281-5.936-6.224-5.565-15.586-5.546-15.981V21.307a.925.925,0,0,1,.581-.857l18.46-7.384a.934.934,0,0,1,.685,0L54.2,20.449a.925.925,0,0,1,.581.857V41.613s0,.041,0,.1a11.018,11.018,0,0,0-1.849-.657V21.932L35.393,14.917,17.856,21.932V41.613c-.006.132-.346,9.031,5.045,14.673,2.979,3.118,7.182,4.7,12.492,4.7a20.132,20.132,0,0,0,7.149-1.2Z" transform="translate(-0.799 -1.455)" fill="#fff" fill-rule="evenodd"/>
</svg>
