<svg id="Icon-Architecture_64_Arch_AWS-WAF_64" data-name="Icon-Architecture/64/Arch_AWS-WAF_64" xmlns="http://www.w3.org/2000/svg" width="73.492" height="73.492" viewBox="0 0 73.492 73.492">
  <g id="Rectangle" transform="translate(0)">
    <rect id="Rectangle_171" data-name="Rectangle 171" width="73.492" height="73.492" rx="36.746" fill="#ff9800"/>
  </g>
  <g id="Icon-Service_64_AWS-WAF_64" data-name="Icon-Service/64/AWS-WAF_64" transform="translate(10.949 11.076)">
    <path id="AWS-WAF_Icon_64_Squid" d="M6.211,30.768H4V28.922H6.214a23.448,23.448,0,0,1,4.439-12.9l1.5,1.083A21.613,21.613,0,0,0,8.06,28.922h2.4v1.846h-2.4a21.61,21.61,0,0,0,4.092,11.885l-1.5,1.083A23.452,23.452,0,0,1,6.211,30.768ZM43.7,49.069A23.442,23.442,0,0,1,30.767,53.51v2.179H28.921V53.51a23.448,23.448,0,0,1-12.933-4.441l1.082-1.5a21.609,21.609,0,0,0,11.852,4.09V49.228h1.846v2.436a21.615,21.615,0,0,0,11.85-4.09ZM15.988,10.688a23.44,23.44,0,0,1,12.933-4.44V4h1.846V6.248A23.441,23.441,0,0,1,43.7,10.688l-1.082,1.5a21.607,21.607,0,0,0-11.85-4.089v2.367H28.921V8.095a21.608,21.608,0,0,0-11.852,4.089Zm39.7,18.233v1.846H53.475a23.451,23.451,0,0,1-4.441,12.968l-1.5-1.083a21.6,21.6,0,0,0,4.092-11.885h-2.4V28.922h2.4a21.613,21.613,0,0,0-4.089-11.817l1.5-1.083a23.455,23.455,0,0,1,4.438,12.9ZM43.664,14.753,50.9,7.517l1.305,1.305-7.236,7.236ZM16.023,45,8.786,52.241,7.481,50.936,14.718,43.7Zm2.055-25.62L4.38,5.686,5.685,4.381l13.7,13.7Zm23.5,20.884L55.307,54,54,55.308,40.267,41.574ZM22.15,30.523c.069-.123.144-.246.222-.37,1.552-2.438,1.107-5.764.614-7.774a10.883,10.883,0,0,1,2.938,3.439.911.911,0,0,0,.885.483.924.924,0,0,0,.8-.613,10.773,10.773,0,0,0-.294-8.742A6.66,6.66,0,0,1,30,19.869c1.307,2.716,1.016,6.433-.761,9.7a17.028,17.028,0,0,0-1.388,11.661,20.9,20.9,0,0,1-3.683-2.014,6.675,6.675,0,0,1-2.021-8.692Zm12.4-.311a.923.923,0,0,0,1.491.866,8.1,8.1,0,0,0,2.321-4.333c.883,1.285,1.807,3.878.578,8.64-1.217,4.712-6.987,6.037-9.047,6.363-.5-1.784-1.506-6.736.976-11.3a13.376,13.376,0,0,0,1.346-9.926c1.671,1.962,3.08,5.051,2.335,9.689Zm-14-.6A8.536,8.536,0,0,0,23.115,40.73a24.747,24.747,0,0,0,5.815,2.906.913.913,0,0,0,.311.054c.019,0,.036-.01.054-.011v.008c.392-.03,9.617-.832,11.426-7.84,2.328-9.014-2.334-11.688-2.534-11.8a.922.922,0,0,0-1.361.714,11.9,11.9,0,0,1-.292,1.668,12.834,12.834,0,0,0-7.384-10.47,9.6,9.6,0,0,0-4.216-1.793.924.924,0,0,0-.752,1.617,7.892,7.892,0,0,1,2.194,7.357c-1.072-1.406-2.777-3.1-4.784-3.1a.925.925,0,0,0-.861,1.256c.02.05,1.9,5.007.082,7.864-.1.151-.187.3-.272.451Z" transform="translate(-4 -4)" fill="#fff" fill-rule="evenodd"/>
  </g>
</svg>
