<svg xmlns="http://www.w3.org/2000/svg" width="53" height="53" viewBox="0 0 53 53">
  <g id="Icon-Architecture_64_Arch_AWS-WAF_64" data-name="Icon-Architecture/64/Arch_AWS-WAF_64" transform="translate(-0.091)">
    <g id="Rectangle">
      <rect id="Rectangle_171" data-name="Rectangle 171" width="53" height="53" rx="26.5" transform="translate(0.091)" fill="#ff9800"/>
    </g>
    <g id="Icon-Service_64_AWS-WAF_64" data-name="Icon-Service/64/AWS-WAF_64" transform="translate(7.987 7.988)">
      <path id="AWS-WAF_Icon_64_Squid" d="M5.594,23.3H4V21.973H5.6a16.91,16.91,0,0,1,3.2-9.3l1.079.781a15.587,15.587,0,0,0-2.949,8.522H8.659V23.3H6.926a15.585,15.585,0,0,0,2.951,8.571L8.8,32.656a16.912,16.912,0,0,1-3.2-9.352ZM32.629,36.5A16.906,16.906,0,0,1,23.3,39.7v1.572H21.972V39.7a16.91,16.91,0,0,1-9.327-3.2l.78-1.078a15.584,15.584,0,0,0,8.547,2.949V36.617H23.3v1.757a15.588,15.588,0,0,0,8.546-2.949ZM12.645,8.823a16.9,16.9,0,0,1,9.327-3.2V4H23.3V5.622a16.9,16.9,0,0,1,9.326,3.2L31.849,9.9A15.582,15.582,0,0,0,23.3,6.953V8.66H21.972V6.953A15.583,15.583,0,0,0,13.425,9.9ZM41.276,21.973V23.3h-1.6a16.912,16.912,0,0,1-3.2,9.352l-1.08-.781A15.579,15.579,0,0,0,38.348,23.3H36.616V21.973h1.73A15.587,15.587,0,0,0,35.4,13.451l1.08-.781a16.915,16.915,0,0,1,3.2,9.3ZM32.6,11.755l5.219-5.219.941.941L33.545,12.7ZM12.67,33.571,7.452,38.79l-.941-.941,5.219-5.219Zm1.482-18.476L4.274,5.216l.941-.941,9.879,9.878ZM31.1,30.155l9.9,9.9L40.059,41l-9.9-9.9ZM17.089,23.127c.05-.089.1-.178.16-.267,1.119-1.758.8-4.157.443-5.606a7.848,7.848,0,0,1,2.119,2.48.657.657,0,0,0,.638.348.666.666,0,0,0,.576-.442,7.769,7.769,0,0,0-.212-6.3,4.8,4.8,0,0,1,1.938,2.107,7.891,7.891,0,0,1-.548,6.995,12.28,12.28,0,0,0-1,8.41A15.076,15.076,0,0,1,18.547,29.4a4.814,4.814,0,0,1-1.458-6.268Zm8.94-.224a.666.666,0,0,0,1.075.624A5.844,5.844,0,0,0,28.778,20.4c.637.927,1.3,2.8.417,6.231-.877,3.4-5.039,4.354-6.524,4.589a11.275,11.275,0,0,1,.7-8.149,9.646,9.646,0,0,0,.971-7.158A8.258,8.258,0,0,1,26.029,22.9Zm-10.1-.431a6.156,6.156,0,0,0,1.856,8.016,17.846,17.846,0,0,0,4.194,2.1.658.658,0,0,0,.224.039c.014,0,.026-.007.039-.008v.006c.283-.022,6.935-.6,8.24-5.654,1.679-6.5-1.683-8.429-1.827-8.508a.665.665,0,0,0-.982.515,8.582,8.582,0,0,1-.21,1.2,9.255,9.255,0,0,0-5.325-7.55A6.926,6.926,0,0,0,19.1,11.333a.666.666,0,0,0-.543,1.166A5.691,5.691,0,0,1,20.138,17.8c-.773-1.014-2-2.236-3.45-2.236a.667.667,0,0,0-.621.906c.015.036,1.371,3.611.059,5.671-.069.109-.135.218-.2.326Z" transform="translate(-4 -4)" fill="#fff" fill-rule="evenodd"/>
    </g>
  </g>
</svg>
