<svg id="Component_25_1" data-name="Component 25 – 1" xmlns="http://www.w3.org/2000/svg" width="86.19" height="78.634" viewBox="0 0 86.19 78.634">
  <g id="bot">
    <path id="Path_1008" data-name="Path 1008" d="M155,270h2.7v1.351H155Z" transform="translate(-148.022 -258.295)" fill="#d1d4e2"/>
    <path id="Path_1009" data-name="Path 1009" d="M295,270h2.7v1.351H295Z" transform="translate(-281.719 -258.295)" fill="#d1d4e2"/>
    <path id="Path_1010" data-name="Path 1010" d="M21.186,21.705H18.908V19.252A2.051,2.051,0,0,0,16.86,17.2h-4.7V15.8a2.926,2.926,0,1,0-1.351-.071V17.2H6.1a2.051,2.051,0,0,0-2.049,2.049v2.453H1.774A1.776,1.776,0,0,0,0,23.479v3.205a1.776,1.776,0,0,0,1.774,1.774H4.052v1.553A2.051,2.051,0,0,0,6.1,32.06H16.86a2.051,2.051,0,0,0,2.049-2.049V28.458h2.278a1.776,1.776,0,0,0,1.774-1.774V23.479A1.776,1.776,0,0,0,21.186,21.705ZM10.054,12.926A1.576,1.576,0,1,1,11.63,14.5,1.577,1.577,0,0,1,10.054,12.926ZM1.774,27.108a.424.424,0,0,1-.423-.423V23.479a.424.424,0,0,1,.423-.423H4.052v4.052H1.774Zm10.381-.45v4.052H10.8V26.657Zm-2.7,4.052H8.1V27.034a.377.377,0,0,1,.376-.376h.974Zm4.052,0V26.657h.974a.377.377,0,0,1,.376.376v3.675Zm4.052-.7a.7.7,0,0,1-.7.7h-.652V27.034a1.729,1.729,0,0,0-1.727-1.727h-6a1.729,1.729,0,0,0-1.727,1.727v3.675H6.1a.7.7,0,0,1-.7-.7V19.252a.7.7,0,0,1,.7-.7H16.86a.7.7,0,0,1,.7.7V30.011Zm4.052-3.327a.424.424,0,0,1-.423.423H18.908V23.056h2.278a.424.424,0,0,1,.423.423Z" transform="translate(0 -10)" fill="#d1d4e2"/>
  </g>
  <g id="bot-2" data-name="bot" transform="translate(0 28.287)">
    <path id="Path_1008-2" data-name="Path 1008" d="M155,270h2.7v1.351H155Z" transform="translate(-148.022 -258.295)" fill="#1f2649"/>
    <path id="Path_1009-2" data-name="Path 1009" d="M295,270h2.7v1.351H295Z" transform="translate(-281.719 -258.295)" fill="#1f2649"/>
    <path id="Path_1010-2" data-name="Path 1010" d="M21.186,21.705H18.908V19.252A2.051,2.051,0,0,0,16.86,17.2h-4.7V15.8a2.926,2.926,0,1,0-1.351-.071V17.2H6.1a2.051,2.051,0,0,0-2.049,2.049v2.453H1.774A1.776,1.776,0,0,0,0,23.479v3.205a1.776,1.776,0,0,0,1.774,1.774H4.052v1.553A2.051,2.051,0,0,0,6.1,32.06H16.86a2.051,2.051,0,0,0,2.049-2.049V28.458h2.278a1.776,1.776,0,0,0,1.774-1.774V23.479A1.776,1.776,0,0,0,21.186,21.705ZM10.054,12.926A1.576,1.576,0,1,1,11.63,14.5,1.577,1.577,0,0,1,10.054,12.926ZM1.774,27.108a.424.424,0,0,1-.423-.423V23.479a.424.424,0,0,1,.423-.423H4.052v4.052H1.774Zm10.381-.45v4.052H10.8V26.657Zm-2.7,4.052H8.1V27.034a.377.377,0,0,1,.376-.376h.974Zm4.052,0V26.657h.974a.377.377,0,0,1,.376.376v3.675Zm4.052-.7a.7.7,0,0,1-.7.7h-.652V27.034a1.729,1.729,0,0,0-1.727-1.727h-6a1.729,1.729,0,0,0-1.727,1.727v3.675H6.1a.7.7,0,0,1-.7-.7V19.252a.7.7,0,0,1,.7-.7H16.86a.7.7,0,0,1,.7.7V30.011Zm4.052-3.327a.424.424,0,0,1-.423.423H18.908V23.056h2.278a.424.424,0,0,1,.423.423Z" transform="translate(0 -10)" fill="#1f2649"/>
  </g>
  <g id="bot-3" data-name="bot" transform="translate(0 56.574)">
    <path id="Path_1008-3" data-name="Path 1008" d="M155,270h2.7v1.351H155Z" transform="translate(-148.022 -258.295)" fill="#d1d4e2"/>
    <path id="Path_1009-3" data-name="Path 1009" d="M295,270h2.7v1.351H295Z" transform="translate(-281.719 -258.295)" fill="#d1d4e2"/>
    <path id="Path_1010-3" data-name="Path 1010" d="M21.186,21.705H18.908V19.252A2.051,2.051,0,0,0,16.86,17.2h-4.7V15.8a2.926,2.926,0,1,0-1.351-.071V17.2H6.1a2.051,2.051,0,0,0-2.049,2.049v2.453H1.774A1.776,1.776,0,0,0,0,23.479v3.205a1.776,1.776,0,0,0,1.774,1.774H4.052v1.553A2.051,2.051,0,0,0,6.1,32.06H16.86a2.051,2.051,0,0,0,2.049-2.049V28.458h2.278a1.776,1.776,0,0,0,1.774-1.774V23.479A1.776,1.776,0,0,0,21.186,21.705ZM10.054,12.926A1.576,1.576,0,1,1,11.63,14.5,1.577,1.577,0,0,1,10.054,12.926ZM1.774,27.108a.424.424,0,0,1-.423-.423V23.479a.424.424,0,0,1,.423-.423H4.052v4.052H1.774Zm10.381-.45v4.052H10.8V26.657Zm-2.7,4.052H8.1V27.034a.377.377,0,0,1,.376-.376h.974Zm4.052,0V26.657h.974a.377.377,0,0,1,.376.376v3.675Zm4.052-.7a.7.7,0,0,1-.7.7h-.652V27.034a1.729,1.729,0,0,0-1.727-1.727h-6a1.729,1.729,0,0,0-1.727,1.727v3.675H6.1a.7.7,0,0,1-.7-.7V19.252a.7.7,0,0,1,.7-.7H16.86a.7.7,0,0,1,.7.7V30.011Zm4.052-3.327a.424.424,0,0,1-.423.423H18.908V23.056h2.278a.424.424,0,0,1,.423.423Z" transform="translate(0 -10)" fill="#d1d4e2"/>
  </g>
  <g id="bot-4" data-name="bot" transform="translate(31.614)">
    <path id="Path_1008-4" data-name="Path 1008" d="M155,270h2.7v1.351H155Z" transform="translate(-148.022 -258.295)" fill="#1f2649"/>
    <path id="Path_1009-4" data-name="Path 1009" d="M295,270h2.7v1.351H295Z" transform="translate(-281.719 -258.295)" fill="#1f2649"/>
    <path id="Path_1010-4" data-name="Path 1010" d="M21.186,21.705H18.908V19.252A2.051,2.051,0,0,0,16.86,17.2h-4.7V15.8a2.926,2.926,0,1,0-1.351-.071V17.2H6.1a2.051,2.051,0,0,0-2.049,2.049v2.453H1.774A1.776,1.776,0,0,0,0,23.479v3.205a1.776,1.776,0,0,0,1.774,1.774H4.052v1.553A2.051,2.051,0,0,0,6.1,32.06H16.86a2.051,2.051,0,0,0,2.049-2.049V28.458h2.278a1.776,1.776,0,0,0,1.774-1.774V23.479A1.776,1.776,0,0,0,21.186,21.705ZM10.054,12.926A1.576,1.576,0,1,1,11.63,14.5,1.577,1.577,0,0,1,10.054,12.926ZM1.774,27.108a.424.424,0,0,1-.423-.423V23.479a.424.424,0,0,1,.423-.423H4.052v4.052H1.774Zm10.381-.45v4.052H10.8V26.657Zm-2.7,4.052H8.1V27.034a.377.377,0,0,1,.376-.376h.974Zm4.052,0V26.657h.974a.377.377,0,0,1,.376.376v3.675Zm4.052-.7a.7.7,0,0,1-.7.7h-.652V27.034a1.729,1.729,0,0,0-1.727-1.727h-6a1.729,1.729,0,0,0-1.727,1.727v3.675H6.1a.7.7,0,0,1-.7-.7V19.252a.7.7,0,0,1,.7-.7H16.86a.7.7,0,0,1,.7.7V30.011Zm4.052-3.327a.424.424,0,0,1-.423.423H18.908V23.056h2.278a.424.424,0,0,1,.423.423Z" transform="translate(0 -10)" fill="#1f2649"/>
  </g>
  <g id="bot-5" data-name="bot" transform="translate(31.614 56.574)">
    <path id="Path_1008-5" data-name="Path 1008" d="M155,270h2.7v1.351H155Z" transform="translate(-148.022 -258.295)" fill="#1f2649"/>
    <path id="Path_1009-5" data-name="Path 1009" d="M295,270h2.7v1.351H295Z" transform="translate(-281.719 -258.295)" fill="#1f2649"/>
    <path id="Path_1010-5" data-name="Path 1010" d="M21.186,21.705H18.908V19.252A2.051,2.051,0,0,0,16.86,17.2h-4.7V15.8a2.926,2.926,0,1,0-1.351-.071V17.2H6.1a2.051,2.051,0,0,0-2.049,2.049v2.453H1.774A1.776,1.776,0,0,0,0,23.479v3.205a1.776,1.776,0,0,0,1.774,1.774H4.052v1.553A2.051,2.051,0,0,0,6.1,32.06H16.86a2.051,2.051,0,0,0,2.049-2.049V28.458h2.278a1.776,1.776,0,0,0,1.774-1.774V23.479A1.776,1.776,0,0,0,21.186,21.705ZM10.054,12.926A1.576,1.576,0,1,1,11.63,14.5,1.577,1.577,0,0,1,10.054,12.926ZM1.774,27.108a.424.424,0,0,1-.423-.423V23.479a.424.424,0,0,1,.423-.423H4.052v4.052H1.774Zm10.381-.45v4.052H10.8V26.657Zm-2.7,4.052H8.1V27.034a.377.377,0,0,1,.376-.376h.974Zm4.052,0V26.657h.974a.377.377,0,0,1,.376.376v3.675Zm4.052-.7a.7.7,0,0,1-.7.7h-.652V27.034a1.729,1.729,0,0,0-1.727-1.727h-6a1.729,1.729,0,0,0-1.727,1.727v3.675H6.1a.7.7,0,0,1-.7-.7V19.252a.7.7,0,0,1,.7-.7H16.86a.7.7,0,0,1,.7.7V30.011Zm4.052-3.327a.424.424,0,0,1-.423.423H18.908V23.056h2.278a.424.424,0,0,1,.423.423Z" transform="translate(0 -10)" fill="#1f2649"/>
  </g>
  <g id="bot-6" data-name="bot" transform="translate(63.229)">
    <path id="Path_1008-6" data-name="Path 1008" d="M155,270h2.7v1.351H155Z" transform="translate(-148.022 -258.295)" fill="#d1d4e2"/>
    <path id="Path_1009-6" data-name="Path 1009" d="M295,270h2.7v1.351H295Z" transform="translate(-281.719 -258.295)" fill="#d1d4e2"/>
    <path id="Path_1010-6" data-name="Path 1010" d="M21.186,21.705H18.908V19.252A2.051,2.051,0,0,0,16.86,17.2h-4.7V15.8a2.926,2.926,0,1,0-1.351-.071V17.2H6.1a2.051,2.051,0,0,0-2.049,2.049v2.453H1.774A1.776,1.776,0,0,0,0,23.479v3.205a1.776,1.776,0,0,0,1.774,1.774H4.052v1.553A2.051,2.051,0,0,0,6.1,32.06H16.86a2.051,2.051,0,0,0,2.049-2.049V28.458h2.278a1.776,1.776,0,0,0,1.774-1.774V23.479A1.776,1.776,0,0,0,21.186,21.705ZM10.054,12.926A1.576,1.576,0,1,1,11.63,14.5,1.577,1.577,0,0,1,10.054,12.926ZM1.774,27.108a.424.424,0,0,1-.423-.423V23.479a.424.424,0,0,1,.423-.423H4.052v4.052H1.774Zm10.381-.45v4.052H10.8V26.657Zm-2.7,4.052H8.1V27.034a.377.377,0,0,1,.376-.376h.974Zm4.052,0V26.657h.974a.377.377,0,0,1,.376.376v3.675Zm4.052-.7a.7.7,0,0,1-.7.7h-.652V27.034a1.729,1.729,0,0,0-1.727-1.727h-6a1.729,1.729,0,0,0-1.727,1.727v3.675H6.1a.7.7,0,0,1-.7-.7V19.252a.7.7,0,0,1,.7-.7H16.86a.7.7,0,0,1,.7.7V30.011Zm4.052-3.327a.424.424,0,0,1-.423.423H18.908V23.056h2.278a.424.424,0,0,1,.423.423Z" transform="translate(0 -10)" fill="#d1d4e2"/>
  </g>
  <g id="bot-7" data-name="bot" transform="translate(63.229 28.287)">
    <path id="Path_1008-7" data-name="Path 1008" d="M155,270h2.7v1.351H155Z" transform="translate(-148.022 -258.295)" fill="#1f2649"/>
    <path id="Path_1009-7" data-name="Path 1009" d="M295,270h2.7v1.351H295Z" transform="translate(-281.719 -258.295)" fill="#1f2649"/>
    <path id="Path_1010-7" data-name="Path 1010" d="M21.186,21.705H18.908V19.252A2.051,2.051,0,0,0,16.86,17.2h-4.7V15.8a2.926,2.926,0,1,0-1.351-.071V17.2H6.1a2.051,2.051,0,0,0-2.049,2.049v2.453H1.774A1.776,1.776,0,0,0,0,23.479v3.205a1.776,1.776,0,0,0,1.774,1.774H4.052v1.553A2.051,2.051,0,0,0,6.1,32.06H16.86a2.051,2.051,0,0,0,2.049-2.049V28.458h2.278a1.776,1.776,0,0,0,1.774-1.774V23.479A1.776,1.776,0,0,0,21.186,21.705ZM10.054,12.926A1.576,1.576,0,1,1,11.63,14.5,1.577,1.577,0,0,1,10.054,12.926ZM1.774,27.108a.424.424,0,0,1-.423-.423V23.479a.424.424,0,0,1,.423-.423H4.052v4.052H1.774Zm10.381-.45v4.052H10.8V26.657Zm-2.7,4.052H8.1V27.034a.377.377,0,0,1,.376-.376h.974Zm4.052,0V26.657h.974a.377.377,0,0,1,.376.376v3.675Zm4.052-.7a.7.7,0,0,1-.7.7h-.652V27.034a1.729,1.729,0,0,0-1.727-1.727h-6a1.729,1.729,0,0,0-1.727,1.727v3.675H6.1a.7.7,0,0,1-.7-.7V19.252a.7.7,0,0,1,.7-.7H16.86a.7.7,0,0,1,.7.7V30.011Zm4.052-3.327a.424.424,0,0,1-.423.423H18.908V23.056h2.278a.424.424,0,0,1,.423.423Z" transform="translate(0 -10)" fill="#1f2649"/>
  </g>
  <g id="bot-8" data-name="bot" transform="translate(63.229 56.574)">
    <path id="Path_1008-8" data-name="Path 1008" d="M155,270h2.7v1.351H155Z" transform="translate(-148.022 -258.295)" fill="#d1d4e2"/>
    <path id="Path_1009-8" data-name="Path 1009" d="M295,270h2.7v1.351H295Z" transform="translate(-281.719 -258.295)" fill="#d1d4e2"/>
    <path id="Path_1010-8" data-name="Path 1010" d="M21.186,21.705H18.908V19.252A2.051,2.051,0,0,0,16.86,17.2h-4.7V15.8a2.926,2.926,0,1,0-1.351-.071V17.2H6.1a2.051,2.051,0,0,0-2.049,2.049v2.453H1.774A1.776,1.776,0,0,0,0,23.479v3.205a1.776,1.776,0,0,0,1.774,1.774H4.052v1.553A2.051,2.051,0,0,0,6.1,32.06H16.86a2.051,2.051,0,0,0,2.049-2.049V28.458h2.278a1.776,1.776,0,0,0,1.774-1.774V23.479A1.776,1.776,0,0,0,21.186,21.705ZM10.054,12.926A1.576,1.576,0,1,1,11.63,14.5,1.577,1.577,0,0,1,10.054,12.926ZM1.774,27.108a.424.424,0,0,1-.423-.423V23.479a.424.424,0,0,1,.423-.423H4.052v4.052H1.774Zm10.381-.45v4.052H10.8V26.657Zm-2.7,4.052H8.1V27.034a.377.377,0,0,1,.376-.376h.974Zm4.052,0V26.657h.974a.377.377,0,0,1,.376.376v3.675Zm4.052-.7a.7.7,0,0,1-.7.7h-.652V27.034a1.729,1.729,0,0,0-1.727-1.727h-6a1.729,1.729,0,0,0-1.727,1.727v3.675H6.1a.7.7,0,0,1-.7-.7V19.252a.7.7,0,0,1,.7-.7H16.86a.7.7,0,0,1,.7.7V30.011Zm4.052-3.327a.424.424,0,0,1-.423.423H18.908V23.056h2.278a.424.424,0,0,1,.423.423Z" transform="translate(0 -10)" fill="#d1d4e2"/>
  </g>
  <circle id="Ellipse_330" data-name="Ellipse 330" cx="23" cy="23" r="23" transform="translate(19 20)" fill="#ff9800"/>
  <g id="Icon_feather-user-check" data-name="Icon feather-user-check" transform="translate(31.499 28.5)">
    <path id="Path_1015" data-name="Path 1015" d="M16.561,28.525V26.516A4.016,4.016,0,0,0,12.545,22.5H5.516A4.016,4.016,0,0,0,1.5,26.516v2.008" transform="translate(0 -5.951)" fill="none" stroke="#fff" stroke-linecap="round" stroke-linejoin="round" stroke-width="2"/>
    <path id="Path_1016" data-name="Path 1016" d="M14.783,8.516A4.016,4.016,0,1,1,10.766,4.5,4.016,4.016,0,0,1,14.783,8.516Z" transform="translate(-1.736)" fill="none" stroke="#fff" stroke-linecap="round" stroke-linejoin="round" stroke-width="2"/>
    <path id="Path_1017" data-name="Path 1017" d="M25.5,15.508l2.008,2.008L31.525,13.5" transform="translate(-7.935 -2.975)" fill="none" stroke="#fff" stroke-linecap="round" stroke-linejoin="round" stroke-width="2"/>
  </g>
</svg>
