<svg xmlns="http://www.w3.org/2000/svg" xmlns:xlink="http://www.w3.org/1999/xlink" width="106.967" height="89.42" viewBox="0 0 106.967 89.42">
  <defs>
    <clipPath id="clip-path">
      <path id="Path_47" data-name="Path 47" d="M238.186,1102.417a12.378,12.378,0,0,0-3.814-.784c-7.223-.31-12.943,5.88-12.624,13.822a15.707,15.707,0,0,0,.5,3.359,5.718,5.718,0,0,0-1.988-.389,5.8,5.8,0,0,0-5.735,6.287,6.582,6.582,0,0,0,5.156,6.246l45.92-.044c.256,0,.508-.016.758-.039,4.717-.46,8.217-4.995,8.014-10.514-.214-5.809-4.463-10.651-9.572-10.812a8.014,8.014,0,0,0-3.571.708,14.511,14.511,0,0,0,.061-2.012c-.271-7.2-5.668-13.339-12.178-13.7-.2-.011-.4-.017-.6-.017a10.965,10.965,0,0,0-10.328,7.891" transform="translate(-214.523 -1094.527)" fill="#ff9800"/>
    </clipPath>
    <clipPath id="clip-path-2">
      <path id="Path_68" data-name="Path 68" d="M1866.1,817.208a11.253,11.253,0,0,0-3.324-.7c-6.185-.324-10.982,4.687-10.717,11.191a12.873,12.873,0,0,0,.42,2.764,4.929,4.929,0,0,0-1.653-.38,4.516,4.516,0,0,0-4.7,4.911,5.737,5.737,0,0,0,4.225,5.293l40.924,2.283c.246.013.489.014.73.007,4.58-.152,8.028-4.008,7.826-8.942-.212-5.192-4.385-9.611-9.323-9.869a8.115,8.115,0,0,0-3.4.538,11.955,11.955,0,0,0,.058-1.755c-.257-6.291-5.316-11.647-11.3-11.96q-.276-.015-.548-.015a9.667,9.667,0,0,0-9.213,6.629" transform="translate(-1846.114 -810.579)" fill="none"/>
    </clipPath>
  </defs>
  <g id="Group_138" data-name="Group 138" transform="translate(-227.507 -2065.58)">
    <g id="Group_137" data-name="Group 137" transform="translate(266.227 2066.58)">
      <path id="Icon_ionic-md-document" data-name="Icon ionic-md-document" d="M47.1,3.375H15.156A8.406,8.406,0,0,0,6.75,11.781V82.389a8.406,8.406,0,0,0,8.406,8.406H65.59A8.406,8.406,0,0,0,74,82.389V30.273Zm3.362,26.9V6.737L74,30.273Z" transform="translate(-6.75 -3.375)" fill="none" stroke="#d1d4e2" stroke-linecap="round" stroke-linejoin="round" stroke-width="2"/>
      <line id="Line_1" data-name="Line 1" x2="20.403" transform="translate(10.479 74.314)" fill="none" stroke="#d1d4e2" stroke-linecap="round" stroke-linejoin="round" stroke-width="2"/>
      <line id="Line_5" data-name="Line 5" x2="25.204" transform="translate(10.479 68.914)" fill="none" stroke="#d1d4e2" stroke-linecap="round" stroke-linejoin="round" stroke-width="2"/>
      <line id="Line_7" data-name="Line 7" x2="15.602" transform="translate(10.479 63.513)" fill="none" stroke="#d1d4e2" stroke-linecap="round" stroke-linejoin="round" stroke-width="2"/>
      <line id="Line_10" data-name="Line 10" x2="22.803" transform="translate(10.479 58.712)" fill="none" stroke="#d1d4e2" stroke-linecap="round" stroke-linejoin="round" stroke-width="2"/>
      <line id="Line_2" data-name="Line 2" x2="3.601" transform="translate(41.683 74.314)" fill="none" stroke="#d1d4e2" stroke-linecap="round" stroke-linejoin="round" stroke-width="2"/>
      <line id="Line_4" data-name="Line 4" x2="3.601" transform="translate(41.683 68.914)" fill="none" stroke="#d1d4e2" stroke-linecap="round" stroke-linejoin="round" stroke-width="2"/>
      <line id="Line_8" data-name="Line 8" x2="3.601" transform="translate(41.683 63.513)" fill="none" stroke="#d1d4e2" stroke-linecap="round" stroke-linejoin="round" stroke-width="2"/>
      <line id="Line_11" data-name="Line 11" x2="3.601" transform="translate(41.683 58.712)" fill="none" stroke="#d1d4e2" stroke-linecap="round" stroke-linejoin="round" stroke-width="2"/>
      <line id="Line_3" data-name="Line 3" x2="8.401" transform="translate(50.084 74.314)" fill="none" stroke="#d1d4e2" stroke-linecap="round" stroke-linejoin="round" stroke-width="2"/>
      <line id="Line_6" data-name="Line 6" x2="8.401" transform="translate(50.084 68.914)" fill="none" stroke="#d1d4e2" stroke-linecap="round" stroke-linejoin="round" stroke-width="2"/>
      <line id="Line_15" data-name="Line 15" x2="15.602" transform="translate(41.683 47.311)" fill="none" stroke="#d1d4e2" stroke-linecap="round" stroke-linejoin="round" stroke-width="2"/>
      <line id="Line_9" data-name="Line 9" x2="8.401" transform="translate(50.084 63.513)" fill="none" stroke="#d1d4e2" stroke-linecap="round" stroke-linejoin="round" stroke-width="2"/>
      <line id="Line_14" data-name="Line 14" x2="13.202" transform="translate(41.683 41.91)" fill="none" stroke="#d1d4e2" stroke-linecap="round" stroke-linejoin="round" stroke-width="2"/>
      <line id="Line_12" data-name="Line 12" x2="8.401" transform="translate(50.084 58.712)" fill="none" stroke="#d1d4e2" stroke-linecap="round" stroke-linejoin="round" stroke-width="2"/>
      <line id="Line_13" data-name="Line 13" x2="16.802" transform="translate(41.683 37.109)" fill="none" stroke="#d1d4e2" stroke-linecap="round" stroke-linejoin="round" stroke-width="2"/>
    </g>
    <g id="Group_105" data-name="Group 105" transform="translate(227.507 2072.657)">
      <path id="Path_71" data-name="Path 71" d="M210.214,1122.892c6.575.338,12.025,6.481,12.3,13.719a14.5,14.5,0,0,1-.062,2.022,8.138,8.138,0,0,1,3.606-.726c5.158.141,9.448,4.987,9.664,10.824.205,5.545-3.329,10.116-8.091,10.6-.252.024-.507.04-.766.042l-46.385.244a6.59,6.59,0,0,1-5.211-6.257,5.875,5.875,0,0,1,5.8-6.345,5.8,5.8,0,0,1,2.008.383,15.685,15.685,0,0,1-.509-3.374c-.322-7.983,5.457-14.228,12.755-13.947a12.536,12.536,0,0,1,3.853.772c1.645-4.924,5.939-8.22,11.043-7.958" transform="translate(-172.506 -1120.441)" fill="#e3cece" style="mix-blend-mode: multiply;isolation: isolate"/>
      <g id="Group_77" data-name="Group 77" transform="translate(6.131)">
        <g id="Group_54" data-name="Group 54" clip-path="url(#clip-path)">
          <rect id="Rectangle_28" data-name="Rectangle 28" width="60.195" height="36.432" transform="translate(-0.137 0)" fill="#ff9800"/>
        </g>
      </g>
    </g>
    <ellipse id="Ellipse_51" data-name="Ellipse 51" cx="19" cy="18.5" rx="19" ry="18.5" transform="translate(241 2102)" fill="#c8cbdb"/>
    <g id="Group_136" data-name="Group 136" transform="translate(243.701 2098.289)">
      <ellipse id="Ellipse_50" data-name="Ellipse 50" cx="17" cy="16.5" rx="17" ry="16.5" transform="translate(2.299 2.711)" fill="#fff"/>
      <g id="dollar_1_" data-name="dollar (1)" transform="translate(0 0)">
        <path id="Path_190" data-name="Path 190" d="M18.6,0a18.6,18.6,0,1,0,18.6,18.6A18.657,18.657,0,0,0,18.6,0Zm0,16.742a6.591,6.591,0,0,1,6.511,6.511,6.415,6.415,0,0,1-4.651,6.139v2.232H16.742V29.392a6.591,6.591,0,0,1-4.651-6.139h3.721c0,3.721,5.581,3.721,5.581,0a2.861,2.861,0,0,0-2.79-2.79,6.591,6.591,0,0,1-6.511-6.511,6.415,6.415,0,0,1,4.651-6.139V5.581h3.721V7.813a6.591,6.591,0,0,1,4.651,6.139H21.393c0-3.721-5.581-3.721-5.581,0A2.861,2.861,0,0,0,18.6,16.742Z" fill="#1f2649"/>
      </g>
    </g>
  </g>
</svg>
