<svg xmlns="http://www.w3.org/2000/svg" width="104" height="68" viewBox="0 0 104 68">
  <g id="Group_414" data-name="Group 414" transform="translate(-254 -3206)">
    <path id="Path_623" data-name="Path 623" d="M81-12H-17a3,3,0,0,0-3,3V43a3,3,0,0,0,3,3H28v4H26a5.006,5.006,0,0,0-5,5,1,1,0,0,0,1,1H42a1,1,0,0,0,1-1,5.006,5.006,0,0,0-5-5H36V46H66a1,1,0,0,0,0-2H-17a1,1,0,0,1-1-1V-9a1,1,0,0,1,1-1H81a1,1,0,0,1,1,1V24a1,1,0,0,0,2,0V-9A3,3,0,0,0,81-12ZM40.829,54H23.171A3.006,3.006,0,0,1,26,52H38a3.006,3.006,0,0,1,2.829,2ZM34,46v4H30V46Z" transform="translate(274 3218)" fill="#d1d4e2"/>
    <circle id="Ellipse_187" data-name="Ellipse 187" cx="3" cy="3" r="3" transform="translate(262 3214)" fill="#ff9800"/>
    <path id="Icon_metro-file-picture" data-name="Icon metro-file-picture" d="M91.622,51.6H8.355V42.174L33.335,18.6,67.553,42.174l24.069-9.431Z" transform="translate(249.531 3207.963)" fill="#d1d4e2"/>
    <g id="Group_413" data-name="Group 413" transform="translate(31 140)">
      <path id="Path_624" data-name="Path 624" d="M61,56H49a3,3,0,0,1-3-3V25a3,3,0,0,1,3-3H61a3,3,0,0,1,3,3V53a3,3,0,0,1-3,3ZM49,24a1,1,0,0,0-1,1V53a1,1,0,0,0,1,1H61a1,1,0,0,0,1-1V25a1,1,0,0,0-1-1Z" transform="translate(263 3078)" fill="#1f2649"/>
      <path id="Path_625" data-name="Path 625" d="M55,48a5,5,0,1,1,5-5,5,5,0,0,1-5,5Zm0-8a3,3,0,1,0,3,3A3,3,0,0,0,55,40Z" transform="translate(263 3078)" fill="#1f2649"/>
      <circle id="Ellipse_175" data-name="Ellipse 175" cx="1" cy="1" r="1" transform="translate(313 3104)" fill="#1f2649"/>
      <circle id="Ellipse_176" data-name="Ellipse 176" cx="1" cy="1" r="1" transform="translate(317 3104)" fill="#1f2649"/>
      <circle id="Ellipse_177" data-name="Ellipse 177" cx="1" cy="1" r="1" transform="translate(321 3104)" fill="#1f2649"/>
      <circle id="Ellipse_178" data-name="Ellipse 178" cx="1" cy="1" r="1" transform="translate(313 3108)" fill="#1f2649"/>
      <circle id="Ellipse_179" data-name="Ellipse 179" cx="1" cy="1" r="1" transform="translate(317 3108)" fill="#1f2649"/>
      <circle id="Ellipse_180" data-name="Ellipse 180" cx="1" cy="1" r="1" transform="translate(321 3108)" fill="#1f2649"/>
      <circle id="Ellipse_181" data-name="Ellipse 181" cx="1" cy="1" r="1" transform="translate(313 3112)" fill="#1f2649"/>
      <circle id="Ellipse_182" data-name="Ellipse 182" cx="1" cy="1" r="1" transform="translate(317 3112)" fill="#1f2649"/>
      <circle id="Ellipse_183" data-name="Ellipse 183" cx="1" cy="1" r="1" transform="translate(321 3112)" fill="#1f2649"/>
      <circle id="Ellipse_184" data-name="Ellipse 184" cx="1" cy="1" r="1" transform="translate(313 3128)" fill="#1f2649"/>
      <circle id="Ellipse_185" data-name="Ellipse 185" cx="1" cy="1" r="1" transform="translate(317 3128)" fill="#1f2649"/>
      <circle id="Ellipse_186" data-name="Ellipse 186" cx="1" cy="1" r="1" transform="translate(321 3128)" fill="#1f2649"/>
    </g>
    <circle id="Ellipse_188" data-name="Ellipse 188" cx="7" cy="7" r="7" transform="translate(308 3217)" fill="#d1d4e2"/>
  </g>
</svg>
