<svg xmlns="http://www.w3.org/2000/svg" xmlns:xlink="http://www.w3.org/1999/xlink" xmlns:v="http://vecta.io" width="115" height="80" viewBox="0 0 115 80"><style><![CDATA[svg{stroke:#000;stroke-linecap:round;stroke-linejoin:round;fill:#fff;fill-rule:evenodd;font-family:Roboto;font-size:14px;text-anchor:middle}svg text{paint-order:stroke;white-space:pre}svg .Text\.cls{stroke:none}]]></style><defs><clipPath id="l50xumgopi.clip"><path d="M 31.2302 10.4161 C 29.6174 9.8081 27.9183 9.459 26.1964 9.3819 C 16.663 8.9729 9.113 17.1422 9.5344 27.6249 C 9.5952 29.1225 9.8182 30.609 10.1995 32.0585 C 9.3628 31.7324 8.4745 31.5583 7.5765 31.5443 C 3.225 31.4771 -0.1815 35.1938 0.0075 39.8414 C 0.175 43.9648 3.1144 47.383 6.8127 48.0856 L 67.4203 48.0262 C 67.758 48.0262 68.0915 48.0048 68.4213 47.9751 C 74.6464 47.3676 79.2665 41.382 78.9986 34.0984 C 78.7161 26.4307 73.1075 20.0416 66.3652 19.8276 C 64.7432 19.7737 63.1304 20.0936 61.6518 20.7626 C 61.7402 19.8802 61.7673 18.9926 61.7325 18.1062 C 61.376 8.596 54.2516 0.5004 45.6597 0.0226 C 45.3916 0.0077 45.1247 0 44.8621 0 C 38.5466 0 33.2935 4.2166 31.2309 10.4144" stroke="none" stroke-linejoin="miter" stroke-linecap="butt" fill="none" fill-rule="nonzero" stroke-width="0.5943849765325757" transform="translate(0.1815 -0.0017)"/></clipPath></defs><g transform="translate(0.8916 0.8916)"><g ><g transform="translate(9.7559 2.7639)"><path d="M 0.00001 0.00001 L 74.2988 0" stroke="#d1d4e2" stroke-linejoin="miter" stroke-linecap="butt" fill="none" fill-rule="nonzero" stroke-width="1.783145739116578"/></g><g transform="translate(9.7559 36.0499)"><path d="M 0.00001 0.00001 L 74.2988 0" stroke="#d1d4e2" stroke-linejoin="miter" stroke-linecap="butt" fill="none" fill-rule="nonzero" stroke-width="1.7831602703197542"/></g><g transform="translate(9.7559 19.4069)"><path d="M 0.00001 0.00001 L 66.5717 0" stroke="#d1d4e2" stroke-linejoin="miter" stroke-linecap="butt" fill="none" fill-rule="nonzero" stroke-width="1.7831602703197542"/></g><g transform="translate(9.7559 44.3713)"><path d="M 0.00001 0.00001 L 66.5717 0" stroke="#d1d4e2" stroke-linejoin="miter" stroke-linecap="butt" fill="none" fill-rule="nonzero" stroke-width="1.7831602703197542"/></g><g transform="translate(9.7559 11.0854)"><path d="M 0.00001 0.00001 L 52.3063 0" stroke="#d1d4e2" stroke-linejoin="miter" stroke-linecap="butt" fill="none" fill-rule="nonzero" stroke-width="1.783145739116578"/></g><g transform="translate(9.7559 27.7283)"><path d="M 0.00001 0.00001 L 56.4671 0" stroke="#d1d4e2" stroke-linejoin="miter" stroke-linecap="butt" fill="none" fill-rule="nonzero" stroke-width="1.7831602703197542"/></g><g transform="translate(9.7559 52.6928)"><path d="M 0.00001 0.00001 L 56.4671 0" stroke="#d1d4e2" stroke-linejoin="miter" stroke-linecap="butt" fill="none" fill-rule="nonzero" stroke-width="1.7831602703197542"/></g><g transform="translate(28.8236 29.4169)"><path d="M 46.1317 0.0187 C 54.8099 0.4644 62.0019 8.5725 62.3638 18.1262 C 62.399 19.0168 62.3718 19.9088 62.2825 20.7956 C 63.7748 20.1168 65.4029 19.7888 67.0417 19.8368 C 73.8494 20.0229 79.5121 26.4197 79.7968 34.1224 C 80.0678 41.4406 75.4031 47.4742 69.1174 48.1121 C 68.7845 48.1435 68.4475 48.1649 68.1069 48.1679 L 6.8846 48.49 C 2.9624 47.6524 0.1216 44.2412 0.0076 40.2321 C -0.1832 35.5609 3.2595 31.8097 7.6568 31.8583 C 8.5635 31.8688 9.461 32.0399 10.3077 32.3642 C 9.9226 30.9085 9.6974 29.415 9.6361 27.9103 C 9.2106 17.3743 16.839 9.1312 26.4711 9.5033 C 28.209 9.5735 29.9252 9.9175 31.556 10.5221 C 33.7267 4.0243 39.3949 -0.3266 46.1305 0.0192" stroke="none" stroke-linejoin="miter" stroke-linecap="butt" fill="#e3cece" fill-rule="nonzero" stroke-width="0.5943849765325757"/></g><g transform="translate(33.2786 26.199)"><path d="M 0 0 L 79.4481 0 L 79.4481 48.0844 L 0 48.0844 Z" stroke="none" stroke-linejoin="miter" stroke-linecap="butt" fill="#ff9800" fill-rule="nonzero" stroke-width="0.5943849765325757" transform="translate(-0.1815 0.0017)" clip-path="url(#l50xumgopi.clip)"/></g><g><path d="M 0.00001 2.6594 L 2.3335 4.993 L 7.3265 0" stroke="#1f2649" stroke-linejoin="miter" stroke-linecap="butt" fill="none" fill-rule="nonzero" stroke-width="1.7832311899726516"/></g><g transform="translate(0 8.589)"><path d="M 0.00001 2.6593 L 2.3335 4.993 L 7.3265 0" stroke="#1f2649" stroke-linejoin="miter" stroke-linecap="butt" fill="none" fill-rule="nonzero" stroke-width="1.7832311899726516"/></g><g transform="translate(0 16.9104)"><path d="M 0.00001 2.6594 L 2.3335 4.993 L 7.3265 0" stroke="#1f2649" stroke-linejoin="miter" stroke-linecap="butt" fill="none" fill-rule="nonzero" stroke-width="1.7832457218721836"/></g><g transform="translate(0 25.2319)"><path d="M 0.00001 2.6593 L 2.3335 4.9929 L 7.3265 0" stroke="#1f2649" stroke-linejoin="miter" stroke-linecap="butt" fill="none" fill-rule="nonzero" stroke-width="1.7832457218721836"/></g><g transform="translate(0 33.5533)"><path d="M 0.00001 2.6593 L 2.3335 4.9929 L 7.3265 0" stroke="#1f2649" stroke-linejoin="miter" stroke-linecap="butt" fill="none" fill-rule="nonzero" stroke-width="1.7832457218721836"/></g><g transform="translate(0 41.8748)"><path d="M 0.00001 2.6593 L 2.3335 4.993 L 7.3265 0" stroke="#1f2649" stroke-linejoin="miter" stroke-linecap="butt" fill="none" fill-rule="nonzero" stroke-width="1.7832457218721836"/></g><g transform="translate(0 50.1963)"><path d="M 0.00001 2.6594 L 2.3335 4.993 L 7.3265 0" stroke="#1f2649" stroke-linejoin="miter" stroke-linecap="butt" fill="none" fill-rule="nonzero" stroke-width="1.7832457218721836"/></g></g></g></svg>