<svg xmlns="http://www.w3.org/2000/svg" xmlns:xlink="http://www.w3.org/1999/xlink" width="189.974" height="136.699" viewBox="0 0 189.974 136.699">
  <defs>
    <clipPath id="clip-path">
      <path id="Path_47" data-name="Path 47" d="M267.065,1112.048a27.5,27.5,0,0,0-8.469-1.74c-16.039-.688-28.741,13.056-28.032,30.692a34.874,34.874,0,0,0,1.119,7.459,12.7,12.7,0,0,0-4.413-.865c-7.321-.113-13.052,6.14-12.734,13.959.282,6.937,5.227,12.688,11.449,13.87l101.966-.1c.568,0,1.129-.036,1.684-.086,10.473-1.022,18.246-11.092,17.795-23.346-.475-12.9-9.911-23.649-21.254-24.009a17.8,17.8,0,0,0-7.93,1.573,32.228,32.228,0,0,0,.136-4.469c-.6-16-12.586-29.62-27.041-30.424-.451-.025-.9-.038-1.342-.038-10.625,0-19.463,7.094-22.933,17.521" transform="translate(-214.523 -1094.527)" fill="#ff9800"/>
    </clipPath>
    <clipPath id="clip-path-2">
      <path id="Path_68" data-name="Path 68" d="M1890.488,825.3a24.99,24.99,0,0,0-7.381-1.543c-13.734-.719-24.386,10.407-23.8,24.85a28.559,28.559,0,0,0,.932,6.138,10.945,10.945,0,0,0-3.671-.845c-6.025-.316-10.7,4.568-10.446,10.9a12.739,12.739,0,0,0,9.382,11.753l90.871,5.07c.546.029,1.086.03,1.62.016,10.17-.337,17.825-8.9,17.379-19.855-.47-11.53-9.738-21.341-20.7-21.915a18.014,18.014,0,0,0-7.552,1.2,26.611,26.611,0,0,0,.128-3.9c-.57-13.97-11.8-25.862-25.088-26.558q-.612-.032-1.216-.032a21.466,21.466,0,0,0-20.458,14.719" transform="translate(-1846.114 -810.579)" fill="none"/>
    </clipPath>
  </defs>
  <g id="Group_492" data-name="Group 492" transform="translate(-1430.025 -159.789)">
    <line id="Line_146" data-name="Line 146" x2="125" transform="translate(1447.5 165.5)" fill="none" stroke="#d1d4e2" stroke-width="3"/>
    <line id="Line_150" data-name="Line 150" x2="125" transform="translate(1447.5 221.5)" fill="none" stroke="#d1d4e2" stroke-width="3"/>
    <line id="Line_149" data-name="Line 149" x2="112" transform="translate(1447.5 193.5)" fill="none" stroke="#d1d4e2" stroke-width="3"/>
    <line id="Line_151" data-name="Line 151" x2="112" transform="translate(1447.5 235.5)" fill="none" stroke="#d1d4e2" stroke-width="3"/>
    <line id="Line_147" data-name="Line 147" x2="88" transform="translate(1447.5 179.5)" fill="none" stroke="#d1d4e2" stroke-width="3"/>
    <line id="Line_148" data-name="Line 148" x2="95" transform="translate(1447.5 207.5)" fill="none" stroke="#d1d4e2" stroke-width="3"/>
    <line id="Line_153" data-name="Line 153" x2="95" transform="translate(1447.5 249.5)" fill="none" stroke="#d1d4e2" stroke-width="3"/>
    <g id="Group_352" data-name="Group 352" transform="translate(170.564 -1915.525)">
      <g id="Group_141" data-name="Group 141" transform="translate(1302.897 2120.455)">
        <path id="Path_71" data-name="Path 71" d="M252.871,1122.91c14.6.75,26.7,14.391,27.309,30.464a32.212,32.212,0,0,1-.137,4.491,18.063,18.063,0,0,1,8.007-1.613c11.453.313,20.98,11.075,21.459,24.034.456,12.312-7.392,22.463-17.967,23.536-.56.053-1.127.089-1.7.094l-103,.542a14.632,14.632,0,0,1-11.57-13.893c-.321-7.859,5.471-14.17,12.869-14.088a12.883,12.883,0,0,1,4.46.851,34.831,34.831,0,0,1-1.13-7.493c-.716-17.726,12.118-31.594,28.323-30.968a27.84,27.84,0,0,1,8.555,1.714c3.652-10.932,13.188-18.252,24.52-17.67" transform="translate(-169.141 -1117.468)" fill="#e3cece" style="mix-blend-mode: multiply;isolation: isolate"/>
        <g id="Group_77" data-name="Group 77" transform="translate(13.613)">
          <g id="Group_54" data-name="Group 54" clip-path="url(#clip-path)">
            <rect id="Rectangle_28" data-name="Rectangle 28" width="133.663" height="80.897" transform="translate(-0.305 0)" fill="#ff9800"/>
          </g>
        </g>
      </g>
    </g>
    <path id="Path_1023" data-name="Path 1023" d="M18244.086,1307.324l3.926,3.926,8.4-8.4" transform="translate(-16813 -1142)" fill="none" stroke="#1f2649" stroke-width="3"/>
    <path id="Path_1024" data-name="Path 1024" d="M18244.086,1307.324l3.926,3.926,8.4-8.4" transform="translate(-16813 -1127.55)" fill="none" stroke="#1f2649" stroke-width="3"/>
    <path id="Path_1025" data-name="Path 1025" d="M18244.086,1307.324l3.926,3.926,8.4-8.4" transform="translate(-16813 -1113.55)" fill="none" stroke="#1f2649" stroke-width="3"/>
    <path id="Path_1026" data-name="Path 1026" d="M18244.086,1307.324l3.926,3.926,8.4-8.4" transform="translate(-16813 -1099.55)" fill="none" stroke="#1f2649" stroke-width="3"/>
    <path id="Path_1027" data-name="Path 1027" d="M18244.086,1307.324l3.926,3.926,8.4-8.4" transform="translate(-16813 -1085.55)" fill="none" stroke="#1f2649" stroke-width="3"/>
    <path id="Path_1028" data-name="Path 1028" d="M18244.086,1307.324l3.926,3.926,8.4-8.4" transform="translate(-16813 -1071.55)" fill="none" stroke="#1f2649" stroke-width="3"/>
    <path id="Path_1029" data-name="Path 1029" d="M18244.086,1307.324l3.926,3.926,8.4-8.4" transform="translate(-16813 -1057.55)" fill="none" stroke="#1f2649" stroke-width="3"/>
  </g>
</svg>
