<svg xmlns="http://www.w3.org/2000/svg" xmlns:xlink="http://www.w3.org/1999/xlink" width="167" height="154.572" viewBox="0 0 167 154.572">
  <defs>
    <clipPath id="clip-path">
      <path id="Path_47" data-name="Path 47" d="M250.481,1106.517a18.816,18.816,0,0,0-5.8-1.191c-10.977-.471-19.669,8.935-19.184,21a23.871,23.871,0,0,0,.765,5.1,8.684,8.684,0,0,0-3.02-.592c-5.01-.077-8.932,4.2-8.715,9.553a10,10,0,0,0,7.835,9.492l69.782-.067c.389,0,.773-.024,1.152-.059,7.167-.7,12.487-7.591,12.178-15.977-.325-8.828-6.783-16.185-14.545-16.431a12.173,12.173,0,0,0-5.427,1.076,22.054,22.054,0,0,0,.093-3.058c-.412-10.948-8.613-20.27-18.506-20.821-.308-.017-.614-.026-.918-.026-7.271,0-13.32,4.855-15.695,11.99" transform="translate(-214.523 -1094.527)" fill="#ff9800"/>
    </clipPath>
    <clipPath id="clip-path-2">
      <path id="Path_68" data-name="Path 68" d="M1876.482,820.652a17.1,17.1,0,0,0-5.052-1.056c-9.4-.493-16.689,7.122-16.286,17.006a19.522,19.522,0,0,0,.637,4.2,7.492,7.492,0,0,0-2.512-.578,6.862,6.862,0,0,0-7.148,7.463,8.717,8.717,0,0,0,6.421,8.043l62.189,3.47c.374.02.743.021,1.109.011,6.96-.231,12.2-6.091,11.893-13.588-.322-7.891-6.664-14.6-14.167-15a12.329,12.329,0,0,0-5.168.818,18.146,18.146,0,0,0,.088-2.667c-.39-9.56-8.078-17.7-17.169-18.175q-.419-.022-.833-.022a14.689,14.689,0,0,0-14,10.073" transform="translate(-1846.114 -810.579)" fill="none"/>
    </clipPath>
  </defs>
  <g id="Group_326" data-name="Group 326" transform="translate(0.149)">
    <g id="servers" transform="translate(-0.085 41.858)">
      <g id="Group_164" data-name="Group 164" transform="translate(0 0)">
        <g id="Group_163" data-name="Group 163" transform="translate(0 0)">
          <path id="Path_215" data-name="Path 215" d="M116.412,111.12a7.773,7.773,0,0,0-15.053,0H65.828a7.773,7.773,0,0,0-5.554-5.554V93.63h46.64a9.728,9.728,0,0,0,9.717-9.717V72.253a9.681,9.681,0,0,0-3.947-7.773,9.681,9.681,0,0,0,3.947-7.773V45.047a9.681,9.681,0,0,0-3.947-7.773A9.681,9.681,0,0,0,116.63,29.5V17.841a9.728,9.728,0,0,0-9.717-9.717H9.748A9.728,9.728,0,0,0,.031,17.841V29.5a9.681,9.681,0,0,0,3.947,7.773A9.681,9.681,0,0,0,.031,45.047v11.66A9.681,9.681,0,0,0,3.978,64.48,9.681,9.681,0,0,0,.031,72.253v11.66A9.728,9.728,0,0,0,9.748,93.63h46.64v11.936a7.773,7.773,0,0,0-5.554,5.554H15.3a7.773,7.773,0,1,0,0,3.887H50.833a7.736,7.736,0,0,0,14.995,0H101.36a7.773,7.773,0,1,0,15.053-3.887ZM7.8,116.95a3.887,3.887,0,1,1,3.887-3.887A3.886,3.886,0,0,1,7.8,116.95ZM3.918,29.5V17.841a5.83,5.83,0,0,1,5.83-5.83h97.166a5.83,5.83,0,0,1,5.83,5.83V29.5a5.83,5.83,0,0,1-5.83,5.83H9.748A5.83,5.83,0,0,1,3.918,29.5Zm0,27.206V45.047a5.83,5.83,0,0,1,5.83-5.83h97.166a5.83,5.83,0,0,1,5.83,5.83v11.66a5.83,5.83,0,0,1-5.83,5.83H9.748A5.83,5.83,0,0,1,3.918,56.707Zm5.83,33.036a5.83,5.83,0,0,1-5.83-5.83V72.253a5.83,5.83,0,0,1,5.83-5.83h97.166a5.83,5.83,0,0,1,5.83,5.83v11.66a5.83,5.83,0,0,1-5.83,5.83ZM58.331,116.95a3.887,3.887,0,1,1,3.887-3.887A3.886,3.886,0,0,1,58.331,116.95Zm50.526,0a3.887,3.887,0,1,1,3.887-3.887A3.886,3.886,0,0,1,108.857,116.95Z" transform="translate(0 -8.124)" fill="#d1d4e2"/>
        </g>
      </g>
      <g id="Group_166" data-name="Group 166" transform="translate(11.691 9.717)">
        <g id="Group_165" data-name="Group 165">
          <path id="Path_216" data-name="Path 216" d="M59.788,48.124H50.071a1.943,1.943,0,0,0-1.943,1.943v7.773a1.943,1.943,0,0,0,1.943,1.943h9.717a1.943,1.943,0,0,0,1.943-1.943V50.067A1.943,1.943,0,0,0,59.788,48.124ZM57.845,55.9h-5.83V52.011h5.83Z" transform="translate(-48.128 -48.124)" fill="#d1d4e2"/>
        </g>
      </g>
      <g id="Group_168" data-name="Group 168" transform="translate(11.691 36.923)">
        <g id="Group_167" data-name="Group 167" transform="translate(0 0)">
          <path id="Path_217" data-name="Path 217" d="M59.788,160.124H50.071a1.943,1.943,0,0,0-1.943,1.943v7.773a1.943,1.943,0,0,0,1.943,1.943h9.717a1.943,1.943,0,0,0,1.943-1.943v-7.773A1.943,1.943,0,0,0,59.788,160.124ZM57.845,167.9h-5.83v-3.887h5.83Z" transform="translate(-48.128 -160.124)" fill="#d1d4e2"/>
        </g>
      </g>
      <g id="Group_170" data-name="Group 170" transform="translate(11.691 64.129)">
        <g id="Group_169" data-name="Group 169">
          <path id="Path_218" data-name="Path 218" d="M59.788,272.124H50.071a1.943,1.943,0,0,0-1.943,1.943v7.773a1.943,1.943,0,0,0,1.943,1.943h9.717a1.943,1.943,0,0,0,1.943-1.943v-7.773A1.943,1.943,0,0,0,59.788,272.124ZM57.845,279.9h-5.83v-3.887h5.83Z" transform="translate(-48.128 -272.124)" fill="#d1d4e2"/>
        </g>
      </g>
      <g id="Group_172" data-name="Group 172" transform="translate(81.65 9.717)">
        <g id="Group_171" data-name="Group 171" transform="translate(0 0)">
          <path id="Path_219" data-name="Path 219" d="M357.5,40.124H338.071a1.943,1.943,0,0,0,0,3.887H357.5a1.943,1.943,0,0,0,0-3.887Z" transform="translate(-336.128 -40.124)" fill="#717795"/>
        </g>
      </g>
      <g id="Group_174" data-name="Group 174" transform="translate(81.65 17.49)">
        <g id="Group_173" data-name="Group 173">
          <path id="Path_220" data-name="Path 220" d="M357.5,72.124H338.071a1.943,1.943,0,0,0,0,3.887H357.5a1.943,1.943,0,0,0,0-3.887Z" transform="translate(-336.128 -72.124)" fill="#717795"/>
        </g>
      </g>
      <g id="Group_176" data-name="Group 176" transform="translate(81.65 36.923)">
        <g id="Group_175" data-name="Group 175">
          <path id="Path_221" data-name="Path 221" d="M357.5,152.124H338.071a1.943,1.943,0,0,0,0,3.887H357.5a1.943,1.943,0,0,0,0-3.887Z" transform="translate(-336.128 -152.124)" fill="#717795"/>
        </g>
      </g>
      <g id="Group_178" data-name="Group 178" transform="translate(81.65 44.696)">
        <g id="Group_177" data-name="Group 177" transform="translate(0 0)">
          <path id="Path_222" data-name="Path 222" d="M357.5,184.124H338.071a1.943,1.943,0,0,0,0,3.887H357.5a1.943,1.943,0,0,0,0-3.887Z" transform="translate(-336.128 -184.124)" fill="#717795"/>
        </g>
      </g>
      <g id="Group_180" data-name="Group 180" transform="translate(81.65 64.129)">
        <g id="Group_179" data-name="Group 179">
          <path id="Path_223" data-name="Path 223" d="M357.5,264.124H338.071a1.943,1.943,0,1,0,0,3.887H357.5a1.943,1.943,0,1,0,0-3.887Z" transform="translate(-336.128 -264.124)" fill="#717795"/>
        </g>
      </g>
      <g id="Group_182" data-name="Group 182" transform="translate(81.65 71.903)">
        <g id="Group_181" data-name="Group 181">
          <path id="Path_224" data-name="Path 224" d="M357.5,296.124H338.071a1.943,1.943,0,1,0,0,3.887H357.5a1.943,1.943,0,1,0,0-3.887Z" transform="translate(-336.128 -296.124)" fill="#717795"/>
        </g>
      </g>
    </g>
    <rect id="Rectangle_100" data-name="Rectangle 100" width="70.386" height="30.659" transform="translate(65.487 34.176)" fill="#fff"/>
    <g id="Group_106" data-name="Group 106" transform="translate(66.566)">
      <path id="Path_71" data-name="Path 71" d="M228.375,1122.9c9.991.514,18.273,9.849,18.689,20.849a22.033,22.033,0,0,1-.094,3.073,12.374,12.374,0,0,1,5.48-1.1c7.838.215,14.358,7.579,14.686,16.449.312,8.425-5.059,15.372-12.3,16.106-.383.037-.771.061-1.163.064l-70.488.371a10.014,10.014,0,0,1-7.918-9.508c-.22-5.379,3.744-9.7,8.807-9.641a8.8,8.8,0,0,1,3.052.582,23.836,23.836,0,0,1-.773-5.128c-.49-12.131,8.293-21.622,19.383-21.194a19.045,19.045,0,0,1,5.855,1.173c2.5-7.482,9.025-12.491,16.781-12.093" transform="translate(-171.073 -1119.174)" fill="#e3cece" style="mix-blend-mode: multiply;isolation: isolate"/>
      <g id="Group_77" data-name="Group 77" transform="translate(9.316)">
        <g id="Group_54" data-name="Group 54" clip-path="url(#clip-path)">
          <rect id="Rectangle_28" data-name="Rectangle 28" width="91.474" height="55.363" transform="translate(-0.209 0)" fill="#ff9800"/>
        </g>
      </g>
    </g>
    <g id="Group_189" data-name="Group 189" transform="translate(114.308 76.165)">
      <path id="Path_225" data-name="Path 225" d="M1.1,37.686a1.6,1.6,0,1,1,0-3.2A33.424,33.424,0,0,0,34.486,1.1a1.6,1.6,0,1,1,3.2,0A36.358,36.358,0,0,1,34.81,15.342,36.462,36.462,0,0,1,26.97,26.97a36.462,36.462,0,0,1-11.629,7.84A36.358,36.358,0,0,1,1.1,37.686Z" transform="translate(0.5 0.5)" fill="#d1d4e2"/>
    </g>
    <path id="Path_226" data-name="Path 226" d="M853.58,1322.782l7.582-7.582,7.582,7.582" transform="translate(-710.268 -1241.226)" fill="rgba(0,0,0,0)"/>
    <path id="Path_226_-_Outline" data-name="Path 226 - Outline" d="M869.344,1324.982a1.6,1.6,0,0,1-1.131-.469l-6.45-6.451-6.45,6.451a1.6,1.6,0,0,1-2.263-2.263l7.582-7.582a1.6,1.6,0,0,1,2.263,0l7.582,7.582a1.6,1.6,0,0,1-1.131,2.731Z" transform="translate(-710.867 -1241.826)" fill="#d1d4e2"/>
    <rect id="Rectangle_99" data-name="Rectangle 99" width="117.022" height="30.227" rx="12" transform="translate(-0.149 96.79)" fill="#1f2649"/>
    <g id="Group_183" data-name="Group 183" transform="translate(11.606 105.987)">
      <g id="Group_169-2" data-name="Group 169">
        <path id="Path_218-2" data-name="Path 218" d="M59.788,272.124H50.071a1.943,1.943,0,0,0-1.943,1.943v7.773a1.943,1.943,0,0,0,1.943,1.943h9.717a1.943,1.943,0,0,0,1.943-1.943v-7.773A1.943,1.943,0,0,0,59.788,272.124ZM57.845,279.9h-5.83v-3.887h5.83Z" transform="translate(-48.128 -272.124)" fill="#d1d4e2"/>
      </g>
    </g>
    <g id="Group_184" data-name="Group 184" transform="translate(81.566 105.987)">
      <g id="Group_179-2" data-name="Group 179">
        <path id="Path_223-2" data-name="Path 223" d="M357.5,264.124H338.071a1.943,1.943,0,1,0,0,3.887H357.5a1.943,1.943,0,1,0,0-3.887Z" transform="translate(-336.128 -264.124)" fill="#717795"/>
      </g>
    </g>
    <g id="Group_185" data-name="Group 185" transform="translate(81.566 113.76)">
      <g id="Group_181-2" data-name="Group 181">
        <path id="Path_224-2" data-name="Path 224" d="M357.5,296.124H338.071a1.943,1.943,0,1,0,0,3.887H357.5a1.943,1.943,0,1,0,0-3.887Z" transform="translate(-336.128 -296.124)" fill="#717795"/>
      </g>
    </g>
  </g>
</svg>
