<svg xmlns="http://www.w3.org/2000/svg" xmlns:xlink="http://www.w3.org/1999/xlink" width="70.421" height="93.024" viewBox="0 0 70.421 93.024">
  <defs>
    <clipPath id="clip-path">
      <path id="Path_47" data-name="Path 47" d="M232.13,1100.4a9.215,9.215,0,0,0-2.838-.583c-5.375-.23-9.631,4.375-9.394,10.285a11.688,11.688,0,0,0,.375,2.5,4.254,4.254,0,0,0-1.479-.29,4.318,4.318,0,0,0-4.267,4.678,4.9,4.9,0,0,0,3.837,4.648l34.169-.033c.19,0,.378-.012.564-.029,3.51-.343,6.114-3.717,5.963-7.823-.159-4.323-3.321-7.925-7.122-8.045a5.963,5.963,0,0,0-2.657.527,10.8,10.8,0,0,0,.046-1.5c-.2-5.361-4.218-9.926-9.062-10.2-.151-.008-.3-.013-.45-.013a8.159,8.159,0,0,0-7.685,5.871" transform="translate(-214.523 -1094.527)" fill="#ff9800"/>
    </clipPath>
    <clipPath id="clip-path-2">
      <path id="Path_68" data-name="Path 68" d="M1860.984,815.511a8.374,8.374,0,0,0-2.474-.517c-4.6-.241-8.172,3.488-7.975,8.327a9.562,9.562,0,0,0,.312,2.057,3.669,3.669,0,0,0-1.23-.283,3.36,3.36,0,0,0-3.5,3.654,4.269,4.269,0,0,0,3.144,3.938l30.451,1.7c.183.01.364.01.543.005a6.129,6.129,0,0,0,5.823-6.654,7.651,7.651,0,0,0-6.937-7.344,6.04,6.04,0,0,0-2.531.4,8.9,8.9,0,0,0,.043-1.306,9.273,9.273,0,0,0-8.407-8.9q-.205-.011-.408-.011a7.193,7.193,0,0,0-6.855,4.932" transform="translate(-1846.114 -810.579)" fill="none"/>
    </clipPath>
  </defs>
  <g id="Group_186" data-name="Group 186" transform="translate(-205 -1277.488)">
    <g id="book_2_" data-name="book (2)" transform="translate(135.017 1291.488)">
      <g id="Group_154" data-name="Group 154" transform="translate(87.682 36.81)">
        <g id="Group_153" data-name="Group 153" transform="translate(0)">
          <path id="Path_210" data-name="Path 210" d="M194.744,70.036H162.036a1.158,1.158,0,1,0,0,2.315h32.708a1.158,1.158,0,0,0,0-2.315Z" transform="translate(-160.878 -70.036)" fill="#717795"/>
        </g>
      </g>
      <g id="Group_156" data-name="Group 156" transform="translate(87.682 42.897)">
        <g id="Group_155" data-name="Group 155" transform="translate(0)">
          <path id="Path_211" data-name="Path 211" d="M194.744,109.474H162.036a1.158,1.158,0,1,0,0,2.315h32.708a1.158,1.158,0,1,0,0-2.315Z" transform="translate(-160.878 -109.474)" fill="#717795"/>
        </g>
      </g>
      <g id="Group_160" data-name="Group 160" transform="translate(69.983 0)">
        <g id="Group_159" data-name="Group 159" transform="translate(0)">
          <path id="Path_213" data-name="Path 213" d="M139.246,33.378A1.157,1.157,0,0,0,140.4,32.22V-11.762A2.24,2.24,0,0,0,138.166-14H77.336a7.361,7.361,0,0,0-7.353,7.353V65.7a5.506,5.506,0,0,0,5.5,5.5h3.592V77.13a1.894,1.894,0,0,0,3.181,1.385L85.17,75.8l2.914,2.714a1.893,1.893,0,0,0,3.181-1.385V71.2H103.18a1.158,1.158,0,1,0,0-2.315H91.265v-2.45a1.894,1.894,0,0,0-1.892-1.892H80.966a1.894,1.894,0,0,0-1.892,1.892v2.45H75.482a3.184,3.184,0,1,1,0-6.369h62.606V68.7a.179.179,0,0,1-.179.179H108.582a1.158,1.158,0,1,0,0,2.315h29.327A2.5,2.5,0,0,0,140.4,68.7V37.623a1.158,1.158,0,1,0-2.315,0V60.2H75.482A5.491,5.491,0,0,0,72.3,61.215V-6.647a5,5,0,0,1,1.476-3.562,5.005,5.005,0,0,1,3.562-1.476h60.753v43.9A1.158,1.158,0,0,0,139.246,33.378ZM81.39,66.855h7.56v9.3l-2.491-2.319a1.9,1.9,0,0,0-2.579,0L81.39,76.157C81.39,75.4,81.39,68.174,81.39,66.855Z" transform="translate(-69.983 0)" fill="#d1d4e2"/>
          <path id="Path_214" data-name="Path 214" d="M79.074,71.2V77.13a1.894,1.894,0,0,0,3.181,1.385L85.17,75.8l2.914,2.714a1.893,1.893,0,0,0,3.181-1.385v-10.7a1.894,1.894,0,0,0-1.892-1.892H80.966a1.894,1.894,0,0,0-1.892,1.892V71.2Z" transform="translate(-69.983 0)" fill="#1f2649"/>
        </g>
      </g>
    </g>
    <g id="Group_161" data-name="Group 161" transform="translate(215.658 1288.969)">
      <path id="Path_71" data-name="Path 71" d="M201.269,1122.888c4.892.252,8.948,4.823,9.151,10.209a10.79,10.79,0,0,1-.046,1.5,6.057,6.057,0,0,1,2.683-.541c3.838.1,7.03,3.711,7.191,8.054.153,4.126-2.477,7.527-6.021,7.887-.188.018-.378.03-.57.031l-34.515.182a4.9,4.9,0,0,1-3.877-4.656,4.372,4.372,0,0,1,4.312-4.721,4.317,4.317,0,0,1,1.494.285,11.668,11.668,0,0,1-.379-2.511c-.24-5.94,4.061-10.587,9.491-10.377a9.326,9.326,0,0,1,2.867.574,8.245,8.245,0,0,1,8.217-5.922" transform="translate(-173.211 -1121.064)" fill="#e3cece" style="mix-blend-mode: multiply;isolation: isolate"/>
      <g id="Group_77" data-name="Group 77" transform="translate(4.562)">
        <g id="Group_54" data-name="Group 54" clip-path="url(#clip-path)">
          <rect id="Rectangle_28" data-name="Rectangle 28" width="44.791" height="27.109" transform="translate(-0.102 0)" fill="#ff9800"/>
        </g>
      </g>
    </g>
  </g>
</svg>
