<svg xmlns="http://www.w3.org/2000/svg" xmlns:xlink="http://www.w3.org/1999/xlink" width="159.436" height="145.176" viewBox="0 0 159.436 145.176">
  <defs>
    <clipPath id="clip-path">
      <path id="Path_47" data-name="Path 47" d="M267.065,1112.048a27.5,27.5,0,0,0-8.469-1.74c-16.039-.688-28.741,13.056-28.032,30.692a34.874,34.874,0,0,0,1.119,7.459,12.7,12.7,0,0,0-4.413-.865c-7.321-.113-13.052,6.14-12.734,13.959.282,6.937,5.227,12.688,11.449,13.87l101.966-.1c.568,0,1.129-.036,1.684-.086,10.473-1.022,18.246-11.092,17.795-23.346-.475-12.9-9.911-23.649-21.254-24.009a17.8,17.8,0,0,0-7.93,1.573,32.228,32.228,0,0,0,.136-4.469c-.6-16-12.586-29.62-27.041-30.424-.451-.025-.9-.038-1.342-.038-10.625,0-19.463,7.094-22.933,17.521" transform="translate(-214.523 -1094.527)" fill="#ff9800"/>
    </clipPath>
    <clipPath id="clip-path-2">
      <path id="Path_68" data-name="Path 68" d="M1890.488,825.3a24.99,24.99,0,0,0-7.381-1.543c-13.734-.719-24.386,10.407-23.8,24.85a28.559,28.559,0,0,0,.932,6.138,10.945,10.945,0,0,0-3.671-.845c-6.025-.316-10.7,4.568-10.446,10.9a12.739,12.739,0,0,0,9.382,11.753l90.871,5.07c.546.029,1.086.03,1.62.016,10.17-.337,17.825-8.9,17.379-19.855-.47-11.53-9.738-21.341-20.7-21.915a18.014,18.014,0,0,0-7.552,1.2,26.611,26.611,0,0,0,.128-3.9c-.57-13.97-11.8-25.862-25.088-26.558q-.612-.032-1.216-.032a21.466,21.466,0,0,0-20.458,14.719" transform="translate(-1846.114 -810.579)" fill="none"/>
    </clipPath>
  </defs>
  <g id="Group_491" data-name="Group 491" transform="translate(-1112.999 -151.312)">
    <g id="cash-flow" transform="translate(1106.836 150.298)">
      <path id="Path_1018" data-name="Path 1018" d="M6.163,11.493v7.143a1.9,1.9,0,0,0,1.9,1.9h7.143a1.9,1.9,0,0,0,0-3.81H12.676a41.943,41.943,0,0,1,58.894.335,1.9,1.9,0,0,0,2.693-2.693,45.754,45.754,0,0,0-64.29-.326V11.493a1.9,1.9,0,0,0-3.81,0Z" fill="#d1d4e2"/>
      <path id="Path_1019" data-name="Path 1019" d="M74.646,49.655a1.9,1.9,0,0,0,1.9-1.9V40.608a1.9,1.9,0,0,0-1.9-1.9H67.5a1.9,1.9,0,0,0,0,3.81h2.38a41.945,41.945,0,0,1-58.951-.284,1.9,1.9,0,0,0-2.693,2.693,45.752,45.752,0,0,0,64.5.134v2.694a1.9,1.9,0,0,0,1.9,1.9Z" transform="translate(1.373 34.101)" fill="#d1d4e2"/>
      <path id="Path_1020" data-name="Path 1020" d="M27.286,35.508c1.174.413,2.592-.487,4.219,1.73A3.945,3.945,0,0,1,28.253,43.5a3.886,3.886,0,0,1-2.842-1.276A1.905,1.905,0,0,0,22.6,44.8a7.771,7.771,0,0,0,4.059,2.333v3.139a1.9,1.9,0,1,0,3.81,0v-3.3a7.706,7.706,0,0,0,3.43-2.033,7.806,7.806,0,0,0,.677-9.958c-3.349-4.555-6.365-1.869-8.655-4.374a3.943,3.943,0,1,1,5.806-5.338A1.905,1.905,0,0,0,34.537,22.7a7.692,7.692,0,0,0-4.07-2.331V17.23a1.9,1.9,0,0,0-3.81,0v3.283a7.721,7.721,0,0,0,.629,14.994Z" transform="translate(13.485 12.949)" fill="#d1d4e2"/>
      <path id="Path_1021" data-name="Path 1021" d="M39.516,70.071A30.558,30.558,0,1,0,8.957,39.512,30.594,30.594,0,0,0,39.516,70.071Zm0-57.307A26.749,26.749,0,1,1,12.767,39.513,26.779,26.779,0,0,1,39.516,12.764Z" transform="translate(2.528 7.185)" fill="#d1d4e2"/>
    </g>
    <g id="Group_352" data-name="Group 352" transform="translate(-177 -1915.525)">
      <g id="Group_141" data-name="Group 141" transform="translate(1302.897 2120.455)">
        <path id="Path_71" data-name="Path 71" d="M252.871,1122.91c14.6.75,26.7,14.391,27.309,30.464a32.212,32.212,0,0,1-.137,4.491,18.063,18.063,0,0,1,8.007-1.613c11.453.313,20.98,11.075,21.459,24.034.456,12.312-7.392,22.463-17.967,23.536-.56.053-1.127.089-1.7.094l-103,.542a14.632,14.632,0,0,1-11.57-13.893c-.321-7.859,5.471-14.17,12.869-14.088a12.883,12.883,0,0,1,4.46.851,34.831,34.831,0,0,1-1.13-7.493c-.716-17.726,12.118-31.594,28.323-30.968a27.84,27.84,0,0,1,8.555,1.714c3.652-10.932,13.188-18.252,24.52-17.67" transform="translate(-169.141 -1117.468)" fill="#e3cece" style="mix-blend-mode: multiply;isolation: isolate"/>
        <g id="Group_77" data-name="Group 77" transform="translate(13.613)">
          <g id="Group_54" data-name="Group 54" clip-path="url(#clip-path)">
            <rect id="Rectangle_28" data-name="Rectangle 28" width="133.663" height="80.897" transform="translate(-0.305 0)" fill="#ff9800"/>
          </g>
        </g>
      </g>
    </g>
  </g>
</svg>
