<svg xmlns="http://www.w3.org/2000/svg" xmlns:xlink="http://www.w3.org/1999/xlink" width="105" height="93.987" viewBox="0 0 105 93.987">
  <defs>
    <clipPath id="clip-path">
      <path id="Path_47" data-name="Path 47" d="M238.186,1102.417a12.378,12.378,0,0,0-3.814-.784c-7.223-.31-12.943,5.88-12.624,13.822a15.707,15.707,0,0,0,.5,3.359,5.718,5.718,0,0,0-1.988-.389,5.8,5.8,0,0,0-5.735,6.287,6.582,6.582,0,0,0,5.156,6.246l45.92-.044c.256,0,.508-.016.758-.039,4.717-.46,8.217-4.995,8.014-10.514-.214-5.809-4.463-10.651-9.572-10.812a8.014,8.014,0,0,0-3.571.708,14.511,14.511,0,0,0,.061-2.012c-.271-7.2-5.668-13.339-12.178-13.7-.2-.011-.4-.017-.6-.017a10.965,10.965,0,0,0-10.328,7.891" transform="translate(-214.523 -1094.527)" fill="#ff9800"/>
    </clipPath>
    <clipPath id="clip-path-2">
      <path id="Path_68" data-name="Path 68" d="M1866.1,817.208a11.253,11.253,0,0,0-3.324-.7c-6.185-.324-10.982,4.687-10.717,11.191a12.873,12.873,0,0,0,.42,2.764,4.929,4.929,0,0,0-1.653-.38,4.516,4.516,0,0,0-4.7,4.911,5.737,5.737,0,0,0,4.225,5.293l40.924,2.283c.246.013.489.014.73.007,4.58-.152,8.028-4.008,7.826-8.942-.212-5.192-4.385-9.611-9.323-9.869a8.115,8.115,0,0,0-3.4.538,11.955,11.955,0,0,0,.058-1.755c-.257-6.291-5.316-11.647-11.3-11.96q-.276-.015-.548-.015a9.667,9.667,0,0,0-9.213,6.629" transform="translate(-1846.114 -810.579)" fill="none"/>
    </clipPath>
  </defs>
  <g id="Group_327" data-name="Group 327" transform="translate(-760 -2058.013)">
    <rect id="Rectangle_88" data-name="Rectangle 88" width="91" height="55" rx="5" transform="translate(767 2089)" fill="none" stroke="#d1d4e2" stroke-linecap="round" stroke-linejoin="round" stroke-width="2"/>
    <rect id="Rectangle_89" data-name="Rectangle 89" width="103" height="7" rx="3.5" transform="translate(761 2144)" fill="none" stroke="#d1d4e2" stroke-linecap="round" stroke-linejoin="round" stroke-width="2"/>
    <g id="Group_139" data-name="Group 139" transform="translate(777.503 2058.013)">
      <path id="Path_71" data-name="Path 71" d="M210.214,1122.892c6.575.338,12.025,6.481,12.3,13.719a14.5,14.5,0,0,1-.062,2.022,8.138,8.138,0,0,1,3.606-.726c5.158.141,9.448,4.987,9.664,10.824.205,5.545-3.329,10.116-8.091,10.6-.252.024-.507.04-.766.042l-46.385.244a6.59,6.59,0,0,1-5.211-6.257,5.875,5.875,0,0,1,5.8-6.345,5.8,5.8,0,0,1,2.008.383,15.685,15.685,0,0,1-.509-3.374c-.322-7.983,5.457-14.228,12.755-13.947a12.536,12.536,0,0,1,3.853.772c1.645-4.924,5.939-8.22,11.043-7.958" transform="translate(-172.506 -1120.441)" fill="#e3cece" style="mix-blend-mode: multiply;isolation: isolate"/>
      <g id="Group_77" data-name="Group 77" transform="translate(6.131)">
        <g id="Group_54" data-name="Group 54" clip-path="url(#clip-path)">
          <rect id="Rectangle_28" data-name="Rectangle 28" width="60.195" height="36.432" transform="translate(-0.137 0)" fill="#ff9800"/>
        </g>
      </g>
    </g>
    <g id="Icon_feather-file" data-name="Icon feather-file" transform="translate(777.979 2118.641)">
      <path id="Path_191" data-name="Path 191" d="M12.211,3H7.38A1.38,1.38,0,0,0,6,4.38V15.422A1.38,1.38,0,0,0,7.38,16.8h8.281a1.38,1.38,0,0,0,1.38-1.38V7.831Z" fill="#1f2649" stroke="#1f2649" stroke-linecap="round" stroke-linejoin="round" stroke-width="2"/>
      <path id="Path_192" data-name="Path 192" d="M19.5,3V7.831h4.831" transform="translate(-7.289)" fill="#1f2649" stroke="#1f2649" stroke-linecap="round" stroke-linejoin="round" stroke-width="2"/>
    </g>
    <g id="Icon_feather-file-2" data-name="Icon feather-file" transform="translate(800.979 2118.641)">
      <path id="Path_191-2" data-name="Path 191" d="M12.211,3H7.38A1.38,1.38,0,0,0,6,4.38V15.422A1.38,1.38,0,0,0,7.38,16.8h8.281a1.38,1.38,0,0,0,1.38-1.38V7.831Z" fill="#717795" stroke="#717795" stroke-linecap="round" stroke-linejoin="round" stroke-width="2"/>
      <path id="Path_192-2" data-name="Path 192" d="M19.5,3V7.831h4.831" transform="translate(-7.289)" fill="#717795" stroke="#717795" stroke-linecap="round" stroke-linejoin="round" stroke-width="2"/>
    </g>
    <g id="Icon_feather-file-3" data-name="Icon feather-file" transform="translate(825.816 2118.641)">
      <path id="Path_191-3" data-name="Path 191" d="M12.211,3H7.38A1.38,1.38,0,0,0,6,4.38V15.422A1.38,1.38,0,0,0,7.38,16.8h8.281a1.38,1.38,0,0,0,1.38-1.38V7.831Z" fill="#d1d4e2" stroke="#d1d4e2" stroke-linecap="round" stroke-linejoin="round" stroke-width="2"/>
      <path id="Path_192-3" data-name="Path 192" d="M19.5,3V7.831h4.831" transform="translate(-7.289)" fill="#d1d4e2" stroke="#d1d4e2" stroke-linecap="round" stroke-linejoin="round" stroke-width="2"/>
    </g>
    <g id="Group_140" data-name="Group 140" transform="translate(-552.582 737.324)">
      <path id="Path_184" data-name="Path 184" d="M275.337,1376.871v-4.233H250.5v-4.11" transform="translate(1114.582 -0.201)" fill="none" stroke="#d1d4e2" stroke-linecap="round" stroke-linejoin="round" stroke-width="2"/>
      <path id="Path_185" data-name="Path 185" d="M250.5,1376.871v-4.233h24.837v-8.762" transform="translate(1089.745 -0.201)" fill="none" stroke="#d1d4e2" stroke-linecap="round" stroke-linejoin="round" stroke-width="2"/>
    </g>
    <line id="Line_16" data-name="Line 16" y2="4" transform="translate(812.5 2109.358)" fill="none" stroke="#d1d4e2" stroke-linecap="round" stroke-width="2"/>
    <path id="Path_193" data-name="Path 193" d="M794.255,2122.36v4.127h4.16Z" transform="translate(-4)" fill="#fff"/>
    <path id="Path_194" data-name="Path 194" d="M794.255,2122.36v4.127h4.16Z" transform="translate(19)" fill="#fff"/>
    <path id="Path_195" data-name="Path 195" d="M794.255,2122.36v4.127h4.16Z" transform="translate(43.837)" fill="#fff"/>
  </g>
</svg>
