<svg xmlns="http://www.w3.org/2000/svg" width="95" height="90" viewBox="0 0 95 90">
  <g id="Group_364" data-name="Group 364" transform="translate(-1058 -2255)">
    <g id="Ellipse_165" data-name="Ellipse 165" transform="translate(1064 2255)" fill="none" stroke="#d1d4e2" stroke-width="2">
      <circle cx="37.5" cy="37.5" r="37.5" stroke="none"/>
      <circle cx="37.5" cy="37.5" r="36.5" fill="none"/>
    </g>
    <path id="Path_570" data-name="Path 570" d="M8134.979,2297l31.509,18.685-31.509,18.708" transform="translate(-7064.995 -23.25)" fill="none" stroke="#d1d4e2" stroke-linecap="round" stroke-linejoin="round" stroke-width="2"/>
    <path id="Path_571" data-name="Path 571" d="M8177,2310.2l6-35.4" transform="translate(-7075.5 -17.7)" fill="none" stroke="#d1d4e2" stroke-width="2"/>
    <rect id="Rectangle_193" data-name="Rectangle 193" width="28" height="28" rx="14" transform="translate(1125 2271)" fill="#ff9800"/>
    <line id="Line_53" data-name="Line 53" x2="14" transform="translate(1132 2285)" fill="none" stroke="#fff" stroke-width="2"/>
    <line id="Line_54" data-name="Line 54" y1="14" transform="translate(1139 2278)" fill="none" stroke="#fff" stroke-width="2"/>
    <rect id="Rectangle_194" data-name="Rectangle 194" width="58" height="23" rx="4" transform="translate(1090 2322)" fill="#1f2649"/>
    <path id="Path_573" data-name="Path 573" d="M7323.5,2350.58l7.873-4.021h12.638l7.873-4.691h8.909l6.008-4.289" transform="translate(-6226 -11.281)" fill="none" stroke="#fff" stroke-width="2"/>
    <line id="Line_50" data-name="Line 50" x2="25" transform="translate(1058 2334)" fill="none" stroke="#d1d4e2" stroke-width="2"/>
    <line id="Line_51" data-name="Line 51" x2="14" transform="translate(1058 2344)" fill="none" stroke="#d1d4e2" stroke-width="2"/>
    <line id="Line_52" data-name="Line 52" x2="23" transform="translate(1058 2339)" fill="none" stroke="#d1d4e2" stroke-width="2"/>
    <circle id="Ellipse_166" data-name="Ellipse 166" cx="4" cy="4" r="4" transform="translate(1121 2327)" fill="#ff9800"/>
  </g>
</svg>
