<svg xmlns="http://www.w3.org/2000/svg" width="169.999" height="161" viewBox="0 0 169.999 161">
  <g id="Group_495" data-name="Group 495" transform="translate(-1343 -176)">
    <g id="budget_1_" data-name="budget (1)" transform="translate(1343 174.541)">
      <path id="Path_1030" data-name="Path 1030" d="M133.425,27.834l-25.8-25.8a1.963,1.963,0,0,0-1.388-.575H95.768a1.963,1.963,0,1,0,0,3.926h8.5V19.905a11.294,11.294,0,0,0,11.281,11.281h14.523V99.342a7.394,7.394,0,0,1-4.046,6.568,23.8,23.8,0,0,0-47.567.788h-3.58V79.956h27.171a1.963,1.963,0,0,0,0-3.926H74.881V71.486h27.171a1.963,1.963,0,0,0,0-3.926H74.881V63.016h27.171a1.963,1.963,0,0,0,0-3.926H74.493a15.939,15.939,0,0,0-1.781-4.544h29.34a1.963,1.963,0,1,0,0-3.926H69.51a15.979,15.979,0,0,0-10.674-4.079h-16.6v-33.8a7.363,7.363,0,0,1,7.355-7.354H87.953a1.963,1.963,0,0,0,0-3.926H49.59a11.293,11.293,0,0,0-11.28,11.28v33.8H16.046A16.064,16.064,0,0,0,0,62.587v56.062A16.064,16.064,0,0,0,16.046,134.7H58.835a16.064,16.064,0,0,0,16.046-16.046v-8.025h3.854a23.8,23.8,0,0,0,47.1-.44A11.336,11.336,0,0,0,134,99.342V29.222a1.962,1.962,0,0,0-.575-1.388Zm-62.47,90.815a12.134,12.134,0,0,1-12.12,12.12H16.046a12.134,12.134,0,0,1-12.12-12.12V62.587a12.134,12.134,0,0,1,12.12-12.12H58.835a12.134,12.134,0,0,1,12.12,12.12v56.062Zm31.3,8.214a19.872,19.872,0,1,1,19.872-19.872A19.895,19.895,0,0,1,102.256,126.863ZM108.2,19.905V8.16l19.1,19.1H115.551a7.363,7.363,0,0,1-7.355-7.355Z" fill="#d1d4e2"/>
      <path id="Path_1031" data-name="Path 1031" d="M88.373,213.719H45.585a5.581,5.581,0,0,0-5.575,5.575v9.317a5.029,5.029,0,0,0,5.022,5.025h4.823a1.963,1.963,0,0,0,0-3.926H45.032a1.1,1.1,0,0,1-1.1-1.1v-9.317a1.651,1.651,0,0,1,1.649-1.649H88.373a1.652,1.652,0,0,1,1.652,1.649v9.317a1.1,1.1,0,0,1-1.1,1.1H57.7a1.963,1.963,0,0,0,0,3.926H88.928a5.029,5.029,0,0,0,5.022-5.025v-9.317a5.582,5.582,0,0,0-5.577-5.575Z" transform="translate(-29.539 -156.708)" fill="#1f2649"/>
      <path id="Path_1032" data-name="Path 1032" d="M88.925,312.057h-43.9a5.028,5.028,0,0,0-5.023,5.023v30.877a5.583,5.583,0,0,0,5.575,5.577H88.37a5.584,5.584,0,0,0,5.577-5.577V317.08A5.029,5.029,0,0,0,88.925,312.057Zm1.1,5.023v7.486H81.684v-8.583h7.241A1.1,1.1,0,0,1,90.021,317.08ZM56.2,328.492h8.819V337.1H56.2ZM52.269,337.1H43.932v-8.608h8.338Zm12.745-12.533H56.2v-8.583h8.819Zm3.926-8.583h8.819v8.583H68.94Zm-3.926,25.043v8.583H56.2v-8.583Zm3.926,0h8.819v8.583H68.94Zm0-3.926v-8.608h8.819V337.1Zm12.744-8.608h8.337V337.1H81.684ZM45.029,315.983h7.241v8.583H43.932V317.08A1.1,1.1,0,0,1,45.029,315.983Zm-1.1,31.974v-6.932h8.338v8.583H45.581A1.652,1.652,0,0,1,43.932,347.957Zm44.438,1.652H81.684v-8.583h8.337v6.932A1.653,1.653,0,0,1,88.37,349.609Z" transform="translate(-29.536 -229.309)" fill="#1f2649"/>
      <path id="Path_1033" data-name="Path 1033" d="M373.708,363.9a18.3,18.3,0,0,1-4.646-2.157,1.5,1.5,0,0,1-.333-1.422,2.071,2.071,0,0,1,1.361-1.634,3.71,3.71,0,0,1,3.407.535,1.963,1.963,0,1,0,2.511-3.018A7.476,7.476,0,0,0,373,354.765v-.709a1.963,1.963,0,0,0-3.926,0v.84l-.118.033a5.955,5.955,0,0,0-4.087,4.666,5.32,5.32,0,0,0,1.768,5.238,20.046,20.046,0,0,0,5.76,2.77,2.372,2.372,0,0,1,1.72,2.781,3.118,3.118,0,0,1-3.094,2.63,5.242,5.242,0,0,1-3.765-.986,1.963,1.963,0,1,0-2.149,3.285,8.5,8.5,0,0,0,3.964,1.544v.8a1.963,1.963,0,0,0,3.926,0v-1a7.145,7.145,0,0,0,4.989-5.628A6.3,6.3,0,0,0,373.708,363.9Z" transform="translate(-268.899 -258.866)" fill="#d1d4e2"/>
      <path id="Path_1034" data-name="Path 1034" d="M202.842,94.285a1.963,1.963,0,0,0,1.963,1.963h40.734a1.963,1.963,0,0,0,0-3.926H204.8A1.963,1.963,0,0,0,202.842,94.285Z" transform="translate(-149.754 -67.082)" fill="#d1d4e2"/>
      <path id="Path_1035" data-name="Path 1035" d="M418.314,193.224h6.267a1.963,1.963,0,0,0,0-3.926h-6.267a1.963,1.963,0,0,0,0,3.926Z" transform="translate(-307.384 -138.678)" fill="#d1d4e2"/>
      <path id="Path_1036" data-name="Path 1036" d="M418.314,225.589h6.267a1.963,1.963,0,0,0,0-3.926h-6.267a1.963,1.963,0,0,0,0,3.926Z" transform="translate(-307.384 -162.572)" fill="#d1d4e2"/>
      <path id="Path_1037" data-name="Path 1037" d="M418.314,257.953h6.267a1.963,1.963,0,1,0,0-3.926h-6.267a1.963,1.963,0,1,0,0,3.926Z" transform="translate(-307.384 -186.466)" fill="#d1d4e2"/>
      <path id="Path_1038" data-name="Path 1038" d="M418.314,290.317h6.267a1.963,1.963,0,0,0,0-3.926h-6.267a1.963,1.963,0,1,0,0,3.926Z" transform="translate(-307.384 -210.36)" fill="#d1d4e2"/>
    </g>
    <g id="Group_146" data-name="Group 146" transform="translate(1406.492 283.747) rotate(-45)">
      <ellipse id="Ellipse_52" data-name="Ellipse 52" cx="9.357" cy="9.357" rx="9.357" ry="9.357" transform="translate(6.604 5.72)" fill="#fff"/>
      <path id="Icon_awesome-tag" data-name="Icon awesome-tag" d="M0,33.175V6.316A6.316,6.316,0,0,1,6.316,0H33.175a6.316,6.316,0,0,1,4.466,1.85l35.82,35.82a6.316,6.316,0,0,1,0,8.932L46.6,73.462a6.316,6.316,0,0,1-8.932,0L1.85,37.641A6.316,6.316,0,0,1,0,33.175ZM14.738,8.421a6.316,6.316,0,1,0,6.316,6.316A6.316,6.316,0,0,0,14.738,8.421Z" transform="translate(0 0)" fill="#ff9800"/>
    </g>
    <text id="_" data-name="$" transform="translate(1449.246 294.742)" fill="#fff" font-size="34" font-family="SegoeUI, Segoe UI"><tspan x="0" y="0">$</tspan></text>
  </g>
</svg>
