<svg xmlns="http://www.w3.org/2000/svg" xmlns:xlink="http://www.w3.org/1999/xlink" width="129.527" height="97.025" viewBox="0 0 129.527 97.025">
  <defs>
    <clipPath id="clip-path">
      <path id="Path_68" data-name="Path 68" d="M1861.342,815.63a8.577,8.577,0,0,0-2.533-.53c-4.714-.247-8.369,3.572-8.167,8.528a9.772,9.772,0,0,0,.32,2.107,3.754,3.754,0,0,0-1.26-.29,3.441,3.441,0,0,0-3.585,3.742,4.372,4.372,0,0,0,3.22,4.033l31.186,1.74c.188.01.373.01.556.005a6.277,6.277,0,0,0,5.964-6.814,7.835,7.835,0,0,0-7.1-7.521,6.182,6.182,0,0,0-2.592.41,9.144,9.144,0,0,0,.044-1.338,9.5,9.5,0,0,0-8.61-9.114q-.21-.011-.417-.011a7.366,7.366,0,0,0-7.021,5.051" transform="translate(-1846.113 -810.579)" fill="none" stroke="#d1d4e2" stroke-linecap="round" stroke-linejoin="round" stroke-width="2"/>
    </clipPath>
    <clipPath id="clip-path-2">
      <path id="Path_68-2" data-name="Path 68" d="M1856.317,813.964a5.742,5.742,0,0,0-1.7-.355,5.253,5.253,0,0,0-5.472,5.714,6.543,6.543,0,0,0,.214,1.411,2.519,2.519,0,0,0-.844-.194,2.306,2.306,0,0,0-2.4,2.508,2.929,2.929,0,0,0,2.157,2.7l20.9,1.166c.126.007.25.007.373,0a4.206,4.206,0,0,0,4-4.566,5.25,5.25,0,0,0-4.761-5.039,4.142,4.142,0,0,0-1.737.275,6.113,6.113,0,0,0,.03-.9,6.363,6.363,0,0,0-5.769-6.107q-.141-.007-.28-.007a4.936,4.936,0,0,0-4.7,3.385" transform="translate(-1846.113 -810.579)" fill="none" stroke="#d1d4e2" stroke-linecap="round" stroke-linejoin="round" stroke-width="2"/>
    </clipPath>
    <clipPath id="clip-path-3">
      <path id="Path_47" data-name="Path 47" d="M247.4,1105.49a17.2,17.2,0,0,0-5.3-1.089c-10.036-.431-17.984,8.169-17.54,19.2a21.823,21.823,0,0,0,.7,4.667,7.943,7.943,0,0,0-2.762-.541c-4.581-.071-8.167,3.842-7.968,8.735a9.145,9.145,0,0,0,7.164,8.679l63.8-.061c.355,0,.706-.022,1.054-.054,6.553-.64,11.417-6.94,11.135-14.608-.3-8.072-6.2-14.8-13.3-15.023a11.136,11.136,0,0,0-4.962.984,20.169,20.169,0,0,0,.085-2.8c-.377-10.01-7.875-18.534-16.92-19.037-.282-.016-.561-.024-.84-.024-6.648,0-12.178,4.439-14.35,10.963" transform="translate(-214.523 -1094.527)" fill="#ff9800"/>
    </clipPath>
    <clipPath id="clip-path-4">
      <path id="Path_68-3" data-name="Path 68" d="M1873.879,819.789a15.639,15.639,0,0,0-4.619-.966c-8.593-.45-15.259,6.512-14.891,15.549a17.879,17.879,0,0,0,.583,3.841,6.848,6.848,0,0,0-2.3-.529,6.275,6.275,0,0,0-6.536,6.823,7.971,7.971,0,0,0,5.87,7.354l56.86,3.172c.342.018.679.019,1.014.01,6.364-.211,11.154-5.569,10.874-12.424-.294-7.214-6.093-13.353-12.954-13.712a11.272,11.272,0,0,0-4.725.748,16.641,16.641,0,0,0,.08-2.439c-.356-8.741-7.386-16.182-15.7-16.618q-.383-.02-.761-.02a13.431,13.431,0,0,0-12.8,9.21" transform="translate(-1846.113 -810.579)" fill="none"/>
    </clipPath>
  </defs>
  <g id="Group_352" data-name="Group 352" transform="translate(-1301.897 -2056.975)">
    <g id="Group_143" data-name="Group 143" transform="translate(1329.849 2058.013)" style="isolation: isolate">
      <path id="Path_71" data-name="Path 71" d="M201.9,1122.888c5.01.258,9.164,4.939,9.372,10.455a11.043,11.043,0,0,1-.047,1.541,6.2,6.2,0,0,1,2.748-.553c3.931.107,7.2,3.8,7.365,8.249.156,4.225-2.537,7.709-6.166,8.077-.192.018-.387.03-.583.032l-35.348.186a5.022,5.022,0,0,1-3.971-4.768,4.477,4.477,0,0,1,4.416-4.835,4.419,4.419,0,0,1,1.53.292,11.954,11.954,0,0,1-.388-2.571c-.246-6.083,4.159-10.843,9.72-10.628a9.554,9.554,0,0,1,2.936.588,8.445,8.445,0,0,1,8.415-6.065" transform="translate(-173.161 -1122.877)" fill="none" stroke="#d1d4e2" stroke-linecap="round" stroke-linejoin="round" stroke-width="2" style="mix-blend-mode: multiply;isolation: isolate"/>
    </g>
    <g id="Group_144" data-name="Group 144" transform="translate(1302.897 2096.71)" style="isolation: isolate">
      <path id="Path_71-2" data-name="Path 71" d="M193.109,1122.884c3.357.173,6.14,3.309,6.28,7.006a7.406,7.406,0,0,1-.032,1.033,4.156,4.156,0,0,1,1.841-.371c2.634.072,4.824,2.547,4.935,5.527.1,2.831-1.7,5.165-4.132,5.412-.129.012-.259.021-.391.021l-23.685.125a3.365,3.365,0,0,1-2.661-3.195,3,3,0,0,1,2.959-3.24,2.958,2.958,0,0,1,1.025.2,8.011,8.011,0,0,1-.26-1.723c-.165-4.076,2.787-7.265,6.513-7.121a6.4,6.4,0,0,1,1.967.394,5.658,5.658,0,0,1,5.639-4.063" transform="translate(-173.855 -1122.877)" fill="none" stroke="#d1d4e2" stroke-linecap="round" stroke-linejoin="round" stroke-width="2" style="mix-blend-mode: multiply;isolation: isolate"/>
    </g>
    <g id="Group_141" data-name="Group 141" transform="translate(1302.897 2096.71)">
      <path id="Path_71-3" data-name="Path 71" d="M223.824,1122.9c9.135.469,16.707,9,17.088,19.062a20.158,20.158,0,0,1-.086,2.81,11.3,11.3,0,0,1,5.01-1.01c7.166.2,13.127,6.93,13.428,15.039.285,7.7-4.625,14.055-11.242,14.727-.35.033-.7.055-1.064.059l-64.448.339a9.156,9.156,0,0,1-7.24-8.693,8.163,8.163,0,0,1,8.052-8.815,8.061,8.061,0,0,1,2.79.532,21.8,21.8,0,0,1-.707-4.688c-.448-11.091,7.582-19.769,17.722-19.377a17.417,17.417,0,0,1,5.353,1.072c2.285-6.841,8.252-11.421,15.343-11.056" transform="translate(-171.432 -1119.492)" fill="#e3cece" style="mix-blend-mode: multiply;isolation: isolate"/>
      <g id="Group_77" data-name="Group 77" transform="translate(8.518)">
        <g id="Group_54" data-name="Group 54" clip-path="url(#clip-path-3)">
          <rect id="Rectangle_28" data-name="Rectangle 28" width="83.635" height="50.619" transform="translate(-0.191 0)" fill="#ff9800"/>
        </g>
      </g>
    </g>
    <g id="Group_146" data-name="Group 146" transform="translate(1364.78 2120.671) rotate(-45)">
      <ellipse id="Ellipse_52" data-name="Ellipse 52" cx="5.855" cy="5.855" rx="5.855" ry="5.855" transform="translate(4.133 3.579)" fill="#fff"/>
      <path id="Icon_awesome-tag" data-name="Icon awesome-tag" d="M0,20.758V3.952A3.952,3.952,0,0,1,3.952,0H20.758a3.952,3.952,0,0,1,2.795,1.158L45.966,23.571a3.952,3.952,0,0,1,0,5.589L29.16,45.966a3.952,3.952,0,0,1-5.589,0L1.158,23.553A3.952,3.952,0,0,1,0,20.758ZM9.222,5.269a3.952,3.952,0,1,0,3.952,3.952A3.952,3.952,0,0,0,9.222,5.269Z" transform="translate(0 0)" fill="#1f2649"/>
    </g>
    <text id="_" data-name="%" transform="translate(1388.149 2128.277)" fill="#fff" font-size="22" font-family="SegoeUI, Segoe UI"><tspan x="0" y="0">%</tspan></text>
  </g>
</svg>
