<svg xmlns="http://www.w3.org/2000/svg" width="62.207" height="94.59" viewBox="0 0 62.207 94.59">
  <g id="Layer_2" data-name="Layer 2" transform="translate(3.248 11.165)">
    <path id="Path_420" data-name="Path 420" d="M62.014,33.884V14.452a2.1,2.1,0,0,0-1.258-1.925L35.6,1.674a2.1,2.1,0,0,0-1.677,0L8.758,12.527A2.1,2.1,0,0,0,7.5,14.452V33.884A26.88,26.88,0,0,0,17.2,54.6L33.415,68.11a2.1,2.1,0,0,0,2.684,0L52.311,54.6a26.88,26.88,0,0,0,9.7-20.715Z" transform="translate(-7.75 -8.465)" fill="#e3cece"/>
    <path id="Path_414" data-name="Path 414" d="M38.481,26.654V13.01a3.826,3.826,0,1,0-7.652,0V19.7a3.515,3.515,0,0,0-4.668,1.124l-3.887,5.842-.826.291a9.16,9.16,0,0,0-5.9,10.387l.3,1.5a1.073,1.073,0,0,0-.481.874v6.235a1.093,1.093,0,0,0,1.093,1.093H29.666a1.093,1.093,0,0,0,1.093-1.093V39.725A1.08,1.08,0,0,0,30.475,39L38.288,27.26a1.093,1.093,0,0,0,.192-.606Zm-9.9,18.2H17.561V40.819H28.582Zm-.461-6.237v.015H18.064l-.343-1.714A6.954,6.954,0,0,1,22.2,29.026l1.17-.415a1.093,1.093,0,0,0,.547-.424L28,22.041a1.364,1.364,0,0,1,1.865-.376,1.345,1.345,0,0,1,.584.874,1.362,1.362,0,0,1-.2,1.025l-.125.188-1.237,1.858-3.327,5a1.093,1.093,0,1,0,1.819,1.213l3.972-5.966.721-1.093.754-1.135a1.093,1.093,0,0,0,.184-.606V13.019a1.635,1.635,0,1,1,3.271,0v13.31Z" transform="translate(20.478 36.384)" fill="#d1d4e2"/>
    <path id="Path_415" data-name="Path 415" d="M24.989,37.342a9.16,9.16,0,0,0-5.9-10.387l-.826-.291-3.87-5.842a3.515,3.515,0,0,0-4.678-1.117v-6.69a3.826,3.826,0,1,0-7.652,0V26.658a1.093,1.093,0,0,0,.184.606l7.814,11.744a1.08,1.08,0,0,0-.284.721V45.94a1.093,1.093,0,0,0,1.093,1.093H24.075a1.093,1.093,0,0,0,1.093-1.093V39.718a1.073,1.073,0,0,0-.481-.874ZM4.248,26.315V13.007a1.639,1.639,0,1,1,3.277,0V23.016a1.093,1.093,0,0,0,.184.606l5.45,8.19A1.093,1.093,0,1,0,14.978,30.6l-3.33-4.989-1.362-2.046a1.36,1.36,0,0,1,.387-1.906,1.388,1.388,0,0,1,1.023-.2,1.36,1.36,0,0,1,.874.582l4.088,6.145a1.093,1.093,0,0,0,.547.424l1.172.415a6.954,6.954,0,0,1,4.48,7.892l-.343,1.714H12.458V38.61ZM22.982,44.847H11.961V40.811H22.982Z" transform="translate(-5.308 36.391)" fill="#d1d4e2"/>
    <path id="Path_416" data-name="Path 416" d="M62.014,33.884V14.452a2.1,2.1,0,0,0-1.258-1.925L35.6,1.674a2.1,2.1,0,0,0-1.677,0L8.758,12.527A2.1,2.1,0,0,0,7.5,14.452V33.884A26.88,26.88,0,0,0,17.2,54.6L33.415,68.11a2.1,2.1,0,0,0,2.684,0L52.311,54.6a26.88,26.88,0,0,0,9.7-20.715Z" transform="translate(-5.44 -12.664)" fill="#ff9800"/>
    <circle id="Ellipse_108" data-name="Ellipse 108" cx="15" cy="15" r="15" transform="translate(13.958 3.425)" fill="#1f2649"/>
    <path id="Path_417" data-name="Path 417" d="M24.811,6.927l-7.723,7.714L13.736,11.3a1.459,1.459,0,1,0-2.063,2.063l4.372,4.372a1.457,1.457,0,0,0,2.063,0L26.851,8.99a1.459,1.459,0,1,0-2.063-2.063Z" transform="translate(10.039 6.095)" fill="#fff"/>
  </g>
</svg>
