<svg id="Component_18_1" data-name="Component 18 – 1" xmlns="http://www.w3.org/2000/svg" width="91" height="91.003" viewBox="0 0 91 91.003">
  <g id="Group_452" data-name="Group 452" transform="translate(-300.5 -4101.693)">
    <g id="Ellipse_114" data-name="Ellipse 114" transform="translate(341.235 4143.352)" fill="none" stroke="#ff9800" stroke-width="2">
      <circle cx="4.765" cy="4.765" r="4.765" stroke="none"/>
      <circle cx="4.765" cy="4.765" r="3.765" fill="none"/>
    </g>
    <g id="setting" transform="translate(329.806 4131.722)">
      <path id="Path_504" data-name="Path 504" d="M18.466,32.79H13.922a2.343,2.343,0,0,1-2.3-1.843l-.577-2.559a12.55,12.55,0,0,1-2.67-1.549l-2.489.786a2.374,2.374,0,0,1-2.765-1.077L.86,22.629a2.389,2.389,0,0,1,.44-2.917l1.929-1.773a13.568,13.568,0,0,1,0-3.088l-1.92-1.765a2.385,2.385,0,0,1-.455-2.911L3.132,6.233A2.365,2.365,0,0,1,5.887,5.166l2.492.786A12.584,12.584,0,0,1,11.049,4.4l.577-2.56A2.343,2.343,0,0,1,13.922,0h4.544a2.343,2.343,0,0,1,2.3,1.843L21.34,4.4a12.55,12.55,0,0,1,2.67,1.549L26.5,5.166a2.371,2.371,0,0,1,2.765,1.077l2.265,3.918a2.389,2.389,0,0,1-.44,2.917L29.16,14.851a13.673,13.673,0,0,1,0,3.088L31.081,19.7l.008.008a2.381,2.381,0,0,1,.447,2.9l-2.279,3.942A2.366,2.366,0,0,1,26.5,27.624l-2.493-.787a12.584,12.584,0,0,1-2.67,1.549l-.577,2.56a2.34,2.34,0,0,1-2.3,1.843ZM8.59,24.673a1.031,1.031,0,0,1,.653.234,10.513,10.513,0,0,0,3.044,1.767,1.027,1.027,0,0,1,.645.736l.7,3.088a.31.31,0,0,0,.3.243h4.544a.311.311,0,0,0,.3-.242l.7-3.088a1.024,1.024,0,0,1,.645-.736,10.544,10.544,0,0,0,3.044-1.767,1.021,1.021,0,0,1,.96-.187l3.007.95a.305.305,0,0,0,.362-.127L29.76,21.6a.332.332,0,0,0-.067-.395l-2.306-2.12a1.019,1.019,0,0,1-.318-.907,12.088,12.088,0,0,0,.137-1.786,11.919,11.919,0,0,0-.137-1.786,1.026,1.026,0,0,1,.318-.907L29.7,11.576a.333.333,0,0,0,.055-.4L27.488,7.258a.311.311,0,0,0-.372-.137l-3,.948a1.021,1.021,0,0,1-.96-.187,10.513,10.513,0,0,0-3.044-1.767,1.027,1.027,0,0,1-.645-.736l-.7-3.088a.32.32,0,0,0-.3-.242H13.922a.311.311,0,0,0-.3.242l-.7,3.089a1.025,1.025,0,0,1-.644.736A10.513,10.513,0,0,0,9.242,7.883a1.024,1.024,0,0,1-.96.187l-3.007-.95a.307.307,0,0,0-.362.127L2.633,11.187a.333.333,0,0,0,.07.4l2.3,2.118a1.019,1.019,0,0,1,.318.907A12.088,12.088,0,0,0,5.189,16.4a11.919,11.919,0,0,0,.137,1.786,1.026,1.026,0,0,1-.318.907L2.7,21.214a.333.333,0,0,0-.055.4l2.265,3.917a.307.307,0,0,0,.372.137l3-.948a1,1,0,0,1,.309-.048Z" transform="translate(0)" fill="#ff9800"/>
    </g>
  </g>
  <g id="Group_290" data-name="Group 290" transform="translate(-883 -1533)">
    <g id="product_1_" data-name="product (1)" transform="translate(872.207 1522.204)">
      <path id="Path_501" data-name="Path 501" d="M95.692,50.677a6.1,6.1,0,0,0-5.971,4.831H81.549A24.668,24.668,0,0,0,75.12,40.143l5.794-5.784a6.064,6.064,0,1,0-1.8-1.843l-5.833,5.833A24.69,24.69,0,0,0,57.9,32.073V23.9a6.1,6.1,0,1,0-2.58-.079v8.276A24.7,24.7,0,0,0,40.129,38.5l-5.79-5.79a6.1,6.1,0,1,0-1.865,1.784l5.839,5.819a24.644,24.644,0,0,0-6.287,15.381H23.9a6.181,6.181,0,0,0-6.005-5.015,6.1,6.1,0,1,0,0,12.2,5.983,5.983,0,0,0,5.91-4.6h8.245a24.554,24.554,0,0,0,6.379,15.179l-5.756,5.766a6.145,6.145,0,1,0,1.8,1.863l5.79-5.79A24.693,24.693,0,0,0,55.5,81.6v8.141a6.1,6.1,0,1,0,2.58,0V81.6a24.7,24.7,0,0,0,15.355-6.4L79.2,80.956a6.1,6.1,0,1,0,1.84-1.808l-5.784-5.805a24.6,24.6,0,0,0,6.294-15.255H89.74a6.1,6.1,0,1,0,5.952-7.41ZM81.809,26.8a3.52,3.52,0,1,1,4.979,4.978h0A3.521,3.521,0,1,1,81.809,26.8ZM31.774,31.78a3.521,3.521,0,1,1,0-4.978h0a3.519,3.519,0,0,1,0,4.978ZM17.891,60.318A3.521,3.521,0,1,1,21.412,56.8a3.521,3.521,0,0,1-3.521,3.521ZM31.774,86.794A3.52,3.52,0,1,1,26.8,81.815h0a3.513,3.513,0,0,1,4.843-.123,1.265,1.265,0,0,0,.358.369,3.519,3.519,0,0,1-.223,4.733Zm50.035-4.978a3.521,3.521,0,1,1,0,4.978h0A3.519,3.519,0,0,1,81.809,81.815ZM53.271,17.9a3.521,3.521,0,1,1,3.521,3.521A3.521,3.521,0,0,1,53.271,17.9Zm7.041,77.8a3.521,3.521,0,1,1-3.78-3.507,1.3,1.3,0,0,0,.519,0A3.523,3.523,0,0,1,60.312,95.7ZM56.792,79.049A22.211,22.211,0,1,1,79,56.838,22.211,22.211,0,0,1,56.792,79.049Zm38.9-18.731A3.521,3.521,0,1,1,99.213,56.8,3.521,3.521,0,0,1,95.692,60.318Z" transform="translate(0 0)" fill="#d1d4e2"/>
    </g>
    <circle id="Ellipse_115" data-name="Ellipse 115" cx="7" cy="7" r="7" transform="translate(922 1533)" fill="#1f2649"/>
    <circle id="Ellipse_116" data-name="Ellipse 116" cx="7" cy="7" r="7" transform="translate(950 1600)" fill="#1f2649"/>
    <circle id="Ellipse_117" data-name="Ellipse 117" cx="7" cy="7" r="7" transform="translate(883 1572)" fill="#1f2649"/>
  </g>
</svg>
