<svg xmlns="http://www.w3.org/2000/svg" width="56.514" height="69.217" viewBox="0 0 56.514 69.217">
  <g id="Group_375" data-name="Group 375" transform="translate(-263.744 -3420.693)">
    <g id="Layer_2" data-name="Layer 2" transform="translate(262.684 3432.87)">
      <path id="Path_416" data-name="Path 416" d="M62.014,33.884V14.452a2.1,2.1,0,0,0-1.258-1.925L35.6,1.674a2.1,2.1,0,0,0-1.677,0L8.758,12.527A2.1,2.1,0,0,0,7.5,14.452V33.884A26.88,26.88,0,0,0,17.2,54.6L33.415,68.11a2.1,2.1,0,0,0,2.684,0L52.311,54.6a26.88,26.88,0,0,0,9.7-20.715Z" transform="translate(-5.44 -12.664)" fill="none" stroke="#d1d4e2" stroke-width="2"/>
    </g>
    <rect id="Rectangle_198" data-name="Rectangle 198" width="10" height="12" transform="translate(287 3447)" fill="#fff"/>
    <path id="Icon_map-locksmith" data-name="Icon map-locksmith" d="M21.912,10.318H20.876V6.175A5.874,5.874,0,0,0,15.418.72h-4.55A5.773,5.773,0,0,0,5.52,6.175v4.142H4.373a1.029,1.029,0,0,0-.773.8V27.331c0,.287.448.423.773.423h17.54c.326,0,.883-.136.883-.423V11.114a1.173,1.173,0,0,0-.883-.8ZM15.459,22.835H10.828l.972-4.783a2.481,2.481,0,0,1-.972-1.97,2.351,2.351,0,0,1,2.315-2.349A2.285,2.285,0,0,1,15.459,16a2.668,2.668,0,0,1-.971,2.062Zm2.057-12.517H8.879V6.175a1.962,1.962,0,0,1,2.035-2.1h4.458a2.05,2.05,0,0,1,2.145,2.1Z" transform="translate(278.803 3436.016)" fill="#ff9800"/>
  </g>
</svg>
