<svg xmlns="http://www.w3.org/2000/svg" width="76.437" height="88" viewBox="0 0 76.437 88">
  <g id="Group_263" data-name="Group 263" transform="translate(-897.563 -1290)">
    <g id="bar-graph" transform="translate(897.344 1301.497)">
      <g id="Group_262" data-name="Group 262" transform="translate(0.22)">
        <g id="Group_261" data-name="Group 261">
          <path id="Path_421" data-name="Path 421" d="M73.385,174.3h-.623l-.036-34.045a1.207,1.207,0,0,0-1.207-1.206h0a1.207,1.207,0,0,0-1.206,1.208l.036,34.045-10.834.012-.007-6.484-.022-20.665s0,0,0,0l-.022-20.322a1.658,1.658,0,0,1,1.656-1.66l7.519-.008h0a1.658,1.658,0,0,1,1.657,1.656l.01,13.674a1.207,1.207,0,0,0,1.207,1.206h0a1.207,1.207,0,0,0,1.205-1.208l-.01-13.674a4.072,4.072,0,0,0-4.071-4.067h0l-7.519.008a4.071,4.071,0,0,0-4.067,4.076l.018,16.61a4.056,4.056,0,0,0-1.658-.353l-7.519.008a4.059,4.059,0,0,0-1.657.353l0-3.09a4.078,4.078,0,0,0-4.076-4.067l-7.519.008a4.076,4.076,0,0,0-4.067,4.076l.013,12.325a4.056,4.056,0,0,0-1.658-.354l-7.519.008a4.06,4.06,0,0,0-1.657.354l0-3.391a4.078,4.078,0,0,0-4.076-4.067l-7.519.008a4.071,4.071,0,0,0-4.067,4.076l.027,25.028H3.488a3.272,3.272,0,0,0,0,6.544h0l50.691-.054a1.207,1.207,0,1,0,0-2.414l-50.691.054h0a.858.858,0,0,1,0-1.716l10.992-.012,4.082,0,13.248-.014,6.557-.007,23.182-.025,10-.01h0l1.825,0h0a.858.858,0,0,1,0,1.716l-25.585.021a1.207,1.207,0,0,0,0,2.414h0l25.585-.021a3.272,3.272,0,0,0,0-6.544Zm-58.932.063-7.931.008L6.5,149.344a1.657,1.657,0,0,1,1.656-1.659l7.521-.008a1.66,1.66,0,0,1,1.658,1.656l.011,10.546.015,14.482ZM29,174.348l-9.226.01-.019-17.918a1.66,1.66,0,0,1,1.656-1.659l7.521-.008a1.66,1.66,0,0,1,1.658,1.656l.015,14.129,0,3.788Zm9.4-.01-5.38.006-.036-33.959a1.66,1.66,0,0,1,1.656-1.66l7.521-.008a1.66,1.66,0,0,1,1.658,1.656l.025,23.192.011,10.767Zm9.4-.01-1.535,0-.029-27.149a1.658,1.658,0,0,1,1.656-1.659l7.521-.008a1.66,1.66,0,0,1,1.658,1.654l.029,27.151Z" transform="translate(-0.22 -104.417)" fill="#d1d4e2"/>
          <path id="Path_422" data-name="Path 422" d="M56.357,30.227h0a3.848,3.848,0,0,0,2.658-1.068l6.79,3.635a3.923,3.923,0,0,0-.058.671,3.867,3.867,0,0,0,3.862,3.858h0A3.858,3.858,0,0,0,72.875,31.4L81.442,21a3.839,3.839,0,0,0,1.4.264h0a3.836,3.836,0,0,0,2.709-1.115L92.283,23.6A3.862,3.862,0,0,0,96.1,28.064h0a3.858,3.858,0,0,0,3.006-6.277L108.337,7.6a3.847,3.847,0,0,0,.988.129h0A3.862,3.862,0,0,0,109.321,0a3.858,3.858,0,0,0-3.006,6.277L97.086,20.469a3.848,3.848,0,0,0-3.7.986l-6.728-3.449a3.91,3.91,0,0,0,.047-.6,3.862,3.862,0,1,0-7.125,2.066l-8.568,10.4a3.85,3.85,0,0,0-4.064.8L60.16,27.032a3.862,3.862,0,1,0-3.8,3.2ZM108.3,2.839a1.448,1.448,0,1,1,1.027,2.471l0,1.207V5.31A1.448,1.448,0,0,1,108.3,2.839ZM96.1,22.754a1.448,1.448,0,0,1,0,2.9l0,1.207V25.65a1.448,1.448,0,1,1,0-2.9Zm-14.281-6.37a1.448,1.448,0,1,1,1.027,2.471l0,1.207V18.855a1.448,1.448,0,0,1-1.025-2.471ZM68.587,32.439a1.448,1.448,0,1,1,1.026,2.471l0,1.207V34.91a1.448,1.448,0,0,1-1.025-2.471Zm-13.256-7.1a1.448,1.448,0,1,1,1.027,2.471l0,1.207V27.814a1.448,1.448,0,0,1-1.025-2.471Z" transform="translate(-44.684 -11)" fill="#d1d4e2"/>
        </g>
      </g>
    </g>
    <circle id="Ellipse_109" data-name="Ellipse 109" cx="5" cy="5" r="5" transform="translate(917 1319)" fill="#1f2649"/>
    <circle id="Ellipse_110" data-name="Ellipse 110" cx="5" cy="5" r="5" transform="translate(904 1312)" fill="#1f2649"/>
    <circle id="Ellipse_111" data-name="Ellipse 111" cx="5" cy="5" r="5" transform="translate(930 1303)" fill="#1f2649"/>
    <circle id="Ellipse_112" data-name="Ellipse 112" cx="5" cy="5" r="5" transform="translate(944 1309)" fill="#1f2649"/>
    <circle id="Ellipse_113" data-name="Ellipse 113" cx="5" cy="5" r="5" transform="translate(957 1290)" fill="#1f2649"/>
    <path id="Rectangle_110" data-name="Rectangle 110" d="M4,0h8a4,4,0,0,1,4,4V52a0,0,0,0,1,0,0H0a0,0,0,0,1,0,0V4A4,4,0,0,1,4,0Z" transform="translate(954 1320)" fill="#ff9800"/>
  </g>
</svg>
