<svg xmlns="http://www.w3.org/2000/svg" width="69.996" height="73.996" viewBox="0 0 69.996 73.996">
  <g id="Component_21_1" data-name="Component 21 – 1" transform="translate(1 2)">
    <g id="Icon_feather-file" data-name="Icon feather-file" transform="translate(-1 -3)">
      <path id="Path_619" data-name="Path 619" d="M37.5,3H13a7,7,0,0,0-7,7V66a7,7,0,0,0,7,7H55a7,7,0,0,0,7-7V27.5Z" transform="translate(0 0)" fill="none" stroke="#d1d4e2" stroke-linecap="round" stroke-linejoin="round" stroke-width="2"/>
      <path id="Path_620" data-name="Path 620" d="M19.5,3V27.5H44" transform="translate(17.998 0)" fill="none" stroke="#d1d4e2" stroke-linecap="round" stroke-linejoin="round" stroke-width="2"/>
    </g>
    <g id="Icon_feather-file-2" data-name="Icon feather-file" transform="translate(-6 -3)">
      <path id="Path_619-2" data-name="Path 619" d="M37.5,3H13a7,7,0,0,0-7,7V66a7,7,0,0,0,7,7H55a7,7,0,0,0,7-7V27.5Z" transform="translate(0 0)" fill="none" stroke="#d1d4e2" stroke-linecap="round" stroke-linejoin="round" stroke-width="2"/>
      <path id="Path_620-2" data-name="Path 620" d="M19.5,3V27.5H44" transform="translate(17.998 0)" fill="none" stroke="#d1d4e2" stroke-linecap="round" stroke-linejoin="round" stroke-width="2"/>
    </g>
    <g id="Icon_feather-file-3" data-name="Icon feather-file" transform="translate(5 -3)">
      <g id="Path_619-3" data-name="Path 619" transform="translate(0 0)" fill="#f4f4f8" stroke-linecap="round" stroke-linejoin="round">
        <path d="M 54.99693298339844 73.99560546875 L 12.99956130981445 73.99560546875 C 8.588591575622559 73.99560546875 5.000001430511475 70.40702056884766 5.000001430511475 65.99605560302734 L 5.000001430511475 9.99956226348877 C 5.000001430511475 5.588592529296875 8.588591575622559 2.00000262260437 12.99956130981445 2.00000262260437 L 37.49802017211914 2.00000262260437 L 37.9122314453125 2.00000262260437 L 38.20513153076172 2.292892694473267 L 62.70359039306641 26.79135322570801 L 62.99648284912109 27.08425331115723 L 62.99648284912109 27.49846267700195 L 62.99648284912109 65.99605560302734 C 62.99648284912109 70.40702056884766 59.40790176391602 73.99560546875 54.99693298339844 73.99560546875 Z" stroke="none"/>
        <path d="M 12.99956512451172 3 C 9.133808135986328 3 5.999996185302734 6.133811950683594 5.999996185302734 9.999557495117188 L 5.999996185302734 65.99604797363281 C 5.999996185302734 69.86180114746094 9.133808135986328 72.99560546875 12.99956512451172 72.99560546875 L 54.99691772460938 72.99560546875 C 58.86267471313477 72.99560546875 61.99648666381836 69.86180114746094 61.99648666381836 65.99604797363281 L 61.99648666381836 27.49845886230469 L 37.49801635742188 3 L 12.99956512451172 3 M 12.99956512451172 1 L 37.49801635742188 1 C 38.02845001220703 1 38.53716278076172 1.210716247558594 38.9122314453125 1.585792541503906 L 63.41069793701172 26.08424758911133 C 63.78577423095703 26.45931243896484 63.99648666381836 26.96802520751953 63.99648666381836 27.49845886230469 L 63.99648666381836 65.99604797363281 C 63.99648666381836 70.95841217041016 59.95929718017578 74.99560546875 54.99691772460938 74.99560546875 L 12.99956512451172 74.99560546875 C 8.037185668945312 74.99560546875 3.999996185302734 70.95841217041016 3.999996185302734 65.99604797363281 L 3.999996185302734 9.999557495117188 C 3.999996185302734 5.037193298339844 8.037185668945312 1 12.99956512451172 1 Z" stroke="none" fill="#d1d4e2"/>
      </g>
      <path id="Path_620-3" data-name="Path 620" d="M19.5,3V27.5H44" transform="translate(17.998 0)" fill="#f4f4f8" stroke="#d1d4e2" stroke-linecap="round" stroke-linejoin="round" stroke-width="2"/>
    </g>
    <g id="Rectangle_212" data-name="Rectangle 212" transform="translate(24 33)" fill="none" stroke="#1f2649" stroke-width="2">
      <rect width="30" height="29" rx="4" stroke="none"/>
      <rect x="1" y="1" width="28" height="27" rx="3" fill="none"/>
    </g>
    <g id="Rectangle_213" data-name="Rectangle 213" transform="translate(24 37)" fill="none" stroke="#1f2649" stroke-width="2">
      <rect width="30" height="21" rx="4" stroke="none"/>
      <rect x="1" y="1" width="28" height="19" rx="3" fill="none"/>
    </g>
    <path id="Icon_awesome-play" data-name="Icon awesome-play" d="M7,3.542,1.194.111A.787.787,0,0,0,0,.792V7.653a.791.791,0,0,0,1.194.681L7,4.9A.791.791,0,0,0,7,3.542Z" transform="translate(35.306 43.276)" fill="#ff9800"/>
  </g>
</svg>
