<svg xmlns="http://www.w3.org/2000/svg" width="91" height="87.362" viewBox="0 0 91 87.362">
  <g id="Group_291" data-name="Group 291" transform="translate(-1049 -1534.697)">
    <path id="Subtraction_6" data-name="Subtraction 6" d="M-4748,83h0a5.523,5.523,0,0,1-2.22-2.689,5.366,5.366,0,0,1,.034-3.807,43.36,43.36,0,0,1-6.3-6.924,44.248,44.248,0,0,1-4.66-8.053,44.341,44.341,0,0,1-2.874-8.85,43.567,43.567,0,0,1-.945-9.314,5.305,5.305,0,0,1-3.985-5.935,5.3,5.3,0,0,1,5.365-4.712,43.507,43.507,0,0,1,5.2-12.165,1.211,1.211,0,0,1,1.043-.617,1.5,1.5,0,0,1,1.267.762,1.2,1.2,0,0,1-.045,1.264,40.892,40.892,0,0,0-4.89,11.445,5.425,5.425,0,0,1,2.122,2.164,83.267,83.267,0,0,1,16.739-1.8,5.44,5.44,0,0,1,4.94-3.145,5.207,5.207,0,0,1,1.507.222,61.4,61.4,0,0,1,9.439-10.247,5.465,5.465,0,0,1-.4-3.924,58.138,58.138,0,0,0-13.668-5.916,5.463,5.463,0,0,1-4.874,2.972,5.238,5.238,0,0,1-3.085-.989,41.557,41.557,0,0,0-3.871,3.874,1.2,1.2,0,0,1-.916.439,1.492,1.492,0,0,1-1.3-.873,1.192,1.192,0,0,1,.212-1.321,44.084,44.084,0,0,1,4.164-4.162,5.292,5.292,0,0,1,.283-5.211,5.57,5.57,0,0,1,4.627-2.558,5.323,5.323,0,0,1,3.923,1.779A42.955,42.955,0,0,1-4721.473,0a42.956,42.956,0,0,1,19.286,4.506,5.228,5.228,0,0,1,3.7-1.57,5.608,5.608,0,0,1,4.516,2.4,5.294,5.294,0,0,1,.589,4.985c1.024.873,2.009,1.792,2.928,2.731a5.633,5.633,0,0,1,2.39-.552,5.42,5.42,0,0,1,4.846,3.181,5.3,5.3,0,0,1-.809,5.764,43.191,43.191,0,0,1,5.936,19.386,43.382,43.382,0,0,1-3.36,19.973,1.3,1.3,0,0,1-.069.166A43.462,43.462,0,0,1-4691,74.858V70.985a40.968,40.968,0,0,0,6.693-10.321A81.207,81.207,0,0,0-4691,54.555v-3.4a84.049,84.049,0,0,1,7.795,6.838,41.48,41.48,0,0,0-3.015-35.005,5.322,5.322,0,0,1-1.882.344h-.019a83.406,83.406,0,0,1-8.479,19.253,5.494,5.494,0,0,1,1.575,4.407l-2.67-.21a2.81,2.81,0,0,0-.624-2.154,2.772,2.772,0,0,0-2.062-.937,2.748,2.748,0,0,0-2.719,2.665l-2.659-.209a5.325,5.325,0,0,1,.16-1.066,79.867,79.867,0,0,0-26.364-8.038,5.362,5.362,0,0,1-1.911,3.163,5.482,5.482,0,0,1-3.428,1.228,5.2,5.2,0,0,1-1.55-.236,59.366,59.366,0,0,0-2.39,5.561l-2.92.237a62.079,62.079,0,0,1,3.033-7.212,5.415,5.415,0,0,1-1.5-3.337c-5.158.058-15.52,1.7-15.624,1.719a5.051,5.051,0,0,1-2.026,4.222,5.871,5.871,0,0,1-2.025.981c0,11.017,5.618,23.745,13.664,30.951a5.464,5.464,0,0,1,.637-.467V83Zm23.5-60.4a58.723,58.723,0,0,0-8.916,9.639,5.448,5.448,0,0,1,1.274,2.089,82.573,82.573,0,0,1,27.827,8.408,5.426,5.426,0,0,1,.663-.6A59.381,59.381,0,0,0-4718.456,22.6a5.335,5.335,0,0,1-3.021.923,5.334,5.334,0,0,1-3.021-.923Zm24.1,18.421a5.488,5.488,0,0,1,1.5.208,80.767,80.767,0,0,0,8.2-18.571,5.411,5.411,0,0,1-2.63-3.547,5.4,5.4,0,0,1,.838-4.327c-.768-.778-1.592-1.548-2.45-2.287a5.2,5.2,0,0,1-3.413,1.255,5.554,5.554,0,0,1-2.764-.736,5.164,5.164,0,0,1-2.023-2.1,58.128,58.128,0,0,0-13.141,5.762,5.467,5.467,0,0,1-.4,3.924A62.044,62.044,0,0,1-4701.2,41.08,5.32,5.32,0,0,1-4700.4,41.02Zm-63.238-5.635a2.734,2.734,0,0,0-2.72,2.741,2.734,2.734,0,0,0,2.72,2.741,2.684,2.684,0,0,0,2.707-2.741,2.683,2.683,0,0,0-2.707-2.74Zm26.382-2.1a2.734,2.734,0,0,0-2.72,2.741,2.682,2.682,0,0,0,2.721,2.726,2.681,2.681,0,0,0,2.721-2.726A2.735,2.735,0,0,0-4737.256,33.286Zm15.779-17.9a2.734,2.734,0,0,0-2.721,2.741,2.734,2.734,0,0,0,2.721,2.741,2.683,2.683,0,0,0,2.706-2.74,2.683,2.683,0,0,0-2.706-2.741Zm33.367-.206a2.684,2.684,0,0,0-2.707,2.74,2.684,2.684,0,0,0,2.707,2.741,2.734,2.734,0,0,0,2.72-2.741,2.734,2.734,0,0,0-2.72-2.741ZM-4721.47,2.665a40.309,40.309,0,0,0-18.453,4.4,5.5,5.5,0,0,1,.149,1.079,60.832,60.832,0,0,1,14.432,6.216,5.392,5.392,0,0,1,3.865-1.616,5.391,5.391,0,0,1,3.864,1.616,60.8,60.8,0,0,1,13.824-6.04,5.423,5.423,0,0,1,.225-1.523A40.324,40.324,0,0,0-4721.47,2.665Zm-23.687,2.959a2.683,2.683,0,0,0-2.722,2.726,2.735,2.735,0,0,0,2.722,2.741,2.734,2.734,0,0,0,2.72-2.741A2.681,2.681,0,0,0-4745.157,5.625Zm46.755-.014a2.733,2.733,0,0,0-2.72,2.74,2.681,2.681,0,0,0,2.72,2.727,2.682,2.682,0,0,0,2.721-2.727A2.733,2.733,0,0,0-4698.4,5.611Z" transform="translate(5818 1534.697)" fill="#d1d4e2"/>
    <g id="games" transform="translate(1060 1563.991)">
      <path id="Path_502" data-name="Path 502" d="M67.383,17.721c-9.774-16.058-24.5-4.886-24.5-4.886a7.632,7.632,0,0,1-3.912,1.318l-3.944,0a7.581,7.581,0,0,1-3.911-1.314S16.394,1.667,6.618,17.725.784,51.26.784,51.26c.69,4.281,2.964,7.137,7.256,6.778S21.607,46.51,21.607,46.51a5.294,5.294,0,0,1,3.568-1.672l23.644,0a5.285,5.285,0,0,1,3.567,1.672s9.29,11.17,13.576,11.528,6.566-2.5,7.252-6.778C73.212,51.256,77.157,33.776,67.383,17.721ZM28.115,30.791h-5.07v4.886a4.725,4.725,0,0,1-2.735.8,3.3,3.3,0,0,1-2.409-.894v-4.79H13.112a3.85,3.85,0,0,1-.758-2.226,5.107,5.107,0,0,1,.661-2.917h5.071V20.58a5.512,5.512,0,0,1,2.543-.516,6.705,6.705,0,0,1,2.6.611l-.021,4.973H28a4.768,4.768,0,0,1,.905,2.371A5.988,5.988,0,0,1,28.115,30.791Zm23.255,5.569a4.013,4.013,0,1,1,4.014-4.013A4.007,4.007,0,0,1,51.369,36.361Zm0-11.041a4.012,4.012,0,1,1,4.014-4.011A4.006,4.006,0,0,1,51.369,25.32Zm9.993,5.927a4.013,4.013,0,1,1,4.014-4.013A4.006,4.006,0,0,1,61.363,31.247Z" transform="translate(0 0)" fill="#ff9800"/>
    </g>
    <circle id="Ellipse_118" data-name="Ellipse 118" cx="7" cy="7" r="7" transform="translate(1066 1536)" fill="#1f2649"/>
    <circle id="Ellipse_119" data-name="Ellipse 119" cx="7" cy="7" r="7" transform="translate(1122 1545)" fill="#1f2649"/>
  </g>
</svg>
