<svg xmlns="http://www.w3.org/2000/svg" width="482.194" height="436.071" viewBox="0 0 482.194 436.071">
  <g id="Group_758" data-name="Group 758" transform="translate(-455.602 -461.121)">
    <path id="Path_1416" data-name="Path 1416" d="M621.473,1905.434l60.637-35.009c5.994-3.461,15.687-3.461,21.643,0L913.5,1992.111c5.954,3.46,5.915,9.07-.078,12.531l-60.638,35.009c-5.993,3.461-15.679,3.465-21.633.006L621.4,1917.971c-5.954-3.46-5.924-9.075.07-12.536" transform="translate(-76.396 -1149.497)" fill="#d1d4e2"/>
    <path id="Path_1417" data-name="Path 1417" d="M741.551,1731.275c0,1.94-2.723,3.512-6.082,3.512s-6.082-1.572-6.082-3.512v-72.093c0-1.939,2.723-3.511,6.082-3.511s6.082,1.572,6.082,3.511Z" transform="translate(-173.343 -966.554)" fill="#717795"/>
    <path id="Path_1418" data-name="Path 1418" d="M1147.557,1496.854c0,1.939-2.723,3.512-6.083,3.512s-6.082-1.572-6.082-3.512v-72.093c0-1.939,2.723-3.512,6.082-3.512s6.083,1.572,6.083,3.512Z" transform="translate(-523.439 -764.414)" fill="#4b4b66"/>
    <path id="Path_1420" data-name="Path 1420" d="M2636.573,2360.667c0,1.94-2.723,3.512-6.083,3.512s-6.082-1.572-6.082-3.512v-72.093c0-1.939,2.723-3.511,6.082-3.511s6.083,1.572,6.083,3.511Z" transform="translate(-1807.408 -1509.274)" fill="#717795"/>
    <path id="Path_1421" data-name="Path 1421" d="M2230.563,2595.079c0,1.939-2.723,3.512-6.083,3.512s-6.083-1.572-6.083-3.512v-72.093c0-1.939,2.723-3.511,6.083-3.511s6.083,1.572,6.083,3.511Z" transform="translate(-1457.308 -1711.406)" fill="#717795"/>
    <path id="Path_1422" data-name="Path 1422" d="M2228.26,2560.464l-.012-.008a4.625,4.625,0,0,0,.381.272c-.14-.083-.246-.177-.369-.264" transform="translate(-1465.801 -1746.744)" fill="#4b4b66"/>
    <path id="Path_1423" data-name="Path 1423" d="M2221.8,2554.411s0-.005-.006-.008a3.36,3.36,0,0,0,.322.357,3.409,3.409,0,0,1-.316-.35" transform="translate(-1460.233 -1741.525)" fill="#4b4b66"/>
    <path id="Path_1424" data-name="Path 1424" d="M2219.263,2549.643s0-.007,0-.01a2.564,2.564,0,0,0,.186.369,2.548,2.548,0,0,1-.184-.359" transform="translate(-1458.052 -1737.411)" fill="#4b4b66"/>
    <path id="Path_1425" data-name="Path 1425" d="M917.946,1630.215l.03,10.313c.007,2.283-1.5,4.571-4.52,6.315h0l-60.638,35.009c-5.993,3.461-15.678,3.465-21.634.005h0L621.435,1560.171h0c-2.958-1.72-4.44-3.97-4.446-6.225l-.028-10.313Z" transform="translate(-76.399 -869.944)" fill="#d1d4e2"/>
    <path id="Path_1426" data-name="Path 1426" d="M621.473,1262.328l60.637-35.009c5.994-3.461,15.687-3.461,21.643,0L913.5,1349.005c5.954,3.46,5.915,9.07-.078,12.531l-60.638,35.009c-5.993,3.461-15.679,3.465-21.633.006L621.4,1274.865c-5.954-3.461-5.924-9.076.07-12.536" transform="translate(-76.396 -594.951)" fill="#fff"/>
    <path id="Path_1427" data-name="Path 1427" d="M1137.927,1444.7l-33.22-17.513a5.561,5.561,0,0,0-5.02,0l-12.589,5.6v2.516a1.769,1.769,0,0,0,1.04,1.451l32.184,18.579a5.562,5.562,0,0,0,5.02,0l11.547-6.668a1.767,1.767,0,0,0,1.038-1.44c0-.527,0-1.677,0-1.677Z" transform="translate(-481.795 -769.02)" fill="#1f2649"/>
    <path id="Path_1428" data-name="Path 1428" d="M1136.889,1427.491l-32.182-18.579a5.553,5.553,0,0,0-5.02,0l-11.549,6.666c-1.386.8-1.386,2.1,0,2.9l32.184,18.577a5.535,5.535,0,0,0,5.02,0l11.547-6.665c1.385-.8,1.385-2.1,0-2.9" transform="translate(-481.796 -753.258)" fill="#1f2649"/>
    <path id="Path_1429" data-name="Path 1429" d="M1317.328,1421.9v14.35l4.143-2.392v-14.35Z" transform="translate(-680.322 -762.91)" fill="#313961"/>
    <path id="Path_1430" data-name="Path 1430" d="M1239.257,1391.936l-12.43-7.177v14.352l12.43,7.174Z" transform="translate(-602.283 -732.949)"/>
    <path id="Path_1431" data-name="Path 1431" d="M857.614,583.165a1.8,1.8,0,0,1,1.782.187l108.9,62.876a5.506,5.506,0,0,1,2.509,4.338v75.511a1.706,1.706,0,0,1-.774,1.642v.024l-4.1,2.368L853.513,585.533Z" transform="translate(-280.376 -41.601)" fill="#313961"/>
    <path id="Path_1432" data-name="Path 1432" d="M850.38,682.023l108.9,62.874c1.384.8,2.508.15,2.508-1.451V667.927a5.549,5.549,0,0,0-2.508-4.347l-108.9-62.874c-1.388-.8-2.511-.15-2.511,1.449v75.518a5.546,5.546,0,0,0,2.511,4.349" transform="translate(-275.51 -56.57)" fill="#1f2649"/>
    <path id="Path_1433" data-name="Path 1433" d="M873.251,637.935a.568.568,0,0,0-.82.471V710a1.86,1.86,0,0,0,.838,1.454l105.489,60.9a.568.568,0,0,0,.82-.474V700.289a1.847,1.847,0,0,0-.837-1.449Z" transform="translate(-296.689 -88.911)" fill="#717795"/>
    <path id="Path_1434" data-name="Path 1434" d="M947.232,774.615c1.072-.617,1.735-1.937,1.735-3.817a13.116,13.116,0,0,0-5.953-10.267c-3.287-1.9-5.953-.379-5.953,3.394a12.064,12.064,0,0,0,1.735,5.821Z" transform="translate(-352.42 -193.975)" fill="#1f2649"/>
    <path id="Path_1435" data-name="Path 1435" d="M949.66,785.136a12.2,12.2,0,0,0,4.218,4.447c1.648.952,3.14,1.043,4.218.423a10.553,10.553,0,0,0-2.814-4.816c.932-.039,1.573-.786,1.573-2.086a6.558,6.558,0,0,0-2.976-5.134c-1.644-.949-2.976-.189-2.976,1.7a6.488,6.488,0,0,0,1.573,3.9,2.32,2.32,0,0,0-2.814,1.566" transform="translate(-363.284 -209.367)" fill="#fff"/>
    <path id="Path_1436" data-name="Path 1436" d="M947.232,923.422c1.072-.616,1.735-1.936,1.735-3.817a13.116,13.116,0,0,0-5.953-10.267c-3.287-1.9-5.953-.379-5.953,3.394a12.063,12.063,0,0,0,1.735,5.82Z" transform="translate(-352.42 -322.29)" fill="#1f2649"/>
    <path id="Path_1437" data-name="Path 1437" d="M949.66,933.943a12.2,12.2,0,0,0,4.218,4.447c1.648.952,3.14,1.043,4.218.423A10.553,10.553,0,0,0,955.281,934c.932-.039,1.573-.786,1.573-2.086a6.558,6.558,0,0,0-2.976-5.134c-1.644-.949-2.976-.189-2.976,1.7a6.487,6.487,0,0,0,1.573,3.9,2.32,2.32,0,0,0-2.814,1.566" transform="translate(-363.284 -337.682)" fill="#fff"/>
    <path id="Path_1438" data-name="Path 1438" d="M947.232,1072.229c1.072-.617,1.735-1.937,1.735-3.817a13.116,13.116,0,0,0-5.953-10.267c-3.287-1.9-5.953-.379-5.953,3.394a12.063,12.063,0,0,0,1.735,5.82Z" transform="translate(-352.42 -450.606)" fill="#1f2649"/>
    <path id="Path_1439" data-name="Path 1439" d="M949.66,1082.75a12.2,12.2,0,0,0,4.218,4.447c1.648.952,3.14,1.043,4.218.423a10.554,10.554,0,0,0-2.814-4.816c.932-.039,1.573-.786,1.573-2.086a6.558,6.558,0,0,0-2.976-5.134c-1.644-.949-2.976-.189-2.976,1.7a6.488,6.488,0,0,0,1.573,3.9,2.32,2.32,0,0,0-2.814,1.566" transform="translate(-363.284 -465.997)" fill="#fff"/>
    <path id="Path_1440" data-name="Path 1440" d="M1069.094,843.115l-26.446-15.269a2.393,2.393,0,0,1-1.086-1.874c0-.689.486-.966,1.086-.619l26.446,15.269a2.393,2.393,0,0,1,1.086,1.874c0,.689-.486.966-1.086.619" transform="translate(-442.529 -250.448)" fill="#1f2649"/>
    <path id="Path_1441" data-name="Path 1441" d="M1064.138,879.937l-21.491-12.408a2.393,2.393,0,0,1-1.086-1.874c0-.689.486-.966,1.086-.619l21.491,12.408a2.393,2.393,0,0,1,1.086,1.874c0,.689-.486.966-1.086.619" transform="translate(-442.529 -284.666)" fill="#1f2649"/>
    <path id="Path_1442" data-name="Path 1442" d="M1069.094,991.922l-26.446-15.269a2.393,2.393,0,0,1-1.086-1.874c0-.689.486-.966,1.086-.62l26.446,15.269a2.393,2.393,0,0,1,1.086,1.874c0,.689-.486.966-1.086.619" transform="translate(-442.529 -378.763)" fill="#1f2649"/>
    <path id="Path_1443" data-name="Path 1443" d="M1059.182,1025.883l-16.534-9.546a2.394,2.394,0,0,1-1.086-1.874c0-.689.486-.966,1.086-.619l16.534,9.546a2.393,2.393,0,0,1,1.086,1.874c0,.689-.486.966-1.086.62" transform="translate(-442.529 -412.982)" fill="#1f2649"/>
    <path id="Path_1444" data-name="Path 1444" d="M1069.094,1140.73l-26.446-15.269a2.393,2.393,0,0,1-1.086-1.874c0-.689.486-.966,1.086-.619l26.446,15.269a2.392,2.392,0,0,1,1.086,1.874c0,.689-.486.966-1.086.619" transform="translate(-442.529 -507.079)" fill="#1f2649"/>
    <path id="Path_1445" data-name="Path 1445" d="M1049.269,1168.964l-6.622-3.823a2.393,2.393,0,0,1-1.086-1.874c0-.689.486-.966,1.086-.619l6.622,3.823a2.393,2.393,0,0,1,1.086,1.874c0,.688-.486.966-1.086.619" transform="translate(-442.529 -541.295)" fill="#1f2649"/>
    <path id="Path_1446" data-name="Path 1446" d="M1353.562,912.678l-47.431-27.384v36.76l47.431,27.384Z" transform="translate(-670.666 -302.262)" fill="#fff"/>
    <path id="Path_1447" data-name="Path 1447" d="M1417.49,1173.258c0-1.624-.007-3.1,0-4.39.011-5.258-1.611-9.607-9.033-13.1-7.634-3.592-11.253-.292-11.747,5.487Z" transform="translate(-748.768 -534.205)" fill="#1f2649"/>
    <path id="Path_1448" data-name="Path 1448" d="M1447.187,1120.174s-1.347,6.035-.159,6.973c1.014.8,5.181.8,5.181-1.465a60.8,60.8,0,0,1,.514-6.1Z" transform="translate(-791.739 -504.288)" fill="#f4f4f8"/>
    <path id="Path_1449" data-name="Path 1449" d="M1405.252,1098.248a1.655,1.655,0,0,1-.432-1.637c.433-1.345,2.711-2.232,3.855-2.514l.068.279c-1.267.312-3.285,1.187-3.651,2.323a1.39,1.39,0,0,0,.377,1.363Z" transform="translate(-755.703 -482.313)" fill="#1f2649"/>
    <path id="Path_1450" data-name="Path 1450" d="M1421.388,1041.782s-2.158,11.935,1.649,13.03c2.857.825,7.013.026,7.67-3.916s2.7-9.607-.047-9.984-9.233-1.844-9.273.87" transform="translate(-769.526 -435.819)" fill="#f4f4f8"/>
    <path id="Path_1451" data-name="Path 1451" d="M1489.82,1058.744s-.317,4.044-.626,5.826-2.624,3.409-3.235,2.606.578-7.333.578-7.333Z" transform="translate(-825.58 -451.828)" fill="#d1d4e2"/>
    <path id="Path_1452" data-name="Path 1452" d="M1421.552,1024.562s-5.707-.5-6.69,2-.483,4.613.547,4.579,5.641-.992,6.5-1.9c0,0,.857,6.785,2.588,5.541s4.618-3.366,3.414-7.251-6.359-2.969-6.359-2.969" transform="translate(-763.967 -422.272)" fill="#d1d4e2"/>
    <path id="Path_1453" data-name="Path 1453" d="M1483.166,1094.635s1.1-1.98,2.229-.923-.345,4.394-1.8,3.588-.426-2.665-.426-2.665" transform="translate(-823.017 -481.712)" fill="#d1d4e2"/>
    <path id="Path_1454" data-name="Path 1454" d="M1408.423,1122.49a.664.664,0,0,1-.909-.007c-.335-.239-.472-.622-.3-.856a.663.663,0,0,1,.909.008c.335.239.471.621.3.856" transform="translate(-757.764 -505.901)" fill="#1f2649"/>
    <path id="Path_1455" data-name="Path 1455" d="M1299.244,881.316v73.5l1.9,1.1v-73.5Z" transform="translate(-664.728 -298.833)" fill="#fff"/>
    <path id="Path_1456" data-name="Path 1456" d="M1385.517,1262.914l-23.977-13.843a2.09,2.09,0,0,1-.948-1.636c0-.6.424-.843.948-.541l23.977,13.843a2.089,2.089,0,0,1,.948,1.636c0,.6-.425.843-.948.541m7.5-1.134-31.477-18.173a2.089,2.089,0,0,1-.948-1.636c0-.6.424-.843.948-.541l31.477,18.173a2.09,2.09,0,0,1,.948,1.636c0,.6-.425.843-.948.541" transform="translate(-717.627 -609.245)" fill="#1f2649"/>
    <path id="Path_1457" data-name="Path 1457" d="M1385.517,1365.086l-23.977-13.843a2.09,2.09,0,0,1-.948-1.636c0-.6.424-.843.948-.541l23.977,13.843a2.089,2.089,0,0,1,.948,1.635c0,.6-.425.844-.948.541m7.5-1.135-31.477-18.173a2.09,2.09,0,0,1-.948-1.636c0-.6.424-.843.948-.541l31.477,18.173a2.089,2.089,0,0,1,.948,1.636c0,.6-.425.843-.948.541" transform="translate(-717.627 -697.346)" fill="#1f2649"/>
    <path id="Path_1460" data-name="Path 1460" d="M1736.7,2047.125l-53.806-31.064,22.827-13.178,53.8,31.064Z" transform="translate(-995.549 -1265.953)" fill="#313961"/>
    <path id="Path_1461" data-name="Path 1461" d="M1736.7,2129.644v2.152l-53.806-31.136v-2.08Z" transform="translate(-995.549 -1348.471)" fill="#1f2649"/>
    <path id="Path_1462" data-name="Path 1462" d="M2073.626,2243.793l22.826-13.25v-2.08l-22.826,13.178Z" transform="translate(-1332.472 -1460.469)" fill="#1f2649"/>
    <path id="Path_1463" data-name="Path 1463" d="M1789.174,2055.387l-3.26-1.883,3.26-1.883,3.261,1.883Zm-1.631.942-3.261-1.884-3.26,1.884,3.26,1.883Zm-4.891,2.823-3.261-1.883-3.26,1.883,3.26,1.882Zm9.783-11.3-3.261-1.883-3.26,1.883,3.26,1.883Zm-4.892,2.824-3.261-1.884-3.26,1.884,3.26,1.883Zm-4.891,2.823-3.261-1.883-3.26,1.883,3.26,1.883Zm-4.892,2.825-3.261-1.884-3.26,1.884,3.26,1.883Zm9.783-11.3-3.261-1.883-3.26,1.883,3.26,1.884Zm-4.891,2.824-3.261-1.883-3.26,1.883,3.26,1.883Zm-4.892,2.824-3.261-1.884-3.26,1.884,3.26,1.883Zm-4.891,2.823-3.261-1.883-3.26,1.883,3.26,1.883Zm9.782-11.3-3.261-1.884-3.26,1.884,3.26,1.883Zm-4.892,2.823-3.261-1.883-3.26,1.883,3.26,1.884Zm-4.891,2.824-3.261-1.883-3.26,1.883,3.26,1.883Zm4.891-8.472-3.261-1.883-3.26,1.883,3.26,1.883Zm-4.891,2.824-3.261-1.884-3.26,1.884,3.26,1.883Zm-4.892,2.823-3.261-1.883-3.26,1.883,3.26,1.884Zm-1.63,4.707-16.305-9.414-3.26,1.884,16.3,9.414Zm6.522-13.178-3.261-1.884-3.26,1.884,3.26,1.883Zm-4.892,2.824-3.261-1.883-3.26,1.883,3.26,1.883Zm-4.892,2.824-3.261-1.884-3.26,1.884,3.26,1.883Zm4.892-8.472-3.261-1.883-3.26,1.883,3.26,1.882Zm-4.892,2.824-3.261-1.884-3.26,1.884,3.26,1.883Zm-4.891,2.824-3.261-1.883-3.26,1.883,3.26,1.883Zm4.891-8.472-3.261-1.884-3.26,1.884,3.26,1.883Zm-4.891,2.823-3.261-1.883-3.26,1.883,3.26,1.882Zm-4.892,2.824-3.261-1.884-3.26,1.884,3.26,1.883Zm-4.891,2.824-3.261-1.883-3.26,1.883,3.26,1.883Zm9.782-11.3-3.261-1.882-3.26,1.882,3.26,1.883Zm-4.892,2.825-3.261-1.884-3.26,1.884,3.26,1.883Zm-4.891,2.823-3.261-1.883-3.26,1.883,3.26,1.882Zm-4.892,2.824-3.261-1.884-3.26,1.884,3.26,1.883Zm9.783-11.3-3.261-1.884-3.26,1.884,3.26,1.882Zm-4.891,2.823-3.261-1.882-3.26,1.882,3.26,1.883Zm-4.892,2.825-3.261-1.884-3.26,1.884,3.26,1.883Zm-4.6,2.823-3.261-1.883-3.261,1.883,3.261,1.882Zm58.4,16.945-3.261-1.884-3.26,1.884,3.26,1.883Z" transform="translate(-1038.238 -1283.628)" fill="#1f2649"/>
    <path id="Path_1464" data-name="Path 1464" d="M1681.192,1975.073c-1.62-.132-5.476-.733-5.3-3.465a13.078,13.078,0,0,1,10.1-6.358s4.832.168,5.8,3.358a.969.969,0,0,1-.47,1.1l-8.859,5.073a2.2,2.2,0,0,1-1.267.288" transform="translate(-989.5 -1233.502)" fill="#1f2649"/>
    <path id="Path_1465" data-name="Path 1465" d="M982.819,2756.2c18.244-10.533,47.724-10.528,65.841,0s18.031,27.6-.214,38.137-47.716,10.533-65.841,0-18.021-27.61.214-38.137" transform="translate(-380.029 -1908.722)" fill="#d1d4e2"/>
    <path id="Path_1466" data-name="Path 1466" d="M1186.38,3099.924a1.967,1.967,0,0,1,1.981-.191l3.6,2.093a1.968,1.968,0,0,0-1.981.192,6.11,6.11,0,0,0-2.764,4.8,1.941,1.941,0,0,0,.808,1.781l-3.6-2.093a1.946,1.946,0,0,1-.808-1.782,6.11,6.11,0,0,1,2.764-4.8" transform="translate(-565.022 -2211.596)" fill="#1f2649"/>
    <path id="Path_1467" data-name="Path 1467" d="M1212.545,3115.125a6.111,6.111,0,0,0-2.764,4.8c0,1.763,1.248,2.473,2.783,1.586a6.11,6.11,0,0,0,2.776-4.8c-.005-1.762-1.26-2.478-2.795-1.593" transform="translate(-587.584 -2224.703)" fill="#313961"/>
    <path id="Path_1468" data-name="Path 1468" d="M1212.545,3115.125a6.111,6.111,0,0,0-2.764,4.8c0,1.763,1.248,2.473,2.783,1.586a6.11,6.11,0,0,0,2.776-4.8c-.005-1.762-1.26-2.478-2.795-1.593" transform="translate(-587.584 -2224.703)" fill="#1f2649"/>
    <path id="Path_1469" data-name="Path 1469" d="M1208.418,3082.917a1.308,1.308,0,0,1-1.307-1.307v-3.241a1.307,1.307,0,1,1,2.615,0v3.241a1.308,1.308,0,0,1-1.307,1.307" transform="translate(-585.282 -2192.21)" fill="#1f2649"/>
    <path id="Path_1470" data-name="Path 1470" d="M999.972,2943.21a1.967,1.967,0,0,1,1.981-.191l3.6,2.094a1.962,1.962,0,0,0-1.98.191,6.108,6.108,0,0,0-2.765,4.8,1.944,1.944,0,0,0,.808,1.781l-3.6-2.094a1.945,1.945,0,0,1-.808-1.781,6.111,6.111,0,0,1,2.765-4.8" transform="translate(-404.283 -2076.463)" fill="#1f2649"/>
    <path id="Path_1471" data-name="Path 1471" d="M1026.137,2958.413a6.108,6.108,0,0,0-2.765,4.8c0,1.762,1.249,2.472,2.784,1.586a6.112,6.112,0,0,0,2.775-4.8c0-1.763-1.261-2.478-2.794-1.592" transform="translate(-426.845 -2089.572)" fill="#1f2649"/>
    <path id="Path_1472" data-name="Path 1472" d="M1022.017,2926.208a1.307,1.307,0,0,1-1.307-1.307v-3.241a1.307,1.307,0,1,1,2.615,0v3.241a1.307,1.307,0,0,1-1.307,1.307" transform="translate(-424.549 -2057.081)" fill="#1f2649"/>
    <path id="Path_1473" data-name="Path 1473" d="M1179.275,2782.7a1.964,1.964,0,0,1,1.98-.192l3.6,2.094a1.962,1.962,0,0,0-1.98.191,6.11,6.11,0,0,0-2.765,4.8,1.945,1.945,0,0,0,.808,1.781l-3.6-2.094a1.946,1.946,0,0,1-.808-1.781,6.111,6.111,0,0,1,2.765-4.8" transform="translate(-558.895 -1938.058)" fill="#1f2649"/>
    <path id="Path_1474" data-name="Path 1474" d="M1205.44,2797.906a6.109,6.109,0,0,0-2.765,4.8c0,1.762,1.248,2.472,2.783,1.586a6.108,6.108,0,0,0,2.776-4.8c0-1.763-1.26-2.479-2.794-1.592" transform="translate(-581.457 -1951.167)" fill="#1f2649"/>
    <path id="Path_1475" data-name="Path 1475" d="M1201.312,2765.7a1.307,1.307,0,0,1-1.307-1.307v-3.24a1.307,1.307,0,0,1,2.615,0v3.24a1.307,1.307,0,0,1-1.307,1.307" transform="translate(-579.154 -1918.677)" fill="#1f2649"/>
    <path id="Path_1476" data-name="Path 1476" d="M1502.706,2851.331a1.965,1.965,0,0,1,1.981-.192l3.6,2.094a1.964,1.964,0,0,0-1.981.192,6.111,6.111,0,0,0-2.764,4.8,1.944,1.944,0,0,0,.808,1.781l-3.6-2.094a1.941,1.941,0,0,1-.808-1.781,6.111,6.111,0,0,1,2.764-4.8" transform="translate(-837.788 -1997.236)" fill="#1f2649"/>
    <path id="Path_1477" data-name="Path 1477" d="M1528.871,2866.534a6.108,6.108,0,0,0-2.764,4.8c0,1.762,1.248,2.472,2.783,1.586a6.11,6.11,0,0,0,2.776-4.8c-.005-1.762-1.26-2.478-2.795-1.591" transform="translate(-860.35 -2010.345)" fill="#1f2649"/>
    <path id="Path_1478" data-name="Path 1478" d="M1524.743,2834.333a1.307,1.307,0,0,1-1.307-1.307v-3.24a1.307,1.307,0,1,1,2.615,0v3.24a1.307,1.307,0,0,1-1.307,1.307" transform="translate(-858.047 -1977.858)" fill="#1f2649"/>
    <path id="Path_1479" data-name="Path 1479" d="M1502.978,3038.107a1.966,1.966,0,0,1,1.98-.192l3.6,2.094a1.964,1.964,0,0,0-1.98.191,6.109,6.109,0,0,0-2.765,4.8,1.944,1.944,0,0,0,.808,1.781l-3.6-2.094a1.946,1.946,0,0,1-.808-1.781,6.112,6.112,0,0,1,2.765-4.8" transform="translate(-838.022 -2158.292)" fill="#1f2649"/>
    <path id="Path_1480" data-name="Path 1480" d="M1529.143,3053.313a6.108,6.108,0,0,0-2.765,4.8c0,1.762,1.248,2.472,2.783,1.586a6.11,6.11,0,0,0,2.776-4.8c0-1.763-1.261-2.478-2.794-1.592" transform="translate(-860.584 -2171.403)" fill="#1f2649"/>
    <path id="Path_1481" data-name="Path 1481" d="M1525.015,3021.105a1.307,1.307,0,0,1-1.307-1.307v-3.241a1.307,1.307,0,0,1,2.615,0v3.241a1.307,1.307,0,0,1-1.307,1.307" transform="translate(-858.281 -2138.91)" fill="#1f2649"/>
    <path id="Path_1482" data-name="Path 1482" d="M1200.551,2740.307l.014,4.715,7.353,19.287-.013-4.714Z" transform="translate(-579.625 -1901.828)" fill="#717795"/>
    <path id="Path_1483" data-name="Path 1483" d="M1368.949,2822.165l.013,4.715,25.106-12.775-.012-4.715Z" transform="translate(-724.834 -1961.398)" fill="#717795"/>
    <path id="Path_1484" data-name="Path 1484" d="M1003.54,2902.8l.013,4.715c0,.329.016.65.041.976l-.014-4.713c-.023-.326-.038-.648-.039-.978" transform="translate(-409.744 -2041.942)" fill="#4e4e5e"/>
    <path id="Path_1485" data-name="Path 1485" d="M1003.827,2909.894l.014,4.715,34.427,1.87-.013-4.715Z" transform="translate(-409.992 -2048.062)" fill="#717795"/>
    <path id="Path_1486" data-name="Path 1486" d="M1324.588,2936.8l.014,4.714,28.752,9.886-.014-4.714Z" transform="translate(-686.581 -2071.26)" fill="#717795"/>
    <path id="Path_1487" data-name="Path 1487" d="M1533.38,2996.774l.014,4.714q1.245-.914,2.329-1.888l-.014-4.713a29.1,29.1,0,0,1-2.33,1.887" transform="translate(-866.621 -2121.351)" fill="#717795"/>
    <path id="Path_1488" data-name="Path 1488" d="M1225.426,2954.973l.014,4.715,13.654-18.179-.013-4.714Z" transform="translate(-601.075 -2071.258)" fill="#717795"/>
    <path id="Path_1489" data-name="Path 1489" d="M1198.733,3064l.014,4.715q1.805.376,3.676.66l-.014-4.714c-1.25-.191-2.472-.411-3.676-.661" transform="translate(-578.057 -2180.95)" fill="#717795"/>
    <path id="Path_1490" data-name="Path 1490" d="M1030.672,2736.165l7.354,19.287-34.423,1.876c-.028.368-.059.747-.06,1.12s.013.713.04,1.07l34.428,1.871-7.589,19.352c1.2.252,2.426.469,3.676.661l13.656-18.178,28.752,9.886a29.454,29.454,0,0,0,2.329-1.886l-24.973-12.77,25.107-12.775a29.241,29.241,0,0,0-2.3-1.882l-28.864,9.875-13.451-18.168c-1.252.182-2.486.406-3.684.661" transform="translate(-409.746 -1897.687)" fill="#fff"/>
    <path id="Path_1491" data-name="Path 1491" d="M1270.168,2816.5v9.781a3.153,3.153,0,0,0,1.59,2.754,7.007,7.007,0,0,0,7.007,0,3.153,3.153,0,0,0,1.591-2.754V2816.5Z" transform="translate(-639.655 -1967.526)" fill="#1f2649"/>
    <path id="Path_1492" data-name="Path 1492" d="M1278.765,2796.123h0a3.18,3.18,0,0,0,0-5.51,7,7,0,0,0-7.006,0,3.18,3.18,0,0,0,0,5.51,7,7,0,0,0,7.006,0" transform="translate(-639.656 -1944.397)" fill="#1f2649"/>
    <path id="Path_1493" data-name="Path 1493" d="M1281.942,2556.679v33.353a2.149,2.149,0,0,0,1.084,1.878,4.778,4.778,0,0,0,4.777,0,2.15,2.15,0,0,0,1.083-1.878v-33.353Z" transform="translate(-649.808 -1743.487)" fill="#1f2649"/>
    <path id="Path_1494" data-name="Path 1494" d="M1597.876,2670.052s-3.339,3.242-1.687,9.031c.424,2.126,3.25,2.961,5.214,2.557,3.273-.672,6.188-2.557,10-4.768,4.745-2.752,8.456-4.653,9.449-5.632,2.273-2.238-.787-5.824-14.542-3.781-1.21.217-8.436,2.593-8.436,2.593" transform="translate(-920.385 -1838.488)" fill="#717795"/>
    <path id="Path_1495" data-name="Path 1495" d="M1442.854,2244.28c-2.914,1.016-13.655,6.094-20.787,9.513V2277.6a249.5,249.5,0,0,0,23-12.807v5.828c0,2.355,1.668,32.08,1.668,36.4,0,4.794,10.566,5.095,10.566-1.476,0-1.952,1.325-40.12,1.325-50.317s-10.975-12.624-15.772-10.951" transform="translate(-770.637 -1473.69)" fill="#1f2649"/>
    <path id="Path_1496" data-name="Path 1496" d="M1010.934,2311.924l54.735,31.809,44.239-25.528-54.736-31.809Z" transform="translate(-416.119 -1510.424)" fill="#717795"/>
    <path id="Path_1497" data-name="Path 1497" d="M1742.908,2749.68s-3.338,3.243-1.687,9.032c.425,2.126,3.25,2.961,5.215,2.557,3.273-.672,6.187-2.557,10-4.768,4.747-2.752,8.456-4.653,9.45-5.632,2.272-2.239-.789-5.824-14.543-3.781-1.209.217-8.436,2.593-8.436,2.593" transform="translate(-1045.446 -1907.151)" fill="#717795"/>
    <path id="Path_1498" data-name="Path 1498" d="M1301.474,2330.426s24.321-8.6,28.793-10.154c4.8-1.675,15.774.752,15.774,10.95s-1.326,48.364-1.326,50.317c0,6.571-10.566,6.269-10.566,1.476,0-4.321-1.668-34.045-1.668-36.4v-5.826s-21.856,13.885-34.079,17.139-34.185-2.867-29.388-23.672,32.461-3.83,32.461-3.83" transform="translate(-638.078 -1539.216)" fill="#1f2649"/>
    <path id="Path_1499" data-name="Path 1499" d="M1335.367,1917.177c-1.414-.841-6.043-1.049-8.245-.973-2.59.088-6.6,2.646-7.787,3.446l-32.187,6.372-12.085-15.177a5.062,5.062,0,0,0-7.919,6.306l.105.127,14.371,16.892.212.25a4.317,4.317,0,0,0,4.587,1.317l34.836-11.052.025-.01,9.683-1.89s.369-1.071-1.671-1.291c-.66-.072-1.584-.1-2.545-.1l.118-.063s5.1-1.382,6.951-1.813,3.075-1.43,1.552-2.335" transform="translate(-636.098 -1184.943)" fill="#d1d4e2"/>
    <path id="Path_1500" data-name="Path 1500" d="M1261.357,1910.456c3.3-3.593,8.523-1.275,11.938,1.571,6.61,5.507,10.728,9.215,10.728,9.215-1.471,3.921-5.12,7.692-8.289,10.367-5.455-4.007-9.935-7.707-12.053-9.49-3.853-3.243-6.07-7.58-2.324-11.663" transform="translate(-630.394 -1184.672)" fill="#1f2649"/>
    <path id="Path_1501" data-name="Path 1501" d="M1290.544,1924.884c-2.649,2.39-12.566-3.236-12.38-7.147-2.414-.944-5.544-2.4-8.485-1.492-5.832,1.8-4.963,10.778-5.518,15.569-1.3,11.246-.432,37.132-1.082,54.939,0,5.542,13.185,10.63,21.067,10.63s15.971-6.12,15.918-8.578-.774-26.813,1.06-33.632,4.269-19.4,1.432-22.865c-3.6-4.391-12.013-7.424-12.013-7.424" transform="translate(-633.543 -1190.999)" fill="#1f2649"/>
    <path id="Path_1502" data-name="Path 1502" d="M1351.13,1678.385c1.873,4.12.041,6.285.184,9.319,0,2.682,2.015,13.893-3.271,15.084a17.447,17.447,0,0,1-6.23.408l-3.23,9.17c-.867,2.046-13.372.195-12.38-5.978l.6-5.412c-2.817-1.3-8.018-5.96-8.018-15.169s9.817-16.3,18.669-16.3,13.152,7.741,13.672,8.883" transform="translate(-681.581 -978.48)" fill="#d1d4e2"/>
    <path id="Path_1503" data-name="Path 1503" d="M1331.927,1658.37c-1.449-.855-4.931,3.454-.444,7.35a5.574,5.574,0,0,1-1.654,3.955c-1.121,1.24.944,1.357-2.067,2.891s-9.332.788-10.239,1.921c.023-1.051-.866-1.54-2.4-4.563-2.062-2.728-4.951-2.747-7.373-8.315,0,0-5.318-11.638.377-18.627,3.24-7.165,10.855-6.557,12.509-6.81,2.112-.322,7.44-.437,6.731-3.414,1.358.447,17.713,2.741,12.808,15.3-2.391,6.125-7.955,5.837-7.812,7.862s-.439,2.449-.439,2.449" transform="translate(-670.121 -946.797)" fill="#717795"/>
    <path id="Path_1504" data-name="Path 1504" d="M1573.489,2054.181c-2.428-1.233-4.946-1.776-7.394-.657a12.466,12.466,0,0,0-1.854,1.126c.25-.651.388-1.217.221-1.424-.364-.451-1.433-.544-2.182.647-.417.667-1.4,2.729-1.973,3.945l-.19.167-34.979-3.83-23.694-20.842a5.061,5.061,0,0,0-6.684,7.6l.083.071,25.23,21.234.223.188a4.016,4.016,0,0,0,2.589.942l36.975-.049c.083,0,.161-.017.242-.025a9.542,9.542,0,0,0,5.579-.672c2.123-1.208,6.141-4.226,7.241-4.886s2.994-2.3.566-3.537" transform="translate(-831.837 -1291.106)" fill="#d1d4e2"/>
    <path id="Path_1505" data-name="Path 1505" d="M1469.739,2015.672c3.445-3.453,8.568-.918,11.863,2.067,6.373,5.778,10.335,9.656,10.335,9.656-1.636,3.855-5.438,7.471-8.716,10.012-5.283-4.233-9.606-8.115-11.646-9.986-3.714-3.4-5.75-7.827-1.835-11.75" transform="translate(-809.917 -1275.547)" fill="#1f2649"/>
    <path id="Path_1506" data-name="Path 1506" d="M1530.79,1852.9c-1.754,0-4.769-1.492-5.414-1.822a.61.61,0,0,1,.555-1.086c1.62.828,4.271,1.895,5.1,1.666a1.143,1.143,0,0,0,.806-.727,2.6,2.6,0,0,0-.515-2.234.61.61,0,1,1,1.006-.688,3.731,3.731,0,0,1,.654,3.341,2.349,2.349,0,0,1-1.626,1.484,2.134,2.134,0,0,1-.561.066" transform="translate(-859.433 -1132.174)" fill="#1f2649"/>
    <path id="Path_1507" data-name="Path 1507" d="M1565.724,1844.4a1.277,1.277,0,0,1-1.749-.014c-.645-.46-.908-1.2-.586-1.648a1.276,1.276,0,0,1,1.749.015c.645.459.907,1.2.586,1.647" transform="translate(-892.379 -1127.576)" fill="#1f2649"/>
    <path id="Path_1508" data-name="Path 1508" d="M1329.1,1662.187l3.7-2.226v-14.088a3.3,3.3,0,0,0-3.921,2.486l-.184,12.8Z" transform="translate(-690.126 -958.046)" fill="#1f2649"/>
    <path id="Path_1509" data-name="Path 1509" d="M1338.554,1630.635h0a8.344,8.344,0,0,0-8.654-.3l-1.075.245a4.987,4.987,0,0,0-2.237,1.633,3.933,3.933,0,0,0-.833,2.154c-.014.037-.024.064-.024.064v.334c-.008.2-.009.411,0,.645v12.14l.806.375v-12.909a2.94,2.94,0,0,1,2.373-2.964l.036,0h.005a8.316,8.316,0,0,1,5.365,1.118,23.647,23.647,0,0,1,11.491,20.384v5.908l4.239-2.041v-6.4a23.648,23.648,0,0,0-11.493-20.385" transform="translate(-687.561 -943.785)" fill="#1f2649"/>
    <path id="Path_1510" data-name="Path 1510" d="M1339.668,1621.327h0a9.125,9.125,0,0,0-9.265.033h0s-4.192,2.069-4.328,4.944c.109-.5.806-3.156,3.374-3.508h.007a9.027,9.027,0,0,1,5.706,1.161,24.444,24.444,0,0,1,12.222,21.169v7.108l4.509-2.578V1642.5a24.444,24.444,0,0,0-12.222-21.169" transform="translate(-687.862 -935.864)" fill="#1f2649"/>
    <path id="Path_1511" data-name="Path 1511" d="M1464.047,1798.207c1.623-2.734,4.356-4.111,6.1-3.074l2.829,1.581-5.936,9.867-2.77-1.545c-1.748-1.037-1.847-4.095-.226-6.829" transform="translate(-805.841 -1086.513)" fill="#1f2649"/>
    <path id="Path_1512" data-name="Path 1512" d="M1490.489,1813.186c-1.622,2.735-4.355,4.111-6.1,3.074s-1.849-4.095-.226-6.829,4.355-4.111,6.1-3.074,1.849,4.095.225,6.829" transform="translate(-823.186 -1096.192)" fill="#1f2649"/>
    <path id="Path_1513" data-name="Path 1513" d="M1502.959,1823.126c-1.371,2.31-3.679,3.473-5.155,2.6s-1.562-3.458-.191-5.768,3.679-3.473,5.154-2.6,1.562,3.459.192,5.768" transform="translate(-834.94 -1105.724)" fill="#1f2649"/>
    <path id="Path_1514" data-name="Path 1514" d="M1394.765,2110.116l-36.186,20.894-9.248-85.934-8.018,4.659,9.24,85.909.026,9.271,44.212-25.528Z" transform="translate(-701.004 -1302.336)" fill="#d1d4e2"/>
    <path id="Path_1515" data-name="Path 1515" d="M1065.666,2017.51l-.006,0,.006,0-9.24-85.909a12.285,12.285,0,0,0-5.452-8.613l-24.515-14.155c-2.753-1.588-5.089-.607-5.477,2.3l-10.052,74.564h0l.026,9.271,54.736,31.809Z" transform="translate(-416.117 -1184.201)" fill="#717795"/>
    <path id="Path_1516" data-name="Path 1516" d="M1131.644,1889.158,1107.129,1875a3.9,3.9,0,0,0-3.928-.386l-8.015,4.658a3.9,3.9,0,0,1,3.927.385l24.514,14.155a12.286,12.286,0,0,1,5.453,8.613l8.017-4.659a12.294,12.294,0,0,0-5.453-8.613" transform="translate(-488.77 -1155.031)" fill="#d1d4e2"/>
    <path id="Path_1517" data-name="Path 1517" d="M2038.839,1964.777l-33.22-17.512a5.559,5.559,0,0,0-5.02,0l-12.589,5.6v2.516a1.769,1.769,0,0,0,1.039,1.451l32.184,18.579a5.561,5.561,0,0,0,5.021,0l11.547-6.668a1.769,1.769,0,0,0,1.038-1.44c0-.527,0-1.677,0-1.677Z" transform="translate(-1258.646 -1217.476)" fill="#1f2649"/>
    <path id="Path_1518" data-name="Path 1518" d="M2037.8,1947.565l-32.182-18.579a5.555,5.555,0,0,0-5.02,0l-11.55,6.666c-1.385.8-1.385,2.1,0,2.9l32.184,18.577a5.533,5.533,0,0,0,5.021,0l11.547-6.665c1.385-.8,1.385-2.1,0-2.9" transform="translate(-1258.645 -1201.714)" fill="#313961"/>
    <path id="Path_1519" data-name="Path 1519" d="M2218,1941.972v14.35l4.143-2.392v-14.35Z" transform="translate(-1456.968 -1211.366)" fill="#50486d"/>
    <path id="Path_1520" data-name="Path 1520" d="M2140.169,1912.01l-12.43-7.177v14.352l12.43,7.174Z" transform="translate(-1379.134 -1181.405)" fill="#1f2649"/>
    <path id="Path_1521" data-name="Path 1521" d="M1758.526,1103.239a1.8,1.8,0,0,1,1.782.187l108.9,62.876a5.505,5.505,0,0,1,2.509,4.338v75.511a1.706,1.706,0,0,1-.774,1.642v.024l-4.1,2.368-112.412-144.577Z" transform="translate(-1057.227 -490.057)" fill="#313961"/>
    <path id="Path_1522" data-name="Path 1522" d="M1751.292,1202.1l108.9,62.874c1.384.8,2.508.15,2.508-1.451V1188a5.55,5.55,0,0,0-2.508-4.347l-108.9-62.874c-1.387-.8-2.511-.15-2.511,1.449v75.519a5.546,5.546,0,0,0,2.511,4.349" transform="translate(-1052.36 -505.026)" fill="#1f2649"/>
    <path id="Path_1523" data-name="Path 1523" d="M2119.782,1326.277l-8.9-5.173.013,4.541,8.9,5.174Z" transform="translate(-1364.597 -678.058)" fill="#717795"/>
    <path id="Path_1524" data-name="Path 1524" d="M2127.523,1293.805l-8.9-5.173-7.736,4.471,8.9,5.173Z" transform="translate(-1364.6 -650.059)" fill="#d1d4e2"/>
    <path id="Path_1525" data-name="Path 1525" d="M2175.521,1330.673l.014,4.541,1.79-1.034-.006-2.483,4.156-2.332,1.8,1.018-.013-4.182Z" transform="translate(-1420.335 -682.454)" fill="#717795"/>
    <path id="Path_1526" data-name="Path 1526" d="M2154.855,1255.272l.026,9.285a1.148,1.148,0,0,0,.672.94,3.625,3.625,0,0,0,3.291,0,1.166,1.166,0,0,0,.688-.961l-.028-9.284a1.163,1.163,0,0,1-.687.959,3.62,3.62,0,0,1-3.291,0,1.144,1.144,0,0,1-.67-.94" transform="translate(-1402.515 -621.275)" fill="#717795"/>
    <path id="Path_1527" data-name="Path 1527" d="M2107.978,1188.839c.168,0,.337,0,.5-.015.294-.021.554-.054.8-.093a8.628,8.628,0,0,0,.917-.188l.365-.115a9.879,9.879,0,0,0,2.033-.871c.013-.008.024-.016.039-.023a7.785,7.785,0,0,0,1.239-.854c.208-.182.67-.6.67-.6a6.669,6.669,0,0,0,.719-.778,9.688,9.688,0,0,0,.9-1.294c.037-.067.2-.384.2-.384.029-.054.063-.114.1-.175.053-.1.073-.15.1-.2.145-.311.27-.621.375-.921,0,0,.053-.164.053-.164.088-.266.16-.521.219-.767l.065-.276c.061-.3.1-.57.134-.827l.031-.311c.032-.4.044-.749.048-1.03a9.948,9.948,0,0,0-.134-1.448l-.059-.327c-.055-.265-.093-.426-.138-.591-.059-.222-.115-.411-.183-.606-.078-.23-.153-.436-.243-.648a.053.053,0,0,1-.009-.016,9.071,9.071,0,0,0-.678-1.3l-.157-.256a11.187,11.187,0,0,0-.809-1.075l-.184-.195a8.8,8.8,0,0,0-.86-.828l-.191-.153c-.333-.262-.644-.479-.879-.638a8.528,8.528,0,0,0-1.378-.719l-.107-.048c-.306-.126-.641-.251-1.027-.37l-.25-.068a9.516,9.516,0,0,0-1.153-.228l-.175-.024a8.379,8.379,0,0,0-.872-.067l-.166.005c-.035,0-.129-.006-.164-.009s-.106.016-.136.018c-.364.012-.749.03-1.068.066a7.231,7.231,0,0,0-1.094.207s-.6.181-.722.22a9.715,9.715,0,0,0-.934.369c-.125.055-.252.113-.376.176a8.922,8.922,0,0,0-2.174,1.5l-.15.142a9.249,9.249,0,0,0-.885.949,10.225,10.225,0,0,0-.756,1.1l-.135.231a11.043,11.043,0,0,0-.595,1.24,5.53,5.53,0,0,0-.322,2.076,13.6,13.6,0,0,0,6.17,10.451,5.423,5.423,0,0,0,1.833.666,9.589,9.589,0,0,0,1.173.1h.048Z" transform="translate(-1353.758 -547.196)" fill="#717795"/>
    <path id="Path_1528" data-name="Path 1528" d="M2104.335,1199.993a13.189,13.189,0,0,1,5.988,10.361c-.011,3.814-2.708,5.352-6.027,3.435a13.2,13.2,0,0,1-5.988-10.372c.011-3.8,2.708-5.341,6.027-3.424" transform="translate(-1353.755 -572.914)" fill="#222249"/>
    <path id="Path_1529" data-name="Path 1529" d="M2121.855,1225.736a7.045,7.045,0,0,1,3.2,5.534c-.005,2.038-1.446,2.858-3.22,1.835a7.048,7.048,0,0,1-3.2-5.54c.005-2.031,1.447-2.853,3.219-1.829" transform="translate(-1371.284 -595.443)" fill="#ff9800"/>
    <path id="Path_1530" data-name="Path 1530" d="M2130.36,1239.54a4.841,4.841,0,0,0-2.2-3.8,1.809,1.809,0,0,0-1.208-.28c.31-.8,1.117-1.029,2.07-.479a4.839,4.839,0,0,1,2.2,3.8c0,.888-.4,1.436-1,1.542a2.13,2.13,0,0,0,.142-.783" transform="translate(-1378.455 -603.532)" fill="#fff"/>
    <path id="Path_1531" data-name="Path 1531" d="M1774.181,1157.734l45.656,26.359,0,.579,8.9,5.174.53-.306,50.408,29.1a2.369,2.369,0,0,1,.82,1.418v71.593c0,.536-.376.75-.838.486l-105.5-60.911a2.364,2.364,0,0,1-.82-1.421v-71.591c0-.534.374-.75.837-.483" transform="translate(-1073.541 -537.087)" fill="#ff9800"/>
    <path id="Path_1532" data-name="Path 1532" d="M1828.2,1469.083l12.085-6.978,12.007,6.978-12.085,6.979Zm33.841-19.538-9.67,5.583,12.007,6.978,9.709-5.606Zm-57.935,19.538,12.006,6.978-12.086,6.978,12.009,6.978,12.085-6.978-12.006-6.978,12.085-6.978-12.008-6.978Zm-30.763-23.97,6.827-3.941-6.827-3.968Zm30.841,10.014-12.007-6.979-12.085,6.979,12.008,6.978Z" transform="translate(-1073.541 -778.171)" fill="#fff"/>
    <path id="Path_1533" data-name="Path 1533" d="M1804.185,1479.969l12.007,6.978-12.085,6.978-12.007-6.978Zm-30.841-3.921,6.749,3.922,12.085-6.979-12.007-6.978-6.827,3.942Zm66.864,24.855-12.007-6.978-12.086,6.978,12.008,6.978Zm-24.172,13.956-12.008-6.978-5.644,3.259,12.047,6.955Zm24.25-27.911,12.007,6.978,12.086-6.978-12.007-6.978Z" transform="translate(-1073.541 -803.013)" fill="#ff9800"/>
    <path id="Path_1534" data-name="Path 1534" d="M1872.99,1447.913l-8.609,4.97-4.753-2.762-5.065-2.944,8.577-4.951-2.2-1.268-9.118,5.264h0l-12.083,6.977h0l-11.535,6.661-11.458-6.659h0l-12-6.977h0l-12.006-6.977h0l-12-6.976h0l-7.377-4.287v2.54l4.635,2.694-4.635,2.677v2.536l.726-.419,6.1-3.521,9.818,5.706-9.893,5.712-6.75-3.922v2.54l6.2,3.6h0l12.005,6.977,12.007,6.978h0l10.366,6.024-10.441,6.028h0l-6.193,3.576,2.2,1.268,4.544-2.624,9.819,5.706-4.513,2.605,2.2,1.268,5.053-2.918h0l12.082-6.976h0l12.083-6.976,0,0,12.082-6.976h0l12.084-6.978h0l10.258-5.923Zm-90.706-.735,9.892-5.713,9.817,5.705-7.507,4.335-2.385,1.377Zm12.006,6.978,9.893-5.712,9.817,5.706-9.892,5.712Zm12.008,6.978,9.892-5.712,9.818,5.706-9.893,5.712Zm9.74,19.661-9.819-5.706,9.893-5.712,9.818,5.706Zm12.085-6.978-9.818-5.706,9.893-5.712,9.818,5.706Zm12.086-6.978-9.818-5.706,9.892-5.712,9.818,5.706Zm12.085-6.978-9.818-5.706,9.892-5.712,9.819,5.706Z" transform="translate(-1073.541 -770.218)" fill="#1f2649"/>
    <path id="Path_1535" data-name="Path 1535" d="M1930.627,1393.516l6.962-4.046-3.364-1.943-6.962,4.045Z" transform="translate(-1206.265 -735.335)" fill="#313961"/>
    <path id="Path_1536" data-name="Path 1536" d="M1955.141,1379.546l6.961-4.045-3.367-1.945-6.962,4.047Z" transform="translate(-1227.399 -723.287)" fill="#313961"/>
    <path id="Path_1537" data-name="Path 1537" d="M2056.324,1458.1l-6.962,4.046-.011,3.87-.01,3.87,6.961-4.045Z" transform="translate(-1311.531 -796.188)" fill="#717795"/>
    <path id="Path_1538" data-name="Path 1538" d="M2028.409,1449.967l6.962-4.046-3.367-1.945-6.962,4.047Z" transform="translate(-1290.578 -784.011)" fill="#313961"/>
    <path id="Path_1539" data-name="Path 1539" d="M2025.039,1423.812l6.962-4.045.011-3.867-6.962,4.047Z" transform="translate(-1290.576 -759.8)" fill="#717795"/>
    <path id="Path_1540" data-name="Path 1540" d="M2004.051,1407.785l6.962-4.045-3.364-1.943-6.962,4.046Z" transform="translate(-1269.577 -747.64)" fill="#313961"/>
    <path id="Path_1541" data-name="Path 1541" d="M1933.885,1388.953l-.012,3.871-3.368-1.945-.011,3.867-3.365-1.943-.011,3.869-.01,3.87,3.365,1.942,3.368,1.945,3.367,1.945,3.365,1.943,3.369,1.944.01-3.87.011-3.869-3.368-1.945.011-3.866-3.365-1.943.012-3.87Z" transform="translate(-1206.132 -736.565)" fill="#1f2649"/>
    <path id="Path_1542" data-name="Path 1542" d="M2000.684,1381.609l6.962-4.046.011-3.87-6.961,4.045Z" transform="translate(-1269.575 -723.406)" fill="#717795"/>
    <path id="Path_1543" data-name="Path 1543" d="M1979.683,1365.562l6.961-4.045-3.368-1.945-6.96,4.046Z" transform="translate(-1248.562 -711.23)" fill="#313961"/>
    <path id="Path_1544" data-name="Path 1544" d="M2351.473,1804.526l6.962-4.045-3.365-1.943-6.962,4.045Z" transform="translate(-1569.156 -1089.747)" fill="#313961"/>
    <path id="Path_1545" data-name="Path 1545" d="M2375.986,1790.554l6.962-4.045-3.367-1.945-6.962,4.047Z" transform="translate(-1590.292 -1077.697)" fill="#313961"/>
    <path id="Path_1546" data-name="Path 1546" d="M2445.885,1834.822l6.962-4.045.011-3.867-6.962,4.047Z" transform="translate(-1653.469 -1114.212)" fill="#717795"/>
    <path id="Path_1547" data-name="Path 1547" d="M2424.9,1818.8l6.962-4.046-3.364-1.943-6.962,4.046Z" transform="translate(-1632.469 -1102.052)" fill="#313961"/>
    <path id="Path_1548" data-name="Path 1548" d="M2421.53,1792.618l6.962-4.045.011-3.87-6.96,4.046Z" transform="translate(-1632.467 -1077.817)" fill="#717795"/>
    <path id="Path_1549" data-name="Path 1549" d="M2400.529,1776.571l6.961-4.045-3.368-1.945-6.961,4.047Z" transform="translate(-1611.454 -1065.64)" fill="#313961"/>
    <path id="Path_1550" data-name="Path 1550" d="M2444.456,1988.366l5.448-3.166Z" transform="translate(-1652.236 -1250.704)" fill="#127239"/>
    <path id="Path_1551" data-name="Path 1551" d="M2341.71,1713.166a9.079,9.079,0,0,1,8.234,0c2.268,1.318,2.256,3.451-.027,4.77a9.064,9.064,0,0,1-8.233,0c-2.261-1.314-2.257-3.451.026-4.77" transform="translate(-1562.158 -1015.28)" fill="#fff"/>
    <path id="Path_1552" data-name="Path 1552" d="M2352.418,1617.038a1.526,1.526,0,0,1-.315-1.011,4.16,4.16,0,0,1,1.881-3.257,1.331,1.331,0,0,1,1.342-.13l-2.249-1.308a1.331,1.331,0,0,0-1.342.132,4.15,4.15,0,0,0-1.88,3.256,1.316,1.316,0,0,0,.547,1.206l.237.137-.388.224a4.867,4.867,0,0,0-2.152,3.854l.01,3.2a.423.423,0,0,0,.171.387l1.214.706.011,3.713a.741.741,0,0,0,.3.672l2.249,1.307a.739.739,0,0,1-.3-.671l-.014-4.935-1.385-.8-.006-2.269a4.871,4.871,0,0,1,2.151-3.854l.44-.254Zm2.324-2.613a1.481,1.481,0,0,0-1.5.136l-.435.252,2.247,1.307.437-.251a1.48,1.48,0,0,1,1.5-.137Z" transform="translate(-1569.148 -928.212)" fill="#1f2649"/>
    <path id="Path_1553" data-name="Path 1553" d="M2368.069,1620.953c1.043-.6,1.889-.115,1.893,1.079a4.007,4.007,0,0,1-.822,2.27l.436-.252c1.194-.689,2.167-.079,2.17,1.359l.01,3.2a1.249,1.249,0,0,1-.552.989l-.831.48.014,4.934a2.2,2.2,0,0,1-.972,1.738l-2.594,1.5c-.538.31-.979.035-.981-.611l-.014-4.934-.832.48c-.305.176-.551.019-.552-.351l-.008-3.2a4.868,4.868,0,0,1,2.152-3.854l.439-.254c-.5-.1-.835-.564-.837-1.313a4.158,4.158,0,0,1,1.88-3.257" transform="translate(-1583.234 -936.393)" fill="#717795"/>
    <path id="Path_1554" data-name="Path 1554" d="M2385.8,1576.248l10.668,6.159-.01,3.2-10.668-6.159Z" transform="translate(-1601.647 -898.068)" fill="#1f2649"/>
    <path id="Path_1555" data-name="Path 1555" d="M2424.546,1604.673l4.6,2.656,0,1.534-4.6-2.656Z" transform="translate(-1635.064 -922.578)" fill="#ff9800"/>
    <path id="Path_1556" data-name="Path 1556" d="M2118.759,1569.6a9.079,9.079,0,0,1,8.234,0c2.268,1.319,2.256,3.451-.027,4.77a9.063,9.063,0,0,1-8.233,0c-2.262-1.314-2.258-3.451.026-4.77" transform="translate(-1369.908 -891.488)" fill="#fff"/>
    <path id="Path_1557" data-name="Path 1557" d="M2130.464,1474.179a1.517,1.517,0,0,1-.315-1.01,4.151,4.151,0,0,1,1.88-3.257,1.33,1.33,0,0,1,1.341-.13l-2.248-1.307a1.332,1.332,0,0,0-1.343.131,4.153,4.153,0,0,0-1.88,3.257,1.315,1.315,0,0,0,.547,1.2l.238.138-.388.223a4.866,4.866,0,0,0-2.152,3.855l.009,3.2a.425.425,0,0,0,.17.387l1.214.705.012,3.714a.734.734,0,0,0,.3.671l2.249,1.308a.737.737,0,0,1-.3-.673l-.014-4.934-1.387-.8,0-2.269a4.868,4.868,0,0,1,2.15-3.854l.44-.254Zm2.323-2.612a1.48,1.48,0,0,0-1.5.136l-.436.252,2.249,1.307.436-.252a1.476,1.476,0,0,1,1.5-.136Z" transform="translate(-1377.759 -805.026)" fill="#1f2649"/>
    <path id="Path_1558" data-name="Path 1558" d="M2146.106,1478.1c1.042-.6,1.889-.115,1.892,1.078a4.019,4.019,0,0,1-.821,2.271l.435-.252c1.194-.689,2.167-.079,2.171,1.358l.009,3.2a1.25,1.25,0,0,1-.552.99l-.83.479.013,4.935a2.2,2.2,0,0,1-.97,1.737l-2.6,1.5c-.538.311-.979.036-.98-.61l-.014-4.935-.831.48c-.305.177-.55.019-.552-.352l-.009-3.2a4.87,4.87,0,0,1,2.152-3.854l.439-.254c-.5-.1-.833-.564-.836-1.313a4.148,4.148,0,0,1,1.88-3.256" transform="translate(-1391.835 -813.21)" fill="#717795"/>
    <path id="Path_1559" data-name="Path 1559" d="M2142.879,1415.771l10.668,6.159-.01,3.2-10.667-6.159Z" transform="translate(-1392.181 -759.689)" fill="#1f2649"/>
    <path id="Path_1560" data-name="Path 1560" d="M2181.622,1444.2l4.6,2.656,0,1.534-4.6-2.656Z" transform="translate(-1425.593 -784.2)" fill="#ff9800"/>
    <path id="Path_1561" data-name="Path 1561" d="M2160.928,1826.917a9.079,9.079,0,0,1,8.234,0c2.268,1.318,2.256,3.451-.028,4.769a9.062,9.062,0,0,1-8.233,0c-2.262-1.314-2.257-3.451.026-4.769" transform="translate(-1406.27 -1113.367)" fill="#fff"/>
    <path id="Path_1562" data-name="Path 1562" d="M2179.343,1727.408a1.517,1.517,0,0,1-.315,1.011l-.521.3.441.254a4.872,4.872,0,0,1,2.152,3.854l-.007,2.269-1.386.8-.014,4.935a.735.735,0,0,1-.3.671l2.249-1.307a.736.736,0,0,0,.3-.672l.011-3.712,1.214-.707a.422.422,0,0,0,.173-.386l.008-3.2a4.869,4.869,0,0,0-2.151-3.854l-.389-.225.237-.137a1.318,1.318,0,0,0,.549-1.206,4.159,4.159,0,0,0-1.881-3.257,1.332,1.332,0,0,0-1.343-.13l-2.247,1.307a1.327,1.327,0,0,1,1.34.13,4.154,4.154,0,0,1,1.881,3.257m-4.888-.3a1.481,1.481,0,0,1,1.5.136l.436.252,2.25-1.307-.437-.251a1.477,1.477,0,0,0-1.5-.137Z" transform="translate(-1419.416 -1024.255)" fill="#1f2649"/>
    <path id="Path_1563" data-name="Path 1563" d="M2173.213,1732.331c-1.042-.6-1.889-.115-1.892,1.079a4.013,4.013,0,0,0,.822,2.27l-.435-.252c-1.195-.689-2.167-.079-2.171,1.359l-.01,3.2a1.249,1.249,0,0,0,.553.989l.83.479-.013,4.934a2.2,2.2,0,0,0,.971,1.738l2.6,1.5c.536.31.978.035.98-.611l.014-4.934.831.48c.306.176.551.019.552-.352l.009-3.2a4.87,4.87,0,0,0-2.152-3.854l-.44-.254c.5-.1.835-.564.837-1.313a4.157,4.157,0,0,0-1.881-3.257" transform="translate(-1415.167 -1032.434)" fill="#717795"/>
    <path id="Path_1564" data-name="Path 1564" d="M2217.375,1694.5l10.661,6.156-.009,3.2-10.662-6.156Z" transform="translate(-1456.418 -1000.032)" fill="#1f2649"/>
    <path id="Path_1565" data-name="Path 1565" d="M2234.31,1710.377l7.6,4.39,0,1.527-7.6-4.391Z" transform="translate(-1471.025 -1013.727)" fill="#ff9800"/>
    <path id="Path_1566" data-name="Path 1566" d="M2267.976,1596.891l-10.419-3.952a.4.4,0,0,0-.4.679l8.506,7.2a2.311,2.311,0,1,0,2.985-3.529,2.363,2.363,0,0,0-.673-.4" transform="translate(-1490.608 -912.437)" fill="#1f2649"/>
    <path id="Path_1567" data-name="Path 1567" d="M2295.09,1613.888l-5.969-2.265a.229.229,0,0,0-.23.389l4.873,4.125a1.325,1.325,0,0,0,1.712-2.022,1.367,1.367,0,0,0-.386-.228" transform="translate(-1518.023 -928.559)" fill="#fff"/>
    <path id="Path_1568" data-name="Path 1568" d="M2202.572,1595.757l-8.421-3.2a.323.323,0,0,0-.323.549l6.875,5.82a1.868,1.868,0,1,0,2.414-2.852,1.914,1.914,0,0,0-.544-.321" transform="translate(-1436.022 -912.117)" fill="#1f2649"/>
    <path id="Path_1569" data-name="Path 1569" d="M2224.492,1609.5l-4.825-1.83a.184.184,0,0,0-.239.106.188.188,0,0,0,.054.208l3.939,3.334a1.071,1.071,0,0,0,1.384-1.634,1.1,1.1,0,0,0-.312-.184" transform="translate(-1458.186 -925.151)" fill="#fff"/>
    <path id="Path_1570" data-name="Path 1570" d="M1793.386,1530.56l-20.043-11.571v22.426a2.366,2.366,0,0,0,.82,1.422l19.155,11.06Z" transform="translate(-1073.541 -848.694)" fill="#fff"/>
    <path id="Path_1571" data-name="Path 1571" d="M1807.469,1680.685c0-1.032,0-1.967,0-2.787.006-3.338-1.023-6.1-5.734-8.314-4.846-2.28-7.146-.187-7.459,3.482Z" transform="translate(-1091.587 -977.733)" fill="#ff9800"/>
    <path id="Path_1572" data-name="Path 1572" d="M1826.336,1646.99s-.855,3.831-.1,4.427c.644.508,3.289.508,3.289-.93a38.569,38.569,0,0,1,.327-3.872Z" transform="translate(-1118.88 -958.744)" fill="#f4f4f8"/>
    <path id="Path_1573" data-name="Path 1573" d="M1799.345,1632.785a1.1,1.1,0,0,1-.284-1.089c.281-.876,1.748-1.449,2.484-1.631l.069.279c-.793.2-2.055.739-2.28,1.44a.824.824,0,0,0,.23.815Z" transform="translate(-1095.675 -944.474)" fill="#313961"/>
    <path id="Path_1574" data-name="Path 1574" d="M1809.958,1597.225s-1.37,7.576,1.047,8.271c1.813.524,4.452.016,4.869-2.486s1.715-6.1-.03-6.338-5.861-1.171-5.887.552" transform="translate(-1104.779 -915.279)" fill="#f4f4f8"/>
    <path id="Path_1575" data-name="Path 1575" d="M1801.728,1648.459a.422.422,0,0,1-.577-.005c-.213-.152-.3-.395-.193-.544a.421.421,0,0,1,.577.005c.213.151.3.394.193.543" transform="translate(-1097.313 -959.767)" fill="#1f2649"/>
    <path id="Path_1576" data-name="Path 1576" d="M1853.4,1607.993s-.2,2.567-.4,3.7-1.665,2.164-2.054,1.655.367-4.655.367-4.655Z" transform="translate(-1140.363 -925.441)" fill="#d1d4e2"/>
    <path id="Path_1577" data-name="Path 1577" d="M1810.062,1586.294s-3.623-.32-4.247,1.269-.307,2.928.347,2.906,3.581-.63,4.126-1.206c0,0,.545,4.307,1.643,3.518s2.932-2.136,2.167-4.6-4.037-1.885-4.037-1.885" transform="translate(-1101.251 -906.68)" fill="#d1d4e2"/>
    <path id="Path_1579" data-name="Path 1579" d="M2449.255,1860.981l6.962-4.046-3.367-1.944-6.962,4.045Z" transform="translate(-1653.47 -1138.426)" fill="#313961"/>
    <path id="Path_1580" data-name="Path 1580" d="M2354.723,1799.963l-.012,3.87-3.367-1.945-.011,3.867-3.364-1.943-.011,3.869-.011,3.87,3.364,1.943,3.368,1.944,3.369,1.945,3.364,1.942,3.369,1.946.01-3.871.011-3.869-3.367-1.945.011-3.866-3.365-1.943.012-3.87Z" transform="translate(-1569.017 -1090.976)" fill="#1f2649"/>
    <path id="Path_1581" data-name="Path 1581" d="M2470.264,1880.895l6.961-4.045.012-7.741-6.962,4.047Z" transform="translate(-1674.49 -1150.6)" fill="#717795"/>
    <path id="Path_1582" data-name="Path 1582" d="M2351.494,1912.678l5.449-3.166-2.634-1.519-5.448,3.165Z" transform="translate(-1569.805 -1184.129)" fill="#313961"/>
    <path id="Path_1583" data-name="Path 1583" d="M2370.681,1901.745l5.448-3.166-2.637-1.521-5.447,3.165Z" transform="translate(-1586.347 -1174.7)" fill="#313961"/>
    <path id="Path_1584" data-name="Path 1584" d="M2428.019,1956.854l5.448-3.167-2.636-1.52-5.447,3.165Z" transform="translate(-1635.791 -1222.22)" fill="#313961"/>
    <path id="Path_1585" data-name="Path 1585" d="M2425.382,1936.388l5.448-3.166.008-3.025-5.448,3.165Z" transform="translate(-1635.789 -1203.276)" fill="#717795"/>
    <path id="Path_1586" data-name="Path 1586" d="M2408.958,1923.839l5.448-3.166-2.634-1.52-5.447,3.166Z" transform="translate(-1619.356 -1193.752)" fill="#313961"/>
    <path id="Path_1587" data-name="Path 1587" d="M2354.037,1909.1l-.009,3.029-2.636-1.522-.009,3.026-2.633-1.52-.009,3.028-.009,3.028,2.634,1.52,2.635,1.522,2.636,1.521,2.633,1.52,2.636,1.522.008-3.029.009-3.028-2.635-1.521.009-3.026-2.634-1.52.009-3.028Z" transform="translate(-1569.695 -1185.084)" fill="#1f2649"/>
    <path id="Path_1588" data-name="Path 1588" d="M2406.323,1903.36l5.448-3.167.008-3.027-5.448,3.165Z" transform="translate(-1619.354 -1174.793)" fill="#717795"/>
    <path id="Path_1589" data-name="Path 1589" d="M2389.886,1890.8l5.448-3.166-2.636-1.521-5.447,3.165Z" transform="translate(-1602.909 -1165.263)" fill="#313961"/>
    <path id="Path_1590" data-name="Path 1590" d="M2444.41,1966.377l-.017,6.057,5.448-3.167.016-6.056Z" transform="translate(-1652.182 -1231.744)" fill="#717795"/>
    <path id="Path_1591" data-name="Path 1591" d="M1814.184,1588.31l1.033-.621V1584.9a.922.922,0,0,0-1.094.694l-.052,2.425Z" transform="translate(-1108.66 -905.515)" fill="#1f2649"/>
    <path id="Path_1592" data-name="Path 1592" d="M1816.822,1580.65h0a2.329,2.329,0,0,0-2.416-.083l-.3.068a1.393,1.393,0,0,0-.625.456,1.1,1.1,0,0,0-.233.6l-.007.018v.093c0,.056,0,.115,0,.18v2.241l.225.1v-2.456a.821.821,0,0,1,.663-.828h.011a2.321,2.321,0,0,1,1.5.312,6.6,6.6,0,0,1,3.208,5.69v1.649l1.183-.57v-1.786a6.6,6.6,0,0,0-3.208-5.691" transform="translate(-1107.943 -901.534)" fill="#1f2649"/>
    <path id="Path_1593" data-name="Path 1593" d="M1817.133,1578.052h0a2.547,2.547,0,0,0-2.586.009h0s-1.17.577-1.208,1.38a1.213,1.213,0,0,1,.942-.979h0a2.518,2.518,0,0,1,1.593.324,6.823,6.823,0,0,1,3.412,5.91v1.984l1.259-.72v-2a6.824,6.824,0,0,0-3.412-5.91" transform="translate(-1108.027 -899.323)" fill="#1f2649"/>
    <path id="Path_1594" data-name="Path 1594" d="M1851.854,1627.428c.453-.763,1.216-1.148,1.7-.858l.79.442-1.657,2.755-.773-.431c-.488-.29-.516-1.143-.063-1.906" transform="translate(-1140.962 -941.377)" fill="#1f2649"/>
    <path id="Path_1595" data-name="Path 1595" d="M1859.237,1631.61c-.453.763-1.216,1.147-1.7.858s-.516-1.143-.063-1.906,1.216-1.148,1.7-.858.516,1.143.063,1.906" transform="translate(-1145.804 -944.079)" fill="#1f2649"/>
    <path id="Path_1596" data-name="Path 1596" d="M1862.717,1634.385c-.383.645-1.027.969-1.439.725s-.436-.965-.053-1.61,1.027-.97,1.439-.725.436.966.053,1.61" transform="translate(-1149.085 -946.74)" fill="#1f2649"/>
    <path id="Path_1597" data-name="Path 1597" d="M1810.016,1590.134s1.081-3.258.06-3.121c-.956.128-1.958.45-2.26,1.218,0,0-.356,3.588,2.2,1.9" transform="translate(-1103.251 -907.347)" fill="#d1d4e2"/>
    <path id="Path_1598" data-name="Path 1598" d="M1316.269,1679.283v-18.22a10.888,10.888,0,0,0-8.152,6.325c-4.743,5.822-1.852,14.848-.752,17.706Z" transform="translate(-670.107 -971.203)" fill="#717795"/>
    <path id="Path_1599" data-name="Path 1599" d="M2904.194,1441.925l50.033,28.887c10.493-2.781,17.309-13.1,17.309-29.177,0-26.823-18.949-59.508-42.325-73s-42.325-2.692-42.325,24.131c0,16.082,6.816,34.266,17.309,49.163" transform="translate(-2033.741 -714.028)" fill="#1f2649"/>
    <path id="Path_1600" data-name="Path 1600" d="M3097.187,2054.061l-6.808-3.931v-23.043l-10.041-5.8-10.04-5.8v23.043l-6.809-3.931c-1.193-.688-1.79.621-.947,2.076l16.375,28.245c.784,1.353,2.056,2.087,2.84,1.64l16.375-9.337c.843-.481.246-2.48-.947-3.169" transform="translate(-2184.868 -1276.826)" fill="#1f2649"/>
    <path id="Path_1601" data-name="Path 1601" d="M3047,1919.745l-18.811-10.86c-6.781-3.916-12.66-2.912-15.611,1.825,7.009,9.95,15.656,18.437,25.017,23.841s18.008,6.9,25.017,5.045c-2.951-8.144-8.83-15.936-15.611-19.851" transform="translate(-2142.124 -1182.813)" fill="#d1d4e2" fill-rule="evenodd"/>
    <path id="Path_1602" data-name="Path 1602" d="M3103.967,1913.894a20.232,20.232,0,0,0-3.509-1.618c.19,8.115,5.892,17.834,12.915,21.888s12.725.92,12.915-6.976a27.292,27.292,0,0,0-3.509-2.434Z" transform="translate(-2217.903 -1187.822)" fill="#fff" fill-rule="evenodd"/>
    <path id="Path_1603" data-name="Path 1603" d="M3125.942,1700.419v30.792c0,5.961,4.211,13.224,9.406,16.223s9.406.6,9.406-5.363V1711.28Z" transform="translate(-2239.877 -1005.14)" fill="#d1d4e2"/>
    <path id="Path_1604" data-name="Path 1604" d="M3070.427,1415.176c-1.243-5.837-5.326-11.955-10.184-14.759l-23.514-13.576c-1.948-1.125-3.527-.224-3.527,2.011a20.512,20.512,0,0,0,2.262,8.793c-2.127,1.417-3.438,4.184-3.438,8.067a20.056,20.056,0,0,0,.346,3.622l3.181,17.3,37.623,21.721,3.181-13.628a14.193,14.193,0,0,0,.346-3.223c0-5.4-2.521-11.564-6.276-16.329" transform="translate(-2158.895 -734.326)" fill="#d1d4e2"/>
    <path id="Path_1605" data-name="Path 1605" d="M3040.565,1653.06a10.363,10.363,0,0,0,4.7,8.112c2.6,1.5,4.7.3,4.7-2.681a10.363,10.363,0,0,0-4.7-8.112c-2.6-1.5-4.7-.3-4.7,2.681" transform="translate(-2166.257 -961.433)" fill="#d1d4e2"/>
    <path id="Path_1606" data-name="Path 1606" d="M3279.621,1791.079a10.361,10.361,0,0,0,4.7,8.112c2.6,1.5,4.7.3,4.7-2.681a10.363,10.363,0,0,0-4.7-8.112c-2.6-1.5-4.7-.3-4.7,2.681" transform="translate(-2372.394 -1080.446)" fill="#d1d4e2"/>
    <path id="Path_1607" data-name="Path 1607" d="M3101.757,1558.871l-21.163-12.218c-3.247-1.875-5.878-.374-5.878,3.351v18.888c0,10.431,7.369,23.142,16.46,28.39h0c9.09,5.248,16.46,1.047,16.46-9.384v-18.888a12.953,12.953,0,0,0-5.878-10.139" transform="translate(-2195.706 -871.852)" fill="#fff"/>
    <path id="Path_1608" data-name="Path 1608" d="M2610.871,1040.025l-45.134-26.058c-3.607-2.083-6.531-.415-6.531,3.724v32.467a14.393,14.393,0,0,0,6.531,11.266l27.172,15.688,9.459,16.316c1.029,1.774,2.787,1.953,2.787.284v-9.53l5.715,3.3c3.607,2.083,6.531.415,6.531-3.724v-32.467a14.392,14.392,0,0,0-6.531-11.266" transform="translate(-1751.184 -412.443)" fill="#717795"/>
    <path id="Path_1609" data-name="Path 1609" d="M2631.909,1197.816l23.058,13.312a3.425,3.425,0,0,1,1.555,2.681c0,.985-.7,1.382-1.555.886l-23.058-13.312a3.426,3.426,0,0,1-1.554-2.681c0-.985.7-1.382,1.554-.886" transform="translate(-1812.535 -571.565)" fill="#fff"/>
    <path id="Path_1610" data-name="Path 1610" d="M2667.4,1144.16l-35.493-20.492a3.426,3.426,0,0,1-1.554-2.681c0-.985.7-1.382,1.554-.886l35.493,20.492a3.425,3.425,0,0,1,1.554,2.681c0,.985-.7,1.382-1.554.886" transform="translate(-1812.535 -504.551)" fill="#fff"/>
    <path id="Path_1611" data-name="Path 1611" d="M2631.909,1279.1l28.937,16.706c.858.5,1.554.1,1.554-.886a3.425,3.425,0,0,0-1.554-2.681l-28.937-16.706c-.858-.5-1.554-.1-1.554.886a3.426,3.426,0,0,0,1.554,2.681" transform="translate(-1812.535 -638.578)" fill="#fff"/>
    <path id="Path_1612" data-name="Path 1612" d="M1421.912,79.11,1471.945,108c10.493-2.781,17.309-13.1,17.309-29.177,0-26.823-18.95-59.508-42.325-73S1404.6,3.124,1404.6,29.947c0,16.082,6.816,34.266,17.309,49.163" transform="translate(-755.578 461.118)" fill="#1f2649"/>
    <path id="Path_1613" data-name="Path 1613" d="M1614.906,691.245l-6.808-3.931V664.272l-10.041-5.8-10.04-5.8v23.043l-6.809-3.931c-1.193-.689-1.79.621-.947,2.076l16.376,28.245c.784,1.353,2.056,2.087,2.84,1.64l16.376-9.336c.843-.481.246-2.48-.947-3.169" transform="translate(-906.706 -101.679)" fill="#1f2649"/>
    <path id="Path_1614" data-name="Path 1614" d="M1584.306,166.034l-3.186-34.819c-1.173-12.815-10.142-27.434-21.033-33.722s-19.86-2.026-21.033,9.436l-3.185,31.141c-.294,2.873,1.242,6.622,3.72,9.189a94.725,94.725,0,0,0,20.5,16.341c7.243,4.182,14.161,6.577,20.5,7.329,2.477.294,4.013-1.682,3.719-4.894" transform="translate(-868.737 379.559)" fill="#717795"/>
    <path id="Path_1615" data-name="Path 1615" d="M1553.548,570.667l1.764-.331,1.764,2.367v.009c8.682,4.6,16.687,5.809,23.253,4.069-2.951-8.144-8.83-15.936-15.611-19.852l-18.811-10.861c-6.782-3.915-12.661-2.911-15.611,1.825,6.566,9.323,14.571,17.359,23.253,22.781Z" transform="translate(-863.961 -7.666)" fill="#717795" fill-rule="evenodd"/>
    <path id="Path_1616" data-name="Path 1616" d="M1632.854,572.182c6.19,2.6,10.98-.62,11.152-7.845a27.345,27.345,0,0,0-3.509-2.429l-18.811-10.861a20.31,20.31,0,0,0-3.51-1.623c.172,7.423,4.962,16.176,11.152,20.721v5.5c.585.366,1.172.728,1.764,1.069s1.178.657,1.763.967Z" transform="translate(-939.74 -12.645)" fill="#717795"/>
    <path id="Path_1617" data-name="Path 1617" d="M1643.659,337.6V368.4c0,5.961,4.211,13.224,9.406,16.223s9.406.6,9.406-5.363V348.465Z" transform="translate(-961.714 170.007)" fill="#d1d4e2"/>
    <path id="Path_1618" data-name="Path 1618" d="M1558.282,290.245a10.363,10.363,0,0,0,4.7,8.112c2.6,1.5,4.7.3,4.7-2.681a10.362,10.362,0,0,0-4.7-8.112c-2.6-1.5-4.7-.3-4.7,2.681" transform="translate(-888.094 213.713)" fill="#d1d4e2"/>
    <path id="Path_1619" data-name="Path 1619" d="M1797.338,428.264a10.363,10.363,0,0,0,4.7,8.112c2.6,1.5,4.7.3,4.7-2.681a10.362,10.362,0,0,0-4.7-8.112c-2.6-1.5-4.7-.3-4.7,2.681" transform="translate(-1094.231 94.7)" fill="#d1d4e2"/>
    <path id="Path_1620" data-name="Path 1620" d="M1620.418,245.045a72.91,72.91,0,0,1-15.957-16.68,17.094,17.094,0,0,1-7.282-.951c-2.751-.931-4.748.646-4.748,3.87v12.836c0,10.431,7.369,23.142,16.46,28.391h0c9.09,5.248,16.46,1.047,16.46-9.384v-8.571a12.97,12.97,0,0,0-4.934-9.511" transform="translate(-917.542 265.251)" fill="#fff"/>
    <path id="Path_1621" data-name="Path 1621" d="M1910.655,175.142l-6.771,3.86c-.514.293-1.394-.632-1.394-1.467v-7.107l-4.082-2.357a9,9,0,0,1-4.083-7.041V132.92c0-2.585,1.826-3.627,4.08-2.326l37.91,21.887a8.99,8.99,0,0,1,4.079,7.037v28.109c0,2.587-1.827,3.629-4.082,2.328Z" transform="translate(-1177.863 348.993)" fill="#ff9800"/>
    <path id="Path_1622" data-name="Path 1622" d="M1987.979,241.563c-6.493-3.749-11.757-.748-11.757,6.7s5.263,16.53,11.757,20.279,11.757.748,11.757-6.7-5.264-16.53-11.757-20.279" transform="translate(-1248.481 254.215)" fill="#1f2649" fill-rule="evenodd"/>
    <path id="Path_1623" data-name="Path 1623" d="M2027.241,365a16.532,16.532,0,0,1-4.993-4.718c-.529-.737-.652-1.651-.275-2.04s1.111-.107,1.64.629c2.138,2.983,5.119,4.7,7.258,4.191.528-.127,1.262.437,1.64,1.263s.253,1.6-.276,1.722a6.9,6.9,0,0,1-4.993-1.047" transform="translate(-1287.744 152.36)" fill="#fff"/>
    <path id="Path_1624" data-name="Path 1624" d="M2022.93,306.483a2.59,2.59,0,0,1-1.176-2.028v-.9c0-.745.527-1.045,1.176-.67a2.59,2.59,0,0,1,1.176,2.028v.9c0,.745-.527,1.045-1.176.67" transform="translate(-1287.743 200.084)" fill="#fff"/>
    <path id="Path_1625" data-name="Path 1625" d="M2085.54,342.63a2.591,2.591,0,0,1-1.176-2.028v-.9c0-.745.527-1.045,1.176-.67a2.591,2.591,0,0,1,1.176,2.028v.9c0,.745-.527,1.045-1.176.67" transform="translate(-1341.731 168.914)" fill="#fff"/>
    <path id="Path_1626" data-name="Path 1626" d="M67.342,268.311,17.309,239.425C6.816,224.527,0,206.343,0,190.261c0-26.824,18.95-37.629,42.325-24.133S84.65,212.31,84.65,239.134c0,16.082-6.816,26.4-17.309,29.178" transform="translate(455.602 322.881)" fill="#1f2649"/>
    <path id="Path_1627" data-name="Path 1627" d="M210.3,798.719l-6.808-3.931V771.746l-10.04-5.8-10.04-5.8v23.043l-6.809-3.931c-1.193-.689-1.79.621-.947,2.076l16.376,28.245c.784,1.353,2.056,2.087,2.84,1.64l16.376-9.337c.843-.481.246-2.48-.947-3.169" transform="translate(304.475 -194.354)" fill="#1f2649"/>
    <path id="Path_1628" data-name="Path 1628" d="M141.3,706.393l18.811,10.861c6.781,3.915,12.66,11.707,15.611,19.852-7.009,1.858-15.656.359-25.017-5.045s-18.008-13.891-25.017-23.842c2.951-4.737,8.83-5.741,15.611-1.826" transform="translate(347.22 -145.913)" fill="#717795" fill-rule="evenodd"/>
    <path id="Path_1629" data-name="Path 1629" d="M235.894,722.264A27.325,27.325,0,0,1,239.4,724.7c-.19,7.9-5.892,11.031-12.915,6.976s-12.724-13.773-12.915-21.889a20.228,20.228,0,0,1,3.509,1.618Z" transform="translate(271.439 -150.923)" fill="#717795" fill-rule="evenodd"/>
    <path id="Path_1630" data-name="Path 1630" d="M257.867,508.785v30.792c0,5.961-4.211,8.362-9.406,5.363s-9.406-10.263-9.406-16.224V497.924Z" transform="translate(249.466 31.764)" fill="#d1d4e2"/>
    <path id="Path_1631" data-name="Path 1631" d="M136.6,234.6c0-3.532,1.974-5.387,4.723-4.906-.006-.158-.02-.318-.02-.474,0-5.216,3.685-7.317,8.23-4.692a14.809,14.809,0,0,1,3.746,3.2c1.382-1.461,3.666-1.624,6.255-.129a16.131,16.131,0,0,1,5.92,6.645,9.78,9.78,0,0,1,2.89,1.144c4.93,2.846,8.967,9.531,9.366,15.3a15.7,15.7,0,0,1,4.742,10.379c0,2.233-.788,3.8-2.062,4.528a15.482,15.482,0,0,1,.886,4.912c0,5.588-3.948,7.839-8.818,5.028l-24.69-14.255c-4.87-2.812-8.818-9.621-8.818-15.21a8.568,8.568,0,0,1,.574-3.234A14.991,14.991,0,0,1,136.6,234.6" transform="translate(337.81 268.482)" fill="#d1d4e2"/>
    <path id="Path_1632" data-name="Path 1632" d="M402.141,594.014c0,2.98-2.106,4.181-4.7,2.681a10.363,10.363,0,0,1-4.7-8.112c0-2.98,2.106-4.181,4.7-2.681a10.363,10.363,0,0,1,4.7,8.112" transform="translate(116.949 -43.542)" fill="#d1d4e2"/>
    <path id="Path_1633" data-name="Path 1633" d="M163.085,455.995c0,2.98-2.106,4.181-4.7,2.681a10.363,10.363,0,0,1-4.7-8.112c0-2.98,2.106-4.181,4.7-2.681a10.363,10.363,0,0,1,4.7,8.112" transform="translate(323.086 75.471)" fill="#d1d4e2"/>
    <path id="Path_1634" data-name="Path 1634" d="M194.271,385.228a12.452,12.452,0,0,0,2.964,2.468c2.017,1.165,3.832,1.236,5.118.42a19.8,19.8,0,0,0,7.227,8.061,8.677,8.677,0,0,0,4.046,1.275,15.3,15.3,0,0,0,5.948,7.188,8.233,8.233,0,0,0,1.176.557v16.315c0,10.432-7.369,14.633-16.46,9.385s-16.46-17.96-16.46-28.391V386.314c2.874,1.659,5.342,1.109,6.441-1.086" transform="translate(293.637 128.941)" fill="#fff"/>
    <path id="Path_1635" data-name="Path 1635" d="M441.64,280.654l-6.771,3.86c-.514.293-1.394-.633-1.394-1.467v-7.107l-4.082-2.357a8.995,8.995,0,0,1-4.082-7.041V238.433c0-2.585,1.827-3.627,4.08-2.326l37.91,21.887a8.989,8.989,0,0,1,4.08,7.037V293.14c0,2.587-1.828,3.629-4.082,2.328Z" transform="translate(88.859 258.01)" fill="#717795"/>
    <path id="Path_1636" data-name="Path 1636" d="M482.877,384.971l13.575,7.838a2.7,2.7,0,0,1,1.228,2.117c0,.778-.549,1.091-1.228.7l-13.575-7.837a2.7,2.7,0,0,1-1.227-2.117c0-.778.55-1.091,1.227-.7" transform="translate(40.278 129.308)" fill="#fff"/>
    <path id="Path_1637" data-name="Path 1637" d="M510.975,342.64l-28.1-16.222a2.7,2.7,0,0,1-1.227-2.117c0-.778.55-1.091,1.227-.7l28.1,16.222a2.7,2.7,0,0,1,1.228,2.117c0,.778-.549,1.091-1.228.7" transform="translate(40.278 182.227)" fill="#fff"/>
    <path id="Path_1638" data-name="Path 1638" d="M482.877,449.158l21.744,12.554c.678.391,1.227.078,1.227-.7a2.7,2.7,0,0,0-1.227-2.117L482.877,446.34c-.678-.391-1.227-.078-1.227.7a2.7,2.7,0,0,0,1.227,2.117" transform="translate(40.278 76.389)" fill="#fff"/>
    <rect id="Rectangle_440" data-name="Rectangle 440" width="482.194" height="436.071" transform="translate(455.602 461.121)" fill="none"/>
  </g>
</svg>
