<svg id="Component_16_1" data-name="Component 16 – 1" xmlns="http://www.w3.org/2000/svg" width="93.189" height="101.061" viewBox="0 0 93.189 101.061">
  <path id="Amazon-CloudFront_Icon_64_Squid" d="M65.535,61.812a3.724,3.724,0,1,0-3.724,3.724,3.729,3.729,0,0,0,3.724-3.724Zm2.483,0A6.207,6.207,0,1,1,61.811,55.6a6.214,6.214,0,0,1,6.207,6.207ZM34.833,43.9a3.724,3.724,0,1,0-3.724,3.724A3.729,3.729,0,0,0,34.833,43.9Zm2.483,0a6.207,6.207,0,1,1-6.207-6.207A6.215,6.215,0,0,1,37.316,43.9Zm9.11-19.473A3.724,3.724,0,1,0,50.151,20.7a3.729,3.729,0,0,0-3.724,3.724Zm-2.483,0a6.207,6.207,0,1,1,6.207,6.207,6.215,6.215,0,0,1-6.207-6.207Zm35.1,22.338A32.3,32.3,0,0,0,62.916,18.839a38.507,38.507,0,0,0-5.662,1.631l-.844-2.335c1.124-.4,2.129-.732,3.1-1.013a31.911,31.911,0,0,0-18.922-2.029A39.719,39.719,0,0,1,44.6,17.753l-1.5,1.978a41.345,41.345,0,0,0-6.022-3.746A32.312,32.312,0,0,0,14.71,43.2a43.363,43.363,0,0,1,7.736-.867l.061,2.482a40.376,40.376,0,0,0-7.99.963c-.011.329-.034.662-.034.987A32.2,32.2,0,0,0,28.545,73.388,41.463,41.463,0,0,1,26.215,60.1a30.4,30.4,0,0,1,.863-6.56c.1-.49.207-.989.309-1.507l2.437.48c-.1.526-.211,1.037-.315,1.537A28.01,28.01,0,0,0,28.7,60.1a41.161,41.161,0,0,0,3.233,15.316,32.022,32.022,0,0,0,24.778,2.025,41.594,41.594,0,0,0,2.952-7.468l2.385.692a44.3,44.3,0,0,1-1.989,5.489,31.526,31.526,0,0,0,5.679-3.317c-.428-1.05-.888-2.094-1.4-3.111l2.221-1.111c.432.864.828,1.748,1.207,2.637A32.046,32.046,0,0,0,79.04,46.762Zm2.483,0a34.544,34.544,0,0,1-13.506,27.5,34.865,34.865,0,0,1-21.256,7.264A34.764,34.764,0,0,1,12,46.762c0-.852.022-1.5.073-2.1A34.8,34.8,0,0,1,36.831,13.448a34.73,34.73,0,0,1,26.919,3A34.793,34.793,0,0,1,81.523,46.762Zm-38.1-18.048L41.8,26.843a39.653,39.653,0,0,0-7.477,8.9L36.4,37.1a37.342,37.342,0,0,1,7.026-8.383ZM39.654,44.809l-.807,2.348A41.9,41.9,0,0,1,54.5,56.987l1.714-1.8A44.3,44.3,0,0,0,39.654,44.809Zm16.6-14.6a47.142,47.142,0,0,1,7.8,23.179l-2.478.154A44.7,44.7,0,0,0,54.18,31.572Z" transform="translate(-12 19.538)" fill="#d1d4e2" fill-rule="evenodd"/>
  <g id="speedometer" transform="translate(29.506 -35.154)">
    <path id="Path_488" data-name="Path 488" d="M104.993,35.154a31.623,31.623,0,0,0-19.319,8.005L94,51.485a19.954,19.954,0,0,1,10.994-4.555Z" transform="translate(-75.017)" fill="#ff9800"/>
    <path id="Path_489" data-name="Path 489" d="M16.352,129.047l-8.325-8.325a31.62,31.62,0,0,0-8.015,19.32H11.787A19.957,19.957,0,0,1,16.352,129.047Z" transform="translate(-0.01 -74.925)" fill="#ff9800"/>
    <path id="Path_490" data-name="Path 490" d="M385.176,140.042h11.776a31.619,31.619,0,0,0-8.015-19.32l-8.325,8.325A19.957,19.957,0,0,1,385.176,140.042Z" transform="translate(-333.271 -74.925)" fill="#ff9800"/>
    <path id="Path_491" data-name="Path 491" d="M402.552,306.055a19.871,19.871,0,0,1-2.052,7.193c.946,1.459,1.735,2.692,2.256,3.511a5.6,5.6,0,0,1-2.3,8.052l1.939,1.939a1.869,1.869,0,0,0,2.643,0,31.66,31.66,0,0,0,9.292-20.7Z" transform="translate(-350.649 -237.206)" fill="#ff9800"/>
    <path id="Path_492" data-name="Path 492" d="M11.78,306.055H0a31.66,31.66,0,0,0,9.292,20.7,1.869,1.869,0,0,0,2.643,0l5.661-5.661a1.869,1.869,0,0,0,0-2.643,20.028,20.028,0,0,1-5.815-12.391Z" transform="translate(0 -237.206)" fill="#ff9800"/>
    <path id="Path_493" data-name="Path 493" d="M290.319,43.159A31.622,31.622,0,0,0,271,35.154V46.929a19.955,19.955,0,0,1,10.994,4.555Z" transform="translate(-237.293)" fill="#ff9800"/>
    <path id="Path_494" data-name="Path 494" d="M218.9,245.909a5.862,5.862,0,0,0-8.291,8.291c2.888,2.888,17.079,11.949,18.687,12.972a1.866,1.866,0,0,0,2.576-2.576C230.845,262.987,221.784,248.8,218.9,245.909Z" transform="translate(-182.909 -183.04)" fill="#1f2649"/>
  </g>
</svg>
