<svg id="Component_23_1" data-name="Component 23 – 1" xmlns="http://www.w3.org/2000/svg" xmlns:xlink="http://www.w3.org/1999/xlink" width="58.136" height="55.812" viewBox="0 0 58.136 55.812">
  <defs>
    <clipPath id="clip-path">
      <path id="Path_47" data-name="Path 47" d="M229.528,1099.53a7.852,7.852,0,0,0-2.418-.5c-4.58-.2-8.208,3.728-8.005,8.765a9.962,9.962,0,0,0,.319,2.13,3.621,3.621,0,0,0-1.26-.247,3.679,3.679,0,0,0-3.637,3.986,4.174,4.174,0,0,0,3.27,3.961l29.119-.028c.162,0,.322-.01.481-.025,2.991-.292,5.211-3.167,5.082-6.667-.136-3.684-2.83-6.754-6.07-6.856a5.078,5.078,0,0,0-2.264.449,9.2,9.2,0,0,0,.039-1.276c-.172-4.568-3.594-8.459-7.722-8.688-.129-.007-.256-.011-.383-.011a6.954,6.954,0,0,0-6.549,5" transform="translate(-214.523 -1094.527)" fill="#ff9800"/>
    </clipPath>
  </defs>
  <g id="Group_291" data-name="Group 291" transform="translate(-1049 -1534.697)">
    <path id="Subtraction_6" data-name="Subtraction 6" d="M55.884,38.952a.841.841,0,0,0,.044-.106A28.166,28.166,0,0,0,54.284,13.7a3.453,3.453,0,0,0-4.107-5.362c-.6-.609-1.222-1.193-1.871-1.745a3.452,3.452,0,0,0-5.622-3.714,27.816,27.816,0,0,0-24.908.131,3.447,3.447,0,0,0-5.644,3.826A28.105,28.105,0,0,0,9.472,9.5c-.711.814.577,1.929,1.283,1.121a26.4,26.4,0,0,1,2.473-2.475,3.472,3.472,0,0,0,5.084-1.267,37.09,37.09,0,0,1,8.732,3.779,3.508,3.508,0,0,0,.257,2.507,39.2,39.2,0,0,0-6.031,6.546,3.48,3.48,0,0,0-4.118,1.867A53.143,53.143,0,0,0,6.459,22.724,3.474,3.474,0,0,0,5.1,21.341,26.086,26.086,0,0,1,8.228,14.03a.853.853,0,0,0-1.447-.9A27.784,27.784,0,0,0,3.457,20.9a3.458,3.458,0,0,0-.881,6.8,28.144,28.144,0,0,0,9.442,21.172,3.448,3.448,0,0,0,5.516,3.8,27.809,27.809,0,0,0,25.649,0,3.447,3.447,0,0,0,5.583-3.858,27.9,27.9,0,0,0,7.118-9.869Zm-1.074-1.906a53.451,53.451,0,0,0-7.695-6.335,3.492,3.492,0,0,0-.863-3.51A53.243,53.243,0,0,0,51.67,14.9a3.408,3.408,0,0,0,1.215-.22A26.456,26.456,0,0,1,54.811,37.046ZM15.6,46.678A37.374,37.374,0,0,1,19.26,26.316a3.48,3.48,0,0,0,4.4-2.654A51.011,51.011,0,0,1,40.5,28.8a3.5,3.5,0,0,0,.564,2.913A51.433,51.433,0,0,1,18.141,48.268,3.444,3.444,0,0,0,15.6,46.678ZM42.1,29.66a1.751,1.751,0,1,1,1.738,1.751A1.747,1.747,0,0,1,42.1,29.66ZM53.416,11.447A1.751,1.751,0,1,1,51.678,9.7,1.747,1.747,0,0,1,53.416,11.447Zm-4.54-2a3.5,3.5,0,0,0,1.144,5.03,51.547,51.547,0,0,1-5.236,11.864,3.5,3.5,0,0,0-1.468-.094,39.518,39.518,0,0,0-9.9-13.083,3.5,3.5,0,0,0,.257-2.507,37.088,37.088,0,0,1,8.4-3.681A3.446,3.446,0,0,0,47.31,7.983q.811.7,1.565,1.462ZM28.622,11.579A1.751,1.751,0,1,1,30.36,13.33a1.747,1.747,0,0,1-1.738-1.751Zm16.48-8a1.738,1.738,0,1,1-1.738,1.751A1.747,1.747,0,0,1,45.1,3.584Zm-29.87,3.5A1.738,1.738,0,1,1,16.97,5.335,1.747,1.747,0,0,1,15.232,7.086ZM18.671,5.2a3.458,3.458,0,0,0-.1-.689A26.107,26.107,0,0,1,41.8,4.344a3.454,3.454,0,0,0-.145.974,38.8,38.8,0,0,0-8.831,3.858,3.47,3.47,0,0,0-4.938,0A38.8,38.8,0,0,0,18.671,5.2Zm9.759,9.234a3.455,3.455,0,0,0,3.861,0,37.805,37.805,0,0,1,9.458,12.478,3.48,3.48,0,0,0-.424.386,52.705,52.705,0,0,0-17.777-5.371,3.46,3.46,0,0,0-.814-1.335,37.482,37.482,0,0,1,5.7-6.157ZM20.28,21.265a1.738,1.738,0,1,1-1.738,1.751A1.747,1.747,0,0,1,20.28,21.265ZM1.688,24.357a1.751,1.751,0,1,1,1.738,1.751A1.747,1.747,0,0,1,1.688,24.357ZM4.28,27.7a3.383,3.383,0,0,0,2.588-3.325,96.076,96.076,0,0,1,9.982-1.1,3.448,3.448,0,0,0,.956,2.132A39.074,39.074,0,0,0,13.916,46.92a3.447,3.447,0,0,0-.908.557C7.45,42.5,4.28,34.154,4.28,27.7ZM15.232,51.863a1.751,1.751,0,0,1,0-3.5,1.777,1.777,0,0,1,1.738,1.751A1.747,1.747,0,0,1,15.232,51.863ZM30.36,54.121A26.02,26.02,0,0,1,18.481,51.25a3.544,3.544,0,0,0,.185-1.361,53.13,53.13,0,0,0,23.719-17.1,3.435,3.435,0,0,0,1.634.319,37.621,37.621,0,0,1,.89,4.271.852.852,0,0,0,1.686-.249,39.327,39.327,0,0,0-.948-4.534,3.458,3.458,0,0,0,.565-.44,51.728,51.728,0,0,1,7.9,6.6A26.2,26.2,0,0,1,47.7,47.492a3.434,3.434,0,0,0-.9-.486,39.6,39.6,0,0,0,.216-4.765.852.852,0,0,0-1.7.026,37.892,37.892,0,0,1-.209,4.58,3.492,3.492,0,0,0-2.77,4.356A26.016,26.016,0,0,1,30.36,54.121Zm15.278-2.11a1.738,1.738,0,1,1,1.738-1.751A1.747,1.747,0,0,1,45.638,52.011Z" transform="translate(1049 1534.697)" fill="#d1d4e2"/>
  </g>
  <g id="Group_487" data-name="Group 487" transform="translate(10.685 14.983)">
    <g id="Group_54" data-name="Group 54" clip-path="url(#clip-path)">
      <rect id="Rectangle_28" data-name="Rectangle 28" width="38.171" height="23.102" transform="translate(-0.087 0)" fill="#ff9800"/>
    </g>
  </g>
</svg>
