<svg xmlns="http://www.w3.org/2000/svg" width="28.067" height="19.734" viewBox="0 0 28.067 19.734">
  <path id="Icon_awesome-youtube" data-name="Icon awesome-youtube" d="M28.53,7.588a3.527,3.527,0,0,0-2.481-2.5C23.86,4.5,15.083,4.5,15.083,4.5s-8.777,0-10.965.59a3.527,3.527,0,0,0-2.481,2.5,37,37,0,0,0-.586,6.8,37,37,0,0,0,.586,6.8,3.474,3.474,0,0,0,2.481,2.458c2.189.59,10.965.59,10.965.59s8.777,0,10.965-.59a3.474,3.474,0,0,0,2.481-2.458,37,37,0,0,0,.586-6.8,37,37,0,0,0-.586-6.8ZM12.213,18.56V10.214l7.336,4.173L12.213,18.56Z" transform="translate(-1.05 -4.5)" fill="#fff"/>
</svg>
