<svg xmlns="http://www.w3.org/2000/svg" width="23.023" height="23.023" viewBox="0 0 23.023 23.023">
  <path id="Icon_awesome-linkedin-in" data-name="Icon awesome-linkedin-in" d="M5.154,23.024H.38V7.652H5.154ZM2.764,5.556A2.777,2.777,0,1,1,5.529,2.765,2.788,2.788,0,0,1,2.764,5.556ZM23.018,23.024H18.255V15.541c0-1.783-.036-4.07-2.482-4.07-2.482,0-2.862,1.937-2.862,3.942v7.611H8.143V7.652h4.578v2.1h.067A5.016,5.016,0,0,1,17.3,7.267c4.831,0,5.719,3.181,5.719,7.313v8.444Z" transform="translate(0 0)" fill="#fff"/>
</svg>
