<svg xmlns="http://www.w3.org/2000/svg" width="26.312" height="21.37" viewBox="0 0 26.312 21.37">
  <path id="Icon_awesome-twitter" data-name="Icon awesome-twitter" d="M23.608,8.707c.017.234.017.468.017.7A15.238,15.238,0,0,1,8.281,24.751,15.239,15.239,0,0,1,0,22.33a11.156,11.156,0,0,0,1.3.067A10.8,10.8,0,0,0,8,20.093a5.4,5.4,0,0,1-5.042-3.74,6.8,6.8,0,0,0,1.018.083,5.7,5.7,0,0,0,1.419-.184,5.393,5.393,0,0,1-4.324-5.293v-.067a5.431,5.431,0,0,0,2.438.684,5.4,5.4,0,0,1-1.67-7.213,15.329,15.329,0,0,0,11.119,5.643,6.088,6.088,0,0,1-.134-1.235,5.4,5.4,0,0,1,9.333-3.69,10.617,10.617,0,0,0,3.423-1.3,5.378,5.378,0,0,1-2.371,2.972,10.811,10.811,0,0,0,3.105-.835,11.592,11.592,0,0,1-2.7,2.788Z" transform="translate(0 -3.381)" fill="#fff"/>
</svg>
