<svg xmlns="http://www.w3.org/2000/svg" width="56.514" height="69.217" viewBox="0 0 56.514 69.217">
  <g id="Group_388" data-name="Group 388" transform="translate(-263.744 -3420.693)">
    <g id="Layer_2" data-name="Layer 2" transform="translate(262.684 3432.87)">
      <path id="Path_416" data-name="Path 416" d="M62.014,33.884V14.452a2.1,2.1,0,0,0-1.258-1.925L35.6,1.674a2.1,2.1,0,0,0-1.677,0L8.758,12.527A2.1,2.1,0,0,0,7.5,14.452V33.884A26.88,26.88,0,0,0,17.2,54.6L33.415,68.11a2.1,2.1,0,0,0,2.684,0L52.311,54.6a26.88,26.88,0,0,0,9.7-20.715Z" transform="translate(-5.44 -12.664)" fill="none" stroke="#d1d4e2" stroke-width="2"/>
    </g>
    <path id="Icon_ionic-md-bulb" data-name="Icon ionic-md-bulb" d="M13.5,30.094A1.41,1.41,0,0,0,14.906,31.5h6.188A1.41,1.41,0,0,0,22.5,30.094V28.828h-9ZM18,4.5c-5.6,0-10.125,4.212-10.125,9.422A9.3,9.3,0,0,0,12.192,21.7V24.75a1.405,1.405,0,0,0,1.448,1.35h8.712A1.4,1.4,0,0,0,23.8,24.75V21.7a9.289,9.289,0,0,0,4.324-7.777C28.125,8.712,23.6,4.5,18,4.5Z" transform="translate(274 3435.254)" fill="#ff9800"/>
  </g>
</svg>
