<svg id="Component_19_1" data-name="Component 19 – 1" xmlns="http://www.w3.org/2000/svg" width="83" height="94" viewBox="0 0 83 94">
  <g id="Icon-Resource_General-Resource_Res_Users_48" data-name="Icon-Resource/General-Resource/Res_Users_48" transform="translate(19.803 35.804)">
    <path id="Fill-1" d="M26.455,8.689a4.939,4.939,0,0,1,9.876,0,4.939,4.939,0,0,1-9.876,0Zm10.579,6.47a10.751,10.751,0,0,0-1.868-.919,6.665,6.665,0,0,0,3-5.551,6.775,6.775,0,0,0-13.548,0,6.666,6.666,0,0,0,2.989,5.544,10.921,10.921,0,0,0-3.255,1.928l1.2,1.394a8.882,8.882,0,0,1,10.518-.835,9.682,9.682,0,0,1,4.447,7.314H31.377v1.836h10.1a.917.917,0,0,0,.918-.918,11.565,11.565,0,0,0-5.359-9.792ZM8.095,8.689a4.939,4.939,0,0,1,9.876,0,4.939,4.939,0,0,1-9.876,0Zm4.922,15.344H3.878a9.35,9.35,0,0,1,9.138-8.655,8.888,8.888,0,0,1,4.69,1.341,9.358,9.358,0,0,1,1.138.835l1.2-1.393a10.994,10.994,0,0,0-1.367-1,10.751,10.751,0,0,0-1.868-.919,6.665,6.665,0,0,0,3-5.551,6.775,6.775,0,0,0-13.548,0,6.663,6.663,0,0,0,3,5.55A11.4,11.4,0,0,0,2,24.951a.918.918,0,0,0,.918.918h10.1Z" fill="#d1d4e2" fill-rule="evenodd"/>
  </g>
  <g id="Icon-Resource_General-Resource_Res_Users_48-2" data-name="Icon-Resource/General-Resource/Res_Users_48" transform="translate(19.803 35.804)">
    <path id="Fill-1-2" data-name="Fill-1" d="M13.059,40.557A9.35,9.35,0,0,1,22.2,31.9a8.888,8.888,0,0,1,4.69,1.341,9.682,9.682,0,0,1,4.447,7.314Zm4.216-15.344a4.939,4.939,0,1,1,4.939,4.853,4.9,4.9,0,0,1-4.939-4.853Zm10.579,6.47a10.751,10.751,0,0,0-1.868-.919,6.665,6.665,0,0,0,3-5.551,6.775,6.775,0,0,0-13.548,0,6.663,6.663,0,0,0,3,5.55A11.4,11.4,0,0,0,11.18,41.475a.918.918,0,0,0,.918.918h20.2a.917.917,0,0,0,.918-.918,11.565,11.565,0,0,0-5.359-9.792Z" fill="#717795" fill-rule="evenodd"/>
  </g>
  <g id="Ellipse_209" data-name="Ellipse 209" transform="translate(0 11)" fill="none" stroke="#d1d4e2" stroke-width="2">
    <circle cx="41.5" cy="41.5" r="41.5" stroke="none"/>
    <circle cx="41.5" cy="41.5" r="40.5" fill="none"/>
  </g>
  <path id="Icon_ionic-md-bulb" data-name="Icon ionic-md-bulb" d="M13.5,30.094A1.41,1.41,0,0,0,14.906,31.5h6.188A1.41,1.41,0,0,0,22.5,30.094V28.828h-9ZM18,4.5c-5.6,0-10.125,4.212-10.125,9.422A9.3,9.3,0,0,0,12.192,21.7V24.75a1.405,1.405,0,0,0,1.448,1.35h8.712A1.4,1.4,0,0,0,23.8,24.75V21.7a9.289,9.289,0,0,0,4.324-7.777C28.125,8.712,23.6,4.5,18,4.5Z" transform="translate(24 -4.5)" fill="#ff9800"/>
</svg>
