<svg xmlns="http://www.w3.org/2000/svg" width="38" height="38" viewBox="0 0 38 38">
  <g id="Group_536" data-name="Group 536" transform="translate(-1298 -3502)">
    <circle id="Ellipse_333" data-name="Ellipse 333" cx="19" cy="19" r="19" transform="translate(1298 3502)" fill="#1f2649"/>
    <path id="Icon_awesome-linkedin" data-name="Icon awesome-linkedin" d="M8.31,23.85H4.762V12.425H8.316V23.85ZM6.536,10.865A2.057,2.057,0,1,1,8.594,8.807a2.058,2.058,0,0,1-2.057,2.057ZM21.611,23.85H18.063V18.293c0-1.325-.027-3.03-1.844-3.03-1.849,0-2.132,1.443-2.132,2.934V23.85H10.539V12.425h3.4v1.56h.048a3.737,3.737,0,0,1,3.361-1.844c3.591,0,4.259,2.367,4.259,5.445Z" transform="translate(1304.161 3503.61)" fill="#fff"/>
  </g>
</svg>
