<svg xmlns="http://www.w3.org/2000/svg" width="50" height="50" viewBox="0 0 50 50">
  <g id="Group_507" data-name="Group 507" transform="translate(-1298 -3502)">
    <circle id="Ellipse_333" data-name="Ellipse 333" cx="25" cy="25" r="25" transform="translate(1298 3502)" fill="#1f2649"/>
    <path id="Icon_awesome-linkedin" data-name="Icon awesome-linkedin" d="M9.52,29.25H4.852V14.217H9.527V29.25ZM7.186,12.164A2.707,2.707,0,1,1,9.893,9.457a2.708,2.708,0,0,1-2.707,2.707ZM27.021,29.25H22.352V21.938c0-1.744-.035-3.987-2.426-3.987-2.433,0-2.805,1.9-2.805,3.86V29.25H12.452V14.217h4.479V16.27h.063a4.917,4.917,0,0,1,4.423-2.426c4.725,0,5.6,3.115,5.6,7.165Z" transform="translate(1307.521 3506.25)" fill="#fff"/>
  </g>
</svg>
