<svg xmlns="http://www.w3.org/2000/svg" width="79.72" height="84.19" viewBox="0 0 79.72 84.19">
  <g id="Layer_2" data-name="Layer 2" transform="translate(10.616 8.133)">
    <path id="Path_414" data-name="Path 414" d="M38.481,26.654V13.01a3.826,3.826,0,1,0-7.652,0V19.7a3.515,3.515,0,0,0-4.668,1.124l-3.887,5.842-.826.291a9.16,9.16,0,0,0-5.9,10.387l.3,1.5a1.073,1.073,0,0,0-.481.874v6.235a1.093,1.093,0,0,0,1.093,1.093H29.666a1.093,1.093,0,0,0,1.093-1.093V39.725A1.08,1.08,0,0,0,30.475,39L38.288,27.26a1.093,1.093,0,0,0,.192-.606Zm-9.9,18.2H17.561V40.819H28.582Zm-.461-6.237v.015H18.064l-.343-1.714A6.954,6.954,0,0,1,22.2,29.026l1.17-.415a1.093,1.093,0,0,0,.547-.424L28,22.041a1.364,1.364,0,0,1,1.865-.376,1.345,1.345,0,0,1,.584.874,1.362,1.362,0,0,1-.2,1.025l-.125.188-1.237,1.858-3.327,5a1.093,1.093,0,1,0,1.819,1.213l3.972-5.966.721-1.093.754-1.135a1.093,1.093,0,0,0,.184-.606V13.019a1.635,1.635,0,1,1,3.271,0v13.31Z" transform="translate(19.289 30.348) rotate(-90)" fill="#d1d4e2"/>
    <path id="Path_415" data-name="Path 415" d="M24.989,18.881a9.16,9.16,0,0,1-5.9,10.387l-.826.291L14.39,35.4a3.515,3.515,0,0,1-4.678,1.117v6.69a3.826,3.826,0,1,1-7.652,0V29.565a1.093,1.093,0,0,1,.184-.606l7.813-11.744a1.08,1.08,0,0,1-.284-.721V10.283A1.093,1.093,0,0,1,10.866,9.19H24.075a1.093,1.093,0,0,1,1.093,1.093v6.222a1.073,1.073,0,0,1-.481.874ZM4.248,29.909V43.216a1.639,1.639,0,1,0,3.277,0V33.208a1.093,1.093,0,0,1,.184-.606l5.45-8.19a1.093,1.093,0,1,1,1.819,1.213l-3.33,4.989-1.362,2.046a1.36,1.36,0,0,0,.387,1.906,1.388,1.388,0,0,0,1.023.2,1.36,1.36,0,0,0,.874-.582l4.088-6.145a1.093,1.093,0,0,1,.547-.424l1.172-.415a6.954,6.954,0,0,0,4.48-7.892L22.514,17.6H12.458v.015ZM22.982,11.376H11.961v4.036H22.982Z" transform="translate(-19.806 78.117) rotate(-90)" fill="#d1d4e2"/>
    <path id="Icon_ionic-ios-pin" data-name="Icon ionic-ios-pin" d="M14.27,3.375a6.181,6.181,0,0,0-6.4,5.938c0,4.619,6.4,12.537,6.4,12.537s6.4-7.918,6.4-12.537A6.181,6.181,0,0,0,14.27,3.375Zm0,8.478A2.083,2.083,0,1,1,16.353,9.77,2.083,2.083,0,0,1,14.27,11.853Z" transform="translate(48.438 42.813)" fill="#1f2649"/>
    <path id="Path_508" data-name="Path 508" d="M62.708,64.5s-34.75,1.6-35.672-27.628S2.269,5.431-4.982,3.774" fill="none" stroke="#d1d4e2" stroke-linecap="round" stroke-width="2" stroke-dasharray="3 5"/>
    <circle id="Ellipse_108" data-name="Ellipse 108" cx="23" cy="23" r="23" transform="translate(3.958 9.425)" fill="#ff9800"/>
    <path id="Path_417" data-name="Path 417" d="M24.811,6.927l-7.723,7.714L13.736,11.3a1.459,1.459,0,1,0-2.063,2.063l4.372,4.372a1.457,1.457,0,0,0,2.063,0L26.851,8.99a1.459,1.459,0,1,0-2.063-2.063Z" transform="translate(8.039 20.095)" fill="#fff"/>
  </g>
</svg>
