<svg id="Component_20_1" data-name="Component 20 – 1" xmlns="http://www.w3.org/2000/svg" width="101.309" height="87.298" viewBox="0 0 101.309 87.298">
  <g id="brain" transform="translate(0 2.16)">
    <path id="Path_995" data-name="Path 995" d="M84.134,148.618a2.237,2.237,0,0,0-.863-.928v-15.6l.283-.01c2.412-.086,5.413-.193,7.085,1.42a5.83,5.83,0,0,1,1.5,3.856,3.708,3.708,0,1,0,2.474-.025,8.277,8.277,0,0,0-2.258-5.608c-2.426-2.341-6.16-2.208-8.887-2.11l-.2.007V121.86c12.593.026,18.949.542,19.5,7.327a3.708,3.708,0,1,0,2.473-.026c-.3-4.376-2.593-7.169-6.974-8.52-3.8-1.172-8.989-1.246-15-1.251v-7.713c6.008,0,11.2-.079,15-1.251,4.381-1.351,6.67-4.144,6.974-8.52a3.705,3.705,0,1,0-2.473-.026c-.55,6.785-6.907,7.3-19.5,7.327v-7.516l.2.007c.578.021,1.2.043,1.847.043,2.4,0,5.128-.308,7.04-2.153a8.275,8.275,0,0,0,2.258-5.607,3.705,3.705,0,1,0-2.474-.025,5.829,5.829,0,0,1-1.5,3.856c-1.672,1.613-4.673,1.505-7.084,1.42l-.283-.01V93.873a1.234,1.234,0,1,0-2.469,0V147.69a2.237,2.237,0,0,0-.864.928c-1.715,3.45-5.649,5.68-10.021,5.68-6,0-10.885-4.181-10.885-9.321a7.942,7.942,0,0,1,.1-1.209,6.62,6.62,0,0,1,1.71-3.424,1.234,1.234,0,0,0-1.714-1.777,8.613,8.613,0,0,0-2.153,3.63A11.079,11.079,0,0,1,50,137.925a1.235,1.235,0,0,0-2.013,1.429,13.384,13.384,0,0,0,8.582,5.284c0,.115-.007.227-.007.339,0,6.5,5.991,11.79,13.354,11.79a13.576,13.576,0,0,0,12.119-6.829C84.219,154.095,85.85,152.068,84.134,148.618Zm9.277-9.017a1.234,1.234,0,1,1-1.238,1.234A1.237,1.237,0,0,1,93.411,139.6Zm10.634-8.171a1.234,1.234,0,1,1-1.238,1.234A1.237,1.237,0,0,1,104.045,131.43Zm0-34.261a1.234,1.234,0,1,1-1.238,1.234A1.237,1.237,0,0,1,104.045,97.169ZM93.411,89.244a1.234,1.234,0,1,1-1.238,1.234A1.237,1.237,0,0,1,93.411,89.244Z" transform="translate(-39.899 -72.492)" fill="#d1d4e2"/>
    <path id="Path_996" data-name="Path 996" d="M8.529,115.98a8.749,8.749,0,0,1,2.575-6.1,1.234,1.234,0,0,0-.6-2.073c-4.733-1.1-8.038-4.791-8.038-8.977a9.179,9.179,0,0,1,3.415-6.968,1.235,1.235,0,0,0,.055-1.824,6.135,6.135,0,0,1-1.955-4.4c0-3.627,3.342-6.557,7.607-6.67a5.534,5.534,0,0,1,3.225,1.2,1.235,1.235,0,0,0,1.636-1.849,7.823,7.823,0,0,0-4.163-1.767,5.828,5.828,0,0,1-.731-2.79,6.343,6.343,0,0,1,2.96-5.223,1.234,1.234,0,1,0-1.389-2.041,8.773,8.773,0,0,0-4.04,7.264,8.184,8.184,0,0,0,.55,2.938c-4.682.886-8.124,4.536-8.124,8.937A8.426,8.426,0,0,0,3.357,90.85,11.393,11.393,0,0,0,0,98.827c0,4.756,3.244,8.989,8.091,10.819A11.125,11.125,0,0,0,6.06,115.98a1.234,1.234,0,0,0,2.469,0Z" transform="translate(0 -55.37)" fill="#d1d4e2"/>
    <path id="Path_997" data-name="Path 997" d="M134.4,5.807A12.114,12.114,0,0,0,123.8,0h-.164a12.563,12.563,0,0,0-8.1,3.036,10.039,10.039,0,0,0-3.492,6.207c-.127,0-.249-.007-.363-.007a1.234,1.234,0,0,0,0,2.469,11.46,11.46,0,0,1,1.371.1,1.234,1.234,0,0,0,1.392-1.321l-.007-.084c0-.022,0-.044-.005-.055.075-4.209,4.3-7.815,9.231-7.876a9.624,9.624,0,0,1,8.672,4.7,2.244,2.244,0,0,0,.836.872v7.644a1.234,1.234,0,1,0,2.469,0V8.037a4.245,4.245,0,0,0,.836-.872S136.4,2.26,134.4,5.807Z" transform="translate(-92.266 0)" fill="#d1d4e2"/>
    <path id="Path_998" data-name="Path 998" d="M84.7,205.7a1.235,1.235,0,0,0,1.163,1.3l.07,0a1.234,1.234,0,0,0,1.231-1.165,8.785,8.785,0,0,1,6.647-7.729,1.234,1.234,0,1,0-.584-2.4,10.719,10.719,0,0,0-7.3,5.733A11.95,11.95,0,0,0,84.7,205.7Z" transform="translate(-70.759 -163.47)" fill="#d1d4e2"/>
    <path id="Path_999" data-name="Path 999" d="M166.741,83.1a1.237,1.237,0,0,0-1.345,1.113c-.366,3.874-4.378,5.358-4.553,5.421a1.234,1.234,0,0,0,.82,2.329c.231-.081,5.675-2.05,6.191-7.518A1.234,1.234,0,0,0,166.741,83.1Z" transform="translate(-133.681 -69.415)" fill="#d1d4e2"/>
    <path id="Path_1000" data-name="Path 1000" d="M165.646,359.265a1.235,1.235,0,1,0,1.061-2.229c-4.751-2.26-4.344-7.635-4.324-7.867a1.235,1.235,0,0,0-2.459-.226C159.9,349.239,159.315,356.253,165.646,359.265Z" transform="translate(-133.579 -290.571)" fill="#d1d4e2"/>
    <path id="Path_1001" data-name="Path 1001" d="M173.469,250.746a1.234,1.234,0,1,0,1.061,2.229c4-1.9,3.631-6.319,3.613-6.506a1.235,1.235,0,1,0-2.458.23A4.236,4.236,0,0,1,173.469,250.746Z" transform="translate(-144.327 -204.965)" fill="#d1d4e2"/>
    <path id="Path_1002" data-name="Path 1002" d="M355.338,255.974a1.235,1.235,0,1,0,1.235-1.234A1.235,1.235,0,0,0,355.338,255.974Z" transform="translate(-296.849 -212.81)" fill="#d1d4e2"/>
    <path id="Path_1003" data-name="Path 1003" d="M407.563,257.209a1.234,1.234,0,1,0-1.235-1.234A1.235,1.235,0,0,0,407.563,257.209Z" transform="translate(-339.447 -212.81)" fill="#d1d4e2"/>
    <path id="Path_1004" data-name="Path 1004" d="M317.608,462.475a1.235,1.235,0,1,0,1.235-1.235A1.235,1.235,0,0,0,317.608,462.475Z" transform="translate(-265.33 -385.32)" fill="#d1d4e2"/>
    <path id="Path_1005" data-name="Path 1005" d="M320.076,49.474a1.235,1.235,0,1,0-1.235,1.235A1.235,1.235,0,0,0,320.076,49.474Z" transform="translate(-265.329 -40.3)" fill="#d1d4e2"/>
  </g>
  <circle id="Ellipse_323" data-name="Ellipse 323" cx="5" cy="5" r="5" transform="translate(47.958 14.649)" fill="#ff9800"/>
  <circle id="Ellipse_326" data-name="Ellipse 326" cx="5" cy="5" r="5" transform="translate(47.958 65.649)" fill="#ff9800"/>
  <circle id="Ellipse_324" data-name="Ellipse 324" cx="5" cy="5" r="5" transform="translate(58.958 22.649)" fill="#ff9800"/>
  <circle id="Ellipse_325" data-name="Ellipse 325" cx="5" cy="5" r="5" transform="translate(58.958 58.649)" fill="#ff9800"/>
  <g id="Rectangle_264" data-name="Rectangle 264" transform="translate(81.488 6)" fill="none" stroke="#d1d4e2" stroke-width="2">
    <path d="M0,0H3.82a4,4,0,0,1,4,4V71.3a4,4,0,0,1-4,4H0a0,0,0,0,1,0,0V0A0,0,0,0,1,0,0Z" stroke="none"/>
    <path d="M1,1H3.82a3,3,0,0,1,3,3V71.3a3,3,0,0,1-3,3H1a0,0,0,0,1,0,0V1A0,0,0,0,1,1,1Z" fill="none"/>
  </g>
  <g id="Rectangle_265" data-name="Rectangle 265" transform="translate(87.488 13)" fill="none" stroke="#d1d4e2" stroke-width="2">
    <path d="M0,0H3.82a4,4,0,0,1,4,4V57.3a4,4,0,0,1-4,4H0a0,0,0,0,1,0,0V0A0,0,0,0,1,0,0Z" stroke="none"/>
    <path d="M1,1H3.82a3,3,0,0,1,3,3V57.3a3,3,0,0,1-3,3H1a0,0,0,0,1,0,0V1A0,0,0,0,1,1,1Z" fill="none"/>
  </g>
  <g id="Rectangle_266" data-name="Rectangle 266" transform="translate(93.488 21)" fill="none" stroke="#d1d4e2" stroke-width="2">
    <path d="M0,0H3.82a4,4,0,0,1,4,4V41.3a4,4,0,0,1-4,4H0a0,0,0,0,1,0,0V0A0,0,0,0,1,0,0Z" stroke="none"/>
    <path d="M1,1H3.82a3,3,0,0,1,3,3V41.3a3,3,0,0,1-3,3H1a0,0,0,0,1,0,0V1A0,0,0,0,1,1,1Z" fill="none"/>
  </g>
  <g id="Rectangle_263" data-name="Rectangle 263" transform="translate(41.138)" fill="none" stroke="#1f2649" stroke-width="2">
    <rect width="41.82" height="87.298" rx="4" stroke="none"/>
    <rect x="1" y="1" width="39.82" height="85.298" rx="3" fill="none"/>
  </g>
</svg>
