<svg xmlns="http://www.w3.org/2000/svg" xmlns:xlink="http://www.w3.org/1999/xlink" width="95.358" height="95.358" viewBox="0 0 95.358 95.358">
  <defs>
    <clipPath id="clip-path">
      <path id="Path_47" data-name="Path 47" d="M229.568,1099.544a7.875,7.875,0,0,0-2.425-.5c-4.593-.2-8.229,3.738-8.027,8.788a9.989,9.989,0,0,0,.32,2.136,3.631,3.631,0,0,0-1.264-.247,3.689,3.689,0,0,0-3.646,4,4.185,4.185,0,0,0,3.278,3.971l29.2-.028c.163,0,.323-.01.482-.025,3-.293,5.224-3.176,5.1-6.685-.136-3.694-2.838-6.772-6.086-6.875a5.092,5.092,0,0,0-2.271.45,9.22,9.22,0,0,0,.039-1.279c-.172-4.58-3.6-8.481-7.743-8.711-.129-.008-.257-.011-.384-.011a6.972,6.972,0,0,0-6.567,5.017" transform="translate(-214.523 -1094.527)" fill="#ff9800"/>
    </clipPath>
    <clipPath id="clip-path-2">
      <path id="Path_68" data-name="Path 68" d="M1858.819,814.793a7.155,7.155,0,0,0-2.113-.442,6.541,6.541,0,0,0-6.814,7.115,8.176,8.176,0,0,0,.267,1.758,3.135,3.135,0,0,0-1.051-.242,2.871,2.871,0,0,0-2.991,3.122,3.648,3.648,0,0,0,2.687,3.365l26.019,1.452c.156.008.311.009.464,0a5.237,5.237,0,0,0,4.976-5.685,6.537,6.537,0,0,0-5.928-6.275,5.159,5.159,0,0,0-2.162.342,7.548,7.548,0,0,0,.036-1.116,7.923,7.923,0,0,0-7.183-7.6q-.175-.009-.349-.009a6.146,6.146,0,0,0-5.858,4.214" transform="translate(-1846.113 -810.579)" fill="none"/>
    </clipPath>
  </defs>
  <g id="Group_192" data-name="Group 192" transform="translate(-1300.934 -1271.569)">
    <g id="process" transform="translate(1300.934 1271.569)">
      <path id="Path_227" data-name="Path 227" d="M359.194,48a7.194,7.194,0,1,0,7.194,7.194A7.2,7.2,0,0,0,359.194,48Zm0,11.51a4.316,4.316,0,1,1,4.316-4.316A4.322,4.322,0,0,1,359.194,59.51Zm0,0" transform="translate(-279.663 -39.367)" fill="#d1d4e2"/>
      <path id="Path_228" data-name="Path 228" d="M334.667,12.057l-2.449-.81q-.179-.484-.4-.957l1.03-2.168a1.437,1.437,0,0,0-.128-1.451,15.871,15.871,0,0,0-3.738-3.738,1.442,1.442,0,0,0-1.451-.128l-2.168,1.03q-.473-.22-.957-.4L323.6.987A1.437,1.437,0,0,0,322.231,0h-4.808a1.437,1.437,0,0,0-1.366.987l-.828,2.5-.885.369-2.221-1.055a1.442,1.442,0,0,0-1.451.128,15.829,15.829,0,0,0-3.74,3.74,1.438,1.438,0,0,0-.126,1.45l1.055,2.221-.369.885-2.5.828A1.435,1.435,0,0,0,304,13.423v4.807a1.438,1.438,0,0,0,.987,1.366l2.5.83.369.885-1.055,2.221a1.437,1.437,0,0,0,.128,1.451,15.87,15.87,0,0,0,3.738,3.738,1.441,1.441,0,0,0,1.451.128l2.221-1.055.885.369.828,2.5a1.435,1.435,0,0,0,1.364.986h4.808a1.437,1.437,0,0,0,1.366-.987l.81-2.449q.484-.179.957-.4l2.168,1.03a1.438,1.438,0,0,0,1.451-.128,15.871,15.871,0,0,0,3.738-3.738,1.437,1.437,0,0,0,.128-1.451l-1.03-2.168c.147-.315.279-.634.4-.957l2.449-.811a1.438,1.438,0,0,0,.987-1.366V13.423a1.437,1.437,0,0,0-.987-1.366Zm-1.891,5.134-2.142.709a1.436,1.436,0,0,0-.924.946,10.4,10.4,0,0,1-.76,1.829,1.445,1.445,0,0,0-.03,1.292l.954,2.009a13.093,13.093,0,0,1-1.9,1.9l-2.009-.954a1.431,1.431,0,0,0-1.292.03,10.226,10.226,0,0,1-1.829.76,1.434,1.434,0,0,0-.946.923l-.71,2.144h-2.729l-.709-2.142a1.442,1.442,0,0,0-.813-.877l-2.085-.866a1.446,1.446,0,0,0-1.168.03l-2.009.954a13.094,13.094,0,0,1-1.9-1.9l.954-2.009a1.446,1.446,0,0,0,.03-1.168l-.866-2.084a1.437,1.437,0,0,0-.876-.813l-2.146-.713V14.462l2.142-.709a1.442,1.442,0,0,0,.877-.813l.866-2.085a1.44,1.44,0,0,0-.03-1.168l-.954-2.009a12.955,12.955,0,0,1,1.9-1.9l2.009.954a1.438,1.438,0,0,0,1.168.03l2.084-.866a1.437,1.437,0,0,0,.813-.876l.713-2.146h2.729L321.9,5.02a1.439,1.439,0,0,0,.946.924,10.4,10.4,0,0,1,1.829.76,1.449,1.449,0,0,0,1.292.03l2.009-.954a13.092,13.092,0,0,1,1.9,1.9l-.953,2.009a1.436,1.436,0,0,0,.03,1.292,10.222,10.222,0,0,1,.76,1.829,1.433,1.433,0,0,0,.924.946l2.142.71Zm0,0" transform="translate(-240.296 0)" fill="#d1d4e2"/>
      <path id="Path_229" data-name="Path 229" d="M55.194,366.388A7.194,7.194,0,1,0,48,359.194,7.2,7.2,0,0,0,55.194,366.388Zm0-11.51a4.316,4.316,0,1,1-4.316,4.316A4.322,4.322,0,0,1,55.194,354.878Zm0,0" transform="translate(-39.367 -279.663)" fill="#d1d4e2"/>
      <path id="Path_230" data-name="Path 230" d="M.987,323.6l2.5.83.369.885-1.055,2.221a1.437,1.437,0,0,0,.128,1.451,15.87,15.87,0,0,0,3.738,3.738,1.441,1.441,0,0,0,1.451.128l2.221-1.055.885.369.828,2.5a1.435,1.435,0,0,0,1.364.986h4.808a1.437,1.437,0,0,0,1.366-.987l.81-2.449q.484-.179.957-.4l2.168,1.03a1.434,1.434,0,0,0,1.451-.128,15.87,15.87,0,0,0,3.738-3.738,1.437,1.437,0,0,0,.128-1.451l-1.03-2.168q.22-.473.4-.957l2.449-.811a1.438,1.438,0,0,0,.987-1.366v-4.807a1.437,1.437,0,0,0-.987-1.366l-2.449-.81q-.179-.484-.4-.957l1.03-2.168a1.437,1.437,0,0,0-.128-1.451,15.871,15.871,0,0,0-3.738-3.738,1.438,1.438,0,0,0-1.451-.128l-2.168,1.03q-.473-.22-.957-.4l-.81-2.449A1.437,1.437,0,0,0,18.231,304H13.423a1.437,1.437,0,0,0-1.366.987l-.828,2.5-.885.369-2.221-1.055a1.442,1.442,0,0,0-1.451.128,15.829,15.829,0,0,0-3.74,3.74,1.438,1.438,0,0,0-.126,1.45l1.055,2.221-.369.885-2.5.827A1.437,1.437,0,0,0,0,317.423v4.807A1.438,1.438,0,0,0,.987,323.6Zm1.891-5.133,2.142-.709a1.442,1.442,0,0,0,.877-.813l.866-2.085a1.44,1.44,0,0,0-.03-1.168l-.954-2.009a12.956,12.956,0,0,1,1.9-1.9l2.009.954a1.432,1.432,0,0,0,1.168.03l2.084-.866a1.437,1.437,0,0,0,.813-.876l.713-2.146h2.729l.709,2.142a1.439,1.439,0,0,0,.946.924,10.4,10.4,0,0,1,1.829.76,1.449,1.449,0,0,0,1.292.03l2.009-.954a13.1,13.1,0,0,1,1.9,1.9l-.954,2.009a1.436,1.436,0,0,0,.03,1.292,10.227,10.227,0,0,1,.76,1.829,1.434,1.434,0,0,0,.923.946l2.144.71v2.729l-2.142.709a1.436,1.436,0,0,0-.924.946,10.4,10.4,0,0,1-.76,1.829,1.445,1.445,0,0,0-.03,1.292l.954,2.009a13.1,13.1,0,0,1-1.9,1.9l-2.009-.954a1.427,1.427,0,0,0-1.292.03,10.229,10.229,0,0,1-1.829.76,1.434,1.434,0,0,0-.946.923l-.71,2.144H14.462l-.709-2.142a1.442,1.442,0,0,0-.813-.877l-2.085-.866a1.446,1.446,0,0,0-1.168.03l-2.009.954a13.093,13.093,0,0,1-1.9-1.9l.954-2.009a1.446,1.446,0,0,0,.03-1.168L5.9,322.717a1.437,1.437,0,0,0-.876-.813l-2.146-.713Zm0,0" transform="translate(0 -240.296)" fill="#d1d4e2"/>
      <path id="Path_231" data-name="Path 231" d="M359.194,352a7.194,7.194,0,1,0,7.194,7.194A7.2,7.2,0,0,0,359.194,352Zm0,11.51a4.316,4.316,0,1,1,4.316-4.316A4.322,4.322,0,0,1,359.194,363.51Zm0,0" transform="translate(-279.663 -279.663)" fill="#d1d4e2"/>
      <path id="Path_232" data-name="Path 232" d="M334.666,316.057l-2.5-.828-.369-.885,1.055-2.221a1.437,1.437,0,0,0-.128-1.451,15.83,15.83,0,0,0-3.74-3.74,1.445,1.445,0,0,0-1.45-.126l-2.221,1.055-.885-.369-.828-2.5a1.435,1.435,0,0,0-1.364-.986h-4.807a1.438,1.438,0,0,0-1.366.987l-.83,2.5-.885.369-2.221-1.054a1.442,1.442,0,0,0-1.451.128,15.87,15.87,0,0,0-3.738,3.738,1.437,1.437,0,0,0-.128,1.451l1.055,2.221-.369.885-2.5.828a1.435,1.435,0,0,0-.986,1.364v4.808a1.437,1.437,0,0,0,.987,1.366l2.449.81q.179.484.4.957l-1.03,2.168a1.437,1.437,0,0,0,.128,1.451,15.87,15.87,0,0,0,3.738,3.738,1.442,1.442,0,0,0,1.451.128l2.168-1.03q.473.22.957.4l.811,2.449a1.438,1.438,0,0,0,1.366.987h4.807a1.437,1.437,0,0,0,1.366-.987l.81-2.449q.484-.179.957-.4l2.168,1.03a1.435,1.435,0,0,0,1.451-.128,15.868,15.868,0,0,0,3.738-3.738,1.437,1.437,0,0,0,.128-1.451l-1.03-2.168q.22-.473.4-.957l2.449-.81a1.437,1.437,0,0,0,.987-1.366v-4.808A1.437,1.437,0,0,0,334.666,316.057Zm-1.891,5.134-2.142.709a1.439,1.439,0,0,0-.924.946,10.4,10.4,0,0,1-.76,1.829,1.444,1.444,0,0,0-.03,1.292l.954,2.009a13.1,13.1,0,0,1-1.9,1.9l-2.009-.954a1.427,1.427,0,0,0-1.292.03,10.227,10.227,0,0,1-1.829.76,1.434,1.434,0,0,0-.946.923l-.71,2.144h-2.729l-.709-2.142a1.436,1.436,0,0,0-.946-.924,10.4,10.4,0,0,1-1.829-.76,1.436,1.436,0,0,0-1.292-.03l-2.009.954a13.1,13.1,0,0,1-1.9-1.9l.954-2.009a1.436,1.436,0,0,0-.03-1.292,10.226,10.226,0,0,1-.76-1.829,1.434,1.434,0,0,0-.923-.946l-2.144-.71v-2.729l2.142-.709a1.442,1.442,0,0,0,.877-.813l.866-2.084a1.44,1.44,0,0,0-.03-1.168l-.954-2.009a13.094,13.094,0,0,1,1.9-1.9l2.009.954a1.432,1.432,0,0,0,1.168.03l2.084-.866a1.435,1.435,0,0,0,.813-.876l.713-2.147h2.729l.709,2.142a1.442,1.442,0,0,0,.813.877l2.084.866a1.429,1.429,0,0,0,1.168-.03l2.009-.954a12.957,12.957,0,0,1,1.9,1.9l-.954,2.009a1.443,1.443,0,0,0-.03,1.168l.866,2.084a1.435,1.435,0,0,0,.876.813l2.147.713Zm0,0" transform="translate(-240.296 -240.296)" fill="#d1d4e2"/>
      <path id="Path_233" data-name="Path 233" d="M55.194,62.388A7.194,7.194,0,1,0,48,55.194,7.2,7.2,0,0,0,55.194,62.388Zm0-11.51a4.316,4.316,0,1,1-4.316,4.316A4.322,4.322,0,0,1,55.194,50.878Zm0,0" transform="translate(-39.367 -39.367)" fill="#d1d4e2"/>
      <path id="Path_234" data-name="Path 234" d="M.987,19.6l2.449.81q.179.484.4.957L2.8,23.531a1.437,1.437,0,0,0,.128,1.451,15.87,15.87,0,0,0,3.738,3.738,1.442,1.442,0,0,0,1.451.128l2.168-1.03q.473.22.957.4l.811,2.449a1.438,1.438,0,0,0,1.366.987h4.807a1.437,1.437,0,0,0,1.366-.987l.81-2.449q.484-.179.957-.4l2.168,1.03a1.438,1.438,0,0,0,1.451-.128,15.87,15.87,0,0,0,3.738-3.738,1.437,1.437,0,0,0,.128-1.451l-1.03-2.168q.22-.473.4-.957l2.449-.81a1.437,1.437,0,0,0,.987-1.366V13.423a1.437,1.437,0,0,0-.987-1.366l-2.5-.828-.369-.885,1.055-2.221a1.437,1.437,0,0,0-.128-1.451,15.83,15.83,0,0,0-3.74-3.74A1.441,1.441,0,0,0,23.53,2.8L21.309,3.859l-.885-.369L19.6.987A1.437,1.437,0,0,0,18.231,0H13.424a1.438,1.438,0,0,0-1.366.987l-.83,2.5-.887.369L8.122,2.8a1.442,1.442,0,0,0-1.451.128A15.87,15.87,0,0,0,2.932,6.671,1.437,1.437,0,0,0,2.8,8.122l1.055,2.221-.367.885-2.5.828A1.437,1.437,0,0,0,0,13.423v4.808A1.437,1.437,0,0,0,.987,19.6Zm1.891-5.134,2.142-.709a1.442,1.442,0,0,0,.877-.813l.866-2.085a1.444,1.444,0,0,0-.029-1.17L5.78,7.677a13.024,13.024,0,0,1,1.9-1.9l2.009.954a1.438,1.438,0,0,0,1.17.029L12.939,5.9a1.434,1.434,0,0,0,.813-.877l.71-2.142h2.729L17.9,5.02a1.442,1.442,0,0,0,.813.877l2.085.866a1.434,1.434,0,0,0,1.168-.03l2.009-.954a12.955,12.955,0,0,1,1.9,1.9l-.953,2.01a1.446,1.446,0,0,0-.03,1.168l.866,2.084a1.437,1.437,0,0,0,.876.813l2.144.712v2.729l-2.142.709a1.439,1.439,0,0,0-.924.946,10.4,10.4,0,0,1-.76,1.829,1.445,1.445,0,0,0-.03,1.292l.954,2.009a13.1,13.1,0,0,1-1.9,1.9l-2.009-.954a1.431,1.431,0,0,0-1.292.03,10.225,10.225,0,0,1-1.829.76,1.434,1.434,0,0,0-.946.923l-.71,2.144H14.462l-.709-2.142a1.436,1.436,0,0,0-.946-.924,10.4,10.4,0,0,1-1.829-.76,1.44,1.44,0,0,0-1.292-.03l-2.009.954a13.094,13.094,0,0,1-1.9-1.9l.954-2.009a1.436,1.436,0,0,0-.03-1.292,10.225,10.225,0,0,1-.76-1.829,1.434,1.434,0,0,0-.923-.946l-2.144-.71Zm0,0" transform="translate(0 0)" fill="#d1d4e2"/>
      <path id="Path_235" data-name="Path 235" d="M200,88h2.878v2.878H200Zm0,0" transform="translate(-161.773 -72.173)" fill="#d1d4e2"/>
      <path id="Path_236" data-name="Path 236" d="M232,88h2.878v2.878H232Zm0,0" transform="translate(-185.76 -72.173)" fill="#d1d4e2"/>
      <path id="Path_237" data-name="Path 237" d="M264,88h2.878v2.878H264Zm0,0" transform="translate(-209.747 -72.173)" fill="#d1d4e2"/>
      <path id="Path_238" data-name="Path 238" d="M200,384h2.878v2.878H200Zm0,0" transform="translate(-161.773 -305.908)" fill="#d1d4e2"/>
      <path id="Path_239" data-name="Path 239" d="M232,384h2.878v2.878H232Zm0,0" transform="translate(-185.76 -305.908)" fill="#d1d4e2"/>
      <path id="Path_240" data-name="Path 240" d="M264,384h2.878v2.878H264Zm0,0" transform="translate(-209.747 -305.908)" fill="#d1d4e2"/>
      <path id="Path_241" data-name="Path 241" d="M392,200h2.878v2.878H392Zm0,0" transform="translate(-312.469 -161.773)" fill="#d1d4e2"/>
      <path id="Path_242" data-name="Path 242" d="M392,232h2.878v2.878H392Zm0,0" transform="translate(-312.469 -185.76)" fill="#d1d4e2"/>
      <path id="Path_243" data-name="Path 243" d="M392,264h2.878v2.878H392Zm0,0" transform="translate(-312.469 -209.747)" fill="#d1d4e2"/>
      <path id="Path_244" data-name="Path 244" d="M72,200h2.878v2.878H72Zm0,0" transform="translate(-59.051 -161.773)" fill="#d1d4e2"/>
      <path id="Path_245" data-name="Path 245" d="M72,232h2.878v2.878H72Zm0,0" transform="translate(-59.051 -185.76)" fill="#d1d4e2"/>
      <path id="Path_246" data-name="Path 246" d="M72,264h2.878v2.878H72Zm0,0" transform="translate(-59.051 -209.747)" fill="#d1d4e2"/>
    </g>
    <g id="Group_191" data-name="Group 191" transform="translate(1326.557 1294.556)">
      <path id="Path_71" data-name="Path 71" d="M197.484,1122.886c4.18.215,7.645,4.121,7.819,8.723a9.222,9.222,0,0,1-.039,1.286,5.174,5.174,0,0,1,2.293-.462c3.279.09,6.007,3.171,6.145,6.882.131,3.525-2.117,6.432-5.144,6.739-.16.015-.323.025-.487.027l-29.492.155a4.19,4.19,0,0,1-3.313-3.978,3.735,3.735,0,0,1,3.685-4.034,3.683,3.683,0,0,1,1.277.244,9.97,9.97,0,0,1-.324-2.145c-.2-5.076,3.47-9.046,8.11-8.867a7.971,7.971,0,0,1,2.45.491,7.045,7.045,0,0,1,7.021-5.06" transform="translate(-173.51 -1121.328)" fill="#e3cece" style="mix-blend-mode: multiply;isolation: isolate"/>
      <g id="Group_77" data-name="Group 77" transform="translate(3.898)">
        <g id="Group_54" data-name="Group 54" clip-path="url(#clip-path)">
          <rect id="Rectangle_28" data-name="Rectangle 28" width="38.272" height="23.163" transform="translate(-0.087 0)" fill="#ff9800"/>
        </g>
      </g>
    </g>
    <line id="Line_17" data-name="Line 17" x2="21.115" transform="translate(1335.572 1330.565)" fill="none" stroke="#717795" stroke-linecap="round" stroke-linejoin="round" stroke-width="2"/>
    <line id="Line_20" data-name="Line 20" x2="18.379" transform="translate(1335.572 1341.349)" fill="none" stroke="#717795" stroke-linecap="round" stroke-linejoin="round" stroke-width="2"/>
    <line id="Line_19" data-name="Line 19" x2="13.81" transform="translate(1335.572 1323.376)" fill="none" stroke="#717795" stroke-linecap="round" stroke-linejoin="round" stroke-width="2"/>
    <line id="Line_22" data-name="Line 22" x2="12.021" transform="translate(1335.572 1334.159)" fill="none" stroke="#717795" stroke-linecap="round" stroke-linejoin="round" stroke-width="2"/>
    <line id="Line_18" data-name="Line 18" x2="26.083" transform="translate(1335.572 1326.97)" fill="none" stroke="#717795" stroke-linecap="round" stroke-linejoin="round" stroke-width="2"/>
    <line id="Line_21" data-name="Line 21" x2="22.703" transform="translate(1335.572 1337.754)" fill="none" stroke="#717795" stroke-linecap="round" stroke-linejoin="round" stroke-width="2"/>
  </g>
</svg>
