<svg id="Component_16_1" data-name="Component 16 – 1" xmlns="http://www.w3.org/2000/svg" width="64" height="47.904" viewBox="0 0 64 47.904">
  <g id="Rectangle_201" data-name="Rectangle 201" transform="translate(3 4.904)" fill="none" stroke="#d1d4e2" stroke-width="2">
    <rect width="58" height="35" rx="3" stroke="none"/>
    <rect x="1" y="1" width="56" height="33" rx="2" fill="none"/>
  </g>
  <g id="Rectangle_202" data-name="Rectangle 202" transform="translate(0 37.904)" fill="none" stroke="#d1d4e2" stroke-width="2">
    <rect width="64" height="10" rx="3" stroke="none"/>
    <rect x="1" y="1" width="62" height="8" rx="2" fill="none"/>
  </g>
  <g id="Rectangle_203" data-name="Rectangle 203" transform="translate(23 37.904)" fill="none" stroke="#d1d4e2" stroke-width="2">
    <rect width="18" height="5" rx="2.5" stroke="none"/>
    <rect x="1" y="1" width="16" height="3" rx="1.5" fill="none"/>
  </g>
  <path id="Icon_awesome-cog" data-name="Icon awesome-cog" d="M28.537,18.435l-2.474-1.429a11.188,11.188,0,0,0,0-4.077L28.537,11.5a.7.7,0,0,0,.319-.813,14.466,14.466,0,0,0-3.177-5.495.7.7,0,0,0-.86-.134L22.345,6.488a10.961,10.961,0,0,0-3.531-2.039V1.6a.7.7,0,0,0-.546-.68,14.6,14.6,0,0,0-6.342,0,.7.7,0,0,0-.546.68V4.455A11.307,11.307,0,0,0,7.848,6.494L5.38,5.065a.69.69,0,0,0-.86.134,14.379,14.379,0,0,0-3.177,5.495.7.7,0,0,0,.319.813l2.474,1.429a11.188,11.188,0,0,0,0,4.077L1.663,18.441a.7.7,0,0,0-.319.813A14.466,14.466,0,0,0,4.52,24.749a.7.7,0,0,0,.86.134l2.474-1.429a10.961,10.961,0,0,0,3.531,2.039V28.35a.7.7,0,0,0,.546.68,14.6,14.6,0,0,0,6.342,0,.7.7,0,0,0,.546-.68V25.492a11.307,11.307,0,0,0,3.531-2.039l2.474,1.429a.69.69,0,0,0,.86-.134,14.379,14.379,0,0,0,3.177-5.495.717.717,0,0,0-.325-.819ZM15.1,19.614a4.647,4.647,0,1,1,4.647-4.647A4.653,4.653,0,0,1,15.1,19.614Z" transform="translate(18.895 -0.57)" fill="#ff9800"/>
</svg>
