<svg xmlns="http://www.w3.org/2000/svg" width="120.196" height="90.999" viewBox="0 0 120.196 90.999">
  <g id="Group_484" data-name="Group 484" transform="translate(-224.804 -4231.149)">
    <g id="smartphone_1_" data-name="smartphone (1)" transform="translate(234.215 4253.899)">
      <path id="Path_993" data-name="Path 993" d="M70.467-22.75H30.547a5.324,5.324,0,0,0-5.318,5.318V62.931a5.324,5.324,0,0,0,5.318,5.318h39.92a5.324,5.324,0,0,0,5.318-5.318V-17.432a5.324,5.324,0,0,0-5.318-5.318Zm-8.973,1.909v1.234a.941.941,0,0,1-.94.94H40.463a.941.941,0,0,1-.94-.94v-1.234ZM73.876,62.931a3.413,3.413,0,0,1-3.409,3.409H30.547a3.413,3.413,0,0,1-3.409-3.409V-17.432a3.413,3.413,0,0,1,3.409-3.409h7.065v1.234a2.852,2.852,0,0,0,2.849,2.849H60.552A2.853,2.853,0,0,0,63.4-19.607v-1.234h7.066a3.413,3.413,0,0,1,3.408,3.409Z" transform="translate(-0.443)" fill="#d1d4e2"/>
      <path id="Path_994" data-name="Path 994" d="M63.422,98.917H51.684a.955.955,0,1,0,0,1.909H63.422a.955.955,0,1,0,0-1.909Z" transform="translate(-6.943 -37.122)" fill="#d1d4e2"/>
    </g>
    <rect id="Rectangle_261" data-name="Rectangle 261" width="38.046" height="11.049" rx="2" transform="translate(264.954 4243.648)" fill="#1f2649"/>
    <rect id="Rectangle_262" data-name="Rectangle 262" width="38.046" height="11.049" rx="2" transform="translate(264.954 4277.198)" fill="#1f2649"/>
    <line id="Line_124" data-name="Line 124" x2="34.915" transform="translate(266.82 4259.697)" fill="none" stroke="#d1d4e2" stroke-width="2"/>
    <line id="Line_131" data-name="Line 131" x2="19.439" transform="translate(239.561 4241.697)" fill="none" stroke="#d1d4e2" stroke-width="2"/>
    <line id="Line_134" data-name="Line 134" x2="23.634" transform="translate(235.366 4256.697)" fill="none" stroke="#d1d4e2" stroke-width="2"/>
    <line id="Line_144" data-name="Line 144" x2="23.634" transform="translate(235.366 4286.697)" fill="none" stroke="#d1d4e2" stroke-width="2"/>
    <line id="Line_137" data-name="Line 137" x2="14.105" transform="translate(244.895 4271.697)" fill="none" stroke="#d1d4e2" stroke-width="2"/>
    <line id="Line_140" data-name="Line 140" x2="19.439" transform="translate(239.561 4301.697)" fill="none" stroke="#d1d4e2" stroke-width="2"/>
    <line id="Line_129" data-name="Line 129" x2="34.915" transform="translate(266.82 4293.247)" fill="none" stroke="#d1d4e2" stroke-width="2"/>
    <line id="Line_125" data-name="Line 125" x2="34.915" transform="translate(266.82 4264.697)" fill="none" stroke="#d1d4e2" stroke-width="2"/>
    <line id="Line_130" data-name="Line 130" x2="23.634" transform="translate(235.366 4246.697)" fill="none" stroke="#d1d4e2" stroke-width="2"/>
    <line id="Line_133" data-name="Line 133" x2="19.439" transform="translate(239.561 4261.697)" fill="none" stroke="#d1d4e2" stroke-width="2"/>
    <line id="Line_142" data-name="Line 142" x2="14.105" transform="translate(244.895 4291.697)" fill="none" stroke="#d1d4e2" stroke-width="2"/>
    <line id="Line_136" data-name="Line 136" x2="23.634" transform="translate(235.366 4276.697)" fill="none" stroke="#d1d4e2" stroke-width="2"/>
    <line id="Line_141" data-name="Line 141" x2="34.196" transform="translate(224.804 4306.697)" fill="none" stroke="#d1d4e2" stroke-width="2"/>
    <line id="Line_128" data-name="Line 128" x2="34.915" transform="translate(266.82 4298.247)" fill="none" stroke="#d1d4e2" stroke-width="2"/>
    <line id="Line_126" data-name="Line 126" x2="34.915" transform="translate(266.82 4269.697)" fill="none" stroke="#d1d4e2" stroke-width="2"/>
    <line id="Line_132" data-name="Line 132" x2="14.105" transform="translate(244.895 4251.697)" fill="none" stroke="#d1d4e2" stroke-width="2"/>
    <line id="Line_135" data-name="Line 135" x2="34.196" transform="translate(224.804 4266.697)" fill="none" stroke="#d1d4e2" stroke-width="2"/>
    <line id="Line_143" data-name="Line 143" x2="23.634" transform="translate(235.366 4296.697)" fill="none" stroke="#d1d4e2" stroke-width="2"/>
    <line id="Line_138" data-name="Line 138" x2="19.439" transform="translate(239.561 4281.697)" fill="none" stroke="#d1d4e2" stroke-width="2"/>
    <line id="Line_139" data-name="Line 139" x2="19.439" transform="translate(239.561 4311.697)" fill="none" stroke="#d1d4e2" stroke-width="2"/>
    <line id="Line_127" data-name="Line 127" x2="34.915" transform="translate(266.82 4303.247)" fill="none" stroke="#d1d4e2" stroke-width="2"/>
    <circle id="Ellipse_322" data-name="Ellipse 322" cx="25" cy="25" r="25" transform="translate(295 4252.198)" fill="#ff9800"/>
    <g id="Group_483" data-name="Group 483" transform="translate(-26 129.502)">
      <g id="Ellipse_114" data-name="Ellipse 114" transform="translate(341.235 4143.352)" fill="none" stroke="#fff" stroke-width="2">
        <circle cx="4.765" cy="4.765" r="4.765" stroke="none"/>
        <circle cx="4.765" cy="4.765" r="3.765" fill="none"/>
      </g>
      <g id="setting" transform="translate(329.806 4131.722)">
        <path id="Path_504" data-name="Path 504" d="M18.466,32.79H13.922a2.343,2.343,0,0,1-2.3-1.843l-.577-2.559a12.55,12.55,0,0,1-2.67-1.549l-2.489.786a2.374,2.374,0,0,1-2.765-1.077L.86,22.629a2.389,2.389,0,0,1,.44-2.917l1.929-1.773a13.568,13.568,0,0,1,0-3.088l-1.92-1.765a2.385,2.385,0,0,1-.455-2.911L3.132,6.233A2.365,2.365,0,0,1,5.887,5.166l2.492.786A12.584,12.584,0,0,1,11.049,4.4l.577-2.56A2.343,2.343,0,0,1,13.922,0h4.544a2.343,2.343,0,0,1,2.3,1.843L21.34,4.4a12.55,12.55,0,0,1,2.67,1.549L26.5,5.166a2.371,2.371,0,0,1,2.765,1.077l2.265,3.918a2.389,2.389,0,0,1-.44,2.917L29.16,14.851a13.673,13.673,0,0,1,0,3.088L31.081,19.7l.008.008a2.381,2.381,0,0,1,.447,2.9l-2.279,3.942A2.366,2.366,0,0,1,26.5,27.624l-2.493-.787a12.584,12.584,0,0,1-2.67,1.549l-.577,2.56a2.34,2.34,0,0,1-2.3,1.843ZM8.59,24.673a1.031,1.031,0,0,1,.653.234,10.513,10.513,0,0,0,3.044,1.767,1.027,1.027,0,0,1,.645.736l.7,3.088a.31.31,0,0,0,.3.243h4.544a.311.311,0,0,0,.3-.242l.7-3.088a1.024,1.024,0,0,1,.645-.736,10.544,10.544,0,0,0,3.044-1.767,1.021,1.021,0,0,1,.96-.187l3.007.95a.305.305,0,0,0,.362-.127L29.76,21.6a.332.332,0,0,0-.067-.395l-2.306-2.12a1.019,1.019,0,0,1-.318-.907,12.088,12.088,0,0,0,.137-1.786,11.919,11.919,0,0,0-.137-1.786,1.026,1.026,0,0,1,.318-.907L29.7,11.576a.333.333,0,0,0,.055-.4L27.488,7.258a.311.311,0,0,0-.372-.137l-3,.948a1.021,1.021,0,0,1-.96-.187,10.513,10.513,0,0,0-3.044-1.767,1.027,1.027,0,0,1-.645-.736l-.7-3.088a.32.32,0,0,0-.3-.242H13.922a.311.311,0,0,0-.3.242l-.7,3.089a1.025,1.025,0,0,1-.644.736A10.513,10.513,0,0,0,9.242,7.883a1.024,1.024,0,0,1-.96.187l-3.007-.95a.307.307,0,0,0-.362.127L2.633,11.187a.333.333,0,0,0,.07.4l2.3,2.118a1.019,1.019,0,0,1,.318.907A12.088,12.088,0,0,0,5.189,16.4a11.919,11.919,0,0,0,.137,1.786,1.026,1.026,0,0,1-.318.907L2.7,21.214a.333.333,0,0,0-.055.4l2.265,3.917a.307.307,0,0,0,.372.137l3-.948a1,1,0,0,1,.309-.048Z" transform="translate(0)" fill="#fff"/>
      </g>
    </g>
  </g>
</svg>
