<svg xmlns="http://www.w3.org/2000/svg" width="116.434" height="69.996" viewBox="0 0 116.434 69.996">
  <g id="Group_412" data-name="Group 412" transform="translate(-58.791 -2984)">
    <g id="responsive" transform="translate(91 2962)">
      <g id="Group_399" data-name="Group 399" transform="translate(0 32)">
        <g id="Group_398" data-name="Group 398" transform="translate(0 0)">
          <path id="Path_612" data-name="Path 612" d="M80.764,57H74.611V27.769A5.776,5.776,0,0,0,68.842,22H.384a5.776,5.776,0,0,0-5.769,5.769V51.075h-7.154A3.461,3.461,0,0,0-16,54.536v34A3.461,3.461,0,0,0-12.539,92H57.3a1.154,1.154,0,0,0,1.154-1.154,5.776,5.776,0,0,0-5.769-5.769H39.228V78.15H63.073V88.534A3.461,3.461,0,0,0,66.534,92h14.23a3.461,3.461,0,0,0,3.461-3.461V60.459A3.461,3.461,0,0,0,80.764,57ZM15.383,88.534a1.154,1.154,0,0,1-1.154,1.154H-12.539a1.154,1.154,0,0,1-1.154-1.154V87.38H15.383Zm0-3.461H-13.692V54.536a1.154,1.154,0,0,1,1.154-1.154H14.229a1.154,1.154,0,0,1,1.154,1.154ZM52.689,87.38a3.468,3.468,0,0,1,3.264,2.308H17.478a3.422,3.422,0,0,0,.212-1.154V87.38Zm-35-2.308V78.15H30v6.923Zm14.615,0V78.15H36.92v6.923Zm30.768-9.23H17.69V68.92H63.073Zm0-15.384v6.154H17.69V54.536a3.42,3.42,0,0,0-.395-1.57c.017-.016-1.614-1.6-1.638-1.574a3.418,3.418,0,0,0-1.428-.317H-3.077V27.769A3.461,3.461,0,0,1,.384,24.308H68.842A3.461,3.461,0,0,1,72.3,27.769V57H66.534A3.461,3.461,0,0,0,63.073,60.459ZM81.918,88.534a1.154,1.154,0,0,1-1.154,1.154H66.534a1.154,1.154,0,0,1-1.154-1.154V87.38H81.918Zm0-3.461H65.38V60.459a1.154,1.154,0,0,1,1.154-1.154h14.23a1.154,1.154,0,0,1,1.154,1.154Z" transform="translate(0 -32)" fill="#d1d4e2"/>
        </g>
      </g>
      <g id="Group_409" data-name="Group 409" transform="translate(33.476 71.228)">
        <g id="Group_408" data-name="Group 408">
          <path id="Path_617" data-name="Path 617" d="M233.279,304h-.012a1.16,1.16,0,1,0,.012,0Z" transform="translate(-232.12 -304)" fill="#d1d4e2"/>
        </g>
      </g>
      <g id="Group_411" data-name="Group 411" transform="translate(31.152 26.615)">
        <g id="Group_410" data-name="Group 410" transform="translate(0 0)">
          <path id="Path_618" data-name="Path 618" d="M221.769,64h-4.615a1.154,1.154,0,1,0,0,2.308h4.615a1.154,1.154,0,1,0,0-2.308Z" transform="translate(-216 -64)" fill="#d1d4e2"/>
        </g>
      </g>
    </g>
    <path id="Icon_awesome-play" data-name="Icon awesome-play" d="M13.346,6.753,2.277.209A1.5,1.5,0,0,0,0,1.508V14.592a1.508,1.508,0,0,0,2.277,1.3L13.346,9.35A1.508,1.508,0,0,0,13.346,6.753Z" transform="translate(119.645 3001.162)" fill="#ff9800"/>
    <path id="Icon_awesome-play-2" data-name="Icon awesome-play" d="M8.342,4.222,1.423.131A.938.938,0,0,0,0,.943V9.122a.943.943,0,0,0,1.423.812L8.342,5.845A.943.943,0,0,0,8.342,4.222Z" transform="translate(87.645 3026.166)" fill="#ff9800"/>
    <path id="Icon_awesome-play-3" data-name="Icon awesome-play" d="M5.027,2.545.858.08A.565.565,0,0,0,0,.569V5.5a.568.568,0,0,0,.858.489L5.027,3.523A.568.568,0,0,0,5.027,2.545Z" transform="translate(162.645 3032.231)" fill="#ff9800"/>
    <g id="live-streaming" transform="matrix(0.809, 0.588, -0.588, 0.809, 68.162, 2987.979)">
      <path id="Path_515" data-name="Path 515" d="M41.267,26.584a1.149,1.149,0,0,0-.33,1.591,4.577,4.577,0,0,1,0,5.028,1.149,1.149,0,1,0,1.921,1.261,6.875,6.875,0,0,0,0-7.55,1.149,1.149,0,0,0-1.591-.33Z" transform="translate(-40.748 -19.04)" fill="#1f2649"/>
      <path id="Path_516" data-name="Path 516" d="M48.266,21.461a1.149,1.149,0,0,0-.33,1.591,11.718,11.718,0,0,1,0,12.876,1.149,1.149,0,1,0,1.921,1.261,14.015,14.015,0,0,0,0-15.4A1.149,1.149,0,0,0,48.266,21.461Z" transform="translate(-42.385 -17.842)" fill="#1f2649"/>
      <path id="Path_517" data-name="Path 517" d="M58.39,17.312a1.149,1.149,0,0,0-1.921,1.262,17.961,17.961,0,0,1,0,19.738,1.149,1.149,0,1,0,1.921,1.261A20.258,20.258,0,0,0,58.39,17.312Z" transform="translate(-44.381 -16.794)" fill="#1f2649"/>
    </g>
  </g>
</svg>
