<svg xmlns="http://www.w3.org/2000/svg" width="51.39" height="46.05" viewBox="0 0 51.39 46.05">
  <g id="newspaper-folded" transform="translate(0 -20)">
    <path id="Path_969" data-name="Path 969" d="M71.4,336H61.027a1.027,1.027,0,0,0,0,2.054H71.4a1.027,1.027,0,0,0,0-2.054Z" transform="translate(-49.838 -281.166)" fill="#d1d4e2"/>
    <path id="Path_970" data-name="Path 970" d="M222.4,336H212.027a1.027,1.027,0,0,0,0,2.054H222.4a1.027,1.027,0,0,0,0-2.054Z" transform="translate(-185.332 -281.166)" fill="#d1d4e2"/>
    <path id="Path_971" data-name="Path 971" d="M86.905,86H61.027a1.027,1.027,0,0,0,0,2.054H86.905a1.027,1.027,0,0,0,0-2.054Z" transform="translate(-49.838 -56.838)" fill="#d1d4e2"/>
    <path id="Path_972" data-name="Path 972" d="M222.4,136H212.027a1.027,1.027,0,0,0,0,2.054H222.4a1.027,1.027,0,1,0,0-2.054Z" transform="translate(-185.332 -101.704)" fill="#d1d4e2"/>
    <path id="Path_973" data-name="Path 973" d="M222.4,186H212.027a1.027,1.027,0,0,0,0,2.054H222.4a1.027,1.027,0,1,0,0-2.054Z" transform="translate(-185.332 -146.569)" fill="#d1d4e2"/>
    <path id="Path_974" data-name="Path 974" d="M222.4,236H212.027a1.027,1.027,0,0,0,0,2.054H222.4a1.027,1.027,0,0,0,0-2.054Z" transform="translate(-185.332 -191.435)" fill="#d1d4e2"/>
    <path id="Path_975" data-name="Path 975" d="M222.4,286H212.027a1.027,1.027,0,0,0,0,2.054H222.4a1.027,1.027,0,1,0,0-2.054Z" transform="translate(-185.332 -236.3)" fill="#d1d4e2"/>
    <path id="Path_976" data-name="Path 976" d="M71.4,286H61.027a1.027,1.027,0,0,0,0,2.054H71.4a1.027,1.027,0,0,0,0-2.054Z" transform="translate(-49.838 -236.3)" fill="#d1d4e2"/>
    <path id="Path_977" data-name="Path 977" d="M71.4,136H61.027A1.027,1.027,0,0,0,60,137.027V147.4a1.027,1.027,0,0,0,1.027,1.027H71.4a1.027,1.027,0,0,0,1.027-1.027V137.027A1.027,1.027,0,0,0,71.4,136Zm-1.027,10.372-3.416-3.416-4.9-4.9Z" transform="translate(-49.838 -101.704)" fill="#ff9800"/>
    <path id="Path_978" data-name="Path 978" d="M49.336,25.135H46.255V22.054A2.056,2.056,0,0,0,44.2,20H2.054A2.056,2.056,0,0,0,0,22.054V60.915A5.14,5.14,0,0,0,5.135,66.05H46.255a5.14,5.14,0,0,0,5.135-5.135V27.188A2.056,2.056,0,0,0,49.336,25.135Zm0,35.781A3.084,3.084,0,0,1,46.255,64H5.135a3.084,3.084,0,0,1-3.081-3.081V22.054H44.2V59.375a2.57,2.57,0,0,0,2.567,2.567,1.027,1.027,0,1,0,0-2.054.514.514,0,0,1-.513-.513V27.188h3.081Z" fill="#d1d4e2"/>
  </g>
</svg>
