<svg id="Component_21_1" data-name="Component 21 – 1" xmlns="http://www.w3.org/2000/svg" width="58.431" height="49.063" viewBox="0 0 58.431 49.063">
  <g id="servers" transform="translate(-5 -25.129)">
    <g id="Group_164" data-name="Group 164" transform="translate(5 25.129)">
      <g id="Group_163" data-name="Group 163" transform="translate(0 0)">
        <path id="Path_215" data-name="Path 215" d="M62.29,68.37a4.435,4.435,0,0,0-8.588,0H37.993A4.435,4.435,0,0,0,34.825,65.2v-6.81H56.87a5.55,5.55,0,0,0,5.544-5.544V46.195a5.523,5.523,0,0,0-2.252-4.435,5.523,5.523,0,0,0,2.252-4.435V30.673a5.523,5.523,0,0,0-2.252-4.435,6.7,6.7,0,0,0-3.275-1.109c-7.762.011-46.325,0-46.325,0A6.232,6.232,0,0,0,7.27,26.238a5.523,5.523,0,0,0-2.252,4.435v6.652A5.523,5.523,0,0,0,7.27,41.76a5.523,5.523,0,0,0-2.252,4.435v6.652a5.55,5.55,0,0,0,5.544,5.544H32.607V65.2a4.435,4.435,0,0,0-3.169,3.169H13.73a4.435,4.435,0,1,0,0,2.217H29.438a4.414,4.414,0,0,0,8.555,0H53.7A4.435,4.435,0,1,0,62.29,68.37ZM9.453,71.7a2.217,2.217,0,1,1,2.217-2.217A2.217,2.217,0,0,1,9.453,71.7ZM56.87,25.129ZM7.235,37.325V30.673a3.326,3.326,0,0,1,3.326-3.326H56.87A3.326,3.326,0,0,1,60.2,30.673v6.652a3.326,3.326,0,0,1-3.326,3.326H10.562A3.326,3.326,0,0,1,7.235,37.325Zm3.326,18.849a3.326,3.326,0,0,1-3.326-3.326V46.195a3.326,3.326,0,0,1,3.326-3.326H56.87A3.326,3.326,0,0,1,60.2,46.195v6.652a3.326,3.326,0,0,1-3.326,3.326ZM33.716,71.7a2.217,2.217,0,1,1,2.217-2.217A2.217,2.217,0,0,1,33.716,71.7Zm24.263,0A2.217,2.217,0,1,1,60.2,69.478,2.217,2.217,0,0,1,57.979,71.7Z" transform="translate(-5 -25.129)" fill="#d1d4e2"/>
      </g>
    </g>
    <g id="Group_168" data-name="Group 168" transform="translate(10.758 30.673)">
      <g id="Group_167" data-name="Group 167" transform="translate(0 0)">
        <path id="Path_217" data-name="Path 217" d="M54.78,160.124H49.237a1.109,1.109,0,0,0-1.109,1.109v4.435a1.109,1.109,0,0,0,1.109,1.109H54.78a1.109,1.109,0,0,0,1.109-1.109v-4.435A1.109,1.109,0,0,0,54.78,160.124Zm-1.109,4.435H50.345v-2.217h3.326Z" transform="translate(-48.128 -160.124)" fill="#ff9800"/>
      </g>
    </g>
    <g id="Group_170" data-name="Group 170" transform="translate(10.758 46.195)">
      <g id="Group_169" data-name="Group 169">
        <path id="Path_218" data-name="Path 218" d="M54.78,272.124H49.237a1.109,1.109,0,0,0-1.109,1.109v4.435a1.109,1.109,0,0,0,1.109,1.109H54.78a1.109,1.109,0,0,0,1.109-1.109v-4.435A1.109,1.109,0,0,0,54.78,272.124Zm-1.109,4.435H50.345v-2.218h3.326Z" transform="translate(-48.128 -272.124)" fill="#d1d4e2"/>
      </g>
    </g>
    <g id="Group_176" data-name="Group 176" transform="translate(43.37 30.673)">
      <g id="Group_175" data-name="Group 175">
        <path id="Path_221" data-name="Path 221" d="M348.324,152.124H337.237a1.109,1.109,0,0,0,0,2.217h11.087a1.109,1.109,0,1,0,0-2.217Z" transform="translate(-336.128 -152.124)" fill="#ff9800"/>
      </g>
    </g>
    <g id="Group_178" data-name="Group 178" transform="translate(43.37 35.108)">
      <g id="Group_177" data-name="Group 177" transform="translate(0 0)">
        <path id="Path_222" data-name="Path 222" d="M348.324,184.124H337.237a1.109,1.109,0,0,0,0,2.217h11.087a1.109,1.109,0,1,0,0-2.217Z" transform="translate(-336.128 -184.124)" fill="#ff9800"/>
      </g>
    </g>
    <g id="Group_180" data-name="Group 180" transform="translate(43.37 46.195)">
      <g id="Group_179" data-name="Group 179">
        <path id="Path_223" data-name="Path 223" d="M348.324,264.124H337.237a1.109,1.109,0,0,0,0,2.217h11.087a1.109,1.109,0,1,0,0-2.217Z" transform="translate(-336.128 -264.124)" fill="#d1d4e2"/>
      </g>
    </g>
    <g id="Group_182" data-name="Group 182" transform="translate(43.37 50.63)">
      <g id="Group_181" data-name="Group 181">
        <path id="Path_224" data-name="Path 224" d="M348.324,296.124H337.237a1.109,1.109,0,0,0,0,2.217h11.087a1.109,1.109,0,1,0,0-2.217Z" transform="translate(-336.128 -296.124)" fill="#d1d4e2"/>
      </g>
    </g>
  </g>
  <circle id="Ellipse_327" data-name="Ellipse 327" cx="5" cy="5" r="5" transform="translate(48.431 39.063)" fill="#ff9800"/>
  <circle id="Ellipse_328" data-name="Ellipse 328" cx="5" cy="5" r="5" transform="translate(23.431 39.063)" fill="#ff9800"/>
  <circle id="Ellipse_329" data-name="Ellipse 329" cx="5" cy="5" r="5" transform="translate(23.431 4.063)" fill="#ff9800"/>
  <path id="Path_1006" data-name="Path 1006" d="M15852.817,5958.318H15828.7v-35.412" transform="translate(-15799.985 -5913.938)" fill="none" stroke="#ff9800" stroke-width="2"/>
</svg>
