<svg xmlns="http://www.w3.org/2000/svg" width="58.034" height="56.071" viewBox="0 0 58.034 56.071">
  <g id="Group_387" data-name="Group 387" transform="translate(-824.98 -3205.611)">
    <g id="servers" transform="translate(824.98 3205.611)">
      <g id="Group_164" data-name="Group 164" transform="translate(0 0)">
        <g id="Group_163" data-name="Group 163" transform="translate(0 0)">
          <path id="Path_215" data-name="Path 215" d="M57.91,59.36a3.867,3.867,0,0,0-7.488,0H32.747A3.867,3.867,0,0,0,29.984,56.6V50.66h23.2a4.839,4.839,0,0,0,4.834-4.834v-5.8a4.816,4.816,0,0,0-1.963-3.867,4.816,4.816,0,0,0,1.963-3.867v-5.8a4.816,4.816,0,0,0-1.963-3.867,4.816,4.816,0,0,0,1.963-3.867v-5.8a4.839,4.839,0,0,0-4.834-4.834H4.849A4.839,4.839,0,0,0,.016,12.958v5.8a4.816,4.816,0,0,0,1.963,3.867A4.816,4.816,0,0,0,.016,26.492v5.8a4.816,4.816,0,0,0,1.963,3.867A4.816,4.816,0,0,0,.016,40.026v5.8A4.839,4.839,0,0,0,4.849,50.66h23.2V56.6a3.867,3.867,0,0,0-2.763,2.763H7.612a3.867,3.867,0,1,0,0,1.933H25.288a3.848,3.848,0,0,0,7.459,0H50.422A3.867,3.867,0,1,0,57.91,59.36ZM3.883,62.26a1.933,1.933,0,1,1,1.933-1.933A1.933,1.933,0,0,1,3.883,62.26Zm-1.933-43.5v-5.8a2.9,2.9,0,0,1,2.9-2.9H53.185a2.9,2.9,0,0,1,2.9,2.9v5.8a2.9,2.9,0,0,1-2.9,2.9H4.849A2.9,2.9,0,0,1,1.949,18.758Zm0,13.534v-5.8a2.9,2.9,0,0,1,2.9-2.9H53.185a2.9,2.9,0,0,1,2.9,2.9v5.8a2.9,2.9,0,0,1-2.9,2.9H4.849A2.9,2.9,0,0,1,1.949,32.292Zm2.9,16.434a2.9,2.9,0,0,1-2.9-2.9v-5.8a2.9,2.9,0,0,1,2.9-2.9H53.185a2.9,2.9,0,0,1,2.9,2.9v5.8a2.9,2.9,0,0,1-2.9,2.9ZM29.017,62.26a1.933,1.933,0,1,1,1.933-1.933A1.933,1.933,0,0,1,29.017,62.26Zm25.135,0a1.933,1.933,0,1,1,1.933-1.933A1.933,1.933,0,0,1,54.152,62.26Z" transform="translate(0 -8.124)" fill="#d1d4e2"/>
        </g>
      </g>
      <g id="Group_166" data-name="Group 166" transform="translate(5.816 4.834)">
        <g id="Group_165" data-name="Group 165">
          <path id="Path_216" data-name="Path 216" d="M53.928,48.124H49.095a.967.967,0,0,0-.967.967v3.867a.967.967,0,0,0,.967.967h4.834a.967.967,0,0,0,.967-.967V49.091A.967.967,0,0,0,53.928,48.124Zm-.967,3.867h-2.9V50.057h2.9Z" transform="translate(-48.128 -48.124)" fill="#d1d4e2"/>
        </g>
      </g>
      <g id="Group_168" data-name="Group 168" transform="translate(5.816 18.368)">
        <g id="Group_167" data-name="Group 167" transform="translate(0 0)">
          <path id="Path_217" data-name="Path 217" d="M53.928,160.124H49.095a.967.967,0,0,0-.967.967v3.867a.967.967,0,0,0,.967.967h4.834a.967.967,0,0,0,.967-.967v-3.867A.967.967,0,0,0,53.928,160.124Zm-.967,3.867h-2.9v-1.933h2.9Z" transform="translate(-48.128 -160.124)" fill="#d1d4e2"/>
        </g>
      </g>
      <g id="Group_170" data-name="Group 170" transform="translate(5.816 31.902)">
        <g id="Group_169" data-name="Group 169">
          <path id="Path_218" data-name="Path 218" d="M53.928,272.124H49.095a.967.967,0,0,0-.967.967v3.867a.967.967,0,0,0,.967.967h4.834a.967.967,0,0,0,.967-.967v-3.867A.967.967,0,0,0,53.928,272.124Zm-.967,3.867h-2.9v-1.933h2.9Z" transform="translate(-48.128 -272.124)" fill="#d1d4e2"/>
        </g>
      </g>
    </g>
    <g id="Layer_2" data-name="Layer 2" transform="translate(841.18 3225.095)">
      <path id="Path_416" data-name="Path 416" d="M29.016,14.281V6.611a.828.828,0,0,0-.5-.76L18.589,1.568a.828.828,0,0,0-.662,0L8,5.852a.828.828,0,0,0-.5.76v7.67a10.609,10.609,0,0,0,3.83,8.176l6.4,5.333a.828.828,0,0,0,1.059,0l6.4-5.333a10.609,10.609,0,0,0,3.83-8.176Z" transform="translate(-5.44 -12.664)" fill="#ff9800"/>
    </g>
  </g>
</svg>
