<svg xmlns="http://www.w3.org/2000/svg" xmlns:xlink="http://www.w3.org/1999/xlink" width="634.89" height="657.274" viewBox="0 0 634.89 657.274">
  <defs>
    <clipPath id="clip-path">
      <rect id="Rectangle_348" data-name="Rectangle 348" width="624.307" height="120.83" fill="none"/>
    </clipPath>
    <clipPath id="clip-path-2">
      <path id="Path_47" data-name="Path 47" d="M281.447,1116.844a35.021,35.021,0,0,0-10.786-2.216c-20.43-.876-36.607,16.63-35.705,39.094a44.43,44.43,0,0,0,1.425,9.5,16.179,16.179,0,0,0-5.621-1.1c-9.324-.144-16.625,7.822-16.22,17.781.359,8.836,6.658,16.161,14.583,17.666L359,1197.442c.724,0,1.438-.045,2.145-.11,13.34-1.3,23.24-14.127,22.665-29.736-.605-16.431-12.624-30.123-27.071-30.58a22.663,22.663,0,0,0-10.1,2,41.047,41.047,0,0,0,.173-5.692c-.767-20.376-16.031-37.727-34.442-38.752q-.861-.048-1.709-.048c-13.533,0-24.79,9.036-29.21,22.316" transform="translate(-214.523 -1094.527)" fill="#717795"/>
    </clipPath>
    <clipPath id="clip-path-3">
      <path id="Path_68" data-name="Path 68" d="M1902.633,829.327a31.834,31.834,0,0,0-9.4-1.966c-17.493-.917-31.061,13.256-30.311,31.652a36.334,36.334,0,0,0,1.187,7.818,13.95,13.95,0,0,0-4.676-1.076c-7.674-.4-13.633,5.819-13.3,13.889a16.224,16.224,0,0,0,11.95,14.97l115.743,6.458c.7.037,1.383.039,2.064.021,12.953-.429,22.7-11.336,22.134-25.29-.6-14.686-12.4-27.182-26.368-27.914a22.953,22.953,0,0,0-9.619,1.523,33.781,33.781,0,0,0,.163-4.964c-.725-17.793-15.034-32.941-31.954-33.827q-.78-.041-1.55-.041a27.34,27.34,0,0,0-26.057,18.748" transform="translate(-1846.114 -810.579)" fill="none"/>
    </clipPath>
    <clipPath id="clip-path-4">
      <path id="Path_47-2" data-name="Path 47" d="M259.871,1109.649a23.723,23.723,0,0,0-7.309-1.5c-13.843-.594-24.805,11.268-24.194,26.49a30.105,30.105,0,0,0,.965,6.438,10.963,10.963,0,0,0-3.809-.746c-6.318-.1-11.265,5.3-10.991,12.048a12.614,12.614,0,0,0,9.882,11.971l88-.084c.49,0,.974-.031,1.453-.074,9.039-.882,15.748-9.573,15.358-20.149-.41-11.134-8.554-20.411-18.344-20.721a15.357,15.357,0,0,0-6.844,1.357,27.816,27.816,0,0,0,.117-3.857c-.52-13.807-10.863-25.564-23.338-26.259-.389-.022-.774-.032-1.158-.032-9.17,0-16.8,6.123-19.793,15.122" transform="translate(-214.523 -1094.527)" fill="#1f2649"/>
    </clipPath>
    <clipPath id="clip-path-5">
      <path id="Path_68-2" data-name="Path 68" d="M1884.412,823.283a21.572,21.572,0,0,0-6.371-1.332c-11.854-.621-21.047,8.983-20.539,21.448a24.631,24.631,0,0,0,.8,5.3,9.452,9.452,0,0,0-3.168-.729c-5.2-.272-9.238,3.943-9.015,9.411a10.993,10.993,0,0,0,8.1,10.143l78.428,4.376c.471.025.937.026,1.4.014,8.777-.291,15.384-7.681,15-17.137-.406-9.951-8.4-18.419-17.867-18.914a15.552,15.552,0,0,0-6.518,1.032,22.907,22.907,0,0,0,.11-3.364c-.491-12.057-10.187-22.321-21.652-22.922q-.529-.028-1.05-.028a18.525,18.525,0,0,0-17.656,12.7" transform="translate(-1846.114 -810.579)" fill="none"/>
    </clipPath>
    <clipPath id="clip-path-6">
      <path id="Path_47-3" data-name="Path 47" d="M290.732,1119.94a39.865,39.865,0,0,0-12.283-2.524c-23.264-1-41.686,18.937-40.659,44.517a50.592,50.592,0,0,0,1.622,10.819,18.421,18.421,0,0,0-6.4-1.254c-10.618-.164-18.931,8.907-18.47,20.248.409,10.062,7.581,18.4,16.606,20.117l147.894-.142c.824,0,1.638-.051,2.442-.125,15.191-1.483,26.465-16.088,25.81-33.862-.689-18.711-14.375-34.3-30.827-34.823a25.809,25.809,0,0,0-11.5,2.281,46.744,46.744,0,0,0,.2-6.481c-.874-23.2-18.255-42.961-39.221-44.129-.654-.037-1.3-.055-1.946-.055-15.411,0-28.23,10.29-33.263,25.413" transform="translate(-214.523 -1094.527)" fill="#ff9800"/>
    </clipPath>
    <clipPath id="clip-path-7">
      <path id="Path_68-3" data-name="Path 68" d="M1910.475,831.928a36.254,36.254,0,0,0-10.707-2.239c-19.92-1.044-35.371,15.1-34.517,36.043a41.392,41.392,0,0,0,1.351,8.9,15.885,15.885,0,0,0-5.325-1.226c-8.739-.458-15.525,6.626-15.149,15.816a18.475,18.475,0,0,0,13.607,17.047l131.8,7.354c.792.042,1.574.044,2.35.023,14.75-.489,25.854-12.909,25.205-28.8-.682-16.723-14.124-30.953-30.026-31.786a26.135,26.135,0,0,0-10.953,1.734,38.507,38.507,0,0,0,.185-5.653c-.826-20.262-17.12-37.511-36.388-38.521q-.889-.047-1.765-.046c-13.875,0-25.248,8.668-29.672,21.349" transform="translate(-1846.114 -810.579)" fill="none"/>
    </clipPath>
  </defs>
  <g id="Group_551" data-name="Group 551" transform="translate(-1068.193 -3061.963)">
    <path id="Path_1046" data-name="Path 1046" d="M659.148,288.3c43.162-76.375-56.656-75.541-133.916-149.367s-199.158-82.41-300.453-36.055S-22.539,320.425,119.809,329.417,615.986,364.673,659.148,288.3Z" transform="translate(1033.502 3377.508)" fill="#f4f4f8"/>
    <path id="Path_1051" data-name="Path 1051" d="M223.334,64.05l-2.032-1.09a.734.734,0,0,1-.3-.3l-1.09-2.034a.732.732,0,0,0-1.289,0l-1.089,2.034a.734.734,0,0,1-.3.3L215.2,64.05a.731.731,0,0,0,0,1.289l2.032,1.09a.734.734,0,0,1,.3.3l1.089,2.034a.732.732,0,0,0,1.289,0L221,66.727a.734.734,0,0,1,.3-.3l2.032-1.09a.731.731,0,0,0,0-1.289" transform="translate(1208.395 3235.758)" fill="#717795"/>
    <path id="Path_1049" data-name="Path 1049" d="M211,5.069A5.07,5.07,0,1,1,205.929,0,5.07,5.07,0,0,1,211,5.069" transform="translate(1341.648 3200.002)" fill="#717795"/>
    <path id="Path_1050" data-name="Path 1050" d="M131.341,75.935a3.392,3.392,0,1,1-3.391-3.391,3.392,3.392,0,0,1,3.391,3.391" transform="translate(1197.762 3353.072)" fill="#717795"/>
    <path id="Path_1052" data-name="Path 1052" d="M143.311,18.525l-2.562-1.374a.922.922,0,0,1-.377-.377L139,14.212a.921.921,0,0,0-1.624,0L136,16.774a.922.922,0,0,1-.377.377l-2.562,1.374a.921.921,0,0,0,0,1.624l2.562,1.374A.922.922,0,0,1,136,21.9l1.374,2.562a.921.921,0,0,0,1.624,0l1.374-2.562a.922.922,0,0,1,.377-.377l2.562-1.374a.921.921,0,0,0,0-1.624" transform="translate(1043.924 3271.053)" fill="#717795"/>
    <path id="Path_1053" data-name="Path 1053" d="M263.848,53.538l-3.1-1.661a1.117,1.117,0,0,1-.457-.455l-1.66-3.1a1.115,1.115,0,0,0-1.966,0l-1.66,3.1a1.122,1.122,0,0,1-.455.455l-3.1,1.661a1.115,1.115,0,0,0,0,1.964l3.1,1.661a1.122,1.122,0,0,1,.455.455l1.66,3.1a1.115,1.115,0,0,0,1.966,0l1.66-3.1a1.117,1.117,0,0,1,.457-.455l3.1-1.661a1.115,1.115,0,0,0,0-1.964" transform="translate(1361.822 3346.063)" fill="#717795"/>
    <path id="Path_1054" data-name="Path 1054" d="M100.711,45.336l-2.836-1.521a1.012,1.012,0,0,1-.417-.418l-1.522-2.836a1.021,1.021,0,0,0-1.8,0L92.618,43.4a1.024,1.024,0,0,1-.418.418l-2.836,1.521a1.021,1.021,0,0,0,0,1.8L92.2,48.656a1.029,1.029,0,0,1,.418.417l1.521,2.836a1.02,1.02,0,0,0,1.8,0l1.522-2.836a1.017,1.017,0,0,1,.417-.417l2.836-1.522a1.02,1.02,0,0,0,0-1.8" transform="translate(1120.75 3385.594)" fill="#717795"/>
    <path id="Path_1055" data-name="Path 1055" d="M227.358,32.952l-2.075-1.113a.749.749,0,0,1-.306-.306l-1.113-2.075a.747.747,0,0,0-1.317,0l-1.113,2.075a.749.749,0,0,1-.306.306l-2.075,1.113a.746.746,0,0,0,0,1.316l2.075,1.114a.737.737,0,0,1,.306.3l1.113,2.077a.748.748,0,0,0,1.317,0l1.113-2.077a.737.737,0,0,1,.306-.3l2.075-1.114a.746.746,0,0,0,0-1.316" transform="translate(1183.639 3193.328)" fill="#717795"/>
    <rect id="Rectangle_346" data-name="Rectangle 346" width="22.188" height="104.209" transform="translate(1388.125 3562.428)" fill="#fff"/>
    <g id="Group_548" data-name="Group 548" transform="translate(1350.08 3415.244)">
      <path id="Path_1056" data-name="Path 1056" d="M184.893,138.9a8.114,8.114,0,1,0-16.228,0s-1.048,19.185,8.114,29.4c9.162-10.214,8.114-29.4,8.114-29.4" transform="translate(-127.275 14.23)" fill="#d1d4e2"/>
      <path id="Path_1057" data-name="Path 1057" d="M152.656,98.616s-30.385,14.715-18.345,58.108c0,0,6.428-21.813,27.043-27.462Z" transform="translate(-131.49 10.579)" fill="#1f2649"/>
      <path id="Path_1058" data-name="Path 1058" d="M202.53,98.616s30.385,14.715,18.345,58.108c0,0-6.428-21.813-27.043-27.462Z" transform="translate(-124.415 10.579)" fill="#1f2649"/>
      <path id="Path_1059" data-name="Path 1059" d="M187.324,135.132H166.671a1.746,1.746,0,0,1-1.7-1.358l-1.134-5a1.745,1.745,0,0,1,1.7-2.131h22.92a1.745,1.745,0,0,1,1.7,2.131l-1.134,5a1.745,1.745,0,0,1-1.7,1.358" transform="translate(-127.824 13.76)" fill="#717795"/>
      <path id="Union_5" data-name="Union 5" d="M18041.566-17755.227c-9.8-18.441-12.967-47.543-12.967-47.543-2.412-26.969,1.92-48.23,8-64.061h0a104.282,104.282,0,0,1,18.592-31.535,5.518,5.518,0,0,1,7.918-.387c8.795,8.322,15.006,19.482,19.191,31.922,6.547,19.436,8.131,42,6.8,61.754-2.3,34.291-13.543,49.85-13.543,49.85A44.875,44.875,0,0,0,18041.566-17755.227Z" transform="translate(-18009.23 17900.246)" fill="#ff9800" stroke="rgba(0,0,0,0)" stroke-miterlimit="10" stroke-width="1"/>
      <path id="Path_1062" data-name="Path 1062" d="M175.976,86.826s-14.019,31.856,0,69.732c0,0,15.579-31.605,0-69.732" transform="translate(-127.148 9.241)" fill="#1f2649"/>
      <path id="Path_1063" data-name="Path 1063" d="M195.949,62.076a17.635,17.635,0,1,1-17.636-17.635,17.636,17.636,0,0,1,17.636,17.635" transform="translate(-128.177 4.431)" fill="#1f2649"/>
      <path id="Path_1064" data-name="Path 1064" d="M190.007,61.527a12.243,12.243,0,1,1-12.243-12.243,12.243,12.243,0,0,1,12.243,12.243" transform="translate(-127.627 4.981)" fill="#fff"/>
    </g>
    <g id="Group_545" data-name="Group 545" transform="translate(1068.193 3598.406)">
      <g id="Group_544" data-name="Group 544" clip-path="url(#clip-path)">
        <path id="Path_1065" data-name="Path 1065" d="M221.537,255.012c0,26.257-21.59,47.541-48.224,47.541s-48.221-21.284-48.221-47.541,21.59-47.541,48.221-47.541,48.224,21.284,48.224,47.541" transform="translate(100.401 -149.347)" fill="#fff"/>
        <path id="Path_1066" data-name="Path 1066" d="M284.825,252.442c0,23.522-19.341,42.591-43.2,42.591s-43.2-19.069-43.2-42.591,19.341-42.591,43.2-42.591,43.2,19.069,43.2,42.591" transform="translate(179.598 -146.777)" fill="#fff"/>
        <path id="Path_1067" data-name="Path 1067" d="M236.255,229.876a33.784,33.784,0,1,1-33.78-33.3,33.545,33.545,0,0,1,33.78,33.3" transform="translate(147.489 -161.117)" fill="#fff"/>
        <path id="Path_1068" data-name="Path 1068" d="M191.093,214.918a23.536,23.536,0,1,1-23.533-23.2,23.369,23.369,0,0,1,23.533,23.2" transform="translate(120.849 -166.361)" fill="#fff"/>
        <path id="Path_1069" data-name="Path 1069" d="M208.615,201.886a16.081,16.081,0,1,1-16.078-15.851,15.966,15.966,0,0,1,16.078,15.851" transform="translate(155.873 -172.497)" fill="#fff"/>
        <path id="Path_1070" data-name="Path 1070" d="M213.733,226.995a28.5,28.5,0,1,1-28.5-28.094,28.3,28.3,0,0,1,28.5,28.094" transform="translate(134.579 -158.602)" fill="#fff"/>
        <path id="Path_1071" data-name="Path 1071" d="M192.581,321.044c-6.706,46.976-50.765,79.7-98.411,73.089s-80.839-50.048-74.136-97.021,50.763-79.7,98.409-73.089,80.841,50.046,74.138,97.021" transform="translate(-13.984 -132.389)" fill="#fff"/>
        <path id="Path_1072" data-name="Path 1072" d="M210.54,271.574c1.5,35.538-26.5,65.547-62.548,67.026S81.507,312.472,80,276.934s26.5-65.545,62.55-67.026,66.483,26.128,67.985,61.666" transform="translate(51.647 -146.777)" fill="#fff"/>
        <path id="Path_1073" data-name="Path 1073" d="M405.23,309.152c0,50.277-41.341,91.033-92.335,91.033s-92.335-40.757-92.335-91.033S261.9,218.119,312.9,218.119s92.335,40.757,92.335,91.033" transform="translate(203.502 -137.848)" fill="#fff"/>
        <path id="Path_1074" data-name="Path 1074" d="M254.1,285.07c0,35.569-29.246,64.4-65.325,64.4s-65.323-28.832-65.323-64.4,29.246-64.4,65.323-64.4S254.1,249.5,254.1,285.07" transform="translate(98.633 -135.094)" fill="#fff"/>
        <path id="Path_1075" data-name="Path 1075" d="M302.574,270.42c8.384,39.118-16.985,77.528-56.662,85.794s-78.639-16.746-87.023-55.863,16.985-77.528,56.664-85.794S294.19,231.3,302.574,270.42" transform="translate(135.172 -143.4)" fill="#fff"/>
      </g>
    </g>
    <g id="Group_106" data-name="Group 106" transform="translate(1472.834 3242.143)">
      <path id="Path_71" data-name="Path 71" d="M274.114,1122.918c18.6.956,34.009,18.33,34.784,38.8a41.02,41.02,0,0,1-.175,5.72,23.027,23.027,0,0,1,10.2-2.054c14.588.4,26.722,14.106,27.333,30.614.581,15.681-9.416,28.61-22.884,29.977-.713.068-1.435.113-2.165.12l-131.189.69c-8.009-1.478-14.374-8.815-14.737-17.7-.409-10.01,6.968-18.049,16.391-17.943a16.39,16.39,0,0,1,5.68,1.083,44.356,44.356,0,0,1-1.44-9.544c-.912-22.578,15.435-40.242,36.075-39.445a35.43,35.43,0,0,1,10.9,2.184c4.652-13.925,16.8-23.249,31.232-22.508" transform="translate(-167.466 -1115.986)" fill="#d1d4e2" style="mix-blend-mode: multiply;isolation: isolate"/>
      <g id="Group_77" data-name="Group 77" transform="translate(17.339)">
        <g id="Group_54" data-name="Group 54" clip-path="url(#clip-path-2)">
          <rect id="Rectangle_28" data-name="Rectangle 28" width="170.248" height="103.04" transform="translate(-0.389 0)" fill="#717795"/>
        </g>
      </g>
    </g>
    <g id="Group_549" data-name="Group 549" transform="translate(1223.607 3279.74)">
      <path id="Path_71-2" data-name="Path 71" d="M242.244,1122.9c12.6.648,23.045,12.421,23.57,26.293a27.8,27.8,0,0,1-.118,3.876,15.6,15.6,0,0,1,6.911-1.392c9.885.27,18.107,9.558,18.521,20.744.393,10.625-6.38,19.386-15.507,20.313-.483.046-.972.077-1.467.081l-88.895.468a12.629,12.629,0,0,1-9.986-11.991c-.277-6.783,4.722-12.23,11.107-12.159a11.1,11.1,0,0,1,3.849.734,30.057,30.057,0,0,1-.975-6.467c-.618-15.3,10.459-27.268,24.445-26.728a24.005,24.005,0,0,1,7.384,1.48c3.152-9.436,11.382-15.754,21.163-15.251" transform="translate(-169.979 -1118.208)" fill="#d1d4e2" style="mix-blend-mode: multiply;isolation: isolate"/>
      <g id="Group_77-2" data-name="Group 77" transform="translate(11.749)">
        <g id="Group_54-2" data-name="Group 54" clip-path="url(#clip-path-4)">
          <rect id="Rectangle_28-2" data-name="Rectangle 28" width="115.361" height="69.82" transform="translate(-0.263 0)" fill="#1f2649"/>
        </g>
      </g>
    </g>
    <g id="Group_550" data-name="Group 550" transform="translate(1243.809 3061.963)">
      <path id="Path_71-3" data-name="Path 71" d="M287.829,1122.924c21.175,1.089,38.728,20.874,39.61,44.186a46.714,46.714,0,0,1-.2,6.513,26.223,26.223,0,0,1,11.614-2.339c16.612.455,30.43,16.063,31.126,34.861.661,17.857-10.722,32.58-26.06,34.136-.812.077-1.634.128-2.466.136l-149.391.786c-9.12-1.683-16.368-10.038-16.782-20.151-.466-11.4,7.935-20.553,18.665-20.433a18.665,18.665,0,0,1,6.468,1.233,50.509,50.509,0,0,1-1.639-10.868c-1.038-25.71,17.576-45.825,41.08-44.917a40.341,40.341,0,0,1,12.409,2.487c5.3-15.857,19.128-26.474,35.565-25.63" transform="translate(-166.384 -1115.03)" fill="#e3cece" style="mix-blend-mode: multiply;isolation: isolate"/>
      <g id="Group_77-3" data-name="Group 77" transform="translate(19.744)">
        <g id="Group_54-3" data-name="Group 54" clip-path="url(#clip-path-6)">
          <rect id="Rectangle_28-3" data-name="Rectangle 28" width="193.869" height="117.336" transform="translate(-0.443 0)" fill="#ff9800"/>
        </g>
      </g>
    </g>
  </g>
</svg>
