<svg id="Component_23_1" data-name="Component 23 – 1" xmlns="http://www.w3.org/2000/svg" width="91" height="71" viewBox="0 0 91 71">
  <g id="Rectangle_214" data-name="Rectangle 214" fill="none" stroke="#d1d4e2" stroke-width="2">
    <rect width="91" height="62" rx="4" stroke="none"/>
    <rect x="1" y="1" width="89" height="60" rx="3" fill="none"/>
  </g>
  <g id="Rectangle_216" data-name="Rectangle 216" transform="translate(13 16)" fill="#f4f4f8" stroke="#1f2649" stroke-width="2">
    <rect width="65" height="55" rx="4" stroke="none"/>
    <rect x="1" y="1" width="63" height="53" rx="3" fill="none"/>
  </g>
  <g id="Rectangle_215" data-name="Rectangle 215" fill="none" stroke="#d1d4e2" stroke-width="2">
    <rect width="91" height="12" rx="4" stroke="none"/>
    <rect x="1" y="1" width="89" height="10" rx="3" fill="none"/>
  </g>
  <line id="Line_82" data-name="Line 82" x2="6" transform="translate(7.5 6)" fill="none" stroke="#d1d4e2" stroke-linecap="round" stroke-width="2"/>
  <line id="Line_83" data-name="Line 83" x2="6" transform="translate(18.5 6)" fill="none" stroke="#d1d4e2" stroke-linecap="round" stroke-width="2"/>
  <line id="Line_84" data-name="Line 84" x2="6" transform="translate(29.5 6)" fill="none" stroke="#d1d4e2" stroke-linecap="round" stroke-width="2"/>
  <line id="Line_85" data-name="Line 85" x2="4.988" y2="4.506" transform="translate(65.512 22.994)" fill="none" stroke="#d1d4e2" stroke-linecap="round" stroke-width="2"/>
  <line id="Line_86" data-name="Line 86" x1="4.988" y2="4.506" transform="translate(65.512 22.994)" fill="none" stroke="#d1d4e2" stroke-linecap="round" stroke-width="2"/>
  <g id="megaphone" transform="translate(48.006 20.872) rotate(45)">
    <path id="Path_636" data-name="Path 636" d="M14.49,23.56l-2.83,2.82a3.012,3.012,0,0,1-4.25,0L4.58,23.55a3.017,3.017,0,0,1,0-4.24l2.83-2.83Zm13.43-7.79L15.19,3.05a.97.97,0,0,0-.85-.29,1.008,1.008,0,0,0-.74.52L7.87,14.11l9.01,9.01,10.8-5.76a.989.989,0,0,0,.521-.73,1.013,1.013,0,0,0-.28-.86ZM6,27.79,3.17,24.96a4.768,4.768,0,0,1-.94-1.32,3.994,3.994,0,0,0,5.1,5.1A4.579,4.579,0,0,1,6,27.79Zm11.67-1.06-1.76-1.76L13.07,27.8a4.676,4.676,0,0,1-.78.63l1.84,1.84a2.511,2.511,0,0,0,3.54,0,2.518,2.518,0,0,0,0-3.54ZM21,4V2a1,1,0,1,0-2,0V4a1,1,0,0,0,2,0Zm9,7a1,1,0,0,0-1-1H27a1,1,0,0,0,0,2h2A1,1,0,0,0,30,11ZM24.707,7.707l2-2a1,1,0,0,0-1.414-1.414l-2,2a1,1,0,1,0,1.414,1.414Z" fill="#ff9800"/>
  </g>
</svg>
