<svg xmlns="http://www.w3.org/2000/svg" width="78.426" height="94.171" viewBox="0 0 78.426 94.171">
  <g id="Component_16_1" data-name="Component 16 – 1" transform="translate(2 2)">
    <g id="Icon_feather-file" data-name="Icon feather-file">
      <g id="Path_619" data-name="Path 619" transform="translate(-6 -3)" fill="#f4f4f8" stroke-linecap="round" stroke-linejoin="round">
        <path d="M 33.23491287231445 42.90713882446289 L 9.890701293945312 42.90713882446289 C 7.193961143493652 42.90713882446289 5.000001430511475 40.71318054199219 5.000001430511475 38.01642990112305 L 5.000001430511475 6.890719413757324 C 5.000001430511475 4.193969249725342 7.193961143493652 1.999999403953552 9.890701293945312 1.999999403953552 L 23.50815200805664 1.999999403953552 L 23.92236137390137 1.999999403953552 L 24.21526145935059 2.292889356613159 L 37.83272171020508 15.9103889465332 L 38.1256103515625 16.20328903198242 L 38.1256103515625 16.61750030517578 L 38.1256103515625 38.01642990112305 C 38.1256103515625 40.71318054199219 35.9316520690918 42.90713882446289 33.23491287231445 42.90713882446289 Z" stroke="none"/>
        <path d="M 9.890705108642578 3 C 7.741924285888672 3 6.000003814697266 4.741928100585938 6.000003814697266 6.890720367431641 L 6.000003814697266 38.01642990112305 C 6.000003814697266 40.16521072387695 7.741924285888672 41.90713882446289 9.890705108642578 41.90713882446289 L 33.23491287231445 41.90713882446289 C 35.38368225097656 41.90713882446289 37.12560272216797 40.16521072387695 37.12560272216797 38.01642990112305 L 37.12560272216797 16.61750030517578 L 23.50815391540527 3 L 9.890705108642578 3 M 9.890705108642578 1 L 23.50815391540527 1 C 24.03858375549316 1 24.54729270935059 1.210708618164062 24.92237281799316 1.585788726806641 L 38.53982162475586 15.20328903198242 C 38.91489410400391 15.57835960388184 39.12560272216797 16.08706855773926 39.12560272216797 16.61750030517578 L 39.12560272216797 38.01642990112305 C 39.12560272216797 41.26457977294922 36.48305511474609 43.90713882446289 33.23491287231445 43.90713882446289 L 9.890705108642578 43.90713882446289 C 6.642562866210938 43.90713882446289 4.000003814697266 41.26457977294922 4.000003814697266 38.01642990112305 L 4.000003814697266 6.890720367431641 C 4.000003814697266 3.642570495605469 6.642562866210938 1 9.890705108642578 1 Z" stroke="none" fill="#d1d4e2"/>
      </g>
      <path id="Path_620" data-name="Path 620" d="M19.5,3V16.618H33.117" transform="translate(-1.992 -3)" fill="#f4f4f8" stroke="#d1d4e2" stroke-linecap="round" stroke-linejoin="round" stroke-width="2"/>
    </g>
    <g id="Icon_feather-file-2" data-name="Icon feather-file" transform="translate(0 51.264)">
      <g id="Path_619-2" data-name="Path 619" transform="translate(-6 -3)" fill="#f4f4f8" stroke-linecap="round" stroke-linejoin="round">
        <path d="M 33.23491287231445 42.90713882446289 L 9.890701293945312 42.90713882446289 C 7.193961143493652 42.90713882446289 5.000001430511475 40.71318054199219 5.000001430511475 38.01642990112305 L 5.000001430511475 6.890719413757324 C 5.000001430511475 4.193969249725342 7.193961143493652 1.999999403953552 9.890701293945312 1.999999403953552 L 23.50815200805664 1.999999403953552 L 23.92236137390137 1.999999403953552 L 24.21526145935059 2.292889356613159 L 37.83272171020508 15.9103889465332 L 38.1256103515625 16.20328903198242 L 38.1256103515625 16.61750030517578 L 38.1256103515625 38.01642990112305 C 38.1256103515625 40.71318054199219 35.9316520690918 42.90713882446289 33.23491287231445 42.90713882446289 Z" stroke="none"/>
        <path d="M 9.890705108642578 3 C 7.741924285888672 3 6.000003814697266 4.741928100585938 6.000003814697266 6.890720367431641 L 6.000003814697266 38.01642990112305 C 6.000003814697266 40.16521072387695 7.741924285888672 41.90713882446289 9.890705108642578 41.90713882446289 L 33.23491287231445 41.90713882446289 C 35.38368225097656 41.90713882446289 37.12560272216797 40.16521072387695 37.12560272216797 38.01642990112305 L 37.12560272216797 16.61750030517578 L 23.50815391540527 3 L 9.890705108642578 3 M 9.890705108642578 1 L 23.50815391540527 1 C 24.03858375549316 1 24.54729270935059 1.210708618164062 24.92237281799316 1.585788726806641 L 38.53982162475586 15.20328903198242 C 38.91489410400391 15.57835960388184 39.12560272216797 16.08706855773926 39.12560272216797 16.61750030517578 L 39.12560272216797 38.01642990112305 C 39.12560272216797 41.26457977294922 36.48305511474609 43.90713882446289 33.23491287231445 43.90713882446289 L 9.890705108642578 43.90713882446289 C 6.642562866210938 43.90713882446289 4.000003814697266 41.26457977294922 4.000003814697266 38.01642990112305 L 4.000003814697266 6.890720367431641 C 4.000003814697266 3.642570495605469 6.642562866210938 1 9.890705108642578 1 Z" stroke="none" fill="#d1d4e2"/>
      </g>
      <path id="Path_620-2" data-name="Path 620" d="M19.5,3V16.618H33.117" transform="translate(-1.992 -3)" fill="#f4f4f8" stroke="#d1d4e2" stroke-linecap="round" stroke-linejoin="round" stroke-width="2"/>
    </g>
    <g id="Icon_feather-file-3" data-name="Icon feather-file" transform="translate(43.301)">
      <g id="Path_619-3" data-name="Path 619" transform="translate(-6.001 -3)" fill="#f4f4f8" stroke-linecap="round" stroke-linejoin="round">
        <path d="M 33.23491287231445 42.90713882446289 L 9.890701293945312 42.90713882446289 C 7.193961143493652 42.90713882446289 5.000001430511475 40.71318054199219 5.000001430511475 38.01642990112305 L 5.000001430511475 6.890719413757324 C 5.000001430511475 4.193969249725342 7.193961143493652 1.999999403953552 9.890701293945312 1.999999403953552 L 23.50815200805664 1.999999403953552 L 23.92236137390137 1.999999403953552 L 24.21526145935059 2.292889356613159 L 37.83272171020508 15.9103889465332 L 38.1256103515625 16.20328903198242 L 38.1256103515625 16.61750030517578 L 38.1256103515625 38.01642990112305 C 38.1256103515625 40.71318054199219 35.9316520690918 42.90713882446289 33.23491287231445 42.90713882446289 Z" stroke="none"/>
        <path d="M 9.890705108642578 3 C 7.741924285888672 3 6.000003814697266 4.741928100585938 6.000003814697266 6.890720367431641 L 6.000003814697266 38.01642990112305 C 6.000003814697266 40.16521072387695 7.741924285888672 41.90713882446289 9.890705108642578 41.90713882446289 L 33.23491287231445 41.90713882446289 C 35.38368225097656 41.90713882446289 37.12560272216797 40.16521072387695 37.12560272216797 38.01642990112305 L 37.12560272216797 16.61750030517578 L 23.50815391540527 3 L 9.890705108642578 3 M 9.890705108642578 1 L 23.50815391540527 1 C 24.03858375549316 1 24.54729270935059 1.210708618164062 24.92237281799316 1.585788726806641 L 38.53982162475586 15.20328903198242 C 38.91489410400391 15.57835960388184 39.12560272216797 16.08706855773926 39.12560272216797 16.61750030517578 L 39.12560272216797 38.01642990112305 C 39.12560272216797 41.26457977294922 36.48305511474609 43.90713882446289 33.23491287231445 43.90713882446289 L 9.890705108642578 43.90713882446289 C 6.642562866210938 43.90713882446289 4.000003814697266 41.26457977294922 4.000003814697266 38.01642990112305 L 4.000003814697266 6.890720367431641 C 4.000003814697266 3.642570495605469 6.642562866210938 1 9.890705108642578 1 Z" stroke="none" fill="#d1d4e2"/>
      </g>
      <path id="Path_620-3" data-name="Path 620" d="M19.5,3V16.618H33.117" transform="translate(-1.992 -3)" fill="#f4f4f8" stroke="#d1d4e2" stroke-linecap="round" stroke-linejoin="round" stroke-width="2"/>
    </g>
    <g id="Icon_feather-file-4" data-name="Icon feather-file" transform="translate(43.301 51.264)">
      <g id="Path_619-4" data-name="Path 619" transform="translate(-6.001 -3)" fill="#f4f4f8" stroke-linecap="round" stroke-linejoin="round">
        <path d="M 33.23491287231445 42.90713882446289 L 9.890701293945312 42.90713882446289 C 7.193961143493652 42.90713882446289 5.000001430511475 40.71318054199219 5.000001430511475 38.01642990112305 L 5.000001430511475 6.890719413757324 C 5.000001430511475 4.193969249725342 7.193961143493652 1.999999403953552 9.890701293945312 1.999999403953552 L 23.50815200805664 1.999999403953552 L 23.92236137390137 1.999999403953552 L 24.21526145935059 2.292889356613159 L 37.83272171020508 15.9103889465332 L 38.1256103515625 16.20328903198242 L 38.1256103515625 16.61750030517578 L 38.1256103515625 38.01642990112305 C 38.1256103515625 40.71318054199219 35.9316520690918 42.90713882446289 33.23491287231445 42.90713882446289 Z" stroke="none"/>
        <path d="M 9.890705108642578 3 C 7.741924285888672 3 6.000003814697266 4.741928100585938 6.000003814697266 6.890720367431641 L 6.000003814697266 38.01642990112305 C 6.000003814697266 40.16521072387695 7.741924285888672 41.90713882446289 9.890705108642578 41.90713882446289 L 33.23491287231445 41.90713882446289 C 35.38368225097656 41.90713882446289 37.12560272216797 40.16521072387695 37.12560272216797 38.01642990112305 L 37.12560272216797 16.61750030517578 L 23.50815391540527 3 L 9.890705108642578 3 M 9.890705108642578 1 L 23.50815391540527 1 C 24.03858375549316 1 24.54729270935059 1.210708618164062 24.92237281799316 1.585788726806641 L 38.53982162475586 15.20328903198242 C 38.91489410400391 15.57835960388184 39.12560272216797 16.08706855773926 39.12560272216797 16.61750030517578 L 39.12560272216797 38.01642990112305 C 39.12560272216797 41.26457977294922 36.48305511474609 43.90713882446289 33.23491287231445 43.90713882446289 L 9.890705108642578 43.90713882446289 C 6.642562866210938 43.90713882446289 4.000003814697266 41.26457977294922 4.000003814697266 38.01642990112305 L 4.000003814697266 6.890720367431641 C 4.000003814697266 3.642570495605469 6.642562866210938 1 9.890705108642578 1 Z" stroke="none" fill="#d1d4e2"/>
      </g>
      <path id="Path_620-4" data-name="Path 620" d="M19.5,3V16.618H33.117" transform="translate(-1.992 -3)" fill="#f4f4f8" stroke="#d1d4e2" stroke-linecap="round" stroke-linejoin="round" stroke-width="2"/>
    </g>
    <circle id="Ellipse_320" data-name="Ellipse 320" cx="25" cy="25" r="25" transform="translate(12.5 21.084)" fill="#ff9800"/>
    <g id="Icon_feather-clock" data-name="Icon feather-clock" transform="translate(20.987 29.571)">
      <path id="Path_991" data-name="Path 991" d="M30.025,16.513A13.513,13.513,0,1,1,16.513,3,13.513,13.513,0,0,1,30.025,16.513Z" fill="none" stroke="#fff" stroke-linecap="round" stroke-linejoin="round" stroke-width="2"/>
      <path id="Path_992" data-name="Path 992" d="M18,9v8.108l5.405,2.7" transform="translate(-1.487 -0.595)" fill="none" stroke="#fff" stroke-linecap="round" stroke-linejoin="round" stroke-width="2"/>
    </g>
  </g>
</svg>
