<svg xmlns="http://www.w3.org/2000/svg" width="139.001" height="43.345" viewBox="0 0 139.001 43.345">
  <path id="relax-gaming-group-logo-vector" d="M34.839,271.636a4.2,4.2,0,0,1-1.344,3.5,3.264,3.264,0,0,1-2.409.672A3.789,3.789,0,0,1,28,274.323a4.845,4.845,0,0,1-.95-2.942,4.919,4.919,0,0,1,1.066-3.359,8.288,8.288,0,0,1,1.2-1.066,3.558,3.558,0,0,1,1.738-.394,8.75,8.75,0,0,1,1.877.278,1.892,1.892,0,0,1,1.2.811.488.488,0,0,1,.139.394.444.444,0,0,1-.139.394.488.488,0,0,1-.394.139.444.444,0,0,1-.394-.139,9.573,9.573,0,0,0-.95-.672,3.076,3.076,0,0,0-1.2-.278,2.586,2.586,0,0,0-2.27,1.2,4.733,4.733,0,0,0-.672,2.409,4.513,4.513,0,0,0,1.066,3.081,2.254,2.254,0,0,0,1.6.672,4.635,4.635,0,0,0,1.344-.278,2.582,2.582,0,0,0,1.483-2.548v-.394H32.175a.486.486,0,0,1-.533-.533c0-.394.139-.533.533-.533H34.19c.394,0,.672.394.672.95v.116Zm130.823,0a4.2,4.2,0,0,1-1.344,3.5,3.264,3.264,0,0,1-2.409.672,3.789,3.789,0,0,1-3.081-1.483,4.845,4.845,0,0,1-.95-2.942,4.919,4.919,0,0,1,1.066-3.359,8.287,8.287,0,0,1,1.2-1.066,3.558,3.558,0,0,1,1.738-.394,8.75,8.75,0,0,1,1.877.278,1.892,1.892,0,0,1,1.2.811.488.488,0,0,1,.139.394.444.444,0,0,1-.139.394.488.488,0,0,1-.394.139.465.465,0,0,1-.394-.139,9.576,9.576,0,0,0-.95-.672,3.076,3.076,0,0,0-1.2-.278,2.586,2.586,0,0,0-2.27,1.2,4.733,4.733,0,0,0-.672,2.409,4.513,4.513,0,0,0,1.066,3.081,2.254,2.254,0,0,0,1.6.672,4.635,4.635,0,0,0,1.344-.278,2.582,2.582,0,0,0,1.483-2.548v-.394h-1.6a.486.486,0,0,1-.533-.533c0-.394.139-.533.533-.533h2.016a.723.723,0,0,1,.811.811v.278h-.139Zm-75.408,3.5c0,.533-.139.811-.533.811a.486.486,0,0,1-.533-.533l-1.066-7.39-2.155,7.39c-.139.278-.278.394-.533.394-.278,0-.533-.139-.533-.394l-2.155-7.39-1.066,7.39c0,.394-.278.533-.672.533a.611.611,0,0,1-.533-.672V275l1.344-7.645a.674.674,0,0,1,.278-.533.994.994,0,0,1,.533-.278c.278,0,.394,0,.533.139s.278.278.278.394l1.877,6.579h0l1.877-6.718c0-.139.139-.278.278-.394.139-.139.278-.139.533-.139.278,0,.394,0,.533.139a.713.713,0,0,1,.278.533Zm20.943.139c0,.394-.139.672-.533.672s-.533-.139-.533-.533v-8.039c0-.394.139-.533.533-.533s.533.139.533.533Zm26.966,0c0,.394-.139.533-.533.533-.278,0-.394-.139-.672-.394l-4.819-6.834v6.579c0,.394-.139.533-.533.533s-.533-.139-.533-.533v-8.039c0-.394.139-.533.394-.533.278,0,.394.139.672.394l4.7,6.834h0v-6.6a.444.444,0,0,1,.139-.394.488.488,0,0,1,.394-.139c.394,0,.533.139.533.533v8.039h.255Zm-76.752.139c0,.278-.139.394-.533.394a.444.444,0,0,1-.394-.139c-.139,0-.139,0-.139-.139l-.533-1.6h-4.17l-.811,1.6c-.139.278-.278.394-.533.394-.278,0-.533-.139-.533-.394v-.278l2.942-7.784c.139-.278.139-.394.278-.533a.488.488,0,0,1,.394-.139.943.943,0,0,1,.533.139.713.713,0,0,1,.278.533l2.942,7.784c.278.023.278.162.278.162M59.4,272.864l-1.738-4.958h0l-1.877,4.958ZM143.259,232.6a3.614,3.614,0,1,1-3.614,3.614A3.619,3.619,0,0,1,143.259,232.6Zm22.541,3.637a3.614,3.614,0,1,1-3.614-3.614A3.589,3.589,0,0,1,165.8,236.237Zm-22.541,14.085a3.614,3.614,0,1,1-3.614,3.614A3.619,3.619,0,0,1,143.259,250.323Zm22.541,3.614a3.614,3.614,0,1,1-3.614-3.614A3.589,3.589,0,0,1,165.8,253.937Zm-9.383-8.85a3.614,3.614,0,1,1-3.614-3.614A3.589,3.589,0,0,1,156.418,245.087ZM133.6,256.763l-10.054-23.746h0c-.139-.278-.278-.394-.533-.394H118.7c-.278,0-.394.139-.533.394h0l-10.193,23.746v.139a.345.345,0,0,0,.394.394h4.564c.278,0,.394-.139.533-.394h0l2.155-5.491h10.726L128.5,256.9h0c.139.278.278.394.533.394H133.6a.345.345,0,0,0,.394-.394C133.738,256.879,133.738,256.763,133.6,256.763ZM117.1,247.1l3.753-9.522,3.753,9.522Zm-55.021-6.857a3.315,3.315,0,0,1,.672-1.344,3.923,3.923,0,0,1,1.738-1.483,6.219,6.219,0,0,1,2.27-.533h8.989a.573.573,0,0,0,.533-.533v-3.22a.573.573,0,0,0-.533-.533H65.813c-5.491,0-9.939,4.819-9.939,10.726v3.521c0,5.908,4.425,10.726,9.939,10.726h9.939a.573.573,0,0,0,.533-.533v-3.359a.573.573,0,0,0-.533-.533H66.763a5.739,5.739,0,0,1-2.27-.533,3.923,3.923,0,0,1-1.738-1.483,5.444,5.444,0,0,1-.672-1.344,9.078,9.078,0,0,1-.278-2.155V247.1H75.751a.573.573,0,0,0,.533-.533V243.21a.573.573,0,0,0-.533-.533H61.828V242.4S61.944,241.195,62.083,240.245ZM92.941,257.3h8.178c.278,0,.394-.278.394-.533V253.4c0-.278-.139-.533-.394-.533h-7.39a4.178,4.178,0,0,1-1.877-.533,4.345,4.345,0,0,1-1.483-1.483,2.2,2.2,0,0,1-.533-1.483V233.017h0a.345.345,0,0,0-.394-.394H85.157a.573.573,0,0,0-.533.533v12.07h0v1.6h0v2.687a8.182,8.182,0,0,0,8.317,7.784m-43.994-.533h0L43.179,247.1h0c2.942-.672,4.958-2.687,4.958-7.112.139-5.908-3.892-7.251-8.85-7.39H27.333a.573.573,0,0,0-.533.533h0v23.746h0a.573.573,0,0,0,.533.533h4.286a.573.573,0,0,0,.533-.533v-9.267H38.2l5.375,9.406h0a.71.71,0,0,0,.672.394h4.564a.345.345,0,0,0,.394-.394C48.947,256.879,48.947,256.763,48.947,256.763ZM39.4,243.21l-1.344.139H32.036v-6.3H39.4c2.826,0,3.614,1.344,3.614,3.081C42.9,241.867,42.09,243.21,39.4,243.21Z" transform="translate(-26.8 -232.6)"/>
</svg>
