<svg xmlns="http://www.w3.org/2000/svg" width="68.782" height="84.334" viewBox="0 0 68.782 84.334">
  <g id="Component_20_1" data-name="Component 20 – 1" transform="translate(1 1.014)">
    <g id="Layer_2" data-name="Layer 2" transform="translate(-2.06 11.165)">
      <path id="Path_416" data-name="Path 416" d="M74.282,41.172V17.366a2.569,2.569,0,0,0-1.541-2.358L41.918,1.714a2.569,2.569,0,0,0-2.055,0L9.041,15.008A2.569,2.569,0,0,0,7.5,17.366V41.172A32.929,32.929,0,0,0,19.387,66.549L39.247,83.1a2.569,2.569,0,0,0,3.288,0l19.86-16.552A32.928,32.928,0,0,0,74.282,41.172Z" transform="translate(-5.44 -12.664)" fill="none" stroke="#d1d4e2" stroke-width="2"/>
    </g>
    <rect id="Rectangle_192" data-name="Rectangle 192" width="42" height="36" rx="4" transform="translate(12.783 15.697)" fill="#ff9800"/>
    <path id="Path_569" data-name="Path 569" d="M7323.5,2357.675l5.07-6.215h8.14l5.07-7.251h5.737l3.869-6.63" transform="translate(-7303.66 -2312.65)" fill="none" stroke="#fff" stroke-width="2"/>
    <line id="Line_48" data-name="Line 48" x2="6" transform="translate(26.783 23.697)" fill="none" stroke="#fff" stroke-width="2"/>
    <line id="Line_88" data-name="Line 88" x2="30" transform="translate(18.783 55.697)" fill="none" stroke="#717795" stroke-linecap="round" stroke-width="2"/>
    <line id="Line_89" data-name="Line 89" x2="20" transform="translate(23.783 59.697)" fill="none" stroke="#717795" stroke-linecap="round" stroke-width="2"/>
    <line id="Line_49" data-name="Line 49" x2="6" transform="translate(18.783 23.697)" fill="none" stroke="#fff" stroke-width="2"/>
  </g>
</svg>
