<svg xmlns="http://www.w3.org/2000/svg" width="104.5" height="67.097" viewBox="0 0 104.5 67.097">
  <g id="Group_362" data-name="Group 362" transform="translate(-1069.5 -2580.811)">
    <line id="Line_55" data-name="Line 55" x2="23" transform="translate(1151 2591.803)" fill="none" stroke="#d1d4e2" stroke-width="2"/>
    <line id="Line_56" data-name="Line 56" x2="16.867" transform="translate(1151 2608.303)" fill="none" stroke="#d1d4e2" stroke-width="2"/>
    <line id="Line_57" data-name="Line 57" x2="23" transform="translate(1151 2624.803)" fill="none" stroke="#d1d4e2" stroke-width="2"/>
    <line id="Line_58" data-name="Line 58" x2="16.867" transform="translate(1151 2641.303)" fill="none" stroke="#d1d4e2" stroke-width="2"/>
    <g id="Layer_2" data-name="Layer 2" transform="translate(1067.44 2591.975)">
      <path id="Path_416" data-name="Path 416" d="M62.014,33.884V14.452a2.1,2.1,0,0,0-1.258-1.925L35.6,1.674a2.1,2.1,0,0,0-1.677,0L8.758,12.527A2.1,2.1,0,0,0,7.5,14.452V33.884A26.88,26.88,0,0,0,17.2,54.6L33.415,68.11a2.1,2.1,0,0,0,2.684,0L52.311,54.6a26.88,26.88,0,0,0,9.7-20.715Z" transform="translate(-5.44 -12.664)" fill="#ff9800"/>
      <circle id="Ellipse_108" data-name="Ellipse 108" cx="15" cy="15" r="15" transform="translate(13.958 3.425)" fill="#1f2649"/>
      <path id="Path_417" data-name="Path 417" d="M24.811,6.927l-7.723,7.714L13.736,11.3a1.459,1.459,0,1,0-2.063,2.063l4.372,4.372a1.457,1.457,0,0,0,2.063,0L26.851,8.99a1.459,1.459,0,1,0-2.063-2.063Z" transform="translate(10.039 6.095)" fill="#fff"/>
    </g>
    <path id="Path_416-2" data-name="Path 416" d="M17.34,7.345V3.837a.378.378,0,0,0-.227-.347L12.572,1.531a.378.378,0,0,0-.3,0L7.727,3.49a.378.378,0,0,0-.227.347V7.345a4.852,4.852,0,0,0,1.752,3.739l2.926,2.439a.378.378,0,0,0,.484,0l2.926-2.439A4.852,4.852,0,0,0,17.34,7.345Z" transform="translate(1130.243 2584.248)" fill="#1f2649"/>
    <path id="Path_574" data-name="Path 574" d="M17.34,7.345V3.837a.378.378,0,0,0-.227-.347L12.572,1.531a.378.378,0,0,0-.3,0L7.727,3.49a.378.378,0,0,0-.227.347V7.345a4.852,4.852,0,0,0,1.752,3.739l2.926,2.439a.378.378,0,0,0,.484,0l2.926-2.439A4.852,4.852,0,0,0,17.34,7.345Z" transform="translate(1130.243 2600.748)" fill="#717795"/>
    <path id="Path_575" data-name="Path 575" d="M17.34,7.345V3.837a.378.378,0,0,0-.227-.347L12.572,1.531a.378.378,0,0,0-.3,0L7.727,3.49a.378.378,0,0,0-.227.347V7.345a4.852,4.852,0,0,0,1.752,3.739l2.926,2.439a.378.378,0,0,0,.484,0l2.926-2.439A4.852,4.852,0,0,0,17.34,7.345Z" transform="translate(1130.243 2617.248)" fill="#d1d4e2"/>
    <path id="Path_576" data-name="Path 576" d="M17.34,7.345V3.837a.378.378,0,0,0-.227-.347L12.572,1.531a.378.378,0,0,0-.3,0L7.727,3.49a.378.378,0,0,0-.227.347V7.345a4.852,4.852,0,0,0,1.752,3.739l2.926,2.439a.378.378,0,0,0,.484,0l2.926-2.439A4.852,4.852,0,0,0,17.34,7.345Z" transform="translate(1130.243 2633.748)" fill="#d1d4e2"/>
  </g>
</svg>
