<svg xmlns="http://www.w3.org/2000/svg" width="50" height="50" viewBox="0 0 50 50">
  <g id="Group_506" data-name="Group 506" transform="translate(-1358 -3502)">
    <circle id="Ellipse_334" data-name="Ellipse 334" cx="25" cy="25" r="25" transform="translate(1358 3502)" fill="#1f2649"/>
    <path id="Icon_awesome-link" data-name="Icon awesome-link" d="M14.1,8a6.557,6.557,0,0,1,.016,9.262l-.016.016-2.9,2.9A6.561,6.561,0,0,1,1.919,10.9l1.6-1.6A.69.69,0,0,1,4.7,9.759a7.954,7.954,0,0,0,.418,2.276.7.7,0,0,1-.163.717l-.565.565a3.108,3.108,0,1,0,4.367,4.423l2.9-2.9a3.107,3.107,0,0,0,0-4.4,3.233,3.233,0,0,0-.446-.37.692.692,0,0,1-.3-.544,1.719,1.719,0,0,1,.5-1.287l.909-.909a.693.693,0,0,1,.888-.075A6.582,6.582,0,0,1,14.1,8Zm6.083-6.084a6.568,6.568,0,0,0-9.278,0L8,4.819l-.016.016a6.562,6.562,0,0,0,.9,10,.693.693,0,0,0,.888-.075l.909-.909a1.719,1.719,0,0,0,.5-1.287.692.692,0,0,0-.3-.544,3.233,3.233,0,0,1-.446-.37,3.107,3.107,0,0,1,0-4.4l2.9-2.9a3.108,3.108,0,1,1,4.367,4.423l-.565.565a.7.7,0,0,0-.163.717,7.954,7.954,0,0,1,.418,2.276.69.69,0,0,0,1.178.458l1.6-1.6a6.568,6.568,0,0,0,0-9.278Z" transform="translate(1371.95 3515.951)" fill="#fff"/>
  </g>
</svg>
