<svg xmlns="http://www.w3.org/2000/svg" width="461.951" height="448.596" viewBox="0 0 461.951 448.596">
  <g id="Group_760" data-name="Group 760" transform="translate(-38.515 0)">
    <g id="Group_761" data-name="Group 761" transform="translate(38.515 0)">
      <path id="Path_1641" data-name="Path 1641" d="M486.4,252.786,259.335,390.9a2.18,2.18,0,0,1-1.985-.021l-176.838-98.3c-.614-.341-.672-.871-.13-1.183L316.9,154.852a2.129,2.129,0,0,1,1.946.091L486.28,251.672c.543.325.6.823.117,1.114" transform="translate(-24.774 51.214)" fill="#fff"/>
      <path id="Path_1642" data-name="Path 1642" d="M143.527,258.366l-10.806,6.3a1.256,1.256,0,0,1-1.121-.025l-10.5-5.872c-.33-.184-.362-.471-.072-.64l10.849-6.3a1.254,1.254,0,0,1,1.119.028l10.463,5.872c.329.184.359.47.071.638" transform="translate(-11.258 83.353)" fill="#d1d4e2"/>
      <path id="Path_1643" data-name="Path 1643" d="M154.61,251.883l-10.753,6.274a1.245,1.245,0,0,1-1.115-.028l-10.454-5.87c-.329-.185-.359-.471-.071-.639l10.8-6.274a1.247,1.247,0,0,1,1.114.029l10.412,5.872c.327.184.358.469.071.636" transform="translate(-7.551 81.206)" fill="#d1d4e2"/>
      <path id="Path_1644" data-name="Path 1644" d="M165.672,245.433l-10.836,6.323a1.243,1.243,0,0,1-1.11-.031l-10.4-5.87c-.327-.185-.358-.47-.071-.638l10.877-6.323a1.243,1.243,0,0,1,1.11.032L165.6,244.8c.325.184.355.469.069.635" transform="translate(-3.896 79.07)" fill="#d1d4e2"/>
      <path id="Path_1645" data-name="Path 1645" d="M176.514,239.073l-10.649,6.212a1.231,1.231,0,0,1-1.1-.031l-10.352-5.87c-.326-.185-.357-.47-.071-.636l10.69-6.214a1.233,1.233,0,0,1,1.1.033l10.314,5.872c.323.184.354.467.069.634" transform="translate(-0.226 76.965)" fill="#d1d4e2"/>
      <path id="Path_1646" data-name="Path 1646" d="M187.469,232.684l-10.732,6.262a1.225,1.225,0,0,1-1.1-.033l-10.3-5.869c-.324-.185-.354-.469-.069-.635l10.773-6.262a1.223,1.223,0,0,1,1.1.036l10.264,5.869c.322.184.353.469.069.632" transform="translate(3.393 74.85)" fill="#d1d4e2"/>
      <path id="Path_1647" data-name="Path 1647" d="M198.206,226.384l-10.548,6.154a1.211,1.211,0,0,1-1.093-.035l-10.255-5.87c-.322-.185-.353-.467-.069-.632l10.587-6.154a1.218,1.218,0,0,1,1.094.036l10.215,5.872c.319.184.351.466.069.63" transform="translate(7.028 72.764)" fill="#d1d4e2"/>
      <path id="Path_1648" data-name="Path 1648" d="M209.023,220.058l-10.5,6.123a1.2,1.2,0,0,1-1.088-.035l-10.207-5.872c-.321-.184-.351-.466-.069-.631l10.536-6.123a1.2,1.2,0,0,1,1.088.037l10.169,5.87c.318.184.349.466.068.63" transform="translate(10.646 70.669)" fill="#d1d4e2"/>
      <path id="Path_1649" data-name="Path 1649" d="M219.822,213.761l-10.577,6.171a1.2,1.2,0,0,1-1.084-.036L198,214.026c-.319-.185-.35-.467-.069-.631l10.617-6.17a1.193,1.193,0,0,1,1.084.039l10.119,5.87c.317.184.347.465.068.627" transform="translate(14.213 68.584)" fill="#d1d4e2"/>
      <path id="Path_1650" data-name="Path 1650" d="M230.4,207.553l-10.4,6.065a1.189,1.189,0,0,1-1.078-.037l-10.11-5.87c-.317-.185-.347-.466-.068-.628l10.435-6.066a1.19,1.19,0,0,1,1.078.041l10.071,5.869c.315.184.346.465.068.627" transform="translate(17.795 66.529)" fill="#d1d4e2"/>
      <path id="Path_1651" data-name="Path 1651" d="M241.1,201.316l-10.477,6.113a1.176,1.176,0,0,1-1.072-.04l-10.063-5.87c-.316-.184-.346-.465-.068-.626l10.516-6.113a1.183,1.183,0,0,1,1.073.041l10.024,5.87c.314.184.345.463.068.624" transform="translate(21.328 64.464)" fill="#d1d4e2"/>
      <path id="Path_1652" data-name="Path 1652" d="M251.584,195.166l-10.3,6.007a1.168,1.168,0,0,1-1.068-.041L230.2,195.263c-.315-.184-.346-.463-.068-.626l10.335-6.007a1.173,1.173,0,0,1,1.068.044l9.977,5.869c.313.184.343.462.068.623" transform="translate(24.877 62.428)" fill="#d1d4e2"/>
      <path id="Path_1653" data-name="Path 1653" d="M262.145,188.988,251.9,194.967a1.161,1.161,0,0,1-1.062-.041l-9.968-5.869c-.313-.184-.343-.465-.068-.624l10.286-5.978a1.168,1.168,0,0,1,1.064.044l9.93,5.869c.31.184.341.462.067.622" transform="translate(28.409 60.383)" fill="#d1d4e2"/>
      <path id="Path_1654" data-name="Path 1654" d="M272.561,182.9l-10.2,5.95a1.155,1.155,0,0,1-1.057-.043l-9.922-5.869c-.311-.184-.341-.463-.067-.622l10.238-5.95a1.155,1.155,0,0,1,1.057.045l9.885,5.868c.309.184.338.462.067.62" transform="translate(31.891 58.366)" fill="#d1d4e2"/>
      <path id="Path_1655" data-name="Path 1655" d="M170.059,255.356l-10.816,6.34a1.236,1.236,0,0,1-1.108-.027l-10.517-5.92c-.326-.184-.358-.469-.071-.636l10.858-6.34a1.233,1.233,0,0,1,1.108.029l10.476,5.918c.323.184.355.467.069.635" transform="translate(-2.474 82.341)" fill="#d1d4e2"/>
      <path id="Path_1656" data-name="Path 1656" d="M180.879,248.977l-10.629,6.232a1.226,1.226,0,0,1-1.1-.029l-10.467-5.92c-.325-.184-.355-.466-.071-.635l10.671-6.231a1.226,1.226,0,0,1,1.1.031l10.427,5.92c.322.182.354.466.069.632" transform="translate(1.19 80.229)" fill="#d1d4e2"/>
      <path id="Path_1657" data-name="Path 1657" d="M191.815,242.57,181.1,248.849a1.215,1.215,0,0,1-1.1-.031L169.589,242.9c-.323-.184-.354-.467-.069-.634l10.753-6.279a1.219,1.219,0,0,1,1.1.032l10.376,5.92c.321.182.351.466.069.631" transform="translate(4.802 78.108)" fill="#d1d4e2"/>
      <path id="Path_1658" data-name="Path 1658" d="M202.531,236.253,192,242.424a1.208,1.208,0,0,1-1.092-.032l-10.367-5.918c-.322-.184-.353-.467-.069-.632l10.568-6.171a1.209,1.209,0,0,1,1.092.035l10.327,5.918c.319.182.35.465.069.63" transform="translate(8.431 76.016)" fill="#d1d4e2"/>
      <path id="Path_1659" data-name="Path 1659" d="M213.329,229.908l-10.476,6.141a1.2,1.2,0,0,1-1.088-.032L191.447,230.1c-.319-.184-.351-.467-.069-.631l10.517-6.142a1.2,1.2,0,0,1,1.086.036l10.279,5.918c.317.182.349.465.068.628" transform="translate(12.041 73.916)" fill="#d1d4e2"/>
      <path id="Path_1660" data-name="Path 1660" d="M224.108,223.593l-10.559,6.189a1.194,1.194,0,0,1-1.081-.033l-10.27-5.92c-.318-.184-.349-.465-.068-.628l10.6-6.19a1.2,1.2,0,0,1,1.081.037l10.231,5.918c.315.182.346.463.068.627" transform="translate(15.602 71.825)" fill="#d1d4e2"/>
      <path id="Path_1661" data-name="Path 1661" d="M234.671,217.366l-10.378,6.083a1.188,1.188,0,0,1-1.076-.036L213,217.5c-.317-.184-.347-.465-.068-.628l10.416-6.082a1.184,1.184,0,0,1,1.076.037L234.6,216.74c.316.182.345.463.068.626" transform="translate(19.179 69.763)" fill="#d1d4e2"/>
      <path id="Path_1662" data-name="Path 1662" d="M245.347,211.112l-10.458,6.13a1.176,1.176,0,0,1-1.072-.037l-10.173-5.917c-.315-.184-.346-.465-.068-.627l10.5-6.13a1.173,1.173,0,0,1,1.07.04l10.134,5.917c.313.184.343.463.068.624" transform="translate(22.705 67.693)" fill="#d1d4e2"/>
      <path id="Path_1663" data-name="Path 1663" d="M264.079,201.3l-18.547,10.871a1.165,1.165,0,0,1-1.066-.039l-10.125-5.917c-.314-.184-.345-.463-.068-.626l18.616-10.87a1.164,1.164,0,0,1,1.064.041l10.059,5.917c.31.182.341.461.067.622" transform="translate(26.247 64.445)" fill="#d1d4e2"/>
      <path id="Path_1664" data-name="Path 1664" d="M272.519,195.125l-10.2,5.98a1.157,1.157,0,0,1-1.058-.04l-10.05-5.918c-.311-.182-.341-.462-.067-.622l10.239-5.98a1.154,1.154,0,0,1,1.057.043l10.013,5.917c.309.182.339.461.067.62" transform="translate(31.834 62.4)" fill="#d1d4e2"/>
      <path id="Path_1665" data-name="Path 1665" d="M282.887,189.032l-10.153,5.952a1.146,1.146,0,0,1-1.053-.043l-10-5.916c-.31-.184-.339-.462-.066-.622l10.19-5.952a1.151,1.151,0,0,1,1.053.045l9.966,5.916c.309.182.338.459.067.619" transform="translate(35.301 60.383)" fill="#d1d4e2"/>
      <path id="Path_1666" data-name="Path 1666" d="M187.107,257.59l-10.734,6.322a1.224,1.224,0,0,1-1.1-.025l-10.307-5.818c-.325-.182-.355-.466-.071-.634l10.776-6.322a1.22,1.22,0,0,1,1.1.028l10.267,5.817c.322.182.353.466.069.632" transform="translate(3.271 83.116)" fill="#d1d4e2"/>
      <path id="Path_1667" data-name="Path 1667" d="M197.847,251.229,187.3,257.442a1.21,1.21,0,0,1-1.093-.028L175.944,251.6c-.322-.182-.353-.466-.068-.632l10.589-6.214a1.217,1.217,0,0,1,1.094.031l10.219,5.817c.319.182.35.465.068.631" transform="translate(6.907 81.01)" fill="#d1d4e2"/>
      <path id="Path_1668" data-name="Path 1668" d="M208.7,244.841,198.07,251.1a1.21,1.21,0,0,1-1.089-.029l-10.21-5.818c-.321-.182-.351-.465-.069-.631l10.672-6.26a1.2,1.2,0,0,1,1.089.031l10.171,5.817c.318.182.349.465.068.63" transform="translate(10.493 78.895)" fill="#d1d4e2"/>
      <path id="Path_1669" data-name="Path 1669" d="M219.339,238.542l-10.45,6.154a1.2,1.2,0,0,1-1.084-.031l-10.161-5.817c-.319-.184-.35-.465-.069-.63l10.488-6.154a1.191,1.191,0,0,1,1.084.033l10.123,5.817c.317.181.347.462.068.627" transform="translate(14.094 76.809)" fill="#d1d4e2"/>
      <path id="Path_1670" data-name="Path 1670" d="M230.056,232.215l-10.4,6.125a1.188,1.188,0,0,1-1.078-.033l-10.113-5.817c-.318-.182-.349-.463-.069-.628l10.439-6.123a1.185,1.185,0,0,1,1.078.035l10.074,5.816c.315.184.346.463.068.627" transform="translate(17.678 74.714)" fill="#d1d4e2"/>
      <path id="Path_1671" data-name="Path 1671" d="M240.754,225.917l-10.48,6.173a1.182,1.182,0,0,1-1.073-.035l-10.066-5.817c-.315-.182-.346-.463-.068-.627l10.52-6.171a1.182,1.182,0,0,1,1.073.036l10.026,5.817c.314.182.345.462.068.624" transform="translate(21.212 72.629)" fill="#d1d4e2"/>
      <path id="Path_1672" data-name="Path 1672" d="M265.338,213.47l-24.4,14.37a1.179,1.179,0,0,1-1.068-.035l-10.018-5.817c-.314-.184-.345-.463-.068-.626l24.489-14.367a1.152,1.152,0,0,1,1.062.037l9.933,5.817c.312.182.342.461.068.62" transform="translate(24.761 68.508)" fill="#d1d4e2"/>
      <path id="Path_1673" data-name="Path 1673" d="M272.225,207.319l-10.2,6.009a1.157,1.157,0,0,1-1.058-.039l-9.924-5.816c-.311-.182-.342-.461-.068-.623l10.241-6.008a1.153,1.153,0,0,1,1.058.04l9.888,5.816c.309.182.339.461.067.62" transform="translate(31.778 66.472)" fill="#d1d4e2"/>
      <path id="Path_1674" data-name="Path 1674" d="M191.322,267.5l-10.716,6.34a1.218,1.218,0,0,1-1.1-.024l-10.29-5.79c-.322-.182-.354-.465-.069-.634l10.756-6.34a1.218,1.218,0,0,1,1.1.027l10.25,5.79c.321.181.351.463.069.631" transform="translate(4.68 86.406)" fill="#d1d4e2"/>
      <path id="Path_1675" data-name="Path 1675" d="M202.042,261.118l-10.531,6.231a1.207,1.207,0,0,1-1.092-.025l-10.241-5.791c-.322-.182-.353-.465-.069-.632l10.571-6.231a1.207,1.207,0,0,1,1.092.028l10.2,5.79c.319.181.35.463.068.63" transform="translate(8.31 84.294)" fill="#d1d4e2"/>
      <path id="Path_1676" data-name="Path 1676" d="M212.843,254.711l-10.48,6.2a1.2,1.2,0,0,1-1.086-.027l-10.193-5.791c-.319-.182-.35-.465-.068-.631l10.52-6.2a1.2,1.2,0,0,1,1.086.029l10.153,5.79c.317.181.347.462.068.628" transform="translate(11.921 82.173)" fill="#d1d4e2"/>
      <path id="Path_1677" data-name="Path 1677" d="M223.495,248.394l-10.431,6.171a1.193,1.193,0,0,1-1.081-.028l-10.143-5.79c-.318-.182-.349-.463-.068-.63l10.469-6.171a1.19,1.19,0,0,1,1.081.031l10.1,5.79c.317.181.347.462.068.627" transform="translate(15.483 80.081)" fill="#d1d4e2"/>
      <path id="Path_1678" data-name="Path 1678" d="M234.193,242.047l-10.38,6.143a1.181,1.181,0,0,1-1.077-.031l-10.094-5.789c-.318-.182-.349-.463-.069-.628l10.42-6.142a1.191,1.191,0,0,1,1.076.031l10.057,5.792c.315.18.345.462.068.624" transform="translate(19.06 77.98)" fill="#d1d4e2"/>
      <path id="Path_1679" data-name="Path 1679" d="M244.873,235.733l-10.462,6.19a1.178,1.178,0,0,1-1.072-.031L223.292,236.1c-.316-.181-.346-.462-.068-.626l10.5-6.19a1.179,1.179,0,0,1,1.072.033l10.009,5.79c.314.181.345.461.068.624" transform="translate(22.588 75.889)" fill="#d1d4e2"/>
      <path id="Path_1680" data-name="Path 1680" d="M255.34,229.5l-10.282,6.083a1.164,1.164,0,0,1-1.066-.033l-10-5.789c-.314-.182-.343-.462-.068-.626l10.32-6.083a1.172,1.172,0,0,1,1.066.035l9.964,5.792c.311.181.341.459.067.622" transform="translate(26.131 73.827)" fill="#d1d4e2"/>
      <path id="Path_1681" data-name="Path 1681" d="M274.278,219.533l-18.723,11.079a1.165,1.165,0,0,1-1.061-.035l-9.954-5.79c-.313-.181-.342-.461-.067-.623l18.79-11.078a1.16,1.16,0,0,1,1.058.037l9.889,5.79c.309.181.339.459.067.619" transform="translate(29.625 70.526)" fill="#d1d4e2"/>
      <path id="Path_1682" data-name="Path 1682" d="M282.522,213.383l-10.155,6.009a1.152,1.152,0,0,1-1.054-.036l-9.878-5.79c-.311-.181-.341-.459-.067-.62l10.193-6.009a1.145,1.145,0,0,1,1.053.039l9.842,5.789c.309.181.338.458.067.619" transform="translate(35.22 68.489)" fill="#d1d4e2"/>
      <path id="Path_1683" data-name="Path 1683" d="M285.68,188.521l-24.231,14.217c-.213.125-.216.326-.007.45l23.97,14.111a.822.822,0,0,0,.759-.005l10.323-6.107c.21-.125.214-.325.007-.447L283.578,203.1a.238.238,0,0,1,.007-.447l13-7.659a.238.238,0,0,0,.007-.447l-10.157-6.029a.822.822,0,0,0-.759,0" transform="translate(35.256 62.397)" fill="#d1d4e2"/>
      <path id="Path_1684" data-name="Path 1684" d="M205.05,272.708l-18.116,10.768a1.212,1.212,0,0,1-1.094-.023l-10.26-5.763c-.323-.181-.354-.465-.069-.632l18.182-10.769a1.211,1.211,0,0,1,1.092.025l10.2,5.764c.318.181.349.462.068.63" transform="translate(6.786 88.141)" fill="#d1d4e2"/>
      <path id="Path_1685" data-name="Path 1685" d="M213.953,266.274,203.475,272.5a1.2,1.2,0,0,1-1.086-.024L192.2,266.713c-.319-.181-.35-.463-.067-.63l10.513-6.228a1.2,1.2,0,0,1,1.086.027l10.149,5.764c.317.181.347.462.069.628" transform="translate(12.292 86.011)" fill="#d1d4e2"/>
      <path id="Path_1686" data-name="Path 1686" d="M273.793,237.963,214.172,273.4a1.189,1.189,0,0,1-1.081-.025l-10.139-5.764c-.318-.181-.349-.462-.068-.628l59.843-35.439a1.163,1.163,0,0,1,1.062.033l9.937,5.764c.312.181.341.459.067.622" transform="translate(15.852 76.637)" fill="#d1d4e2"/>
      <path id="Path_1687" data-name="Path 1687" d="M271.887,231.753l-10.206,6.066a1.151,1.151,0,0,1-1.058-.032l-9.928-5.764c-.311-.181-.341-.459-.067-.623l10.243-6.066a1.155,1.155,0,0,1,1.058.035l9.89,5.764c.31.181.339.458.067.62" transform="translate(31.664 74.581)" fill="#d1d4e2"/>
      <path id="Path_1688" data-name="Path 1688" d="M282.388,225.514,272.1,231.628a1.152,1.152,0,0,1-1.053-.033l-9.881-5.764c-.31-.181-.341-.459-.068-.622l10.324-6.114a1.149,1.149,0,0,1,1.053.036l9.844,5.764c.307.181.338.459.067.619" transform="translate(35.132 72.516)" fill="#d1d4e2"/>
      <path id="Path_1689" data-name="Path 1689" d="M292.679,219.363l-10.11,6.009a1.134,1.134,0,0,1-1.048-.035l-9.836-5.764c-.309-.181-.338-.458-.067-.619l10.147-6.009a1.138,1.138,0,0,1,1.048.036l9.8,5.764c.308.181.337.457.067.618" transform="translate(38.615 70.479)" fill="#d1d4e2"/>
      <path id="Path_1690" data-name="Path 1690" d="M303.05,213.185l-10.062,5.981a1.135,1.135,0,0,1-1.042-.036l-9.791-5.764c-.308-.181-.337-.458-.065-.618l10.1-5.981a1.134,1.134,0,0,1,1.044.039l9.753,5.763c.3.181.334.457.065.616" transform="translate(42.082 68.434)" fill="#d1d4e2"/>
      <path id="Path_1691" data-name="Path 1691" d="M316.641,209.08l-10.014,5.953a1.13,1.13,0,0,1-1.04-.037l-23.266-13.761c-.307-.182-.337-.459-.067-.618l10.1-5.953a1.136,1.136,0,0,1,1.042.041l23.181,13.76c.3.181.333.455.065.615" transform="translate(42.138 64.426)" fill="#d1d4e2"/>
      <path id="Path_1692" data-name="Path 1692" d="M160.542,261.825,143.7,271.7a1.245,1.245,0,0,1-1.116-.025L132,265.753c-.329-.184-.361-.47-.071-.639l16.9-9.872a1.244,1.244,0,0,1,1.113.028l10.528,5.918c.325.184.357.469.069.636" transform="translate(-7.647 84.483)" fill="#d1d4e2"/>
      <path id="Path_1693" data-name="Path 1693" d="M179.418,264.218l-24.952,14.7a1.238,1.238,0,0,1-1.11-.024l-10.407-5.817c-.326-.182-.358-.467-.069-.636l25.047-14.7a1.231,1.231,0,0,1,1.1.027l10.318,5.817c.323.182.354.466.069.634" transform="translate(-4.02 85.31)" fill="#d1d4e2"/>
      <path id="Path_1694" data-name="Path 1694" d="M181.86,273.966l-16.549,9.792a1.23,1.23,0,0,1-1.1-.023l-10.359-5.789c-.325-.182-.355-.466-.069-.636l16.611-9.792a1.225,1.225,0,0,1,1.1.025l10.3,5.79c.322.181.354.465.069.632" transform="translate(-0.411 88.548)" fill="#d1d4e2"/>
      <path id="Path_1695" data-name="Path 1695" d="M186.612,282.565l-10.605,6.3a1.219,1.219,0,0,1-1.1-.02l-10.31-5.763c-.325-.181-.355-.466-.069-.635l10.644-6.3a1.219,1.219,0,0,1,1.1.023l10.271,5.762c.322.181.353.463.069.632" transform="translate(3.149 91.405)" fill="#d1d4e2"/>
      <path id="Path_1696" data-name="Path 1696" d="M355.424,261.963,273.64,311.535l-.974.588a1.242,1.242,0,0,1-1.138-.017l-49.765-28.3c-.335-.193-.369-.5-.072-.672l84.063-50.171a1.223,1.223,0,0,1,1.128.039l.974.567,47.5,27.734c.325.186.358.485.072.66" transform="translate(22.076 77.105)" fill="#d1d4e2"/>
      <path id="Path_1697" data-name="Path 1697" d="M486.4,228.5l-4.328,2.633L259.335,366.607a2.182,2.182,0,0,1-1.987-.021L84.923,270.738l-4.411-2.453a.81.81,0,0,1-.5-.655v6.256a.815.815,0,0,0,.5.658l176.836,98.3a2.194,2.194,0,0,0,1.987.021L486.4,234.756a.59.59,0,0,0,.327-.5V228a.586.586,0,0,1-.327.494" transform="translate(-24.774 75.502)" fill="#d1d4e2"/>
      <path id="Path_1698" data-name="Path 1698" d="M316.536,206.18,80.487,342.463c-.515.3-.933-.019-.933-.707V138.624a2.234,2.234,0,0,1,.933-1.782L316.536.559c.515-.3.933.019.933.706V204.4a2.236,2.236,0,0,1-.933,1.784" transform="translate(-24.925 0.147)" fill="#1f2649"/>
      <path id="Path_1699" data-name="Path 1699" d="M87.266,320.094V139.673a1.335,1.335,0,0,1,.56-1.07L304.089,13.743c.31-.178.562.011.562.423V194.587a1.34,1.34,0,0,1-.562,1.07L87.826,320.518c-.311.178-.56-.011-.56-.423" transform="translate(-22.371 4.528)" fill="#1f2649"/>
      <path id="Path_1700" data-name="Path 1700" d="M317.708.719a.564.564,0,0,0-.694-.011l-2.192,1.265L80.965,136.99a2.236,2.236,0,0,0-.933,1.784V341.905a.985.985,0,0,0,.178.627l-1.86-1.853a1.652,1.652,0,0,1-.24-.694V136.852a2.236,2.236,0,0,1,.933-1.784L312.949.073a1.365,1.365,0,0,1,.836,0Z" transform="translate(-25.403 0)" fill="#d1d4e2"/>
      <path id="Path_1701" data-name="Path 1701" d="M276.417,103.083a46.949,46.949,0,0,0-5.271,3.569,51.709,51.709,0,0,0,.277-5.17c0-22.3-15.652-31.331-34.96-20.184-15.011,8.667-27.809,26.984-32.764,45.183-4.833-1.234-10.764-.189-17.18,3.516-13.688,7.9-25.192,25.344-28.472,41.859a36.981,36.981,0,0,0-4.823,2.353c-17.162,9.908-31.076,34.007-31.076,53.824s13.913,27.85,31.076,17.941L276.417,174.85c17.163-9.909,31.076-34.007,31.076-53.825s-13.913-27.85-31.076-17.941" transform="translate(-10.82 25.34)" fill="#fff"/>
      <path id="Path_1702" data-name="Path 1702" d="M269.644,84.238a16.881,16.881,0,0,0-5.873-2.22c-4.873-.9-10.611.068-16.791,3.143-.8.394-1.615.836-2.432,1.307-15,8.67-27.806,26.98-32.756,45.184-4.835-1.231-10.765-.193-17.185,3.517-13.687,7.9-25.192,25.336-28.469,41.859a36.27,36.27,0,0,0-4.825,2.355c-15.7,9.062-28.661,29.977-30.776,48.643v.011a47.1,47.1,0,0,0-.3,5.17c0,8.939,2.835,15.484,7.516,19.05L106.94,231.275c-.009,0-.02,0-.029-.02l-2.029-1.383a.3.3,0,0,1-.057-.048l-1.605-1.519a2.042,2.042,0,0,0-.144-.154c-3.384-3.787-5.354-9.583-5.354-17.051,0-19.819,13.908-43.915,31.074-53.825a35.883,35.883,0,0,1,4.825-2.355c3.277-16.522,14.782-33.958,28.469-41.858,6.411-3.71,12.341-4.748,17.176-3.518,4.96-18.2,17.539-36.894,32.765-45.183,15.706-8.55,29.335,1.451,29.518,1.692L266.039,81.9h.009Z" transform="translate(-18.909 20.17)" fill="#6548f7"/>
      <path id="Union_6" data-name="Union 6" d="M-6211.235-1445.837c-.009,0-.019,0-.028-.027l-2.026-1.375c-.019-.009-.038-.037-.065-.056l-1.6-1.514c-.045-.056-.1-.1-.147-.159-3.383-3.781-5.353-9.581-5.353-17.051,0-19.811,13.91-43.915,31.073-53.822a36.5,36.5,0,0,1,4.822-2.349l32.523,22.106a36.6,36.6,0,0,0-4.832,2.351c-15.694,9.059-28.658,29.977-30.776,48.645v.008a48.973,48.973,0,0,0-.3,5.169c0,8.938,2.833,15.488,7.517,19.057Zm26.677-76.353c3.28-16.531,14.784-33.964,28.472-41.862,6.412-3.706,12.341-4.747,17.182-3.522,4.952-18.2,17.534-36.889,32.763-45.177,15.705-8.549,29.335,1.449,29.513,1.691l24.494,15.842h.008l.01.007a16.131,16.131,0,0,1,7.321,1.745l.058.047,2.836,1.923,29.871,20.26c-5.592-3.027-13.224-2.479-21.645,2.375-.585.336-1.17.692-1.748,1.076-1.191.76-2.365,1.6-3.518,2.49.172-1.748.278-3.469.278-5.172,0-13.566-5.793-22.222-14.682-24.406q-.522-.127-1.057-.223c-4.877-.9-10.612.066-16.792,3.14-.8.4-1.616.837-2.432,1.311-15.007,8.669-27.8,26.975-32.755,45.179-4.832-1.227-10.771-.186-17.191,3.522-13.679,7.9-25.192,25.339-28.462,41.86Z" transform="translate(6299.267 1697.286)" fill="#d1d4e2" stroke="rgba(0,0,0,0)" stroke-miterlimit="10" stroke-width="1"/>
      <path id="Path_1736" data-name="Path 1736" d="M258.539,165.776,233.376,180.3v-3.091l25.163-14.528Z" transform="translate(26.013 53.872)" fill="#fff"/>
      <g id="Group_763" data-name="Group 763" transform="translate(-2.897 26.025)">
        <path id="Path_1739" data-name="Path 1739" d="M275,132.672l6.842,2.42,60-34.644L335,98.029Z" transform="translate(39.795 38.118)" fill="#d1d4e2"/>
        <path id="Path_1740" data-name="Path 1740" d="M335,115.272l-60,34.643V97.455l59.53-34.37a.317.317,0,0,1,.475.275Z" transform="translate(39.795 20.876)" fill="#d1d4e2"/>
        <path id="Path_1741" data-name="Path 1741" d="M275,92.869V84.822a1.233,1.233,0,0,1,.615-1.066l13.4-7.739a1.234,1.234,0,0,1,1.232,0l7,4.043Z" transform="translate(39.795 27.189)" fill="#d1d4e2"/>
        <path id="Path_1742" data-name="Path 1742" d="M334.211,114.965l-57.616,33.284v-51.3l57.616-33.283Z" transform="translate(40.583 21.182)" fill="#fff"/>
        <path id="Path_1743" data-name="Path 1743" d="M338.222,116.445l-56.952,33,.1-51.125,56.918-33.126Z" transform="translate(42.887 21.935)" fill="#fff8e8"/>
        <path id="Path_1744" data-name="Path 1744" d="M334.211,63.664l6.38,2.28L283.674,99.07l-7.079-2.124Z" transform="translate(40.583 21.182)" fill="#fff"/>
        <path id="Path_1745" data-name="Path 1745" d="M276.6,85.958l7.079,2.124-.1,51.291-6.979-2.126Z" transform="translate(40.583 32.17)" fill="#d1d4e2"/>
        <path id="Path_1746" data-name="Path 1746" d="M339.582,116.892l-60,34.643v-51.6a1.492,1.492,0,0,1,.746-1.293L339.107,64.7a.317.317,0,0,1,.475.275Z" transform="translate(42.053 21.674)" fill="#717795"/>
        <path id="Path_1747" data-name="Path 1747" d="M312.54,105.938l1.123-.375c1.439-5.473,5.265-10.792,9.554-13.268a9.294,9.294,0,0,1,4.6-1.4c3.359,0,5.574,2.584,5.785,6.743l.007.158-1.491.86-.022-.417c-.191-3.422-2-5.549-4.729-5.549a7.888,7.888,0,0,0-3.9,1.2c-3.61,2.084-6.878,6.524-8.241,11.155l1.117-.373-2.605,4.116Z" transform="translate(30.544 26.506)" fill="#d1d4e2"/>
        <path id="Path_1748" data-name="Path 1748" d="M318.691,114.473c-3.357,0-5.573-2.583-5.782-6.742l-.007-.157,1.49-.86.024.417c.191,3.42,2,5.546,4.726,5.546h0a7.883,7.883,0,0,0,3.895-1.2c3.6-2.081,6.869-6.518,8.235-11.146l-1.127.376,2.6-4.111,1.212,2.839-1.112.37c-1.442,5.471-5.267,10.787-9.55,13.261A9.306,9.306,0,0,1,318.691,114.473Z" transform="translate(30.722 29.32)" fill="#d1d4e2"/>
      </g>
      <path id="Path_1749" data-name="Path 1749" d="M59.224,139.595l10.284-5.938V101.564A4.857,4.857,0,0,0,68.281,97.9a2.4,2.4,0,0,0-2.97-.095c-2.316,1.338-4.2,5.189-4.2,8.6v29.313a5.357,5.357,0,0,1-.552,2.284,3.694,3.694,0,0,1-1.338,1.587" transform="translate(-31.657 32.236)" fill="#d1d4e2"/>
      <path id="Path_1750" data-name="Path 1750" d="M61.584,113.243v17.216a4.829,4.829,0,0,1-1.89,3.872c-1.044.6-1.889-.154-1.889-1.689h0V115.71a.546.546,0,0,1,.246-.427Z" transform="translate(-32.127 37.5)" fill="#fafafa"/>
      <path id="Path_1751" data-name="Path 1751" d="M63.8,104.06a2.413,2.413,0,0,1,2.97.089A4.889,4.889,0,0,1,68,107.808v40.283c.1,1.343.9,1.977,1.88,1.414l44.488-25.685v-39.5c0-5.225-3.662-7.339-8.179-4.732Z" transform="translate(-30.143 25.985)" fill="#fff"/>
      <path id="Path_1752" data-name="Path 1752" d="M71.944,93.125a4.447,4.447,0,0,1,4.141.214,4.088,4.088,0,0,1,1.382,3.323v29.312l.005,0v51.043l46.373-26.773V73.155c-.612-4.644-4.856-6.372-8.185-4.726Z" transform="translate(-27.445 22.458)" fill="#fff"/>
      <path id="Path_1753" data-name="Path 1753" d="M68.367,146.874l10.284-5.938V90.51a4.635,4.635,0,0,0-1.363-3.562,4.118,4.118,0,0,0-3.973-.089c-2.316,1.338-3.058,5.085-3.058,8.5V143a5.357,5.357,0,0,1-.552,2.284,3.685,3.685,0,0,1-1.338,1.587" transform="translate(-28.63 28.609)" fill="#d1d4e2"/>
      <path id="Path_1754" data-name="Path 1754" d="M80.02,99.156l25.095-14.49a.672.672,0,0,0,.306-.528c0-.194-.137-.274-.306-.176L80.02,98.451a.673.673,0,0,0-.3.528c0,.2.136.274.3.177" transform="translate(-24.872 27.789)" fill="#d1d4e2"/>
      <path id="Path_1755" data-name="Path 1755" d="M100.593,85.114l10.028-5.789a.673.673,0,0,0,.3-.528c0-.2-.136-.274-.3-.177l-10.028,5.789a.673.673,0,0,0-.3.53c0,.194.136.273.3.176" transform="translate(-18.059 26.02)" fill="#d1d4e2"/>
      <path id="Path_1756" data-name="Path 1756" d="M80.02,106.886l37.413-21.6a.674.674,0,0,0,.306-.528c0-.2-.137-.274-.306-.177l-37.413,21.6a.673.673,0,0,0-.3.53c0,.194.136.273.3.176" transform="translate(-24.872 27.994)" fill="#d1d4e2"/>
      <path id="Path_1757" data-name="Path 1757" d="M80.02,112.847l37.413-21.6a.674.674,0,0,0,.306-.528c0-.2-.137-.274-.306-.177l-37.413,21.6a.673.673,0,0,0-.3.53c0,.194.136.273.3.176" transform="translate(-24.872 29.968)" fill="#d1d4e2"/>
      <path id="Path_1758" data-name="Path 1758" d="M80.02,118.808l37.413-21.6a.674.674,0,0,0,.306-.528c0-.2-.137-.274-.306-.177L80.02,118.1a.673.673,0,0,0-.3.53c0,.194.136.273.3.176" transform="translate(-24.872 31.942)" fill="#d1d4e2"/>
      <path id="Path_1759" data-name="Path 1759" d="M94.359,113.749l18.326-10.58a.675.675,0,0,0,.306-.53c0-.193-.137-.273-.306-.176l-18.326,10.58a.675.675,0,0,0-.3.528c0,.2.136.276.3.177" transform="translate(-20.123 33.916)" fill="#d1d4e2"/>
      <path id="Path_1760" data-name="Path 1760" d="M84.952,117.909l9.468-5.467a.674.674,0,0,0,.306-.528c0-.2-.137-.274-.306-.177L84.952,117.2a.673.673,0,0,0-.3.528c0,.2.136.274.3.177" transform="translate(-23.238 36.987)" fill="#d1d4e2"/>
      <path id="Path_1761" data-name="Path 1761" d="M85.678,126.382l29.882-17.252a.673.673,0,0,0,.3-.53c0-.194-.136-.273-.3-.176L85.678,125.676a.673.673,0,0,0-.3.53c0,.194.136.273.3.176" transform="translate(-22.998 35.89)" fill="#d1d4e2"/>
      <path id="Path_1762" data-name="Path 1762" d="M80.453,125.677l3.972-2.294a.671.671,0,0,0,.3-.528c0-.194-.136-.274-.3-.177l-3.972,2.294a.673.673,0,0,0-.3.53c0,.194.136.273.3.176" transform="translate(-24.728 40.61)" fill="#d1d4e2"/>
      <path id="Path_1765" data-name="Path 1765" d="M84.133,196.414v31.821a3.926,3.926,0,0,1-2.081,2.56l-11.292,6.519-16.9,9.755c-3.161,1.828-8.68,1.6-12.325-.507-2-1.153-3.02-2.626-3.02-4.025V210.715c0,1.4,1.024,2.873,3.02,4.025,3.645,2.1,9.164,2.333,12.325.511l28.192-16.277a3.911,3.911,0,0,0,2.081-2.56" transform="translate(-38.515 65.041)" fill="#717795"/>
      <path id="Path_1766" data-name="Path 1766" d="M64.989,214.97a6.621,6.621,0,0,1-3,5.187c-1.655.956-3,.181-3-1.729a6.619,6.619,0,0,1,3-5.187c1.653-.956,3-.181,3,1.729" transform="translate(-31.732 70.478)" fill="#fff"/>
      <path id="Path_1767" data-name="Path 1767" d="M64.314,221.709,59.4,224.544l.96-6.346,2.991-1.727Z" transform="translate(-31.598 71.684)" fill="#fff"/>
      <path id="Path_1768" data-name="Path 1768" d="M82.053,200.54,53.86,216.817c-3.16,1.824-8.678,1.595-12.326-.511s-4.044-5.293-.885-7.116l28.192-16.277c3.16-1.824,8.678-1.595,12.326.511s4.044,5.293.885,7.116" transform="translate(-38.515 63.474)" fill="#d1d4e2"/>
      <path id="Path_1769" data-name="Path 1769" d="M45.723,219.036a2.594,2.594,0,0,1-2.594-2.594V205.736a27.879,27.879,0,0,1,5.231-16.2A30.9,30.9,0,0,1,59.3,179.621a13.027,13.027,0,0,1,6.4-1.7,13.32,13.32,0,0,1,4.525.8,9.826,9.826,0,0,1,6.291,8.983v12.448a2.592,2.592,0,1,1-5.185,0v-10.7c0-3.368-1.165-5.333-3.562-6a6.464,6.464,0,0,0-1.727-.225,11.688,11.688,0,0,0-5.68,1.76,25.833,25.833,0,0,0-7.9,7.556A24.3,24.3,0,0,0,48.312,204.4v12.044a2.6,2.6,0,0,1-2.589,2.594" transform="translate(-36.987 58.917)" fill="#717795"/>
      <g id="Group_762" data-name="Group 762" transform="translate(-63.069 175.775)">
        <path id="Path_1763" data-name="Path 1763" d="M306.492,81.175,252.2,112.519c-2.314,1.336-4.188-.082-4.188-3.166V48.162c0-3.084,1.874-6.666,4.188-8L306.492,8.816c2.314-1.336,4.188.082,4.188,3.166V73.172c0,3.086-1.874,6.668-4.188,8" transform="translate(3.577 -35.571)" fill="#ff9800"/>
        <path id="Path_1764" data-name="Path 1764" d="M311.177,9.691a3,3,0,0,0-2.154.451l-.408.235-53.883,31.1c-2.312,1.337-4.186,4.923-4.186,8v61.191a3.865,3.865,0,0,0,1.282,3.28l-6-3.655c-.941-.48-1.544-1.69-1.544-3.438V45.672c0-3.086,1.876-6.666,4.188-8L301.531,7a4.1,4.1,0,0,1,3.695-.364Z" transform="translate(1.047 -36.894)" fill="#d1d4e2"/>
        <path id="Path_1770" data-name="Path 1770" d="M269.744,53.859l-7.594,4.384,10.66,9.593,9.551-21.261-6.814,3.935V27.494l-5.8,3.71Z" transform="translate(13.159 -22.568)" fill="#fff"/>
      </g>
    </g>
  </g>
</svg>
