<svg xmlns="http://www.w3.org/2000/svg" width="126.424" height="123.699" viewBox="0 0 126.424 123.699">
  <g id="Group_292" data-name="Group 292" transform="translate(-756.718 -2090.27)">
    <path id="Path_509" data-name="Path 509" d="M111.181,115.008H-5.21A4.794,4.794,0,0,1-10,110.22V32.757a4.794,4.794,0,0,1,4.79-4.788H111.181a4.8,4.8,0,0,1,4.789,4.788V110.22A4.794,4.794,0,0,1,111.181,115.008ZM-5.21,31.837a.922.922,0,0,0-.922.92V110.22a.923.923,0,0,0,.922.921H111.181a.922.922,0,0,0,.921-.921V32.757a.922.922,0,0,0-.921-.92Z" transform="translate(766.718 2062.301)" fill="#d1d4e2"/>
    <path id="Path_511" data-name="Path 511" d="M114.036,367.755H60.979a7.655,7.655,0,0,0-14.814,0H-8.066A1.934,1.934,0,0,0-10,369.689a1.934,1.934,0,0,0,1.934,1.934H46.165a7.655,7.655,0,0,0,14.814,0h53.057a1.934,1.934,0,0,0,0-3.868Zm-60.464,5.722a3.788,3.788,0,1,1,3.788-3.788A3.792,3.792,0,0,1,53.571,373.476Z" transform="translate(767.172 1836.624)" fill="#d1d4e2"/>
    <path id="Icon_awesome-play" data-name="Icon awesome-play" d="M25.222,12.76,4.3.393A2.837,2.837,0,0,0,0,2.847V27.575A2.85,2.85,0,0,0,4.3,30.03L25.222,17.669A2.85,2.85,0,0,0,25.222,12.76Z" transform="translate(786.869 2118.573)" fill="#ff9800"/>
    <g id="live-streaming" transform="translate(822.125 2109.32)">
      <path id="Path_515" data-name="Path 515" d="M41.838,26.792a2.414,2.414,0,0,0-.694,3.342,9.615,9.615,0,0,1,0,10.561,2.414,2.414,0,1,0,4.036,2.649,14.441,14.441,0,0,0,0-15.858,2.414,2.414,0,0,0-3.342-.694Z" transform="translate(-40.748 -10.945)" fill="#1f2649"/>
      <path id="Path_516" data-name="Path 516" d="M48.837,21.669a2.414,2.414,0,0,0-.694,3.342,24.614,24.614,0,0,1,0,27.047,2.414,2.414,0,1,0,4.036,2.649,29.44,29.44,0,0,0,0-32.348A2.413,2.413,0,0,0,48.837,21.669Z" transform="translate(-36.484 -14.066)" fill="#1f2649"/>
      <path id="Path_517" data-name="Path 517" d="M60.712,17.882a2.415,2.415,0,0,0-4.036,2.652,37.727,37.727,0,0,1,0,41.46,2.414,2.414,0,1,0,4.036,2.649A42.553,42.553,0,0,0,60.712,17.882Z" transform="translate(-31.286 -16.794)" fill="#1f2649"/>
    </g>
    <path id="Line_35" data-name="Line 35" d="M2.218,24.138H-1V0H2.218Z" transform="translate(819.548 2175.926)" fill="#d1d4e2"/>
  </g>
</svg>
