<svg width="181" height="40" viewBox="0 0 181 40" fill="none" xmlns="http://www.w3.org/2000/svg">
<path fill-rule="evenodd" clip-rule="evenodd" d="M167.657 28.4342C167.019 28.7691 165.596 29.219 163.775 29.219C159.704 29.219 157.046 26.4563 157.046 22.3227C157.046 18.1682 159.892 15.1543 164.298 15.1543C165.753 15.1543 167.029 15.5206 167.699 15.8554L167.145 17.7496C166.559 17.4147 165.638 17.1112 164.298 17.1112C161.201 17.1112 159.526 19.403 159.526 22.2181C159.526 25.3471 161.535 27.2726 164.214 27.2726C165.606 27.2726 166.527 26.9063 167.228 26.6028L167.657 28.4342ZM151.541 27.4819C151.541 26.4458 152.243 25.7238 153.216 25.7238C154.189 25.7238 154.859 26.4458 154.859 27.4819C154.859 28.4865 154.22 29.24 153.184 29.24C152.211 29.24 151.541 28.4865 151.541 27.4819ZM175.244 19.56L169.133 27.5133V28.947H180.1V26.9901H172.199V26.9377C172.806 26.2366 173.371 25.5668 173.926 24.8134L179.953 16.9752L179.985 15.4369H169.687V17.4147H177.002V17.467C176.385 18.1891 175.83 18.8379 175.244 19.56Z" fill="white"/>
<path fill-rule="evenodd" clip-rule="evenodd" d="M115.731 5.16038C115.731 6.7615 114.548 8.04868 112.612 8.04868C110.791 8.04868 109.609 6.75104 109.609 5.16038C109.609 3.48601 110.791 2.23022 112.685 2.23022C114.559 2.23022 115.699 3.48601 115.731 5.16038ZM105.193 32.3585C106.71 32.2434 107.893 31.8981 108.615 31.1446C109.452 30.2655 109.755 28.79 109.755 25.0959V10.3405H115.574V26.4668C115.574 30.5376 114.663 33.0073 112.947 34.6085C111.231 36.2096 108.531 36.8898 105.758 36.8898L105.193 32.3585ZM47.8243 19.4239C47.8243 26.2365 42.9896 29.3551 38.0083 29.3551C32.5666 29.3551 28.3807 25.7761 28.3807 19.7693C28.3807 13.7624 32.3364 9.91139 38.3118 9.91139C44.0151 9.92185 47.8243 13.8357 47.8243 19.4239ZM34.3561 19.6227C34.3561 22.8145 35.6851 25.211 38.1653 25.211C40.4048 25.211 41.8594 22.961 41.8594 19.6227C41.8594 16.8495 40.792 14.0345 38.1653 14.0345C35.3816 14.024 34.3561 16.8809 34.3561 19.6227ZM1.03602 23.882C2.10343 24.5308 4.31152 25.2947 6.01729 25.2947C7.76492 25.2947 8.48699 24.6878 8.48699 23.7355C8.48699 22.7832 7.91142 22.3227 5.7452 21.6006C1.9046 20.303 0.418594 18.21 0.460453 16.0124C0.460453 12.5485 3.43247 9.92186 8.02654 9.92186C10.1928 9.92186 12.1392 10.4137 13.2799 10.9893L12.2543 14.9868C11.4171 14.5264 9.81603 13.9194 8.22537 13.9194C6.82308 13.9194 6.01729 14.495 6.01729 15.4368C6.01729 16.3159 6.73936 16.7659 9.0207 17.5717C12.5578 18.7856 14.0438 20.5751 14.0752 23.3169C14.0752 26.7807 11.3334 29.3237 6.00682 29.3237C3.56851 29.3237 1.40229 28.79 0 28.026L1.03602 23.882ZM16.4403 16.4624C16.4403 13.7206 16.367 11.9311 16.2833 10.3405H21.2646L21.4529 13.7625H21.6099C22.5622 11.0625 24.8435 9.92186 26.633 9.92186C27.1667 9.92186 27.4284 9.92186 27.847 9.99511V15.4368C27.4284 15.3636 26.9365 15.2799 26.2877 15.2799C24.1529 15.2799 22.7087 16.4205 22.332 18.21C22.2587 18.5868 22.2169 19.0472 22.2169 19.5077V28.947H16.4298V16.4624H16.4403ZM54.2184 10.3405L56.7299 18.974C57.1904 20.5332 57.5253 22.0192 57.7973 23.5053H57.9125C58.2159 21.9879 58.5194 20.5751 58.938 18.974L61.3345 10.3405H67.425L60.4973 28.947H54.7102L47.9395 10.3405H54.2184ZM68.7854 10.3405C68.8691 11.973 68.9424 13.9508 68.9424 16.274H68.9215V28.9365H74.7085V18.21C74.7085 17.6763 74.7818 17.1112 74.9387 16.7659C75.3155 15.6985 76.2678 14.5996 77.8689 14.5996C79.9619 14.5996 80.7991 16.2322 80.7991 18.6286V28.9365H86.5861V17.9065C86.5861 12.4334 83.7397 9.92186 79.9305 9.92186C76.8433 9.92186 74.9492 11.7113 74.1853 12.8939H74.0702L73.8085 10.3405H68.7854ZM99.7928 25.0226C97.0929 25.0226 94.7278 23.882 94.5394 21.4855V21.475H106.543C106.616 21.0564 106.731 20.1879 106.731 19.1937C106.731 14.5892 104.439 9.91139 98.4324 9.91139C91.9651 9.91139 89.0349 15.1229 89.0349 19.8425C89.0349 25.661 92.6558 29.3132 98.9661 29.3132C101.478 29.3132 103.79 28.9365 105.695 28.1725L104.931 24.2587C103.372 24.761 101.771 25.0226 99.7928 25.0226ZM98.0765 13.7625C100.745 13.7625 101.352 16.1276 101.352 17.5298H94.4976C94.6545 15.9706 95.6382 13.7625 98.0765 13.7625Z" fill="white"/>
<path fill-rule="evenodd" clip-rule="evenodd" d="M125.432 10.3405V5.01392L119.77 6.30109V10.3405H117.3V14.5892H119.77V22.1972C119.77 24.8239 120.304 26.6134 121.371 27.7122C122.282 28.6645 123.841 29.3133 125.704 29.3133C127.336 29.3133 128.707 29.1249 129.471 28.8214L129.429 24.4471C129.011 24.5309 128.435 24.6041 127.713 24.6041C125.965 24.6041 125.432 23.5786 125.432 21.3286V14.5997H129.576V10.3405H125.432ZM140.239 9.92185C134.871 9.92185 130.518 14.2752 130.518 19.6437C130.518 25.0122 134.871 29.3655 140.239 29.3655C145.608 29.3655 149.961 25.0122 149.961 19.6437C149.961 14.2752 145.608 9.92185 140.239 9.92185ZM144.687 19.6437C144.687 20.1491 144.011 20.6546 143.556 20.9945C143.474 21.0557 143.399 21.1116 143.337 21.1611C142.236 22.0228 140.294 23.1822 138.914 24.0064L138.914 24.0065L138.544 24.2273C137.173 24.2273 136.755 20.4809 136.755 19.6437V19.6332C136.755 18.7542 137.173 15.0496 138.544 15.0496L138.914 15.2705C140.294 16.0947 142.236 17.2542 143.337 18.1158C143.399 18.1654 143.474 18.2212 143.556 18.2825C144.011 18.6224 144.687 19.1278 144.687 19.6332V19.6437Z" fill="white"/>
</svg>
