<svg id="Vrstva_1-2" xmlns="http://www.w3.org/2000/svg" width="156.067" height="44.324" viewBox="0 0 156.067 44.324">
  <path id="Path_9" data-name="Path 9" d="M70.842,31.02a5.538,5.538,0,0,1-2.08,4.518,9.1,9.1,0,0,1-5.738,1.65A12.7,12.7,0,0,1,57,35.9v-4.16A20.222,20.222,0,0,0,60.658,33.1a11.352,11.352,0,0,0,2.725.359,3.792,3.792,0,0,0,2.3-.574,1.858,1.858,0,0,0,.789-1.65,1.762,1.762,0,0,0-.359-1.076,4.093,4.093,0,0,0-1-.932c-.861-.5-1.793-1-2.725-1.434a15.039,15.039,0,0,1-2.941-1.721,8.128,8.128,0,0,1-1.578-1.936,5.434,5.434,0,0,1-.574-2.582,5.439,5.439,0,0,1,1.936-4.375A7.87,7.87,0,0,1,64.459,15.6a15.194,15.194,0,0,1,3.156.359,23.346,23.346,0,0,1,3.156,1.076l-1.434,3.514c-.932-.359-1.865-.717-2.8-1a7.4,7.4,0,0,0-2.152-.287,2.7,2.7,0,0,0-1.936.574,2.175,2.175,0,0,0-.43,2.582,2.472,2.472,0,0,0,.861.861A21.857,21.857,0,0,0,65.75,24.78a11.733,11.733,0,0,1,4.088,2.869A5.078,5.078,0,0,1,70.842,31.02Z" transform="translate(-16.119 -4.411)" fill="#1f2649"/>
  <path id="Path_10" data-name="Path 10" d="M87.335,34.3a9.585,9.585,0,0,0,2.8-.5v3.3a9.844,9.844,0,0,1-4.088.717,4.8,4.8,0,0,1-3.873-1.363,5.971,5.971,0,0,1-1.219-4.016V24.614H78.8V22.749l2.439-1.506L82.53,17.8H85.4v3.443h4.518v3.3H85.4V32.36a1.636,1.636,0,0,0,.5,1.363A1.943,1.943,0,0,0,87.335,34.3Z" transform="translate(-22.283 -5.034)" fill="#1f2649"/>
  <path id="Path_11" data-name="Path 11" d="M113.532,30.591a8.664,8.664,0,0,1-2.08,6.168,7.613,7.613,0,0,1-5.809,2.223,8.039,8.039,0,0,1-4.088-1,6.368,6.368,0,0,1-2.725-2.941,9.545,9.545,0,0,1-.932-4.447,8.785,8.785,0,0,1,2.08-6.168,7.413,7.413,0,0,1,5.809-2.223,8.039,8.039,0,0,1,4.088,1,6.368,6.368,0,0,1,2.725,2.941A12.048,12.048,0,0,1,113.532,30.591Zm-11.189,0a7.183,7.183,0,0,0,.789,3.658,2.839,2.839,0,0,0,2.582,1.219,2.652,2.652,0,0,0,2.51-1.219,7.183,7.183,0,0,0,.789-3.658,6.921,6.921,0,0,0-.789-3.586,3.3,3.3,0,0,0-4.662-.43l-.43.43A5.863,5.863,0,0,0,102.343,30.591Z" transform="translate(-27.681 -6.278)" fill="#1f2649"/>
  <path id="Path_12" data-name="Path 12" d="M133.737,22.3a5.37,5.37,0,0,1,1.506.143l-.359,4.16a7.9,7.9,0,0,0-1.291-.143,4.6,4.6,0,0,0-3.3,1.076,3.991,3.991,0,0,0-1.148,3.012V38.8H124.7V22.587h3.371l.645,2.725h.215a6.613,6.613,0,0,1,2.008-2.223A5.49,5.49,0,0,1,133.737,22.3Z" transform="translate(-35.263 -6.306)" fill="#1f2649"/>
  <path id="Path_13" data-name="Path 13" d="M157.96,38.793h-4.447V29.326a4.813,4.813,0,0,0-.574-2.654,2.123,2.123,0,0,0-1.865-.861,2.678,2.678,0,0,0-2.439,1.219,8.375,8.375,0,0,0-.789,4.088v7.6H143.4V22.584h3.371l.574,2.08h.287a3.942,3.942,0,0,1,1.865-1.721,6.39,6.39,0,0,1,2.8-.645q3.658,0,4.949,2.367h.359a3.8,3.8,0,0,1,1.936-1.721,6.47,6.47,0,0,1,2.869-.645,5.9,5.9,0,0,1,4.16,1.434A6.2,6.2,0,0,1,168,28.25V38.793h-4.447V29.326a4.952,4.952,0,0,0-.574-2.654,2.123,2.123,0,0,0-1.865-.861,2.774,2.774,0,0,0-2.439,1.148,5.974,5.974,0,0,0-.789,3.658Z" transform="translate(-40.551 -6.303)" fill="#1f2649"/>
  <path id="Path_14" data-name="Path 14" d="M184.6,36.958V15.8h4.518V36.958Z" transform="translate(-52.201 -4.468)" fill="#1f2649"/>
  <path id="Path_15" data-name="Path 15" d="M205.556,36.958h-4.518V19.53H195.3V15.8h15.994v3.73h-5.738Z" transform="translate(-55.227 -4.468)" fill="#1f2649"/>
  <path id="Path_16" data-name="Path 16" d="M20.8,15.922H12.982A1.592,1.592,0,0,0,11.4,17.5h0a1.592,1.592,0,0,0,1.578,1.578H32.418l-20.8,25.246L11.4,28.4h7.818A1.592,1.592,0,0,0,20.8,26.824h0a1.592,1.592,0,0,0-1.578-1.578H0L20.8,0Z" fill="#ff9800"/>
</svg>
