<svg id="Component_16_1" data-name="Component 16 – 1" xmlns="http://www.w3.org/2000/svg" width="58" height="52" viewBox="0 0 58 52">
  <g id="Rectangle_204" data-name="Rectangle 204" fill="none" stroke="#d1d4e2" stroke-width="2">
    <rect width="58" height="52" rx="3" stroke="none"/>
    <rect x="1" y="1" width="56" height="50" rx="2" fill="none"/>
  </g>
  <path id="Path_610" data-name="Path 610" d="M10318.25,4313.2l9.775-11.812,9.139,6.7,12.879-13.948,8.4,7.253,10.129-17.816" transform="translate(-10312.057 -4262.568)" fill="none" stroke="#d1d4e2" stroke-width="2"/>
  <path id="Icon_ionic-md-eye" data-name="Icon ionic-md-eye" d="M15.029,7.383A13.742,13.742,0,0,0,2.25,16a13.786,13.786,0,0,0,25.559,0A13.742,13.742,0,0,0,15.029,7.383Zm0,14.36A5.745,5.745,0,1,1,20.837,16,5.793,5.793,0,0,1,15.029,21.742Zm0-9.191A3.446,3.446,0,1,0,18.515,16,3.477,3.477,0,0,0,15.029,12.552Z" transform="translate(14.228 1.388)" fill="#ff9800"/>
</svg>
