<svg xmlns="http://www.w3.org/2000/svg" width="78.564" height="76.871" viewBox="0 0 78.564 76.871">
  <g id="Group_292" data-name="Group 292" transform="translate(-756.718 -2090.27)">
    <path id="Path_509" data-name="Path 509" d="M65.306,82.058H-7.024A2.979,2.979,0,0,1-10,79.083V30.945a2.979,2.979,0,0,1,2.976-2.976h72.33a2.98,2.98,0,0,1,2.976,2.976V79.083A2.979,2.979,0,0,1,65.306,82.058ZM-7.024,30.373a.573.573,0,0,0-.573.572V79.083a.573.573,0,0,0,.573.572h72.33a.573.573,0,0,0,.572-.572V30.945a.573.573,0,0,0-.572-.572Z" transform="translate(766.718 2062.301)" fill="#d1d4e2"/>
    <path id="Path_511" data-name="Path 511" d="M67.081,365.589H34.109a4.757,4.757,0,0,0-9.206,0H-8.8a1.2,1.2,0,0,0-1.2,1.2,1.2,1.2,0,0,0,1.2,1.2H24.9a4.757,4.757,0,0,0,9.206,0H67.081a1.2,1.2,0,0,0,0-2.4Zm-37.575,3.556a2.354,2.354,0,1,1,2.354-2.354A2.357,2.357,0,0,1,29.506,369.144Z" transform="translate(767 1795.593)" fill="#d1d4e2"/>
    <path id="Icon_awesome-play" data-name="Icon awesome-play" d="M15.674,7.93,2.674.245A1.763,1.763,0,0,0,0,1.77V17.137a1.771,1.771,0,0,0,2.674,1.525l13-7.682A1.771,1.771,0,0,0,15.674,7.93Z" transform="translate(775.455 2107.857)" fill="#ff9800"/>
    <g id="live-streaming" transform="translate(756.617 2085.314)">
      <path id="Path_515" data-name="Path 515" d="M41.425,26.642a1.5,1.5,0,0,0-.431,2.077,5.975,5.975,0,0,1,0,6.563A1.5,1.5,0,1,0,43.5,36.928a8.974,8.974,0,0,0,0-9.855,1.5,1.5,0,0,0-2.077-.431Z" fill="#1f2649"/>
      <path id="Path_516" data-name="Path 516" d="M48.424,21.519a1.5,1.5,0,0,0-.431,2.077,15.3,15.3,0,0,1,0,16.808A1.5,1.5,0,1,0,50.5,42.05a18.3,18.3,0,0,0,0-20.1A1.5,1.5,0,0,0,48.424,21.519Z" fill="#1f2649"/>
      <path id="Path_517" data-name="Path 517" d="M59.034,17.47a1.5,1.5,0,0,0-2.508,1.648,23.445,23.445,0,0,1,0,25.765,1.5,1.5,0,1,0,2.508,1.646A26.444,26.444,0,0,0,59.034,17.47Z" fill="#1f2649"/>
    </g>
    <line id="Line_35" data-name="Line 35" y1="15" transform="translate(796.141 2143.5)" fill="none" stroke="#d1d4e2" stroke-width="2"/>
  </g>
</svg>
