<svg xmlns="http://www.w3.org/2000/svg" width="91.414" height="86.53" viewBox="0 0 91.414 86.53">
  <g id="Group_1692" data-name="Group 1692" transform="translate(-205 -1471.873)">
    <path id="Subtraction_5" data-name="Subtraction 5" d="M-4707.236,52.4h-13.726a3.7,3.7,0,0,1-3.694-3.7V45.013h-4.983l.528,2.111h2.344a1.057,1.057,0,0,1,1.056,1.056v3.168a1.057,1.057,0,0,1-1.056,1.056h-19a1.057,1.057,0,0,1-1.056-1.056V48.18a1.057,1.057,0,0,1,1.056-1.056h2.342l.528-2.111h-9.205v3.695a3.7,3.7,0,0,1-3.694,3.7h-9.5a3.706,3.706,0,0,1-3.7-3.7V30.759a3.706,3.706,0,0,1,3.7-3.695h.526V10.7a3.708,3.708,0,0,1,3.7-3.7h9.04V9.116h-9.04a1.585,1.585,0,0,0-1.583,1.583V27.065h6.863a3.7,3.7,0,0,1,3.694,3.695v5.807h27.452V24.426a3.7,3.7,0,0,1,3.694-3.7h11.085V10.7a1.585,1.585,0,0,0-1.583-1.583h-26.581V7h26.581a3.7,3.7,0,0,1,3.695,3.7V20.73h.529a3.706,3.706,0,0,1,3.695,3.7V48.707A3.706,3.706,0,0,1-4707.236,52.4Zm-13.726-29.562a1.589,1.589,0,0,0-1.583,1.585V48.707a1.589,1.589,0,0,0,1.583,1.585h13.726a1.587,1.587,0,0,0,1.583-1.585V24.426a1.587,1.587,0,0,0-1.583-1.585h-2.935l-.815,2.445a1.055,1.055,0,0,1-1,.723h-4.223a1.055,1.055,0,0,1-1-.723l-.816-2.445Zm-23.755,26.4v1.056h16.893V49.236ZM-4765.3,29.176a1.589,1.589,0,0,0-1.584,1.583V48.707a1.589,1.589,0,0,0,1.584,1.585h9.5a1.589,1.589,0,0,0,1.583-1.585V30.759a1.589,1.589,0,0,0-1.583-1.583h-.822l-.816,2.445a1.053,1.053,0,0,1-1,.722h-4.224a1.054,1.054,0,0,1-1-.722l-.816-2.445Zm24.58,15.837-.529,2.111h9.964l-.526-2.111h-8.908Zm-11.384-6.335V42.9h27.452V38.678Zm-10.148-9.5.353,1.056h2.7l.352-1.056h-3.4Zm46.454-6.335.353,1.056h2.7l.352-1.056h-3.405Zm3.814,26.4h-4.223a1.057,1.057,0,0,1-1.057-1.056,1.058,1.058,0,0,1,1.057-1.057h4.223a1.057,1.057,0,0,1,1.056,1.057A1.057,1.057,0,0,1-4711.988,49.236Zm-46.454,0h-4.224a1.057,1.057,0,0,1-1.056-1.056,1.057,1.057,0,0,1,1.056-1.057h4.224a1.057,1.057,0,0,1,1.056,1.057A1.057,1.057,0,0,1-4758.441,49.236Zm23.226-7.391h-2.111a1.056,1.056,0,0,1-1.055-1.056,1.056,1.056,0,0,1,1.055-1.056h2.111a1.057,1.057,0,0,1,1.056,1.056A1.057,1.057,0,0,1-4735.215,41.846Z" transform="translate(4999.955 1506)" fill="#d1d4e2"/>
    <g id="speedometer" transform="translate(205 1436.719)">
      <path id="Path_488" data-name="Path 488" d="M104.993,35.154a31.623,31.623,0,0,0-19.319,8.005L94,51.485a19.954,19.954,0,0,1,10.994-4.555Z" transform="translate(-75.017)" fill="#ff9800"/>
      <path id="Path_489" data-name="Path 489" d="M16.352,129.047l-8.325-8.325a31.62,31.62,0,0,0-8.015,19.32H11.787A19.957,19.957,0,0,1,16.352,129.047Z" transform="translate(-0.01 -74.925)" fill="#ff9800"/>
      <path id="Path_490" data-name="Path 490" d="M385.176,140.042h11.776a31.619,31.619,0,0,0-8.015-19.32l-8.325,8.325A19.957,19.957,0,0,1,385.176,140.042Z" transform="translate(-333.271 -74.925)" fill="#ff9800"/>
      <path id="Path_491" data-name="Path 491" d="M402.552,306.055a19.871,19.871,0,0,1-2.052,7.193c.946,1.459,1.735,2.692,2.256,3.511a5.6,5.6,0,0,1-2.3,8.052l1.939,1.939a1.869,1.869,0,0,0,2.643,0,31.66,31.66,0,0,0,9.292-20.7Z" transform="translate(-350.649 -237.206)" fill="#ff9800"/>
      <path id="Path_492" data-name="Path 492" d="M11.78,306.055H0a31.66,31.66,0,0,0,9.292,20.7,1.869,1.869,0,0,0,2.643,0l5.661-5.661a1.869,1.869,0,0,0,0-2.643,20.028,20.028,0,0,1-5.815-12.391Z" transform="translate(0 -237.206)" fill="#ff9800"/>
      <path id="Path_493" data-name="Path 493" d="M290.319,43.159A31.622,31.622,0,0,0,271,35.154V46.929a19.955,19.955,0,0,1,10.994,4.555Z" transform="translate(-237.293)" fill="#ff9800"/>
      <path id="Path_494" data-name="Path 494" d="M218.9,245.909a5.862,5.862,0,0,0-8.291,8.291c2.888,2.888,17.079,11.949,18.687,12.972a1.866,1.866,0,0,0,2.576-2.576C230.845,262.987,221.784,248.8,218.9,245.909Z" transform="translate(-182.909 -183.04)" fill="#1f2649"/>
    </g>
  </g>
</svg>
