<svg id="Component_27_1" data-name="Component 27 – 1" xmlns="http://www.w3.org/2000/svg" width="91" height="77.697" viewBox="0 0 91 77.697">
  <g id="Rectangle_258" data-name="Rectangle 258" fill="none" stroke="#d1d4e2" stroke-width="2">
    <rect width="91" height="62" rx="4" stroke="none"/>
    <rect x="1" y="1" width="89" height="60" rx="3" fill="none"/>
  </g>
  <rect id="Rectangle_260" data-name="Rectangle 260" width="10.5" height="38" rx="2" transform="translate(6 17)" fill="#1f2649"/>
  <g id="Rectangle_259" data-name="Rectangle 259" fill="none" stroke="#d1d4e2" stroke-width="2">
    <rect width="91" height="12" rx="4" stroke="none"/>
    <rect x="1" y="1" width="89" height="10" rx="3" fill="none"/>
  </g>
  <line id="Line_104" data-name="Line 104" x2="6" transform="translate(7.5 6)" fill="none" stroke="#d1d4e2" stroke-linecap="round" stroke-width="2"/>
  <line id="Line_105" data-name="Line 105" x2="6" transform="translate(18.5 6)" fill="none" stroke="#d1d4e2" stroke-linecap="round" stroke-width="2"/>
  <line id="Line_106" data-name="Line 106" x2="6" transform="translate(29.5 6)" fill="none" stroke="#d1d4e2" stroke-linecap="round" stroke-width="2"/>
  <line id="Line_107" data-name="Line 107" x2="20" transform="translate(23 19.697)" fill="none" stroke="#d1d4e2" stroke-width="2"/>
  <line id="Line_114" data-name="Line 114" x2="20" transform="translate(50 19.697)" fill="none" stroke="#d1d4e2" stroke-width="2"/>
  <line id="Line_118" data-name="Line 118" x2="7" transform="translate(77 19.697)" fill="none" stroke="#d1d4e2" stroke-width="2"/>
  <line id="Line_122" data-name="Line 122" x2="7" transform="translate(77 39.697)" fill="none" stroke="#d1d4e2" stroke-width="2"/>
  <line id="Line_110" data-name="Line 110" x2="20" transform="translate(23 29.697)" fill="none" stroke="#d1d4e2" stroke-width="2"/>
  <line id="Line_112" data-name="Line 112" x2="20" transform="translate(50 29.697)" fill="none" stroke="#d1d4e2" stroke-width="2"/>
  <line id="Line_116" data-name="Line 116" x2="7" transform="translate(77 29.697)" fill="none" stroke="#d1d4e2" stroke-width="2"/>
  <line id="Line_120" data-name="Line 120" x2="7" transform="translate(77 49.697)" fill="none" stroke="#d1d4e2" stroke-width="2"/>
  <line id="Line_108" data-name="Line 108" x2="20" transform="translate(23 24.697)" fill="none" stroke="#d1d4e2" stroke-width="2"/>
  <line id="Line_113" data-name="Line 113" x2="20" transform="translate(50 24.697)" fill="none" stroke="#d1d4e2" stroke-width="2"/>
  <line id="Line_117" data-name="Line 117" x2="7" transform="translate(77 24.697)" fill="none" stroke="#d1d4e2" stroke-width="2"/>
  <line id="Line_121" data-name="Line 121" x2="7" transform="translate(77 44.697)" fill="none" stroke="#d1d4e2" stroke-width="2"/>
  <line id="Line_109" data-name="Line 109" x2="20" transform="translate(23 34.697)" fill="none" stroke="#d1d4e2" stroke-width="2"/>
  <line id="Line_111" data-name="Line 111" x2="20" transform="translate(50 34.697)" fill="none" stroke="#d1d4e2" stroke-width="2"/>
  <line id="Line_123" data-name="Line 123" x2="20" transform="translate(50 39.697)" fill="none" stroke="#d1d4e2" stroke-width="2"/>
  <line id="Line_115" data-name="Line 115" x2="7" transform="translate(77 34.697)" fill="none" stroke="#d1d4e2" stroke-width="2"/>
  <line id="Line_119" data-name="Line 119" x2="7" transform="translate(77 54.697)" fill="none" stroke="#d1d4e2" stroke-width="2"/>
  <path id="Polygon_1" data-name="Polygon 1" d="M25.409,4.442a3,3,0,0,1,5.183,0L53.368,43.488A3,3,0,0,1,50.777,48H5.223a3,3,0,0,1-2.591-4.512Z" transform="translate(18 29.697)" fill="#ff9800"/>
  <g id="beetle" transform="translate(-7.794 47.075)">
    <path id="Path_1007" data-name="Path 1007" d="M61.373,14.695l1.508,4.118L64.27,18.3l-1.864-5.089H59.141a2.218,2.218,0,0,0-.446-.759,2.209,2.209,0,0,0,.56-1.317h3.374v-6.9H61.15V9.661H59.107a5.02,5.02,0,0,0-4.586-3.77V2.219a.74.74,0,0,1,.74-.74h1.824V0H55.261a2.209,2.209,0,0,0-1.479.567A2.209,2.209,0,0,0,52.3,0H50.479V1.479H52.3a.74.74,0,0,1,.74.74V5.891a5.02,5.02,0,0,0-4.586,3.77H46.415V4.243H44.936v6.9H48.31a2.21,2.21,0,0,0,.56,1.317,2.221,2.221,0,0,0-.446.759H45.159L43.3,18.3l1.389.509,1.508-4.118H48.3v3.9l-2.382.986v5.666H47.4V20.567l1.078-.446a5.019,5.019,0,0,0,4.834,3.694h.938a5.019,5.019,0,0,0,4.834-3.694l1.078.446v4.677h1.479V19.578l-2.382-.986v-3.9h2.112Zm-11.59-3.8a3.535,3.535,0,0,1,3.531-3.531h.938a3.535,3.535,0,0,1,3.531,3.531v.084a.74.74,0,0,1-.74.74h-6.52a.74.74,0,0,1-.74-.74Zm8,7.912a3.535,3.535,0,0,1-3.531,3.531h-.938A3.535,3.535,0,0,1,49.783,18.8V13.936a.74.74,0,0,1,.74-.74h6.52a.74.74,0,0,1,.74.74Z" fill="#fff"/>
  </g>
</svg>
